<?xml version="1.0" encoding="utf-8"?>
<!-- Generator: Adobe Illustrator 24.1.1, SVG Export Plug-In . SVG Version: 6.00 Build 0)  -->
<svg version="1.1" id="Laag_1" xmlns="http://www.w3.org/2000/svg" xmlns:xlink="http://www.w3.org/1999/xlink" x="0px" y="0px"
	 viewBox="0 0 226.8 226.8" style="enable-background:new 0 0 226.8 226.8;" xml:space="preserve">
<style type="text/css">
	.st0{fill:none;stroke:#284735;stroke-width:1.5;stroke-linecap:round;stroke-linejoin:round;}
	.st1{fill:none;stroke:#284735;stroke-width:0.75;stroke-linecap:round;stroke-linejoin:round;}
	.st2{fill:none;stroke:#284735;stroke-linecap:round;stroke-linejoin:round;}
	.st3{fill:none;stroke:#284735;stroke-width:0.9365;stroke-linecap:round;stroke-linejoin:round;}
	.st4{fill:none;stroke:#284735;stroke-width:0.8849;stroke-linecap:round;stroke-linejoin:round;}
	.st5{fill:none;stroke:#284735;stroke-width:1.7963;stroke-linecap:round;stroke-linejoin:round;}
	.st6{fill:none;stroke:#284735;stroke-width:2;stroke-linecap:round;stroke-linejoin:round;}
	.st7{fill:none;stroke:#284735;stroke-width:1.7966;stroke-linecap:round;stroke-linejoin:round;}
	.st8{fill:none;stroke:#284735;stroke-width:2.097;stroke-linecap:round;stroke-linejoin:round;}
	.st9{fill:none;stroke:#284735;stroke-width:3;stroke-linecap:round;stroke-linejoin:round;}
	.st10{fill:none;stroke:#284735;stroke-width:1.4259;stroke-linecap:round;stroke-linejoin:round;}
	.st11{fill:none;stroke:#004631;stroke-width:5.774;stroke-linecap:round;stroke-linejoin:round;}
	.st12{fill:none;stroke:#284735;stroke-width:0.7126;stroke-linecap:round;stroke-linejoin:round;}
	.st13{fill:none;stroke:#004631;stroke-width:5.5044;stroke-linecap:round;stroke-linejoin:round;}
	.st14{fill:none;stroke:#004631;stroke-width:2.7522;stroke-linecap:round;stroke-linejoin:round;}
	.st15{fill:none;stroke:#004631;stroke-width:5.37;stroke-linecap:round;stroke-linejoin:round;stroke-miterlimit:10;}
	.st16{fill:none;stroke:#004631;stroke-width:5.64;stroke-linecap:round;stroke-linejoin:round;stroke-miterlimit:10;}
	.st17{fill:none;stroke:#004631;stroke-width:5.9173;stroke-linecap:round;stroke-linejoin:round;stroke-miterlimit:10;}
	.st18{fill:none;stroke:#004631;stroke-width:2.9587;stroke-linecap:round;stroke-linejoin:round;stroke-miterlimit:10;}
	.st19{fill:none;stroke:#004631;stroke-width:6.2449;stroke-linecap:round;stroke-linejoin:round;stroke-miterlimit:10;}
	.st20{fill:none;stroke:#004631;stroke-width:6.1755;stroke-linecap:round;stroke-linejoin:round;stroke-miterlimit:10;}
	.st21{fill:none;stroke:#004631;stroke-width:3.0877;stroke-linecap:round;stroke-linejoin:round;stroke-miterlimit:10;}
	.st22{fill:none;stroke:#004631;stroke-width:6.5069;stroke-linecap:round;stroke-linejoin:round;stroke-miterlimit:10;}
	.st23{fill:none;stroke:#004631;stroke-width:5.6084;stroke-linecap:round;stroke-linejoin:round;stroke-miterlimit:10;}
	.st24{fill:none;stroke:#004631;stroke-width:2.8042;stroke-miterlimit:10;}
</style>
<g>
	<path class="st16" d="M76.7,113.4c0,7.2,0.3,14.1,0.8,20.7c0.2,2.6,2.4,4.6,5,4.6h61.8c2.6,0,4.8-2,5-4.6
		c0.5-6.6,0.8-13.5,0.8-20.7c0-7.2-0.3-14.1-0.8-20.7c-0.2-2.6-2.4-4.6-5-4.6H82.4c-2.6,0-4.8,2-5,4.6
		C77,99.3,76.7,106.2,76.7,113.4z"/>
	<path class="st16" d="M79.6,152.8c2.9,18.7,7.9,34,13.8,44.9c4,7.3,11.7,11.9,20,11.9h0h0c8.3,0,16-4.6,20-11.9
		c5.9-10.8,10.8-26.2,13.8-44.9c0-0.1-0.1-0.2-0.2-0.2H79.8C79.6,152.5,79.5,152.7,79.6,152.8z"/>
	<path class="st16" d="M64.1,152.5H27.5c-1.1,0-1.9,1.2-1.4,2.2C36.4,176.7,54.8,194,77.4,203c1.3,0.5,2.6-0.9,1.9-2.1
		c-6.2-12.4-11-28.4-13.8-47C65.5,153.1,64.9,152.5,64.1,152.5z"/>
	<path class="st16" d="M161.1,153.9c-2.8,18.5-7.6,34.6-13.8,47c-0.6,1.3,0.6,2.6,1.9,2.1c22.7-8.9,41.1-26.3,51.4-48.2
		c0.5-1-0.3-2.2-1.4-2.2h-36.6C161.8,152.5,161.2,153.1,161.1,153.9z"/>
	<path class="st16" d="M79.6,74c2.9-18.7,7.9-34,13.8-44.9c4-7.3,11.7-11.9,20-11.9h0h0c8.3,0,16,4.6,20,11.9
		c5.9,10.8,10.8,26.2,13.8,44.9c0,0.1-0.1,0.2-0.2,0.2H79.8C79.6,74.2,79.5,74.1,79.6,74z"/>
	<path class="st16" d="M64.1,74.2H27.5c-1.1,0-1.9-1.2-1.4-2.2c10.3-21.9,28.7-39.3,51.4-48.2c1.3-0.5,2.6,0.9,1.9,2.1
		c-6.2,12.4-11,28.4-13.8,47C65.5,73.7,64.9,74.2,64.1,74.2z"/>
	<path class="st16" d="M161.1,72.9c-2.8-18.5-7.6-34.6-13.8-47c-0.6-1.3,0.6-2.6,1.9-2.1c22.7,8.9,41.1,26.3,51.4,48.2
		c0.5,1-0.3,2.2-1.4,2.2h-36.6C161.8,74.2,161.2,73.7,161.1,72.9z"/>
	<path class="st16" d="M163.9,113.4c0,7.2-0.3,14.3-0.8,21c-0.2,2.3,1.7,4.3,4,4.3h36c1.9,0,3.5-1.3,3.9-3.1
		c1.7-7.1,2.6-14.6,2.6-22.2c0-7.6-0.9-15.1-2.6-22.2c-0.4-1.8-2-3.1-3.9-3.1h-36c-2.3,0-4.1,2-4,4.3
		C163.6,99.1,163.9,106.1,163.9,113.4z"/>
	<path class="st16" d="M62.9,113.4c0,7.2,0.3,14.3,0.8,21c0.2,2.3-1.7,4.3-4,4.3h-36c-1.9,0-3.5-1.3-3.9-3.1
		c-1.7-7.1-2.6-14.6-2.6-22.2c0-7.6,0.9-15.1,2.6-22.2c0.4-1.8,2-3.1,3.9-3.1h36c2.3,0,4.1,2,4,4.3C63.1,99.1,62.9,106.1,62.9,113.4
		z"/>
</g>
</svg>
