<?xml version="1.0" encoding="utf-8"?>
<!-- Generator: Adobe Illustrator 24.1.1, SVG Export Plug-In . SVG Version: 6.00 Build 0)  -->
<svg version="1.1" id="Laag_1" xmlns="http://www.w3.org/2000/svg" xmlns:xlink="http://www.w3.org/1999/xlink" x="0px" y="0px"
	 viewBox="0 0 226.8 226.8" style="enable-background:new 0 0 226.8 226.8;" xml:space="preserve">
<style type="text/css">
	.st0{fill:none;stroke:#284735;stroke-width:1.5;stroke-linecap:round;stroke-linejoin:round;}
	.st1{fill:none;stroke:#284735;stroke-width:0.75;stroke-linecap:round;stroke-linejoin:round;}
	.st2{fill:none;stroke:#284735;stroke-linecap:round;stroke-linejoin:round;}
	.st3{fill:none;stroke:#284735;stroke-width:0.9365;stroke-linecap:round;stroke-linejoin:round;}
	.st4{fill:none;stroke:#284735;stroke-width:0.8849;stroke-linecap:round;stroke-linejoin:round;}
	.st5{fill:none;stroke:#284735;stroke-width:1.7963;stroke-linecap:round;stroke-linejoin:round;}
	.st6{fill:none;stroke:#284735;stroke-width:2;stroke-linecap:round;stroke-linejoin:round;}
	.st7{fill:none;stroke:#284735;stroke-width:1.7966;stroke-linecap:round;stroke-linejoin:round;}
	.st8{fill:none;stroke:#284735;stroke-width:2.097;stroke-linecap:round;stroke-linejoin:round;}
	.st9{fill:none;stroke:#284735;stroke-width:3;stroke-linecap:round;stroke-linejoin:round;}
	.st10{fill:none;stroke:#284735;stroke-width:1.4259;stroke-linecap:round;stroke-linejoin:round;}
	.st11{fill:none;stroke:#004631;stroke-width:5.774;stroke-linecap:round;stroke-linejoin:round;}
	.st12{fill:none;stroke:#284735;stroke-width:0.7126;stroke-linecap:round;stroke-linejoin:round;}
	.st13{fill:none;stroke:#004631;stroke-width:5.5044;stroke-linecap:round;stroke-linejoin:round;}
	.st14{fill:none;stroke:#004631;stroke-width:2.7522;stroke-linecap:round;stroke-linejoin:round;}
	.st15{fill:none;stroke:#004631;stroke-width:5.37;stroke-linecap:round;stroke-linejoin:round;stroke-miterlimit:10;}
	.st16{fill:none;stroke:#004631;stroke-width:5.64;stroke-linecap:round;stroke-linejoin:round;stroke-miterlimit:10;}
	.st17{fill:none;stroke:#004631;stroke-width:5.9173;stroke-linecap:round;stroke-linejoin:round;stroke-miterlimit:10;}
	.st18{fill:none;stroke:#004631;stroke-width:2.9587;stroke-linecap:round;stroke-linejoin:round;stroke-miterlimit:10;}
	.st19{fill:none;stroke:#004631;stroke-width:6.2449;stroke-linecap:round;stroke-linejoin:round;stroke-miterlimit:10;}
	.st20{fill:none;stroke:#004631;stroke-width:6.1755;stroke-linecap:round;stroke-linejoin:round;stroke-miterlimit:10;}
	.st21{fill:none;stroke:#004631;stroke-width:3.0877;stroke-linecap:round;stroke-linejoin:round;stroke-miterlimit:10;}
	.st22{fill:none;stroke:#004631;stroke-width:6.5069;stroke-linecap:round;stroke-linejoin:round;stroke-miterlimit:10;}
	.st23{fill:none;stroke:#004631;stroke-width:5.6084;stroke-linecap:round;stroke-linejoin:round;stroke-miterlimit:10;}
	.st24{fill:none;stroke:#004631;stroke-width:2.8042;stroke-miterlimit:10;}
</style>
<g>
	<path class="st15" d="M204.7,173.7l-0.6,1.4L194,199.5c-1.5,3.6-5,6-8.9,6c-40.8-0.3-90.6-15.8-124.6-56.6
		C19.1,99.2,19.1,60,22.2,39.3c0.5-3.5,2.9-6.4,6.2-7.6l13.9-5.1l1.2-0.4l9.8-3.7c8.9-3.3,18.9,1.2,22.2,10.2l12.9,34.6
		c3.3,8.9-1.2,18.9-10.2,22.2l-5.1,1.9c-3.7,1.4-5.4,5.7-3.6,9.2c6.2,12.5,22.9,39.3,56.8,56.6c3.4,1.8,7.7,0.2,9.2-3.3l3.2-7.5
		c3.8-8.8,13.9-12.8,22.7-9.1l34,14.6C203.8,155.5,207.9,165.2,204.7,173.7z"/>
</g>
</svg>
