<?xml version="1.0" encoding="utf-8"?>
<!-- Generator: Adobe Illustrator 24.1.1, SVG Export Plug-In . SVG Version: 6.00 Build 0)  -->
<svg version="1.1" id="Laag_1" xmlns="http://www.w3.org/2000/svg" xmlns:xlink="http://www.w3.org/1999/xlink" x="0px" y="0px"
	 viewBox="0 0 283.5 302.3" style="enable-background:new 0 0 283.5 302.3;" xml:space="preserve">
<style type="text/css">
	.st0{fill:#FFFFFF;}
	.st1{fill:#004631;}
</style>
<path d="M77.5,192.8l-4.6-13.9l-0.1-1.3l-5.2,15.1H77.5z M58.6,204l3.1-0.5l10.7-29.3l4.2-1.4l10.9,30.8l3.2,0.4l-0.1,1.2l-6.8-0.1
	l-6.1,0.1l-0.1-1.2l3.6-0.5l-3.1-9.3h-11l-3.2,9.3l3.7,0.5l-0.1,1.2l-4.8-0.1l-4,0.1L58.6,204z"/>
<g>
	<path d="M92.3,204l2.8-0.4v-17.7l-2.9,0.4l-0.1-1.3l6.6-1.5l1.5,0l0.1,4.3l7.5-4.7c4.9,0,6.1,2,6.1,6.9v13.6l3,0.4l-0.1,1.2
		l-5.5-0.1l-4.7,0.1l-0.1-1.2l2-0.4v-13.7c0-2.3-0.9-3.2-2.6-3.2c-1.5,0-2.7,0.8-4.2,1.8l-1.4,0.9v14.3l2.1,0.4l-0.1,1.2l-4.6-0.1
		l-5.3,0.1L92.3,204z"/>
	<path d="M118.1,195.3c0-7.2,5.3-10.9,11.1-12.2c2.3,0,5,1.1,6.5,2.4v4.8h-4.2l-1.4-4.9c-0.5-0.3-1-0.4-1.8-0.4
		c-2.8,0-5.2,2.6-5.2,7.9c0,5.1,2.9,9.1,7.3,9.1c1.9,0,3.5-0.7,5.1-1.8l0.6,1.1c-2.3,2-4.6,3.4-7.7,4.6
		C122.6,205.9,118.1,201.9,118.1,195.3"/>
</g>
<path d="M141.6,178.7l-0.3-2.8l0.5-2.3l3.6-0.2l1.4,0.2l0.3,2.7l-0.5,2.4l-3.6,0.3L141.6,178.7z M138.9,204l2.8-0.4v-17.7l-2.9,0.4
	l-0.1-1.2l6.6-1.5l1.5,0v20.1l2.9,0.4l-0.1,1.2l-5.4-0.1l-5.3,0.1L138.9,204z"/>
<g>
	<path d="M156.3,192l8.2-0.2v-0.6c0-3.7-0.7-6.3-3.8-6.3C158,185,156.4,187.4,156.3,192 M170.1,201.2c-2.5,2.2-4.9,3.5-8.2,4.7
		c-5.7,0-10.6-3.9-10.6-10.7c0-6.5,4-10.6,10.5-12.1c5.6,0,8.2,3.5,8.2,8.4v1.9h-13.7c0.2,5.2,3.1,8.5,7.5,8.5c2,0,4-0.8,5.6-1.8
		L170.1,201.2z"/>
	<path d="M172.3,204l2.8-0.4v-17.7l-2.9,0.4l-0.1-1.3l6.6-1.5l1.5,0l0.1,4.3l7.5-4.7c4.9,0,6.1,2,6.1,6.9v13.6l3,0.4l-0.1,1.2
		l-5.5-0.1l-4.7,0.1l-0.1-1.2l2-0.4v-13.7c0-2.3-0.9-3.2-2.6-3.2c-1.5,0-2.7,0.8-4.2,1.8l-1.4,0.9v14.3l2.1,0.4l-0.1,1.2l-4.6-0.1
		l-5.3,0.1L172.3,204z"/>
	<path d="M200.5,199.7v-13.9h-3.7v-0.4l0.9-1.1h2.9V181l4.3-3h0.8v6.3h6.3v1.4h-6.3v13.9c0,1.9,1,2.9,2.5,2.9c1.3,0,2.3-0.3,3.7-1.1
		l0.6,1.1l-6.3,3.4C202.2,205.9,200.5,203.6,200.5,199.7"/>
	<path d="M38.5,237.9c0-10.5,6.8-16,17.3-17.3c4.5,0,8.1,1.4,10.6,2.8v7.4h-1.7l-2.3-5.5c-1.4-1.5-3.5-3-7-3
		c-5.9,0-10.4,4.9-10.4,14.5c0,8.1,3.7,15.3,11.1,15.3c2.7,0,4.8-1.3,6.3-2.8l2.7-6.2h1.7l-0.5,7.7c-3.1,1.4-6.7,2.5-11.3,3.1
		C46.3,253.9,38.5,248.4,38.5,237.9"/>
	<path d="M69.4,252l2.8-0.4v-28.4l-2.8,0.3l-0.2-1.2l6.6-1.4l1.6,0v14.9l7.4-4.7c5.1,0,6.1,2.4,6.1,7.1v13.4l3,0.4l-0.1,1.2
		l-5.5-0.1l-4.7,0.1l-0.1-1.2l2-0.4v-13.7c0-2.3-0.9-3.2-2.6-3.2c-1.4,0-2.7,0.8-4.3,1.8l-1.4,0.8v14.3l2.1,0.4l-0.1,1.2l-4.6-0.1
		l-5.3,0.1L69.4,252z"/>
	<path d="M100.2,240l8.2-0.2v-0.6c0-3.7-0.7-6.3-3.8-6.3C101.9,232.9,100.3,235.4,100.2,240 M113.9,249.2c-2.5,2.2-4.9,3.5-8.2,4.7
		c-5.7,0-10.6-3.9-10.6-10.7c0-6.5,4-10.6,10.5-12.1c5.6,0,8.2,3.5,8.2,8.4v1.9h-13.7c0.2,5.2,3.1,8.5,7.5,8.5c2,0,4-0.8,5.6-1.8
		L113.9,249.2z"/>
	<path d="M116.2,252l2.8-0.4v-17.7l-2.9,0.4L116,233l6.5-1.5l1.5,0l0.1,4.3l7.1-4.7c4,0,5.7,1.5,6,4.7l7.2-4.7c4.9,0,6,2,6,7v13.5
		l3.1,0.4l-0.1,1.2l-5.4-0.1l-4.8,0.1l-0.1-1.2l2-0.4v-13.7c0-2.3-0.9-3.2-2.5-3.2c-1.3,0-2.8,0.9-4,1.8l-1.3,0.9v14.3l1.9,0.4
		l-0.1,1.2l-4.4-0.1l-4.5,0.1l-0.1-1.2l1.9-0.4v-13.7c0-2.3-0.9-3.2-2.5-3.2c-1.3,0-2.8,0.9-4,1.8l-1.3,0.9v14.3l2,0.4l-0.1,1.2
		l-4.5-0.1l-5.2,0.1L116.2,252z"/>
</g>
<path d="M158.5,226.7l-0.3-2.8l0.5-2.3l3.6-0.2l1.4,0.2l0.3,2.7l-0.5,2.4l-3.6,0.3L158.5,226.7z M155.8,252l2.8-0.4v-17.7l-2.9,0.4
	l-0.1-1.2l6.6-1.5l1.5,0v20.1l2.9,0.4l-0.1,1.2l-5.4-0.1l-5.3,0.1L155.8,252z"/>
<g>
	<path d="M169.4,252l-0.4-6h1.7l2,4.3c1.1,1,2.5,1.8,4.1,1.8c2.3,0,3.5-1.3,3.5-3c0-1.9-1-2.6-3.3-4l-3.7-2.2
		c-2-1.1-3.9-2.6-3.9-5.4c0-3.1,2.5-5.1,8-6.5c3.2,0,5.3,0.9,6.8,1.7v5.6h-1.5l-1.8-4.2c-1-0.9-2.1-1.5-3.7-1.5
		c-1.9,0-3.2,1-3.2,2.7c0,1.6,1.1,2.4,3.4,3.7l3.7,2.1c2.8,1.5,4,3.1,3.9,5.7c0,3.7-2.9,5.7-8.4,7
		C174.1,253.9,171.1,252.9,169.4,252"/>
	<path d="M189.8,247.6v-13.9h-3.7v-0.4l0.9-1.1h2.9v-3.2l4.3-3h0.8v6.3h6.3v1.4H195v13.9c0,1.9,1,2.9,2.5,2.9c1.3,0,2.3-0.3,3.7-1.1
		l0.6,1.1l-6.3,3.4C191.5,253.8,189.8,251.6,189.8,247.6"/>
	<path d="M203.7,252l2.8-0.4v-17.7l-2.9,0.4l-0.1-1.2l6.4-1.5l1.4,0l0.3,6.9l4.6-7.1h3.5v5.4h-4.7c-0.5,0.2-2.3,2.2-2.9,3l-0.4,0.4
		v11.5l4.4,0.4l-0.1,1.3l-6.8-0.1l-5.4,0.1L203.7,252z"/>
</g>
<polygon points="224.2,258.7 229.3,258.7 234,251.5 230.2,252.9 222.9,233.3 220.5,232.9 220.6,231.7 226.1,231.8 231.1,231.7 
	231.2,232.9 228.6,233.3 234.1,248.3 234.3,250.1 240,233.3 237.4,232.9 237.5,231.7 241.3,231.8 244.7,231.7 244.8,232.9 
	242.2,233.3 235.5,251.7 230.1,263.8 224.2,263.8 "/>
<path d="M194.4,112.9c-3.3,2.6-15.1,11-28.9,11c-6.5,0-12.9-0.8-18-2.4l-0.5-0.2l0.5-0.2c0,0,0,0,0.1,0l0,0c0.6-0.2,1.1-0.4,1.7-0.6
	c0.5-0.2,0.9-0.4,1.4-0.6c0.6-0.2,1.1-0.5,1.7-0.8c0.5-0.3,1-0.5,1.4-0.7c0.6-0.3,1.2-0.7,1.8-1l0.1-0.1c0.4-0.2,0.9-0.5,1.3-0.8
	c0.6-0.4,1.2-0.8,1.9-1.2l0.3-0.2c0.4-0.3,0.7-0.5,1.1-0.8c0.6-0.4,1.1-0.9,1.7-1.3l0.2-0.2c0.1-0.1,0.3-0.2,0.4-0.3
	c0.3-0.2,0.6-0.5,0.9-0.7c0.7-0.6,1.4-1.2,2-1.7l0.1-0.1c0.1-0.1,0.3-0.3,0.4-0.4c0.2-0.2,0.5-0.4,0.7-0.6c1.1-1,2.2-2.1,3.2-3
	c1.1-1.1,2.3-2.3,3.4-3.6l0.1-0.1l0.1,0c10.3,1.3,18.5,8.3,20.8,10.4l0.2,0.1L194.4,112.9z M157.3,138.8l0,0.3l-0.2-0.1
	c-2.1-0.5-7.2-2.1-10.6-6c-2.4-2.8-4.1-5.4-5-7.6c-0.4-1.1-0.6-2.1-0.5-2.9l0-0.2l0.3,0c0.6,0,1.2-0.1,2-0.2l0,0l2.3,0.7
	c1.2,0.4,2.5,0.8,3.9,1.1l0,0l0,0c1.2,1.1,2.3,2.2,3.4,3.4C156.2,131.2,157.1,136.2,157.3,138.8 M140.2,120.4L140.2,120.4
	c-0.7-0.1-1.3-0.2-1.8-0.4c-0.7-0.3-1.2-0.6-1.6-1.1c-1-1-1.5-2.6-1.5-4.6c0.1-3.4,1.7-8.1,4.8-13.2l0.2-0.3l0.2,0.3
	c3,5,4.7,9.6,4.8,13.1l0,0l0,0v0.1c0,2-0.5,3.5-1.5,4.6c-0.4,0.4-0.8,0.7-1.3,0.9C141.7,120.2,141,120.4,140.2,120.4L140.2,120.4z
	 M133.5,133L133.5,133c-3.2,3.8-8,5.4-10.6,6l-0.2,0.1l0-0.3c0.2-2.6,1.1-7.6,4.4-11.4c0.9-1.1,1.9-2.1,3-3.1l0,0l0,0
	c1.6-0.3,3.3-0.8,4.8-1.3l2.7-0.8l0,0c0.4,0,0.8,0.1,1.1,0.1l0.2,0l0,0.2C139.2,124.9,137.2,128.8,133.5,133 M115.6,123.9
	c-13.8,0-25.6-8.4-28.9-11l-0.2-0.1l0.2-0.1c2.2-2.1,10.2-9,20.2-10.3l0.1,0l0.1,0.1c0.1,0.1,0.2,0.3,0.4,0.4l0.8,0.8
	c0.1,0.1,0.2,0.2,0.3,0.3c0.6,0.7,1.2,1.3,1.9,2c1,1,2.1,2.1,3.3,3.1c0.2,0.2,0.5,0.4,0.7,0.6c0.2,0.1,0.3,0.3,0.5,0.4l0.2,0.2
	c0.6,0.6,1.3,1.1,2,1.7c0.3,0.3,0.6,0.5,0.9,0.7c0.1,0.1,0.3,0.2,0.4,0.3l0.3,0.3c0.5,0.4,1.1,0.8,1.6,1.2c0.4,0.3,0.8,0.5,1.1,0.8
	l0.3,0.2c0.6,0.4,1.3,0.9,1.9,1.2c0.4,0.3,0.8,0.5,1.2,0.7l0.3,0.1c0.5,0.3,1.2,0.7,1.8,1c0.5,0.3,1.1,0.6,1.4,0.7
	c0.6,0.3,1.2,0.6,1.8,0.8c0.5,0.2,0.9,0.4,1.4,0.6c0.5,0.2,1.1,0.4,1.7,0.6l0.6,0.2l-0.6,0.2C128.1,123.1,122,123.9,115.6,123.9
	 M97.6,73.1l0-0.2l0.2,0c3.7,0.2,16.5,1.4,26,9.2l0.1,0.1v0.1c0,1.6,0.1,3.2,0.2,4.8c0,0.1,0,0.2,0,0.3l0,0.2
	c0.1,1.6,0.2,3.1,0.4,4.6c0,0.4,0.1,0.7,0.1,1c0,0.2,0.1,0.4,0.1,0.7l0.1,0.4c0.1,0.9,0.2,1.8,0.4,2.7c0.1,0.4,0.1,0.8,0.2,1.1
	l0,0.1c0,0.2,0.1,0.4,0.1,0.6l0.1,0.7c0.1,0.3,0.1,0.6,0.2,0.9l0,0.3l-0.3,0c-1.5-0.2-2.9-0.4-4.4-0.5l-0.2,0c-0.1,0-0.1,0-0.2,0
	c-1.8-0.1-3.6-0.2-5.1-0.2c-1.4,0-2.7,0-4.1,0.1c-0.2,0-0.5,0-0.7,0.1c-0.2,0-0.4,0-0.5,0l-0.5,0c-0.6,0-1.3,0.1-1.9,0.1l-0.1,0
	l-0.1-0.1C99.3,90.4,97.8,77,97.6,73.1 M134.6,119.8l-0.7-0.2c-0.4-0.1-0.8-0.3-1.2-0.4l-0.5-0.2c-0.3-0.1-0.6-0.2-1-0.4
	c-0.5-0.2-1-0.5-1.5-0.7l-0.7-0.3c-0.3-0.1-0.6-0.3-0.9-0.4c-0.5-0.3-1.1-0.6-1.6-0.9l-0.3-0.2c-0.1-0.1-0.3-0.2-0.4-0.2
	c-0.3-0.2-0.6-0.4-1-0.6c-0.5-0.3-1-0.6-1.5-1l-0.5-0.3c-0.2-0.1-0.3-0.2-0.5-0.3l0,0c-0.3-0.2-0.6-0.4-0.9-0.6
	c-0.5-0.4-1-0.8-1.5-1.2l-0.5-0.4c-0.2-0.1-0.3-0.2-0.5-0.4c-0.3-0.2-0.5-0.4-0.8-0.6c-0.7-0.5-1.3-1.1-2-1.7l-0.3-0.2
	c-0.1-0.1-0.3-0.3-0.4-0.4l-0.1-0.1c-0.2-0.1-0.3-0.3-0.5-0.5c-1.1-1-2.2-2.1-3.3-3.1c-0.7-0.7-1.4-1.4-2.1-2.2l-0.3-0.3l0.4,0
	c0.2,0,0.5,0,0.7-0.1c0.2,0,0.3,0,0.5,0c0.3,0,0.5,0,0.8-0.1c1.4-0.1,2.6-0.1,3.8-0.1c1.7,0,3.5,0.1,5.4,0.2l0.1,0c0,0,0.1,0,0.1,0
	c1.6,0.1,3.3,0.3,5,0.6l0.1,0l0,0.1c0.2,1,0.5,2,0.8,3c0,0.1,0.1,0.2,0.1,0.2c0,0.1,0,0.1,0,0.1l0,0.1c0.3,1.1,0.6,2,0.9,2.8
	c0.1,0.2,0.2,0.4,0.2,0.6l0.1,0.2c0,0.1,0.1,0.1,0.1,0.2c0.2,0.6,0.5,1.3,0.8,2c0.1,0.2,0.2,0.5,0.3,0.7l0.2,0.3
	c0.4,0.7,0.6,1.2,0.8,1.6c0.2,0.3,0.3,0.6,0.5,0.8l0.1,0.1c0.3,0.5,0.6,0.9,0.9,1.3c0.2,0.3,0.4,0.6,0.6,0.8c0.3,0.4,0.6,0.7,1,1.1
	l0.1,0.1c0.1,0.1,0.2,0.2,0.3,0.3L134.6,119.8z M134.6,108l-0.1,0.3c0,0.1-0.1,0.2-0.1,0.2l0,0c-0.1,0.2-0.1,0.3-0.1,0.5
	c-0.1,0.4-0.2,0.8-0.3,1.2l0,0.2c0,0.1,0,0.1,0,0.2l0,0.1c0,0.1,0,0.2-0.1,0.3c-0.1,0.5-0.2,0.9-0.2,1.3l0,0.2c0,0.1,0,0.2,0,0.3
	c-0.1,0.6-0.1,1.1-0.1,1.6c0,0.2,0,0.4,0,0.6l0,0.7l-0.4-0.5c-0.2-0.3-0.4-0.6-0.6-1l0-0.1c0,0,0-0.1-0.1-0.1l-0.1-0.2
	c-0.3-0.6-0.7-1.2-1-1.9l-0.1-0.2c-0.1-0.1-0.1-0.3-0.2-0.4c-0.4-0.9-0.8-1.8-1.1-2.6l-0.1-0.2c0-0.1,0-0.1-0.1-0.2
	c-0.3-0.8-0.6-1.7-0.9-2.6c-0.1-0.3-0.2-0.5-0.2-0.8c-0.3-1.2-0.6-2.2-0.8-3.2c0,0,0,0,0,0l-0.1-0.7c-0.1-0.6-0.3-1.2-0.4-1.9
	l-0.2-1.1c-0.1-0.3-0.1-0.6-0.2-0.9c0-0.2-0.1-0.4-0.1-0.6l0-0.2c0-0.2-0.1-0.4-0.1-0.6l0-0.1c-0.2-1-0.3-2.1-0.4-3.2
	c0-0.4-0.1-0.9-0.1-1.2c0-0.2,0-0.5-0.1-0.7l-0.1-0.6c-0.1-0.8-0.1-1.6-0.2-2.4c0-0.5,0-1-0.1-1.5c0-0.2,0-0.5,0-0.7
	c0-0.3,0-0.6,0-0.9l0-0.4l0.3,0.3c1.1,1,2.1,1.9,3,2.9c1,1,1.9,2,2.9,3c0.1,0.1,0.2,0.3,0.3,0.4l0.1,0.1c0.1,0.1,0.2,0.3,0.3,0.4
	l0,0c0.6,0.7,1.3,1.5,1.9,2.2c0.2,0.3,0.5,0.6,0.7,0.9l0.1,0.2c0.1,0.1,0.2,0.2,0.3,0.3l0.3,0.4c0.3,0.4,0.7,0.8,1,1.3
	c0.3,0.4,0.6,0.8,0.8,1.2l0,0.1c0.1,0.1,0.2,0.3,0.3,0.4c0.1,0.1,0.1,0.2,0.2,0.3l0.2,0.3c0.1,0.1,0.2,0.3,0.3,0.4L139,99l-0.1,0.1
	c-0.1,0.1-0.1,0.2-0.1,0.2l-0.1,0.1c0,0.1-0.1,0.1-0.1,0.2l-0.2,0.3c-0.2,0.3-0.4,0.6-0.5,0.9c-0.1,0.2-0.2,0.4-0.4,0.6l-0.4,0.7
	c-0.1,0.2-0.3,0.5-0.4,0.8c-0.1,0.3-0.3,0.6-0.4,0.9l-0.3,0.6c-0.1,0.2-0.2,0.4-0.3,0.6c-0.1,0.3-0.3,0.6-0.4,0.9l-0.1,0.3
	c0,0.1-0.1,0.2-0.1,0.3l-0.1,0.2c-0.1,0.1-0.1,0.3-0.2,0.4C134.8,107.4,134.7,107.8,134.6,108 M125.7,81.3
	c0.1-18.3,11.2-33.8,14.7-38.1l0.1-0.2l0.1,0.2c3.4,4.2,14.4,19.4,14.6,37.5v0.1l-0.1,0.1c-1.9,1.6-3.7,3.2-5.3,4.9
	c-1,1-1.9,2-2.9,3c-0.2,0.3-0.5,0.5-0.7,0.8c-0.1,0.2-0.3,0.3-0.4,0.5l-0.4,0.5c-0.4,0.5-0.8,0.9-1.2,1.4c-0.2,0.3-0.5,0.6-0.7,0.9
	c-0.1,0.2-0.2,0.3-0.3,0.5l-0.3,0.3c-0.4,0.5-0.8,1-1.1,1.5c-0.2,0.3-0.4,0.6-0.6,0.9l-0.3,0.5c-0.1,0.1-0.2,0.3-0.3,0.4l-0.4,0.6
	l0,0.1l-0.1-0.2l-0.3-0.4c-0.1-0.1-0.2-0.2-0.3-0.4l-0.5-0.7c-0.2-0.3-0.4-0.5-0.5-0.8c-0.4-0.6-0.9-1.2-1.3-1.7l-0.2-0.3
	c-0.1-0.1-0.2-0.2-0.2-0.3l-0.1-0.1c-0.2-0.3-0.4-0.5-0.6-0.8c-0.5-0.7-1.1-1.3-1.7-2l-0.1-0.1c-0.1-0.1-0.2-0.2-0.3-0.3l-0.2-0.2
	c-0.1-0.2-0.3-0.3-0.4-0.5c-1-1-1.9-2.1-2.9-3c-0.8-0.8-1.6-1.6-2.5-2.4c-0.1-0.1-0.2-0.2-0.3-0.3l-0.1-0.1
	c-0.1-0.1-0.2-0.2-0.3-0.3l-0.4-0.3c-0.3-0.3-0.7-0.6-1-0.9L125.7,81.3L125.7,81.3z M147.4,118.8c0.3-0.4,0.7-0.8,1-1.2
	c0.1-0.2,0.3-0.3,0.4-0.5l0.2-0.3c0.3-0.5,0.6-0.9,0.9-1.4c0.2-0.3,0.4-0.6,0.5-1c0.3-0.5,0.5-1,0.8-1.6l0-0.1
	c0.2-0.4,0.3-0.7,0.5-1c0.2-0.5,0.5-1.1,0.8-1.9c0-0.1,0.1-0.2,0.1-0.3l0,0c0.1-0.3,0.2-0.5,0.3-0.7c0.3-0.8,0.5-1.6,0.9-2.6
	c0-0.1,0.1-0.2,0.1-0.3c0-0.1,0.1-0.2,0.1-0.4c0.3-1,0.6-2,0.8-3l0-0.1l0.1,0c1.2-0.2,2.4-0.3,3.7-0.4l0.1,0
	c1.2-0.1,2.5-0.2,3.9-0.2c0.1,0,0.2,0,0.3,0l0.3,0c1.2,0,2.4,0,3.8,0l0.3,0c0.2,0,0.4,0,0.6,0c0.9,0,1.9,0.1,2.8,0.1l0.4,0l-0.3,0.3
	c-0.8,0.9-1.5,1.6-2.2,2.3c-1,1-2,2-3.1,3c-0.2,0.2-0.4,0.3-0.6,0.5l-0.2,0.1c-0.1,0.1-0.2,0.1-0.3,0.2l0,0
	c-0.6,0.5-1.4,1.2-2.2,1.8c-0.2,0.2-0.4,0.3-0.6,0.5l-0.1,0.1c-0.1,0.1-0.3,0.2-0.4,0.3l-0.1,0.1c-0.7,0.5-1.3,1-2,1.5
	c-0.2,0.2-0.5,0.3-0.8,0.5l-0.4,0.3c-0.7,0.5-1.4,1-2,1.4c-0.2,0.1-0.4,0.3-0.6,0.4l-0.5,0.3c-0.6,0.4-1.3,0.8-2.1,1.2
	c-0.3,0.1-0.5,0.3-0.8,0.4l-0.3,0.1c-0.8,0.4-1.5,0.7-2,1c-0.3,0.1-0.5,0.2-0.8,0.3l-0.2,0.1c-0.4,0.2-0.7,0.3-1.1,0.4l-0.7,0.2
	L147.4,118.8z M147,114.2c0-0.5,0-1-0.1-1.5c0-0.1,0-0.2-0.1-0.3l0,0c0-0.1,0-0.1,0-0.2l0-0.2c0-0.3-0.1-0.6-0.2-1
	c0-0.1-0.1-0.2-0.1-0.3l0-0.1c0-0.1,0-0.2-0.1-0.2l0-0.2c-0.1-0.3-0.1-0.6-0.2-0.9c-0.1-0.2-0.1-0.4-0.2-0.5c0-0.1-0.1-0.2-0.1-0.3
	l-0.1-0.4c-0.1-0.2-0.2-0.5-0.2-0.7c-0.1-0.2-0.2-0.4-0.2-0.6l-0.2-0.6c-0.1-0.3-0.2-0.6-0.4-0.9c-0.1-0.2-0.2-0.4-0.3-0.6l0-0.1
	c0-0.1-0.1-0.1-0.1-0.2l-0.2-0.3c-0.1-0.3-0.3-0.6-0.4-0.8c-0.1-0.2-0.2-0.4-0.3-0.6l-0.1-0.1c0-0.1-0.1-0.1-0.1-0.2l-0.2-0.3
	c-0.2-0.3-0.3-0.6-0.5-0.9c-0.1-0.2-0.2-0.4-0.4-0.6l-0.2-0.3c-0.1-0.1-0.1-0.2-0.2-0.4c0-0.1-0.1-0.1-0.1-0.2
	c0-0.1-0.1-0.1-0.1-0.2l-0.1-0.1l0.1-0.1c0.2-0.3,0.4-0.6,0.6-0.9l0.3-0.4c0.1-0.1,0.2-0.2,0.2-0.3l0.1-0.2c0.2-0.3,0.4-0.6,0.6-0.9
	c0.3-0.4,0.5-0.7,0.8-1.1l0.1-0.1c0.1-0.2,0.2-0.3,0.4-0.5c0.1-0.1,0.2-0.3,0.3-0.4L145,94c0.2-0.3,0.5-0.6,0.7-0.9
	c0.4-0.4,0.8-0.9,1.1-1.3l0.4-0.5c0.1-0.2,0.3-0.3,0.4-0.5l0.1-0.1c0.2-0.2,0.4-0.4,0.5-0.6c0.9-1,1.9-2,2.8-3
	c1.1-1.1,2.3-2.2,3.7-3.5l0.3-0.3l-0.1,2.1c0,0.5,0,1.1-0.1,1.6c0,0.8-0.1,1.5-0.2,2.3l-0.1,0.6c0,0.3,0,0.5-0.1,0.8
	c0,0.4-0.1,0.9-0.1,1.3c-0.1,0.8-0.2,1.6-0.3,2.5l-0.1,0.5c0,0.2-0.1,0.4-0.1,0.6l0,0.2c-0.1,0.4-0.1,0.8-0.2,1.1
	c-0.2,0.9-0.3,1.8-0.5,2.5l-0.1,0.5c0,0.2-0.1,0.4-0.1,0.6c-0.1,0.3-0.1,0.6-0.2,0.9c-0.2,1-0.5,2.1-0.9,3.3
	c-0.1,0.2-0.1,0.4-0.2,0.5l-0.1,0.4c-0.2,0.7-0.5,1.5-0.7,2.2l-0.1,0.1c-0.1,0.3-0.2,0.5-0.3,0.8c-0.3,0.7-0.5,1.4-0.8,2.1l-0.2,0.4
	c0,0.1-0.1,0.2-0.1,0.2c-0.4,0.9-0.8,1.7-1.2,2.4c0,0.1-0.1,0.1-0.1,0.2l-0.1,0.2c-0.4,0.6-0.7,1.1-1,1.6c-0.1,0.1-0.1,0.2-0.2,0.3
	l-0.4,0.6l0.1-0.7c0.1-0.5,0.1-1,0.1-1.5l0,0l0-0.2L147,114.2z M155.5,99.6l0-0.2c0-0.2,0.1-0.5,0.1-0.7c0-0.2,0.1-0.4,0.1-0.6
	c0.1-0.4,0.2-0.8,0.2-1.2c0.1-0.9,0.3-1.9,0.4-2.6l0.1-0.7c0-0.1,0-0.3,0.1-0.4c0.1-0.4,0.1-0.8,0.2-1.2c0.1-1,0.2-2.1,0.3-3.1
	l0-0.3c0-0.1,0-0.2,0-0.4l0-0.4c0-0.3,0.1-0.6,0.1-1c0.1-1.7,0.1-3.3,0.1-5v-0.1l0.1-0.1c9.3-7.5,21.8-8.5,25.4-8.7l0.2,0l0,0.2
	c-0.2,3.9-1.7,17.2-10.1,27l-0.1,0.1l-0.1,0c-2.7-0.3-5.7-0.4-8.7-0.3l-0.2,0c-1.4,0-2.8,0.1-4.3,0.2l-0.5,0
	c-1.1,0.1-2.2,0.2-3.4,0.3l-0.3,0l0-0.2C155.4,100,155.4,99.8,155.5,99.6 M196.3,110.6c-1.3-1.2-4.2-3.7-8-6
	c-3.9-2.3-7.8-3.9-11.7-4.7c7.5-10.2,8.8-22.9,9-26.5l0.2-3.3l-3.3,0.1c-3.3,0.1-14.9,1.1-24.5,7.5c-1.4-17.7-11.9-32.1-15.1-36.1
	l-2.4-2.9l-2.3,3c-3.3,4.1-13.9,18.8-15.1,36.6c-9.8-6.7-21.7-7.8-25.1-8L94.6,70l0.2,3.4c0.2,3.7,1.6,16.4,9.1,26.6
	c-3.8,0.8-7.6,2.4-11.4,4.7c-3.7,2.3-6.5,4.7-7.8,5.9l-2.5,2.4l2.7,2.2c3.5,2.7,15.9,11.6,30.6,11.6c3,0,6-0.2,8.9-0.5
	c-3.4,4.3-4.3,9.5-4.5,12.3l-0.4,4.2l4.1-1c2.9-0.7,8.3-2.5,12.1-6.9c1.3-1.5,3-3.7,4.3-6.1c1,1.9,2.5,4,4.3,6.1
	c3.8,4.4,9.2,6.2,12.1,6.9l4.1,1l-0.4-4.2c-0.3-2.9-1.2-8.2-4.7-12.5c3.2,0.4,6.6,0.6,10,0.6c14.7,0,27.2-8.9,30.6-11.6l2.8-2.2
	L196.3,110.6z"/>
</svg>
