<svg id="Laag_1" data-name="Laag 1" xmlns="http://www.w3.org/2000/svg" viewBox="0 0 325 290.33"><defs><style>.cls-1{fill:#004631;}</style></defs><path class="cls-1" d="M447.45,482.56c-9.17,7.18-42.07,30.61-80.48,30.61-18.12,0-36-2.35-50.26-6.62l-1.43-.43,1.4-.54.16-.05.11,0c1.59-.54,3.09-1.1,4.6-1.71,1.27-.51,2.53-1,3.84-1.63,1.54-.69,3.11-1.44,4.81-2.31,1.48-.74,2.77-1.41,4-2,1.75-1,3.44-2,5-2.89l.29-.18c1.13-.66,2.43-1.44,3.74-2.27,1.69-1.08,3.34-2.2,5.16-3.45l.89-.61c1-.7,2.07-1.4,3.11-2.16,1.58-1.15,3.19-2.39,4.74-3.59l.65-.51c.41-.32.83-.63,1.23-.95.83-.62,1.7-1.29,2.57-2,1.91-1.56,3.82-3.22,5.62-4.79l.33-.28,1.24-1.06c.65-.54,1.28-1.09,1.92-1.66,3.18-2.88,6.18-5.73,8.93-8.48,3.13-3.13,6.3-6.48,9.44-10l.18-.19.26,0c28.59,3.49,51.64,23.09,58,29l.45.41ZM344.2,554.73l.07.71-.7-.17c-5.75-1.4-20.14-5.83-29.53-16.71-6.71-7.78-11.49-15.12-13.84-21.22a18.1,18.1,0,0,1-1.49-8l.05-.47h.86a38.39,38.39,0,0,0,5.47-.44l.11,0,6.38,1.91c3.37,1.11,7,2.13,10.84,3l.12,0,.1.09a102.5,102.5,0,0,1,9.37,9.52c9.05,10.5,11.52,24.35,12.19,31.68m-47.59-51.14h-.05a17.42,17.42,0,0,1-4.9-1.14,12.88,12.88,0,0,1-4.59-2.93c-2.89-2.89-4.3-7.23-4.2-12.91.15-9.56,4.86-22.57,13.25-36.65l.44-.74.44.74c8.33,13.91,13,26.86,13.24,36.46v.42c.05,5.57-1.36,9.84-4.2,12.68a13.27,13.27,0,0,1-3.73,2.58,18.72,18.72,0,0,1-5.65,1.49Zm-18.57,35h0c-9,10.45-22.39,15-29.55,16.71l-.7.17.07-.71c.67-7.33,3.16-21.2,12.19-31.68a104.8,104.8,0,0,1,8.32-8.58l.11-.09.13,0c4.6-1,9.11-2.15,13.4-3.51l7.5-2.16h.1c1.12.12,2.17.19,3.12.21l.45,0,.05.45c.62,6.52-5.06,17.43-15.19,29.19m-50-25.39c-38.46,0-71.34-23.45-80.51-30.63l-.46-.37.43-.41c6.18-5.82,28.53-25.13,56.34-28.8l.27,0,.18.2,1,1.14,2.17,2.37.79.86c1.73,1.84,3.46,3.61,5.28,5.43,2.87,2.88,5.95,5.8,9.16,8.69.66.6,1.33,1.17,2,1.73l1.26,1.08.6.51c1.78,1.55,3.63,3.15,5.47,4.64.89.71,1.78,1.39,2.64,2.05l1.24.95.92.71c1.5,1.15,3.05,2.34,4.59,3.44,1.05.76,2.12,1.48,3.12,2.16l.95.64c1.78,1.21,3.53,2.39,5.27,3.48,1.14.73,2.28,1.4,3.39,2.05l.69.42c1.41.82,3.26,1.9,5.1,2.88,1.51.81,3,1.55,4,2,1.63.81,3.24,1.56,4.92,2.3,1.33.57,2.61,1.1,3.82,1.57,1.46.57,3,1.1,4.64,1.63l1.6.52-1.62.46c-14.34,4.13-31.38,6.3-49.29,6.3M177.84,371.82l0-.57.57,0c10.29.49,45.93,3.82,72.55,25.74l.19.16v.24c0,4.38.17,8.85.42,13.28,0,.27,0,.52.06.78l.05.6c.26,4.54.61,8.69,1,12.68.11,1,.25,2,.38,2.9.09.61.17,1.22.25,1.84l.16,1.22c.32,2.52.66,5.14,1.06,7.64.19,1.1.4,2.16.6,3.18l.05.23c.1.52.2,1,.29,1.54l.38,2.06.45,2.47.14.71-.72-.11c-4.09-.61-8.2-1.08-12.22-1.42l-.64,0-.54,0c-5.13-.39-9.95-.58-14.32-.58-3.8,0-7.66.1-11.46.31-.7,0-1.37.09-2.06.15L213,447l-1.27.09c-1.78.12-3.53.24-5.26.41l-.27,0-.17-.2c-23.35-27.44-27.46-64.69-28.17-75.46M280.94,501.7l-2-.67c-1.06-.35-2.16-.77-3.22-1.17l-1.34-.49c-.92-.34-1.79-.67-2.71-1.05-1.34-.57-2.75-1.26-4.12-1.92l-2-1c-.86-.41-1.66-.79-2.5-1.23-1.44-.77-2.93-1.64-4.33-2.46l-.76-.45-1.2-.68c-1-.55-1.81-1-2.69-1.59-1.35-.84-2.75-1.79-4.11-2.71l-1.26-.86-1.33-.88-.11-.08c-.79-.52-1.59-1.06-2.39-1.63-1.41-1-2.86-2.13-4.27-3.21l-1.41-1.09-1.36-1c-.73-.54-1.5-1.12-2.25-1.73-1.82-1.46-3.67-3.07-5.46-4.63l-.8-.7c-.41-.35-.83-.71-1.25-1.05l-.3-.25c-.48-.41-1-.83-1.45-1.26-3.2-2.89-6.27-5.8-9.12-8.65-2-2-3.89-4-5.92-6.16l-.71-.78,1.05-.08,2.06-.15,1.4-.11,2.23-.15c3.82-.2,7.32-.29,10.7-.29,4.72,0,9.73.21,14.91.63l.38,0,.22,0c4.41.36,9.08.94,13.83,1.7l.33.05.08.33c.66,2.74,1.42,5.56,2.26,8.38a7,7,0,0,0,.23.69c0,.14.08.26.12.38l.06.17c.9,3,1.76,5.56,2.62,7.9.23.64.47,1.24.68,1.74l.18.43c.08.19.15.38.22.56.68,1.73,1.48,3.72,2.31,5.54.3.67.61,1.3.92,1.94l.44.87c1,2,1.69,3.36,2.34,4.52.45.8.92,1.57,1.33,2.25l.23.36c.79,1.31,1.6,2.54,2.47,3.76.59.83,1.14,1.57,1.68,2.26.83,1.05,1.7,2.06,2.65,3.1l.2.21.78.83Zm-.05-32.65-.27.83c-.07.23-.15.44-.23.66l0,.13c-.14.42-.28.84-.4,1.25-.32,1.12-.58,2.19-.83,3.28l-.1.42c0,.16-.07.32-.11.47l-.07.27c-.07.25-.13.5-.18.73-.26,1.34-.43,2.59-.58,3.75l-.07.45c0,.26-.08.49-.11.71a37.88,37.88,0,0,0-.2,4.51c0,.55,0,1.07,0,1.59l.05,1.81-1-1.52c-.54-.84-1.08-1.71-1.63-2.68l-.11-.18c-.06-.13-.13-.26-.2-.38l-.28-.51c-.92-1.67-1.85-3.48-2.75-5.38l-.25-.53c-.19-.4-.38-.81-.56-1.21-1.15-2.58-2.12-4.93-3-7.2l-.15-.44-.16-.48c-.84-2.3-1.62-4.67-2.39-7.22-.23-.74-.46-1.49-.68-2.25-1-3.38-1.72-6.2-2.34-8.87a1.05,1.05,0,0,0,0-.13l-.41-1.88c-.36-1.64-.72-3.35-1.09-5.23l-.55-2.93c-.15-.8-.29-1.6-.43-2.39-.1-.58-.18-1.18-.26-1.77l-.06-.46c-.08-.58-.15-1.16-.24-1.72l-.05-.32c-.43-2.9-.88-5.9-1.23-9-.12-1.15-.22-2.37-.31-3.42-.05-.66-.11-1.33-.16-2l-.15-1.57c-.2-2.2-.4-4.47-.54-6.73-.08-1.42-.13-2.89-.16-4.14,0-.66-.05-1.33-.07-2s-.06-1.57-.09-2.37l0-1.2.89.8c3.1,2.78,5.87,5.4,8.49,8s5.37,5.51,8,8.36l.92,1.06.18.22c.3.35.59.7.9,1l.07.08c1.76,2,3.58,4.05,5.28,6.13.66.8,1.31,1.63,1.9,2.42l.36.47.72.94,1,1.23c.95,1.19,1.87,2.36,2.72,3.53s1.64,2.31,2.31,3.29l.11.17.74,1.08.58.84.56.8c.28.4.58.81.85,1.23l.19.27-.18.28c-.14.23-.27.46-.4.69l-.24.39-.3.52-.47.76c-.5.82-1,1.66-1.48,2.49-.35.61-.67,1.21-1,1.8L288,452.85c-.36.64-.77,1.4-1.13,2.13s-.78,1.6-1.14,2.37l-.86,1.8c-.26.56-.54,1.12-.77,1.67-.4.87-.73,1.73-1.06,2.55l-.28.73c-.1.25-.2.49-.31.74l-.17.43c-.17.41-.34.81-.48,1.21-.33.88-.6,1.74-.86,2.57m-24.61-74.52c.24-51,31.31-94.1,40.82-106.09l.4-.5.4.5C307.29,300.22,338,342.56,338.67,393v.24l-.19.16c-5.2,4.4-10.2,9-14.85,13.64-2.69,2.69-5.38,5.52-8,8.43-.64.7-1.26,1.43-1.86,2.14q-.54.65-1.11,1.29l-1.12,1.28c-1.13,1.29-2.29,2.62-3.39,4-.69.84-1.35,1.69-2,2.49l-1,1.25-.75.95c-1.15,1.45-2.18,2.77-3.16,4.1-.6.82-1.17,1.64-1.73,2.44l-.92,1.34-.83,1.17-1.14,1.6-.09.14-.41-.55-.87-1.21c-.24-.32-.47-.65-.7-1L293.3,435c-.49-.71-1-1.44-1.53-2.17-1.19-1.61-2.49-3.25-3.64-4.7l-.56-.71-.66-.84-.3-.38c-.54-.71-1.08-1.41-1.65-2.1-1.52-1.85-3.15-3.7-4.73-5.5l-.33-.39c-.26-.28-.51-.57-.76-.86l-.5-.59c-.37-.44-.75-.88-1.15-1.32-2.66-2.92-5.35-5.75-8-8.42-2.26-2.25-4.58-4.48-6.91-6.64l-.93-.83-.36-.33c-.29-.24-.59-.51-.89-.78l-1-.94c-.95-.85-1.91-1.73-2.89-2.57l-.17-.15ZM316.6,499c.92-1,1.91-2.12,2.9-3.4.35-.46.69-.94,1-1.42l.54-.78c.95-1.35,1.76-2.6,2.51-3.83.49-.81,1-1.67,1.53-2.65.77-1.41,1.52-2.86,2.29-4.45l.11-.23c.5-1,.91-1.9,1.29-2.73.65-1.47,1.32-3.11,2.17-5.29.1-.28.22-.56.33-.85l0-.07c.28-.71.55-1.37.8-2.07.77-2.14,1.53-4.46,2.39-7.3.09-.27.17-.54.26-.82s.22-.65.32-1c.8-2.74,1.54-5.54,2.21-8.32l.08-.34.35-.05c3.32-.46,6.8-.85,10.33-1.13l.31,0c3.25-.25,6.85-.45,11-.59l.72,0,.92,0c3.26-.08,6.72-.08,10.57,0h.76l1.55,0c2.6.08,5.2.21,7.72.39l1.06.07-.72.78c-2.32,2.54-4.24,4.54-6,6.33-2.75,2.76-5.7,5.56-8.77,8.34-.55.49-1.09.95-1.64,1.41l-.46.39-.72.62-.14.12c-1.75,1.53-3.92,3.43-6,5.11-.6.49-1.19.94-1.79,1.4l-.35.27-1.18.9-.18.14c-1.88,1.48-3.73,2.91-5.54,4.21-.69.51-1.38,1-2.15,1.49l-1.15.8c-2,1.4-3.86,2.65-5.71,3.82-.56.36-1.13.7-1.69,1l-1.42.85c-1.71,1-3.73,2.24-5.74,3.33l-2.12,1.09-.73.37c-2.35,1.2-4.11,2-5.7,2.75-.74.32-1.46.62-2.19.91l-.44.18c-1,.42-2,.82-3.08,1.21l-1.86.68Zm-1.18-13a39.47,39.47,0,0,0-.24-4.28c0-.31-.08-.61-.14-.92l0-.11c0-.17-.06-.33-.08-.5l-.09-.65c-.13-.87-.25-1.77-.45-2.69-.06-.31-.15-.64-.23-1l-.1-.41c-.07-.22-.12-.43-.17-.65l-.14-.55c-.2-.86-.4-1.7-.65-2.57-.15-.48-.31-1-.49-1.5-.1-.27-.19-.55-.28-.83l-.36-1.11c-.21-.64-.42-1.29-.67-2s-.44-1.12-.68-1.69l-.63-1.55c-.29-.76-.62-1.57-1-2.41-.24-.55-.5-1.11-.77-1.66l-.14-.28-.29-.62-.43-.93c-.37-.77-.73-1.55-1.14-2.35-.28-.56-.59-1.12-.89-1.68l-.2-.37-.3-.55-.49-.92c-.43-.81-.88-1.65-1.36-2.49-.33-.59-.69-1.19-1.06-1.78l-.54-.91-.6-1-.36-.6-.28-.47-.17-.28.19-.28c.53-.78,1.09-1.58,1.63-2.36l.78-1.11c.22-.31.42-.61.63-.92l.33-.47c.52-.78,1.12-1.66,1.76-2.52s1.53-2,2.3-3l.25-.31,1-1.31.86-1.11.31-.4c.62-.82,1.28-1.67,1.95-2.49,1-1.25,2.14-2.52,3.21-3.74l1.24-1.42c.39-.44.77-.89,1.14-1.34l.25-.29c.5-.58,1-1.16,1.52-1.74,2.55-2.81,5.22-5.61,7.93-8.33,3.06-3.06,6.46-6.23,10.39-9.71l.88-.78-.18,6c0,1.43-.08,2.93-.15,4.37-.13,2.15-.31,4.3-.5,6.4l-.14,1.63c-.06.7-.12,1.4-.17,2.11-.09,1.23-.2,2.53-.33,3.76-.25,2.3-.57,4.53-.93,7l-.2,1.39q-.12.78-.21,1.56l-.06.45c-.15,1.1-.28,2.1-.44,3.05-.41,2.5-.93,4.94-1.39,7.1l-.26,1.28c-.12.59-.24,1.19-.34,1.8-.17.86-.33,1.7-.52,2.52-.65,2.86-1.43,5.87-2.38,9.18q-.21.75-.45,1.5l-.32,1c-.64,2.09-1.3,4.13-2,6.07l-.14.38c-.26.74-.52,1.46-.79,2.17-.71,1.91-1.49,3.81-2.36,5.81l-.45,1.05c-.1.22-.19.44-.28.65-1.11,2.41-2.24,4.63-3.37,6.62-.12.21-.24.41-.37.61l-.31.5c-1,1.68-1.93,3.16-2.89,4.52l-.62.85-1.18,1.58.26-2a29.17,29.17,0,0,0,.3-4.08V487l.1-.49Zm23.68-40.69.09-.47c.12-.7.24-1.39.37-2.08s.23-1.2.35-1.79c.21-1,.42-2.16.61-3.33.41-2.49.74-5.18,1-7.34l.25-1.94c.05-.36.09-.73.14-1.08.16-1.09.32-2.25.44-3.43.3-2.86.5-5.83.7-8.69l.05-.74c0-.35.05-.69.08-1l.09-1.09c.07-.88.15-1.79.2-2.7.24-4.63.36-9.28.38-13.83v-.24l.19-.15c26-20.89,60.68-23.81,70.69-24.21l.56,0,0,.57c-.68,10.73-4.73,47.9-28,75.33l-.18.2-.26,0a227.25,227.25,0,0,0-24.29-.87h-.65c-3.88.09-7.88.28-11.88.56l-1.29.09c-3.09.24-6.25.56-9.39.95l-.7.09.14-.69c.13-.69.25-1.37.37-2.05M452.82,476a136.52,136.52,0,0,0-22.27-16.6,107.87,107.87,0,0,0-32.66-13.19c20.8-28.5,24.55-63.75,25.21-73.95l.59-9.25-9.26.37c-9.3.36-41.43,2.95-68.31,20.84C342.34,335.06,313,294.78,304,283.55l-6.56-8.21L291,283.57c-9.07,11.41-38.72,52.29-42.2,102-27.43-18.73-60.45-21.7-70-22.17l-9.35-.45.61,9.33c.67,10.25,4.47,45.64,25.38,74.18a105.52,105.52,0,0,0-31.69,13.15,133.82,133.82,0,0,0-21.64,16.41L135,482.72l7.65,6C152.33,496.29,187.07,521,228,521a216.08,216.08,0,0,0,24.71-1.39c-9.35,11.9-12,26.54-12.66,34.39L239,565.67l11.37-2.78c8.07-2,23.17-7.07,33.62-19.21a102.21,102.21,0,0,0,12-16.91,104.39,104.39,0,0,0,12.08,16.91c10.49,12.15,25.57,17.26,33.62,19.21l11.36,2.78L352,554c-.74-8-3.42-22.91-13-34.8A211.61,211.61,0,0,0,367,521c41,0,75.68-24.72,85.33-32.29l7.71-6Z" transform="translate(-135 -275.34)"/></svg>