<?xml version="1.0" encoding="utf-8"?>
<!-- Generator: Adobe Illustrator 24.1.1, SVG Export Plug-In . SVG Version: 6.00 Build 0)  -->
<svg version="1.1" id="Laag_1" xmlns="http://www.w3.org/2000/svg" xmlns:xlink="http://www.w3.org/1999/xlink" x="0px" y="0px"
	 viewBox="0 0 283.5 168.2" style="enable-background:new 0 0 283.5 168.2;" xml:space="preserve">
<style type="text/css">
	.st0{fill:#FFFFFF;}
	.st1{fill:#004631;}
</style>
<rect x="0" y="0" class="st1" width="283.5" height="168.7"/>
<path class="st0" d="M77.6,58.8l-4.6-13.8l-0.1-1.3l-5.2,15.1H77.6z M58.6,70l3.1-0.5l10.7-29.3l4.2-1.4l10.9,30.8l3.2,0.4l-0.1,1.2
	l-6.8-0.1l-6.1,0.1L77.6,70l3.6-0.5l-3.1-9.3h-11l-3.2,9.3l3.7,0.5l-0.1,1.2l-4.8-0.1l-4,0.1L58.6,70z"/>
<g>
	<path class="st0" d="M92.3,70l2.8-0.4V52l-2.9,0.4l-0.1-1.3l6.6-1.5l1.5,0l0.1,4.3l7.5-4.7c4.9,0,6.1,2,6.1,6.9v13.6l3,0.4
		l-0.1,1.2l-5.4-0.1l-4.7,0.1l-0.1-1.2l2-0.4V55.9c0-2.3-0.9-3.2-2.6-3.2c-1.5,0-2.7,0.8-4.2,1.8l-1.4,0.9v14.3l2.1,0.4l-0.1,1.2
		l-4.6-0.1l-5.3,0.1L92.3,70z"/>
	<path class="st0" d="M118.1,61.3c0-7.2,5.3-10.9,11.1-12.2c2.3,0,5,1.1,6.5,2.4v4.8h-4.2l-1.4-4.9c-0.5-0.3-1-0.4-1.8-0.4
		c-2.8,0-5.2,2.6-5.2,7.9c0,5.1,2.9,9.1,7.3,9.1c1.9,0,3.5-0.7,5.1-1.8l0.6,1.1c-2.3,2-4.6,3.4-7.7,4.6
		C122.6,71.9,118.1,67.9,118.1,61.3"/>
</g>
<path class="st0" d="M141.6,44.7l-0.3-2.8l0.5-2.3l3.6-0.2l1.4,0.2l0.3,2.7l-0.5,2.4l-3.6,0.3L141.6,44.7z M138.9,70l2.8-0.4V51.9
	l-2.9,0.4l-0.1-1.2l6.6-1.5l1.5,0v20.1l2.9,0.4l-0.1,1.2l-5.4-0.1l-5.3,0.1L138.9,70z"/>
<g>
	<path class="st0" d="M156.3,58l8.2-0.2v-0.6c0-3.7-0.7-6.3-3.8-6.3C158,51,156.4,53.5,156.3,58 M170,67.2c-2.5,2.2-4.9,3.5-8.2,4.7
		c-5.7,0-10.6-3.9-10.6-10.7c0-6.5,3.9-10.6,10.5-12.1c5.6,0,8.2,3.4,8.2,8.4v1.9h-13.7c0.2,5.2,3.1,8.5,7.5,8.5c2,0,4-0.8,5.6-1.8
		L170,67.2z"/>
	<path class="st0" d="M172.3,70l2.8-0.4V52l-2.9,0.4l-0.1-1.3l6.6-1.5l1.5,0l0.1,4.3l7.5-4.7c4.9,0,6.1,2,6.1,6.9v13.6l3,0.4
		l-0.1,1.2l-5.4-0.1l-4.7,0.1l-0.1-1.2l2-0.4V55.9c0-2.3-0.9-3.2-2.6-3.2c-1.5,0-2.7,0.8-4.2,1.8l-1.4,0.9v14.3l2.1,0.4l-0.1,1.2
		l-4.6-0.1l-5.3,0.1L172.3,70z"/>
	<path class="st0" d="M200.5,65.7V51.7h-3.7v-0.4l0.9-1.1h2.9V47l4.3-3h0.8v6.3h6.3v1.4h-6.3v13.9c0,1.9,1,2.9,2.5,2.9
		c1.3,0,2.3-0.3,3.7-1.1l0.6,1.1l-6.3,3.4C202.2,71.9,200.5,69.6,200.5,65.7"/>
	<path class="st0" d="M38.6,103.9c0-10.5,6.8-16,17.2-17.3c4.5,0,8.1,1.4,10.6,2.8v7.4h-1.7l-2.3-5.5c-1.4-1.5-3.5-3-7-3
		c-5.9,0-10.4,4.9-10.4,14.5c0,8.1,3.7,15.2,11.1,15.2c2.7,0,4.8-1.3,6.3-2.8l2.7-6.2h1.7l-0.5,7.7c-3.1,1.4-6.7,2.5-11.3,3.1
		C46.4,119.9,38.6,114.4,38.6,103.9"/>
	<path class="st0" d="M69.5,117.9l2.8-0.4V89.2l-2.8,0.3l-0.2-1.2l6.6-1.4l1.6,0v14.9l7.4-4.7c5.1,0,6.1,2.4,6.1,7.1v13.4l3,0.4
		l-0.1,1.2l-5.4-0.1l-4.7,0.1l-0.1-1.2l2-0.4v-13.7c0-2.3-0.9-3.2-2.6-3.2c-1.4,0-2.7,0.8-4.3,1.8l-1.4,0.8v14.3l2.1,0.4l-0.1,1.2
		l-4.6-0.1l-5.3,0.1L69.5,117.9z"/>
	<path class="st0" d="M100.2,106l8.2-0.2v-0.6c0-3.7-0.7-6.3-3.8-6.3C101.9,98.9,100.3,101.4,100.2,106 M113.9,115.1
		c-2.5,2.2-4.9,3.5-8.2,4.7c-5.7,0-10.6-3.9-10.6-10.7c0-6.5,3.9-10.6,10.5-12.1c5.6,0,8.2,3.4,8.2,8.4v1.9h-13.7
		c0.2,5.2,3.1,8.5,7.5,8.5c2,0,4-0.8,5.6-1.8L113.9,115.1z"/>
	<path class="st0" d="M116.2,117.9l2.8-0.4V99.8l-2.9,0.4L116,99l6.5-1.5l1.5,0l0.1,4.3l7.1-4.7c3.9,0,5.7,1.5,6,4.7l7.2-4.7
		c4.9,0,6,2,6,7v13.5l3.1,0.4l-0.1,1.2l-5.4-0.1l-4.8,0.1l-0.1-1.2l2-0.4v-13.7c0-2.3-0.9-3.2-2.5-3.2c-1.3,0-2.8,0.9-4,1.8
		l-1.3,0.9v14.3l1.9,0.4l-0.1,1.2l-4.4-0.1l-4.5,0.1l-0.1-1.2l1.9-0.4v-13.7c0-2.3-0.9-3.2-2.5-3.2c-1.3,0-2.8,0.9-4,1.8l-1.3,0.9
		v14.3l2,0.4l-0.1,1.2l-4.5-0.1l-5.2,0.1L116.2,117.9z"/>
</g>
<path class="st0" d="M158.5,92.7l-0.3-2.8l0.5-2.3l3.6-0.2l1.4,0.2l0.3,2.7l-0.5,2.4l-3.6,0.3L158.5,92.7z M155.7,117.9l2.8-0.4
	V99.8l-2.9,0.4l-0.1-1.2l6.6-1.5l1.5,0v20.1l2.9,0.4l-0.1,1.2l-5.4-0.1l-5.3,0.1L155.7,117.9z"/>
<g>
	<path class="st0" d="M169.4,117.9l-0.4-6h1.7l2,4.3c1.1,1,2.5,1.8,4.1,1.8c2.3,0,3.5-1.3,3.5-3c0-1.9-1-2.6-3.3-4l-3.7-2.2
		c-2-1.1-3.9-2.6-3.9-5.4c0-3.1,2.5-5.1,8-6.5c3.2,0,5.3,0.9,6.8,1.7v5.6h-1.5l-1.8-4.2c-1-0.9-2.1-1.5-3.7-1.5
		c-1.9,0-3.2,1-3.2,2.7c0,1.6,1.1,2.4,3.4,3.7l3.7,2.1c2.8,1.5,3.9,3.1,3.9,5.7c0,3.7-2.9,5.7-8.4,7
		C174,119.8,171.1,118.8,169.4,117.9"/>
	<path class="st0" d="M189.8,113.6V99.7h-3.7v-0.4l0.9-1.1h2.9v-3.2l4.3-3h0.8v6.3h6.3v1.4H195v13.9c0,1.9,1,2.9,2.5,2.9
		c1.3,0,2.3-0.3,3.7-1.1l0.6,1.1l-6.3,3.4C191.5,119.8,189.8,117.5,189.8,113.6"/>
	<path class="st0" d="M203.6,117.9l2.8-0.4V99.8l-2.9,0.4l-0.1-1.2l6.4-1.5l1.4,0l0.3,6.9l4.6-7.1h3.5v5.4h-4.7
		c-0.5,0.2-2.3,2.2-2.9,2.9l-0.4,0.4v11.5l4.4,0.4l-0.1,1.3l-6.8-0.1l-5.4,0.1L203.6,117.9z"/>
</g>
<polygon class="st0" points="224.1,124.7 229.2,124.7 233.9,117.4 230.2,118.8 222.8,99.3 220.5,98.9 220.6,97.7 226,97.7 
	231.1,97.7 231.2,98.9 228.6,99.3 234,114.3 234.3,116.1 239.9,99.3 237.3,98.9 237.5,97.7 241.3,97.7 244.7,97.7 244.7,98.9 
	242.2,99.3 235.4,117.7 230,129.8 224.1,129.8 "/>
</svg>
