<svg id="Laag_1" data-name="Laag 1" xmlns="http://www.w3.org/2000/svg" viewBox="0 0 283.46 302.25"><defs><style>.cls-1{fill:#fff;}</style></defs><path class="cls-1" d="M77.51,192.76l-4.63-13.85-.09-1.27-5.18,15.12ZM58.57,204l3.09-.46,10.72-29.34,4.22-1.41,10.9,30.8,3.18.41-.13,1.22-6.82-.09-6.08.09L77.56,204l3.63-.46-3.13-9.26h-11l-3.18,9.26,3.72.46-.09,1.22-4.81-.09-4,.09Z"/><path class="cls-1" d="M92.32,204l2.77-.41V186l-2.86.41-.14-1.27,6.63-1.55,1.45,0,.09,4.31,7.5-4.72c4.95,0,6.08,1.95,6.08,6.95v13.58l3,.41-.1,1.22-5.45-.09-4.72.09-.13-1.22,2-.41V189.9c0-2.27-.91-3.18-2.63-3.18-1.5,0-2.73.82-4.23,1.77l-1.36.87v14.26l2.09.41-.09,1.22-4.59-.09-5.31.09Z"/><path class="cls-1" d="M118.11,195.26c0-7.18,5.31-10.9,11.13-12.17a11.36,11.36,0,0,1,6.54,2.36v4.81h-4.23l-1.36-4.9a3.16,3.16,0,0,0-1.77-.41c-2.77,0-5.18,2.63-5.18,8,0,5.13,2.86,9.08,7.31,9.08a8.79,8.79,0,0,0,5.09-1.81l.59,1.09a25.83,25.83,0,0,1-7.67,4.63c-6,0-10.45-4-10.45-10.63"/><path class="cls-1" d="M141.63,178.73l-.31-2.77.5-2.27,3.58-.23,1.37.23.27,2.68-.5,2.36-3.63.27ZM138.91,204l2.81-.41V185.9l-2.86.41-.13-1.22,6.63-1.55,1.54,0v20.12l2.86.41-.09,1.22-5.36-.09-5.27.09Z"/><path class="cls-1" d="M156.3,192l8.22-.19v-.59c0-3.72-.72-6.26-3.81-6.26-2.68,0-4.27,2.45-4.41,7m13.76,9.17a25.11,25.11,0,0,1-8.17,4.68c-5.72,0-10.59-3.91-10.59-10.67,0-6.54,4-10.59,10.5-12.13,5.58,0,8.17,3.45,8.17,8.4v1.86H156.3c.23,5.23,3.09,8.54,7.54,8.54a10.91,10.91,0,0,0,5.63-1.82Z"/><path class="cls-1" d="M172.33,204l2.77-.41V186l-2.86.41-.13-1.27,6.63-1.55,1.45,0,.09,4.31,7.49-4.72c4.95,0,6.09,1.95,6.09,6.95v13.58l3,.41-.09,1.22-5.45-.09-4.72.09L186.5,204l2.05-.41V189.9c0-2.27-.91-3.18-2.64-3.18-1.5,0-2.72.82-4.22,1.77l-1.36.87v14.26l2.09.41-.1,1.22-4.58-.09-5.32.09Z"/><path class="cls-1" d="M200.53,199.67V185.72h-3.72v-.41l.86-1.13h2.91V181l4.31-3h.82v6.32H212v1.4h-6.26v13.9c0,1.86,1,2.86,2.49,2.86a7.37,7.37,0,0,0,3.73-1.09l.59,1.14-6.27,3.36c-4.09,0-5.77-2.27-5.77-6.22"/><path class="cls-1" d="M38.55,237.89c0-10.49,6.76-16,17.25-17.3a21.44,21.44,0,0,1,10.59,2.82v7.4H64.66l-2.27-5.5a8.76,8.76,0,0,0-7-3c-5.91,0-10.45,5-10.45,14.53,0,8.08,3.72,15.26,11.08,15.26a9.08,9.08,0,0,0,6.31-2.77L65,243.16H66.7l-.49,7.68a39.54,39.54,0,0,1-11.27,3.09c-8.63,0-16.39-5.55-16.39-16"/><path class="cls-1" d="M69.43,252l2.77-.41V223.18l-2.77.27-.18-1.23,6.58-1.4,1.59,0v14.94L84.87,231C90,231,91,233.49,91,238.12v13.44l3,.41-.14,1.23-5.45-.09-4.68.09L83.6,252l2-.41V237.85c0-2.27-.91-3.18-2.59-3.18-1.41,0-2.72.82-4.27,1.77l-1.36.82v14.3l2.09.41-.09,1.23-4.63-.09-5.27.09Z"/><path class="cls-1" d="M100.17,240l8.22-.18v-.59c0-3.72-.72-6.27-3.81-6.27-2.68,0-4.27,2.46-4.41,7m13.76,9.18a25.11,25.11,0,0,1-8.17,4.68c-5.72,0-10.59-3.91-10.59-10.68,0-6.54,4-10.58,10.5-12.12,5.58,0,8.17,3.45,8.17,8.4v1.86H100.17c.23,5.22,3.09,8.54,7.54,8.54a10.91,10.91,0,0,0,5.63-1.82Z"/><path class="cls-1" d="M116.2,252l2.77-.41V233.85l-2.86.41L116,233l6.54-1.54,1.49-.05.09,4.32,7.09-4.72c3.95,0,5.68,1.45,6,4.72l7.18-4.72c4.91,0,6,2,6,7v13.48l3.09.41-.14,1.23-5.36-.09-4.77.09-.13-1.23,2-.41V237.89c0-2.31-.87-3.22-2.46-3.22a7.77,7.77,0,0,0-4,1.77l-1.27.86v14.26l1.91.41-.14,1.23-4.36-.09-4.54.09-.14-1.23,1.91-.41V237.89c0-2.31-.86-3.22-2.45-3.22a7.74,7.74,0,0,0-4,1.77l-1.27.86v14.26l2,.41-.13,1.23-4.54-.09-5.23.09Z"/><path class="cls-1" d="M158.48,226.68l-.32-2.77.5-2.28,3.59-.22,1.36.22.28,2.69-.5,2.36-3.64.27ZM155.76,252l2.81-.41V233.85l-2.86.41-.13-1.23,6.62-1.54,1.55-.05v20.12l2.86.41-.09,1.23-5.36-.09-5.27.09Z"/><path class="cls-1" d="M169.38,252l-.41-6h1.73l2,4.32a6.11,6.11,0,0,0,4.13,1.81c2.32,0,3.5-1.31,3.5-2.95,0-1.86-.95-2.63-3.31-4l-3.68-2.18c-2-1.13-3.91-2.63-3.91-5.4,0-3.13,2.5-5.13,8-6.49a13.31,13.31,0,0,1,6.77,1.68v5.63h-1.55l-1.81-4.18a5.33,5.33,0,0,0-3.68-1.45c-1.91,0-3.23,1-3.23,2.68s1.09,2.4,3.36,3.68l3.73,2.13c2.77,1.54,4,3.13,3.9,5.68,0,3.67-2.9,5.72-8.35,7a17.24,17.24,0,0,1-7.18-1.91"/><path class="cls-1" d="M189.82,247.61V233.67h-3.73v-.41l.87-1.13h2.9V229l4.32-3H195v6.31h6.32v1.41H195v13.9c0,1.86,1,2.86,2.5,2.86a7.37,7.37,0,0,0,3.72-1.09l.59,1.13-6.27,3.36c-4.08,0-5.76-2.27-5.76-6.22"/><path class="cls-1" d="M203.67,252l2.81-.41V233.85l-2.86.41-.13-1.23,6.35-1.54,1.36-.05.28,6.91,4.63-7.09h3.54v5.36h-4.72c-.55.18-2.27,2.23-2.91,2.95l-.36.41v11.54l4.41.41-.14,1.27-6.77-.09-5.36.09Z"/><polygon class="cls-1" points="224.19 258.74 229.28 258.74 233.96 251.47 230.23 252.88 222.88 233.31 220.51 232.94 220.65 231.72 226.06 231.76 231.14 231.72 231.23 232.94 228.64 233.31 234.09 248.34 234.32 250.11 239.95 233.31 237.41 232.94 237.54 231.72 241.31 231.76 244.72 231.72 244.81 232.94 242.22 233.31 235.46 251.75 230.05 263.83 224.19 263.83 224.19 258.74"/><path class="cls-1" d="M194.36,112.9c-3.29,2.58-15.1,11-28.89,11a65.25,65.25,0,0,1-18-2.38l-.52-.16.51-.19.06,0h0c.57-.2,1.11-.4,1.65-.61l1.38-.59c.55-.25,1.11-.52,1.72-.83s1-.5,1.42-.74c.63-.34,1.24-.7,1.8-1l.1-.07c.41-.24.87-.51,1.34-.81s1.2-.79,1.86-1.24l.32-.22c.36-.25.74-.5,1.11-.77l1.71-1.29.23-.19.44-.34c.3-.22.61-.46.92-.71.69-.56,1.37-1.16,2-1.72l.12-.1.44-.38c.23-.2.46-.39.69-.6,1.14-1,2.22-2.06,3.21-3s2.26-2.33,3.39-3.59l.06-.07.09,0c10.27,1.25,18.54,8.28,20.83,10.41l.16.14ZM157.3,138.8l0,.26-.25-.06c-2.06-.5-7.23-2.09-10.6-6a27.72,27.72,0,0,1-5-7.62,6.45,6.45,0,0,1-.54-2.86l0-.16h.3a13.54,13.54,0,0,0,2-.16h0l2.29.69c1.21.39,2.51.76,3.89,1.09l0,0,0,0a37.32,37.32,0,0,1,3.36,3.42c3.25,3.77,4.14,8.74,4.38,11.37m-17.09-18.35h0a6.22,6.22,0,0,1-1.76-.41,4.72,4.72,0,0,1-1.65-1.05,6.22,6.22,0,0,1-1.51-4.64c.06-3.43,1.75-8.1,4.76-13.15l.16-.27.16.27c3,5,4.67,9.64,4.75,13.08v0h0v.12A6.13,6.13,0,0,1,143.6,119a4.62,4.62,0,0,1-1.34.92,6.81,6.81,0,0,1-2,.54ZM133.55,133h0c-3.24,3.75-8,5.37-10.61,6l-.25.06,0-.26c.24-2.63,1.13-7.61,4.37-11.37a39.3,39.3,0,0,1,3-3.08l0,0h0c1.65-.35,3.26-.77,4.8-1.26l2.7-.78h0c.41,0,.78.06,1.12.08H139l0,.16c.22,2.34-1.81,6.26-5.45,10.48m-18-9.11c-13.81,0-25.61-8.42-28.9-11l-.17-.13.16-.15c2.22-2.09,10.24-9,20.22-10.34h.1l.06.07c.12.14.25.28.38.41l.77.85.29.31c.62.66,1.24,1.3,1.89,1.95,1,1,2.14,2.08,3.29,3.12l.72.62.45.38.22.19c.64.56,1.3,1.13,2,1.66.32.26.64.5,1,.74.15.11.29.23.45.34l.32.26c.54.41,1.1.84,1.65,1.23l1.12.78.34.23c.64.43,1.27.85,1.89,1.25.41.26.82.5,1.22.73l.25.15c.5.3,1.17.68,1.83,1s1.08.55,1.43.73c.59.29,1.17.56,1.77.82s.94.4,1.37.57,1.07.39,1.67.58l.57.19-.58.16a64.8,64.8,0,0,1-17.69,2.27m-18-50.74v-.21h.21c3.69.18,16.48,1.38,26,9.25l.06,0v.09c0,1.57.07,3.17.16,4.76a2.46,2.46,0,0,0,0,.28l0,.22c.09,1.63.21,3.12.37,4.55,0,.36.09.72.13,1s.07.44.09.66l.06.44c.11.91.24,1.84.38,2.74.07.4.14.78.22,1.14v.09c0,.18.08.36.11.55l.14.74c0,.29.1.59.16.88l0,.26-.26,0c-1.47-.22-2.94-.39-4.39-.51h-.42c-1.84-.14-3.57-.21-5.14-.21-1.37,0-2.75,0-4.12.11l-.73,0-.54.05-.46,0q-1,.06-1.89.15h-.09l-.07-.08C99.31,90.39,97.84,77,97.58,73.15m37,46.62-.72-.24-1.15-.42-.48-.18-1-.37c-.48-.21-1-.46-1.48-.69l-.72-.35-.9-.45c-.51-.27-1-.58-1.55-.88l-.27-.16-.43-.24-1-.57c-.48-.31-1-.65-1.47-1l-.45-.31-.48-.31,0,0-.86-.58c-.51-.37-1-.77-1.53-1.16l-.51-.39-.49-.37c-.26-.19-.53-.4-.8-.62-.66-.52-1.32-1.1-2-1.66l-.29-.25-.45-.38-.11-.09c-.17-.15-.35-.29-.52-.45-1.15-1-2.25-2.08-3.27-3.11-.7-.7-1.4-1.42-2.13-2.21l-.25-.27.37,0,.74-.06.51,0,.8,0c1.37-.07,2.63-.11,3.84-.11,1.69,0,3.49.08,5.35.23h.22c1.58.13,3.25.33,5,.61l.12,0,0,.11c.24,1,.51,2,.81,3a2.25,2.25,0,0,0,.08.24s0,.09,0,.14l0,.06c.33,1.06.64,2,.95,2.83.08.23.17.45.24.63l.06.15a1.8,1.8,0,0,1,.08.21c.25.61.54,1.33.83,2l.33.7.16.31c.35.72.61,1.21.84,1.62s.33.57.48.81l.08.13c.29.47.58.91.89,1.35s.41.56.6.81.61.74,1,1.11l.07.08.28.3Zm0-11.72-.09.3a2.25,2.25,0,0,0-.08.24l0,0-.15.45c-.11.4-.2.79-.29,1.18l0,.15a1.36,1.36,0,0,1,0,.17l0,.09a2.68,2.68,0,0,0-.07.27c-.09.47-.15.92-.21,1.34l0,.16c0,.1,0,.18,0,.26a13.18,13.18,0,0,0-.07,1.62,5.42,5.42,0,0,0,0,.57l0,.65-.36-.55c-.19-.3-.39-.61-.59-1l0-.07-.08-.13-.1-.19c-.33-.59-.66-1.24-1-1.93l-.09-.19-.21-.43c-.41-.93-.76-1.77-1.06-2.59l0-.15-.06-.18c-.3-.82-.58-1.67-.86-2.59l-.24-.8c-.35-1.22-.62-2.23-.84-3.19,0,0,0,0,0,0l-.15-.67c-.13-.59-.26-1.2-.39-1.88l-.2-1-.15-.86q-.06-.31-.09-.63l0-.17c0-.21,0-.41-.08-.61l0-.12c-.16-1-.32-2.12-.44-3.21,0-.42-.08-.86-.11-1.23l-.06-.72,0-.56c-.07-.79-.15-1.61-.2-2.42,0-.51,0-1-.06-1.48,0-.24,0-.48,0-.72s0-.56,0-.85l0-.43.32.29c1.11,1,2.11,1.94,3,2.87s1.93,2,2.85,3c.12.12.23.25.34.38l.06.07c.11.13.22.25.32.38l0,0c.63.71,1.28,1.45,1.89,2.2.24.28.47.58.69.86l.13.18.26.33.35.44c.33.43.67.85,1,1.27s.59.83.83,1.18l0,.06.26.39.21.3.2.29.31.44.06.1-.06.1c-.05.08-.1.16-.14.24l-.09.15a1.74,1.74,0,0,1-.11.18l-.16.27c-.18.3-.37.6-.54.9s-.24.43-.35.65l-.4.74c-.13.24-.28.5-.41.77s-.28.57-.41.85l-.31.64c-.09.21-.19.41-.27.61s-.27.62-.38.91l-.1.26c0,.09-.08.18-.11.27l-.07.15c-.06.15-.12.29-.17.44-.12.31-.21.62-.31.92M125.74,81.3C125.82,63,137,47.52,140.39,43.22l.15-.18.14.18c3.37,4.23,14.39,19.42,14.63,37.52v.09l-.06,0c-1.87,1.58-3.66,3.23-5.33,4.9-1,1-1.93,2-2.88,3l-.67.77L146,90l-.4.46c-.41.46-.83.94-1.22,1.42-.25.3-.48.61-.7.89l-.35.45-.27.34c-.41.52-.78,1-1.13,1.47-.22.3-.43.59-.62.88l-.34.48-.29.42-.41.57,0,0-.14-.19-.32-.44-.25-.35-.46-.67-.55-.77c-.43-.58-.9-1.17-1.31-1.69l-.2-.26-.24-.3-.1-.14c-.2-.25-.39-.5-.6-.75-.54-.66-1.13-1.33-1.69-2l-.12-.14a3.74,3.74,0,0,1-.27-.31l-.18-.21-.42-.48c-.95-1-1.92-2.06-2.88-3-.81-.81-1.64-1.61-2.48-2.38l-.33-.3-.13-.12-.32-.28-.37-.34-1-.92-.06,0Zm21.65,37.51c.33-.36.69-.76,1-1.22.13-.16.25-.34.37-.51l.19-.28c.34-.48.64-.93.91-1.37s.35-.6.54-1c.28-.51.55-1,.83-1.6l0-.08c.18-.37.33-.69.46-1,.23-.53.47-1.12.78-1.9l.12-.31v0c.1-.26.19-.5.29-.74.27-.77.54-1.61.85-2.62,0-.1.07-.2.1-.3s.07-.23.11-.35c.29-1,.55-2,.79-3l0-.12.13,0c1.19-.17,2.44-.3,3.71-.41h.11c1.17-.09,2.46-.16,3.94-.21h.59c1.17,0,2.41,0,3.79,0h.27l.56,0c.94,0,1.87.07,2.77.14l.38,0-.26.28c-.83.91-1.52,1.63-2.16,2.27-1,1-2.05,2-3.15,3l-.59.5-.16.15a2.75,2.75,0,0,0-.26.22l-.05,0c-.63.55-1.41,1.23-2.15,1.84l-.64.5-.13.09-.42.33-.07,0c-.67.53-1.34,1-2,1.51-.24.18-.49.35-.77.54l-.41.28c-.73.5-1.39,1-2,1.37l-.61.37-.51.31c-.61.37-1.34.8-2.06,1.19l-.76.4-.26.13c-.84.43-1.47.73-2,1l-.78.34-.16.06-1.11.43-.66.25Zm-.42-4.65a13.65,13.65,0,0,0-.09-1.54c0-.11,0-.22,0-.33v0l0-.18,0-.23c0-.31-.09-.63-.16-1,0-.11,0-.23-.08-.34l0-.15-.06-.23,0-.2c-.07-.31-.14-.61-.23-.92s-.11-.36-.18-.54-.07-.2-.1-.3l-.13-.4c-.07-.23-.15-.46-.24-.7s-.16-.41-.24-.61l-.23-.56c-.1-.27-.22-.56-.35-.86s-.18-.4-.28-.6l0-.1a2.14,2.14,0,0,1-.1-.22l-.16-.34c-.13-.27-.26-.55-.41-.84s-.21-.4-.32-.6l-.07-.13c0-.07-.07-.14-.11-.2l-.17-.33-.49-.89c-.12-.22-.25-.43-.38-.64l-.2-.33-.21-.37-.13-.21-.1-.17-.06-.1.07-.1.58-.85.28-.4.23-.33.11-.17c.19-.28.41-.59.64-.9s.55-.72.82-1.08l.09-.11.37-.47c.11-.13.21-.27.31-.4L145,94l.7-.9,1.15-1.34.45-.51.41-.48.09-.1.55-.63c.91-1,1.87-2,2.84-3s2.32-2.23,3.73-3.48l.32-.28-.07,2.15c0,.51,0,1-.05,1.57,0,.77-.12,1.54-.18,2.29l0,.59-.06.76c0,.44-.07.91-.12,1.34-.09.83-.21,1.63-.34,2.52l-.07.5c0,.19-.05.37-.07.56l0,.16c-.05.4-.09.75-.15,1.09-.15.9-.33,1.78-.5,2.55l-.09.46c-.05.21-.09.43-.13.65s-.11.61-.18.9c-.24,1-.51,2.11-.86,3.3-.05.18-.1.36-.16.53l-.11.38c-.23.75-.47,1.48-.71,2.18l-.06.14c-.09.26-.18.52-.28.77-.25.69-.53,1.37-.85,2.09l-.16.38a1.6,1.6,0,0,1-.1.23c-.4.86-.8,1.66-1.21,2.38a2.39,2.39,0,0,1-.13.21l-.11.18a19.29,19.29,0,0,1-1,1.63l-.22.3-.43.57.1-.7a11,11,0,0,0,.11-1.47v0l0-.17Zm8.5-14.61,0-.17c0-.25.09-.5.13-.74s.08-.43.13-.65.15-.77.22-1.19c.14-.89.26-1.86.36-2.63l.09-.7c0-.13,0-.26,0-.39.05-.39.11-.81.16-1.23.1-1,.18-2.09.25-3.12l0-.27c0-.12,0-.24,0-.36l0-.4c0-.31.05-.64.07-1,.08-1.66.13-3.32.13-5v-.09l.07-.05c9.34-7.5,21.79-8.55,25.38-8.69h.2v.21c-.25,3.85-1.7,17.19-10.07,27l-.06.07h-.1a80.88,80.88,0,0,0-8.71-.31h-.24c-1.39,0-2.83.1-4.26.2l-.46,0c-1.11.09-2.25.2-3.37.35l-.26,0,.05-.25c0-.25.09-.49.14-.74m40.82,11a49.34,49.34,0,0,0-8-6,38.68,38.68,0,0,0-11.72-4.74C184,89.63,185.38,77,185.62,73.32l.21-3.32-3.32.13c-3.34.13-14.88,1.06-24.52,7.48C156.63,60,146.1,45.5,142.88,41.46l-2.35-2.94-2.34,2.95c-3.26,4.1-13.9,18.77-15.15,36.63-9.85-6.72-21.7-7.79-25.13-8L94.56,70l.21,3.35C95,77,96.38,89.71,103.89,100a37.67,37.67,0,0,0-11.38,4.72,47.78,47.78,0,0,0-7.77,5.89L82.21,113,85,115.11c3.48,2.72,16,11.59,30.64,11.59a75.43,75.43,0,0,0,8.87-.5,24,24,0,0,0-4.55,12.35l-.38,4.18,4.08-1c2.9-.7,8.32-2.54,12.07-6.89a37.52,37.52,0,0,0,4.32-6.07,38,38,0,0,0,4.34,6.07c3.76,4.36,9.17,6.19,12.07,6.89l4.07,1-.38-4.18c-.26-2.87-1.22-8.22-4.66-12.49a75.39,75.39,0,0,0,10,.64c14.72,0,27.16-8.87,30.63-11.59l2.76-2.16Z"/></svg>