<svg id="Laag_1" data-name="Laag 1" xmlns="http://www.w3.org/2000/svg" viewBox="0 0 283.46 168.2"><defs><style>.cls-1{fill:#fff;}</style></defs><path class="cls-1" d="M77.55,58.77,72.92,44.93l-.09-1.27L67.66,58.77ZM58.63,70l3.08-.46L72.43,40.25l4.22-1.41L87.54,69.62l3.18.41-.14,1.22-6.81-.09-6.08.09L77.6,70l3.63-.46L78.1,60.31h-11l-3.17,9.26,3.72.46-.09,1.22-4.81-.09-4,.09Z"/><path class="cls-1" d="M92.35,70l2.77-.41V52l-2.86.41-.14-1.27,6.63-1.54,1.45-.05.09,4.31,7.49-4.72c5,0,6.08,2,6.08,6.95V69.62l3,.41-.09,1.22-5.45-.09-4.72.09L106.51,70l2-.41V55.91c0-2.27-.91-3.18-2.63-3.18-1.5,0-2.73.82-4.22,1.77l-1.36.87V69.62l2.08.41-.09,1.22-4.58-.09-5.31.09Z"/><path class="cls-1" d="M118.12,61.27c0-7.17,5.31-10.9,11.12-12.17a11.3,11.3,0,0,1,6.54,2.36v4.81h-4.22l-1.36-4.9a3.2,3.2,0,0,0-1.77-.41c-2.77,0-5.18,2.64-5.18,7.95,0,5.12,2.86,9.07,7.31,9.07a8.73,8.73,0,0,0,5.08-1.81l.59,1.09a25.58,25.58,0,0,1-7.67,4.63c-6,0-10.44-4-10.44-10.62"/><path class="cls-1" d="M141.63,44.75,141.32,42l.49-2.27,3.59-.23,1.36.23.27,2.68-.5,2.36L142.9,45ZM138.91,70l2.81-.41V51.92l-2.86.41-.13-1.23,6.63-1.54,1.54-.05V69.62l2.86.41-.09,1.22-5.36-.09-5.26.09Z"/><path class="cls-1" d="M156.29,58l8.22-.18v-.59c0-3.72-.73-6.26-3.81-6.26-2.68,0-4.27,2.45-4.41,7M170,67.21a25.11,25.11,0,0,1-8.17,4.68c-5.71,0-10.57-3.91-10.57-10.67,0-6.53,3.95-10.57,10.48-12.12,5.59,0,8.17,3.45,8.17,8.4v1.86H156.29c.23,5.22,3.09,8.53,7.54,8.53a10.83,10.83,0,0,0,5.62-1.81Z"/><path class="cls-1" d="M172.31,70l2.77-.41V52l-2.86.41-.13-1.27,6.62-1.54,1.45-.05.09,4.31,7.5-4.72c4.94,0,6.08,2,6.08,6.95V69.62l3,.41-.09,1.22-5.45-.09-4.72.09L186.47,70l2.05-.41V55.91c0-2.27-.91-3.18-2.64-3.18-1.49,0-2.72.82-4.22,1.77l-1.36.87V69.62l2.09.41-.09,1.22-4.59-.09-5.31.09Z"/><path class="cls-1" d="M200.5,65.67V51.74h-3.73v-.41l.87-1.14h2.9V47l4.31-3h.82v6.31H212v1.41h-6.26V65.62c0,1.86,1,2.86,2.49,2.86a7.27,7.27,0,0,0,3.72-1.09l.59,1.14-6.26,3.36c-4.08,0-5.76-2.27-5.76-6.22"/><path class="cls-1" d="M38.61,103.87c0-10.48,6.77-16,17.25-17.29a21.54,21.54,0,0,1,10.58,2.81v7.4H64.71L62.44,91.3a8.76,8.76,0,0,0-7-3c-5.9,0-10.44,4.94-10.44,14.52,0,8.08,3.72,15.25,11.08,15.25a9.1,9.1,0,0,0,6.31-2.77l2.67-6.17h1.68l-.5,7.67A39,39,0,0,1,55,119.89c-8.62,0-16.39-5.53-16.39-16"/><path class="cls-1" d="M69.47,117.94l2.77-.41V89.17l-2.77.27-.18-1.23,6.58-1.4,1.59,0v14.93L84.91,97C90,97,91,99.47,91,104.1v13.43l3,.41-.14,1.23-5.44-.09-4.68.09-.14-1.23,2.05-.41v-13.7c0-2.27-.91-3.18-2.59-3.18-1.41,0-2.72.82-4.27,1.77l-1.36.82v14.29l2.09.41-.09,1.23-4.63-.09-5.26.09Z"/><path class="cls-1" d="M100.2,106l8.21-.18v-.59c0-3.72-.72-6.26-3.81-6.26-2.68,0-4.27,2.45-4.4,7M114,115.13a24.91,24.91,0,0,1-8.17,4.67c-5.72,0-10.57-3.9-10.57-10.66,0-6.54,4-10.58,10.48-12.12,5.58,0,8.17,3.45,8.17,8.39v1.87H100.2c.22,5.22,3.08,8.53,7.53,8.53a10.88,10.88,0,0,0,5.63-1.82Z"/><path class="cls-1" d="M116.22,117.94l2.77-.41V99.83l-2.86.41L116,99l6.54-1.55,1.5,0,.09,4.31L131.2,97c3.94,0,5.67,1.45,6,4.72L144.36,97c4.9,0,6,2,6,7v13.48l3.08.41-.14,1.23-5.35-.09-4.77.09-.13-1.23,2-.41V103.87c0-2.31-.87-3.22-2.46-3.22a7.8,7.8,0,0,0-4,1.77l-1.27.86v14.25l1.91.41-.14,1.23-4.35-.09-4.54.09-.14-1.23,1.91-.41V103.87c0-2.31-.86-3.22-2.45-3.22a7.74,7.74,0,0,0-4,1.77l-1.27.86v14.25l2,.41-.13,1.23-4.54-.09-5.22.09Z"/><path class="cls-1" d="M158.47,92.66l-.32-2.77.5-2.27,3.59-.22,1.36.22.27,2.68-.5,2.36-3.63.27Zm-2.72,25.28,2.81-.41V99.83l-2.86.41L155.57,99l6.62-1.55,1.54,0v20.1l2.86.41-.08,1.23-5.36-.09-5.27.09Z"/><path class="cls-1" d="M169.36,117.94l-.41-6h1.73l1.95,4.31a6.11,6.11,0,0,0,4.13,1.81c2.32,0,3.49-1.31,3.49-3,0-1.86-.95-2.63-3.31-4l-3.67-2.18c-2.05-1.13-3.91-2.63-3.91-5.4,0-3.13,2.5-5.13,8-6.49a13.26,13.26,0,0,1,6.76,1.68v5.63h-1.54l-1.82-4.18a5.29,5.29,0,0,0-3.68-1.45c-1.9,0-3.22,1-3.22,2.68s1.09,2.4,3.36,3.67l3.72,2.14c2.77,1.54,4,3.13,3.9,5.67,0,3.67-2.9,5.72-8.35,7a17.23,17.23,0,0,1-7.17-1.91"/><path class="cls-1" d="M189.79,113.59V99.65h-3.73v-.41l.87-1.13h2.9V94.93l4.31-3H195v6.31h6.31v1.4H195v13.89c0,1.86,1.05,2.86,2.5,2.86a7.37,7.37,0,0,0,3.72-1.09l.59,1.13-6.26,3.36c-4.08,0-5.76-2.27-5.76-6.21"/><path class="cls-1" d="M203.63,117.94l2.81-.41V99.83l-2.86.41L203.44,99l6.36-1.55,1.36,0,.27,6.9,4.63-7.08h3.54v5.35h-4.72c-.54.18-2.27,2.22-2.9,3l-.37.41v11.53l4.41.41-.14,1.27-6.76-.09-5.36.09Z"/><polygon class="cls-1" points="224.14 124.7 229.22 124.7 233.9 117.44 230.18 118.85 222.82 99.29 220.46 98.93 220.6 97.7 226 97.75 231.09 97.7 231.17 98.93 228.59 99.29 234.03 114.31 234.26 116.08 239.89 99.29 237.35 98.93 237.48 97.7 241.25 97.75 244.65 97.7 244.75 98.93 242.16 99.29 235.4 117.72 230 129.79 224.14 129.79 224.14 124.7"/></svg>