<svg id="Laag_1" data-name="Laag 1" xmlns="http://www.w3.org/2000/svg" viewBox="0 0 283.46 265.71"><defs><style>.cls-1{fill:#fff;}</style></defs><path class="cls-1" d="M218.55,164.64c-4.7,3.68-21.56,15.68-41.23,15.68a92.81,92.81,0,0,1-25.74-3.39l-.74-.22.72-.27.08,0,.06,0c.81-.28,1.58-.57,2.36-.88s1.29-.53,2-.83,1.59-.74,2.46-1.19,1.42-.72,2-1.05c.9-.49,1.76-1,2.56-1.48l.15-.09c.58-.34,1.25-.74,1.92-1.16.86-.55,1.71-1.13,2.64-1.77l.45-.31c.53-.36,1.07-.72,1.6-1.11.81-.59,1.63-1.22,2.43-1.84l.33-.26.63-.48c.42-.32.87-.67,1.31-1,1-.79,2-1.64,2.89-2.45l.17-.14.63-.54c.33-.28.66-.56,1-.85,1.63-1.48,3.17-2.94,4.58-4.35,1.6-1.6,3.23-3.32,4.83-5.11l.09-.1h.14c14.65,1.79,26.45,11.83,29.72,14.86l.23.21Zm-52.89,37,0,.37-.36-.09c-2.94-.72-10.32-3-15.13-8.56a40,40,0,0,1-7.08-10.87,9.34,9.34,0,0,1-.77-4.09l0-.23h.44a18.86,18.86,0,0,0,2.8-.23h.06l3.27,1c1.72.57,3.59,1.1,5.55,1.57h.06l.05,0a53.73,53.73,0,0,1,4.8,4.87c4.64,5.38,5.9,12.48,6.25,16.23m-24.38-26.19h0a9.14,9.14,0,0,1-2.51-.59,6.68,6.68,0,0,1-2.35-1.5c-1.48-1.48-2.2-3.71-2.15-6.61.08-4.9,2.49-11.57,6.79-18.78l.22-.38.23.38c4.26,7.13,6.67,13.76,6.78,18.68v.21c0,2.86-.7,5-2.15,6.5a6.85,6.85,0,0,1-1.91,1.32,9.82,9.82,0,0,1-2.9.77Zm-9.52,17.91h0c-4.62,5.35-11.46,7.66-15.13,8.56l-.36.09,0-.37c.35-3.76,1.62-10.86,6.25-16.23a53.23,53.23,0,0,1,4.26-4.39l.06-.05.07,0c2.35-.49,4.66-1.1,6.86-1.79l3.84-1.11h.05c.58.06,1.11.09,1.6.11h.23l0,.23c.32,3.34-2.59,8.93-7.78,15m-25.63-13c-19.7,0-36.54-12-41.24-15.69l-.24-.19.22-.21c3.17-3,14.62-12.87,28.87-14.75l.13,0,.1.1c.17.2.35.39.53.59l1.11,1.21.4.44c.89.94,1.78,1.85,2.71,2.78,1.47,1.48,3,3,4.69,4.45.34.31.68.6,1,.89l.64.55.31.27c.91.79,1.86,1.61,2.8,2.37.46.37.91.71,1.35,1l.64.49.47.36c.77.59,1.56,1.2,2.35,1.76.54.39,1.09.76,1.6,1.11l.49.33c.91.62,1.8,1.22,2.69,1.78q.89.56,1.74,1l.36.21c.72.43,1.67,1,2.61,1.48.77.42,1.54.8,2,1.05.84.41,1.67.8,2.53,1.17.68.3,1.34.57,1.95.81s1.53.56,2.38.84l.82.26-.83.24a93.1,93.1,0,0,1-25.25,3.22m-25.69-72.4,0-.3.29,0c5.27.25,23.53,2,37.17,13.19l.09.08V121c0,2.24.09,4.53.22,6.8l0,.4,0,.31c.14,2.32.32,4.45.54,6.5,0,.51.12,1,.19,1.48,0,.31.09.63.13.94l.08.63c.16,1.29.33,2.63.54,3.91.1.56.2,1.1.31,1.63l0,.12c0,.26.11.52.15.78l.2,1.06c.07.42.15.84.23,1.27l.07.36-.36-.05c-2.1-.32-4.21-.56-6.27-.73l-.33,0-.27,0c-2.63-.2-5.1-.3-7.34-.3-1.95,0-3.92.06-5.87.16l-1.05.08-.77.07-.65,0c-.92.06-1.81.12-2.7.21H95l-.09-.1c-12-14-14.07-33.14-14.43-38.65m52.81,66.52-1-.34c-.54-.18-1.1-.39-1.64-.59l-.69-.26c-.47-.17-.92-.34-1.39-.53-.68-.3-1.41-.65-2.11-1l-1-.5c-.44-.2-.85-.4-1.28-.63-.74-.39-1.5-.83-2.22-1.26l-.39-.22-.61-.36c-.49-.28-.93-.53-1.38-.81-.69-.43-1.41-.92-2.1-1.39l-.65-.44-.68-.45-.06,0c-.4-.26-.81-.54-1.22-.83-.73-.52-1.47-1.09-2.19-1.65l-.72-.56-.7-.52-1.15-.89c-.93-.75-1.88-1.57-2.8-2.37l-.41-.36-.64-.54-.15-.13c-.25-.21-.5-.42-.74-.64-1.64-1.48-3.22-3-4.68-4.43-1-1-2-2-3-3.16l-.36-.4.54,0,1.05-.07.72-.06,1.14-.08c2-.1,3.75-.15,5.48-.15,2.42,0,5,.11,7.64.33h.31c2.26.19,4.65.48,7.08.87l.17,0,0,.17c.34,1.4.73,2.84,1.16,4.29,0,.12.07.24.11.35s0,.14.07.2l0,.08c.46,1.53.9,2.85,1.34,4,.12.33.24.63.35.89l.09.22.12.29c.34.88.75,1.9,1.17,2.84.16.34.32.66.48,1l.22.45c.51,1,.87,1.72,1.2,2.31.23.41.47.8.68,1.15l.12.19c.41.67.82,1.3,1.27,1.92.3.43.58.81.86,1.16.42.54.87,1.06,1.36,1.59l.1.11.4.42Zm0-16.72-.13.43-.12.34,0,.06c-.08.22-.15.43-.21.64-.16.57-.29,1.12-.42,1.68l0,.22-.06.24,0,.14-.09.37c-.13.69-.22,1.33-.29,1.92l0,.23c0,.14,0,.25-.06.36a19,19,0,0,0-.1,2.32c0,.28,0,.54,0,.81l0,.93-.51-.78c-.28-.43-.55-.88-.84-1.37l-.05-.1a1.74,1.74,0,0,1-.1-.19l-.15-.27c-.47-.85-.94-1.77-1.41-2.75l-.12-.27c-.1-.21-.2-.41-.29-.62-.59-1.32-1.09-2.52-1.52-3.69l-.08-.22c0-.09,0-.17-.08-.25-.43-1.18-.83-2.39-1.23-3.7-.12-.38-.23-.76-.34-1.15-.5-1.73-.88-3.18-1.2-4.55,0,0,0,0,0-.06l-.21-1c-.19-.84-.37-1.72-.56-2.68l-.29-1.5-.21-1.23c0-.29-.09-.6-.14-.9l0-.24c0-.3-.07-.59-.12-.88l0-.16c-.23-1.49-.46-3-.63-4.59-.07-.59-.12-1.22-.16-1.76l-.09-1-.07-.8c-.1-1.13-.21-2.29-.28-3.45,0-.73-.07-1.48-.08-2.12,0-.34,0-.68,0-1s0-.8,0-1.21l0-.62.46.41c1.59,1.43,3,2.77,4.35,4.11s2.75,2.82,4.08,4.28l.47.54.09.11.46.54,0,0c.9,1,1.83,2.07,2.7,3.14.34.41.67.84,1,1.24l.18.24.37.48.5.63c.48.61.95,1.21,1.39,1.81s.84,1.18,1.18,1.69l.06.08c.12.19.25.37.38.55l.3.44.28.4.44.63.09.14-.09.15a4,4,0,0,0-.2.35l-.12.2-.16.26-.24.39c-.25.42-.52.86-.76,1.28l-.51.93-.57,1.06c-.18.33-.39.72-.58,1.09s-.4.82-.58,1.22l-.44.92c-.14.29-.28.58-.4.86-.2.44-.37.88-.54,1.3l-.14.38c-.06.12-.11.25-.16.37l-.09.22c-.08.21-.17.42-.24.62-.17.45-.31.9-.45,1.32m-12.6-38.17c.12-26.14,16-48.2,20.91-54.34l.2-.26.21.25c4.81,6,20.53,27.73,20.88,53.55v.12l-.1.08c-2.66,2.26-5.22,4.61-7.61,7-1.37,1.38-2.76,2.83-4.11,4.32-.33.36-.64.73-.95,1.1-.19.21-.38.44-.57.66l-.57.65c-.58.66-1.18,1.35-1.74,2-.36.43-.69.87-1,1.28l-.49.64-.39.48c-.59.75-1.11,1.42-1.61,2.1-.32.42-.61.84-.89,1.25l-.47.69-.43.6-.58.82-.05.07-.21-.28-.45-.62-.36-.5-.66-1c-.25-.36-.51-.73-.79-1.1-.6-.83-1.27-1.67-1.86-2.42l-.28-.36c-.12-.14-.23-.28-.34-.43l-.16-.2c-.27-.36-.55-.72-.84-1.07-.78-.95-1.61-1.9-2.42-2.82l-.17-.19c-.14-.15-.26-.3-.39-.45l-.26-.3c-.19-.22-.38-.45-.59-.67-1.36-1.5-2.74-2.95-4.1-4.32-1.16-1.15-2.35-2.29-3.54-3.4l-.48-.42-.19-.17-.45-.4-.54-.48c-.48-.44-1-.89-1.47-1.32l-.09-.08Zm30.9,53.53c.47-.51,1-1.08,1.48-1.74.18-.23.36-.48.53-.73l.28-.39c.48-.69.9-1.34,1.28-2,.25-.41.51-.85.79-1.36.39-.71.78-1.46,1.17-2.28l0-.11c.26-.53.47-1,.66-1.4.34-.75.68-1.59,1.12-2.71.05-.14.11-.29.17-.43v0c.15-.37.28-.7.41-1.06.4-1.1.79-2.29,1.23-3.74,0-.14.09-.28.13-.42s.11-.33.16-.51c.41-1.4.79-2.83,1.14-4.26l0-.17.17,0c1.71-.24,3.49-.43,5.3-.58h.16c1.66-.13,3.5-.23,5.62-.31h.37l.47,0c1.67,0,3.44,0,5.42,0h.38l.8,0c1.33,0,2.66.11,3.95.2l.54,0-.36.4c-1.19,1.29-2.17,2.32-3.09,3.24-1.41,1.41-2.92,2.85-4.49,4.27l-.84.72-.24.2-.37.32-.07.06c-.89.78-2,1.76-3.07,2.62l-.92.72-.17.13-.61.46-.09.08c-1,.75-1.91,1.48-2.84,2.15-.35.26-.71.5-1.1.77l-.59.41c-1,.71-2,1.35-2.92,1.95l-.87.54-.73.43c-.87.53-1.91,1.15-2.94,1.71-.37.19-.73.38-1.09.55l-.37.19c-1.2.62-2.1,1-2.92,1.41-.38.17-.75.32-1.12.47l-.23.09c-.52.22-1,.42-1.57.62l-1,.35Zm-.61-6.64a20.65,20.65,0,0,0-.12-2.19c0-.16,0-.32-.07-.48v-.05c0-.09,0-.17,0-.25l0-.34c-.06-.45-.13-.9-.23-1.38,0-.16-.08-.32-.12-.49l-.05-.21-.09-.34-.06-.28c-.11-.44-.21-.87-.34-1.31-.08-.25-.16-.52-.25-.77l-.15-.43-.18-.57c-.11-.32-.22-.66-.35-1s-.22-.58-.34-.87l-.32-.79c-.15-.39-.32-.81-.51-1.24-.12-.28-.26-.56-.4-.85l-.07-.14c0-.11-.1-.21-.14-.31l-.23-.48c-.18-.4-.37-.8-.58-1.21l-.46-.86-.1-.19-.15-.28-.25-.47c-.22-.42-.45-.84-.7-1.27s-.35-.61-.54-.92l-.28-.46-.31-.53-.18-.3-.14-.24-.09-.15.09-.14.84-1.21.4-.57c.11-.16.22-.31.32-.47l.17-.24c.27-.4.58-.85.9-1.29s.78-1,1.18-1.54l.13-.16.53-.67.44-.57.16-.2c.32-.42.65-.86,1-1.28.52-.64,1.09-1.29,1.64-1.91l.64-.73.58-.68.13-.15q.38-.45.78-.9c1.3-1.44,2.67-2.87,4.06-4.26,1.57-1.57,3.31-3.2,5.32-5l.45-.4-.09,3.07c0,.74,0,1.5-.08,2.24-.06,1.1-.16,2.21-.25,3.28l-.08.83c0,.36-.05.72-.08,1.08-.05.63-.1,1.3-.17,1.93-.13,1.18-.3,2.32-.48,3.58l-.1.72c0,.27-.08.53-.11.79l0,.24c-.07.56-.14,1.07-.22,1.56-.22,1.28-.48,2.53-.71,3.64l-.14.65-.18.92c-.08.45-.16.88-.26,1.3-.33,1.46-.73,3-1.22,4.7-.07.26-.15.51-.23.76l-.16.54c-.33,1.07-.67,2.12-1,3.11l-.07.2-.4,1.11c-.37,1-.77,1.95-1.21,3l-.24.54a3.27,3.27,0,0,1-.14.33c-.57,1.24-1.15,2.37-1.72,3.39l-.19.32-.16.25c-.5.86-1,1.62-1.48,2.32l-.32.43-.61.81.14-1a15.34,15.34,0,0,0,.15-2.09v-.05l.05-.25ZM163,145.6l.05-.25c.06-.35.12-.71.19-1.06s.11-.61.17-.92c.11-.53.22-1.1.32-1.7.21-1.28.38-2.65.52-3.76l.12-1c0-.19.05-.38.08-.56.08-.56.16-1.15.22-1.76.16-1.46.26-3,.36-4.45l0-.38c0-.18,0-.35,0-.52l0-.56c0-.45.08-.92.1-1.39.13-2.37.19-4.75.2-7.08v-.12l.1-.08c13.32-10.7,31.08-12.2,36.21-12.4h.29l0,.29c-.35,5.5-2.42,24.54-14.37,38.59l-.09.1h-.13a117.76,117.76,0,0,0-12.44-.45h-.33c-2,0-4,.14-6.09.28l-.66.05c-1.58.12-3.2.28-4.81.49l-.36,0,.07-.35c.07-.35.13-.7.19-1.05m58.25,15.7a70.27,70.27,0,0,0-11.4-8.51A55.39,55.39,0,0,0,193.16,146c10.65-14.6,12.57-32.66,12.91-37.88l.3-4.74-4.74.19c-4.76.18-21.22,1.51-35,10.67-1.94-25.19-17-45.82-21.56-51.58l-3.36-4.21-3.34,4.22c-4.64,5.85-19.83,26.79-21.61,52.27-14.06-9.59-31-11.12-35.86-11.36l-4.79-.23.31,4.78c.34,5.25,2.29,23.38,13,38a54,54,0,0,0-16.24,6.74,68.43,68.43,0,0,0-11.08,8.4l-3.63,3.41,3.92,3.07c5,3.89,22.76,16.55,43.72,16.55a111,111,0,0,0,12.66-.71c-4.79,6.09-6.12,13.6-6.49,17.62l-.54,6,5.82-1.42c4.13-1,11.87-3.62,17.23-9.84a52.91,52.91,0,0,0,6.16-8.66,53.57,53.57,0,0,0,6.19,8.66c5.37,6.23,13.1,8.84,17.22,9.84l5.82,1.42-.54-6c-.38-4.1-1.75-11.74-6.66-17.83a108.38,108.38,0,0,0,14.32.92c21,0,38.76-12.66,43.7-16.54l3.95-3.09Z"/></svg>