<?xml version="1.0" encoding="utf-8"?>
<!-- Generator: Adobe Illustrator 24.1.1, SVG Export Plug-In . SVG Version: 6.00 Build 0)  -->
<svg version="1.1" id="Laag_1" xmlns="http://www.w3.org/2000/svg" xmlns:xlink="http://www.w3.org/1999/xlink" x="0px" y="0px"
	 viewBox="0 0 250 250" style="enable-background:new 0 0 250 250;" xml:space="preserve">
<style type="text/css">
	.st0{fill:#284734;}
	.st1{clip-path:url(#SVGID_2_);fill:#FFFFFF;}
	.st2{fill:#25AFA5;}
	.st3{fill:none;}
	.st4{clip-path:url(#SVGID_4_);fill:#284734;}
	.st5{clip-path:url(#SVGID_6_);fill:none;stroke:#284734;stroke-width:1.4952;stroke-miterlimit:10;}
	.st6{clip-path:url(#SVGID_8_);fill:#284734;}
	.st7{clip-path:url(#SVGID_10_);fill:#67806A;}
	.st8{clip-path:url(#SVGID_10_);fill:#284734;}
	.st9{clip-path:url(#SVGID_12_);}
	.st10{filter:url(#Adobe_OpacityMaskFilter);}
	.st11{clip-path:url(#SVGID_14_);}
	.st12{clip-path:url(#SVGID_14_);mask:url(#SVGID_15_);}
	.st13{opacity:0.75;clip-path:url(#SVGID_19_);fill:#222221;}
	.st14{clip-path:url(#SVGID_14_);fill:#284734;}
	.st15{clip-path:url(#SVGID_21_);fill:#25AFA5;}
	.st16{clip-path:url(#SVGID_23_);fill:#25AFA5;}
	.st17{clip-path:url(#SVGID_25_);fill:#25AFA5;}
	.st18{clip-path:url(#SVGID_27_);fill:#284734;}
	.st19{clip-path:url(#SVGID_29_);fill:#284734;}
	.st20{clip-path:url(#SVGID_31_);fill:#284734;}
	.st21{clip-path:url(#SVGID_33_);fill:#284734;}
	.st22{clip-path:url(#SVGID_35_);fill:#284734;}
	.st23{clip-path:url(#SVGID_37_);fill:#284734;}
	.st24{clip-path:url(#SVGID_41_);fill:#284734;}
	.st25{clip-path:url(#SVGID_43_);fill:#284734;}
	.st26{clip-path:url(#SVGID_45_);fill:#284734;}
	.st27{clip-path:url(#SVGID_47_);fill:#284734;}
</style>
<rect y="0" class="st0" width="250" height="250"/>
<g>
	<defs>
		<rect id="SVGID_1_" y="0" width="250" height="250"/>
	</defs>
	<clipPath id="SVGID_2_">
		<use xlink:href="#SVGID_1_"  style="overflow:visible;"/>
	</clipPath>
	<path class="st1" d="M122.3,181.1c0.4,4.2-3.2,11.2-9.7,18.7c-5.8,6.7-14.3,9.6-18.9,10.7l-0.5,0.1l0.1-0.5
		c0.4-4.7,2-13.6,7.8-20.3c1.6-1.9,3.4-3.7,5.3-5.5l0.1-0.1l0.1,0c2.9-0.6,5.8-1.4,8.6-2.3l4.8-1.4h0.1c0.7,0.1,1.4,0.1,2,0.1h0.3
		L122.3,181.1z"/>
	<path class="st1" d="M154.9,210.6l-0.4-0.1c-3.7-0.9-12.9-3.7-18.9-10.7c-4.3-5-7.3-9.7-8.9-13.6c-0.8-2-1.1-3.7-1-5.1l0-0.3h0.6
		c1,0,2.1-0.1,3.5-0.3l0.1,0l4.1,1.2c2.1,0.7,4.5,1.4,6.9,2l0.1,0l0.1,0.1c2.2,1.9,4.2,3.9,6,6.1c5.8,6.7,7.4,15.6,7.8,20.3
		L154.9,210.6z"/>
	<path class="st1" d="M221.3,163.7l-0.3,0.2c-5.9,4.6-26.9,19.6-51.5,19.6c-11.6,0-23-1.5-32.2-4.2l-0.9-0.3l0.9-0.3
		c0,0,0.1,0,0.1,0l0.1,0c1-0.4,2-0.7,3-1.1c0.8-0.3,1.6-0.7,2.4-1c1-0.4,2-0.9,3.1-1.5c1-0.5,1.8-0.9,2.5-1.3
		c1.1-0.6,2.2-1.3,3.2-1.8l0.2-0.1c0.7-0.4,1.6-0.9,2.4-1.4c1.1-0.7,2.1-1.4,3.3-2.2l0.6-0.4c0.7-0.4,1.3-0.9,2-1.4
		c1-0.7,2-1.5,3-2.3l0.4-0.3c0.3-0.2,0.5-0.4,0.8-0.6c0.5-0.4,1.1-0.8,1.6-1.3c1.3-1,2.5-2.1,3.6-3.1l0.2-0.2
		c0.2-0.2,0.5-0.5,0.8-0.7c0.4-0.4,0.8-0.7,1.2-1.1c2-1.8,3.9-3.6,5.7-5.4c2-2,4-4.2,6-6.4l0.1-0.1l0.2,0
		c18.3,2.2,33,14.8,37.1,18.6L221.3,163.7z"/>
	<path class="st1" d="M179.5,144.5l-0.4,0.5c-1.5,1.6-2.7,2.9-3.9,4.1c-1.8,1.8-3.6,3.6-5.6,5.3c-0.3,0.3-0.7,0.6-1,0.9l-0.3,0.3
		c-0.2,0.1-0.3,0.2-0.5,0.4l-0.1,0.1c-1.1,1-2.5,2.2-3.8,3.3c-0.4,0.3-0.8,0.6-1.1,0.9l-0.2,0.2c-0.2,0.2-0.5,0.4-0.7,0.6l-0.1,0.1
		c-1.2,1-2.4,1.8-3.5,2.7c-0.4,0.3-0.9,0.6-1.4,1l-0.7,0.5c-1.3,0.9-2.4,1.7-3.6,2.4c-0.4,0.2-0.7,0.4-1.1,0.7l-0.9,0.5
		c-1.1,0.7-2.4,1.4-3.7,2.1c-0.5,0.3-0.9,0.5-1.4,0.7l-0.5,0.2c-1.5,0.8-2.6,1.3-3.6,1.7c-0.5,0.2-1,0.4-1.4,0.6l-0.3,0.1
		c-0.7,0.3-1.3,0.5-2,0.8l-1.2,0.4l0.9-1.1c0.6-0.7,1.2-1.4,1.8-2.2c0.2-0.3,0.5-0.6,0.7-0.9l0.3-0.5c0.6-0.9,1.1-1.7,1.6-2.4
		c0.3-0.5,0.7-1.1,1-1.7c0.5-0.9,1-1.8,1.5-2.9l0.1-0.1c0.3-0.7,0.6-1.2,0.8-1.8c0.4-0.9,0.8-2,1.4-3.4c0.1-0.2,0.1-0.4,0.2-0.5
		l0-0.1c0.2-0.5,0.4-0.9,0.5-1.3c0.5-1.4,1-2.9,1.5-4.7c0.1-0.2,0.1-0.4,0.2-0.5c0.1-0.2,0.1-0.4,0.2-0.6c0.5-1.7,1-3.5,1.4-5.3
		l0.1-0.2l0.2,0c2.1-0.3,4.4-0.5,6.6-0.7h0.2c2.1-0.2,4.4-0.3,7-0.4c0.2,0,0.3,0,0.5,0h0.6c2.1-0.1,4.3-0.1,6.8,0h0.5
		c0.4,0,0.7,0,1,0c1.7,0.1,3.3,0.1,4.9,0.2L179.5,144.5z"/>
	<path class="st1" d="M200.4,92.7l0,0.4c-0.4,6.9-3,30.7-18,48.2l-0.1,0.1l-0.2,0c-4.7-0.4-10.2-0.6-15.6-0.5h-0.4
		c-2.5,0.1-5.1,0.2-7.6,0.4l-0.8,0.1c-2,0.2-4,0.4-6,0.6l-0.4,0.1l0.1-0.5c0.1-0.4,0.2-0.9,0.2-1.3l0.1-0.3c0.1-0.4,0.1-0.9,0.2-1.3
		c0.1-0.4,0.2-0.8,0.2-1.1c0.1-0.7,0.3-1.4,0.4-2.1c0.3-1.6,0.5-3.3,0.7-4.7l0.2-1.3c0-0.2,0.1-0.5,0.1-0.7c0.1-0.7,0.2-1.4,0.3-2.2
		c0.2-1.8,0.3-3.7,0.5-5.6l0-0.5c0-0.2,0-0.4,0.1-0.7l0.1-0.7c0.1-0.6,0.1-1.2,0.1-1.7c0.1-3,0.2-5.9,0.2-8.8v-0.2l0.1-0.1
		C171.5,94.8,193.6,93,200,92.7L200.4,92.7z"/>
	<path class="st1" d="M151.3,111.2l-0.1,3.8c0,0.9-0.1,1.9-0.1,2.8c-0.1,1.4-0.2,2.8-0.3,4.1l-0.1,1c0,0.5-0.1,0.9-0.1,1.4
		c-0.1,0.8-0.1,1.6-0.2,2.4c-0.2,1.5-0.4,2.9-0.6,4.5l-0.1,0.9c-0.1,0.3-0.1,0.7-0.1,1l-0.1,0.3c-0.1,0.7-0.2,1.4-0.3,2
		c-0.2,1.6-0.6,3.2-0.9,4.5l-0.2,0.8c-0.1,0.4-0.1,0.8-0.2,1.1c-0.1,0.6-0.2,1.1-0.3,1.6c-0.4,1.8-0.9,3.8-1.5,5.9
		c-0.1,0.3-0.2,0.6-0.3,1l-0.2,0.7c-0.4,1.3-0.8,2.6-1.3,3.9l-0.1,0.3c-0.2,0.5-0.3,0.9-0.5,1.4c-0.5,1.2-1,2.5-1.5,3.7l-0.3,0.7
		c-0.1,0.1-0.1,0.3-0.2,0.4c-0.7,1.6-1.4,3-2.1,4.2c-0.1,0.1-0.2,0.3-0.2,0.4l-0.2,0.3c-0.6,1.1-1.3,2-1.8,2.9
		c-0.1,0.2-0.3,0.4-0.4,0.5l-0.8,1l0.2-1.3c0.1-0.9,0.2-1.8,0.2-2.6l0-0.1l0.1-0.3l-0.1-0.3c0-0.9,0-1.8-0.1-2.7
		c0-0.2-0.1-0.4-0.1-0.6v-0.1c0-0.1,0-0.2-0.1-0.3l-0.1-0.4c-0.1-0.6-0.2-1.1-0.3-1.7c0-0.2-0.1-0.4-0.1-0.6l-0.1-0.3
		c-0.1-0.1-0.1-0.3-0.1-0.4l-0.1-0.4c-0.1-0.6-0.2-1.1-0.4-1.7c-0.1-0.3-0.2-0.6-0.3-0.9c-0.1-0.2-0.1-0.4-0.2-0.5l-0.2-0.7
		c-0.1-0.4-0.2-0.8-0.4-1.3c-0.1-0.4-0.3-0.7-0.4-1.1l-0.4-1c-0.2-0.5-0.4-1-0.6-1.6c-0.2-0.4-0.3-0.7-0.5-1.1l-0.1-0.2
		c-0.1-0.1-0.1-0.2-0.2-0.4l-0.3-0.6c-0.2-0.5-0.5-1-0.7-1.5c-0.2-0.4-0.4-0.7-0.6-1.1l-0.1-0.2c-0.1-0.1-0.1-0.2-0.2-0.4l-0.3-0.6
		c-0.3-0.5-0.5-1.1-0.9-1.6c-0.2-0.4-0.4-0.7-0.7-1.1l-0.3-0.6c-0.1-0.2-0.3-0.4-0.4-0.7c-0.1-0.1-0.1-0.2-0.2-0.4
		c-0.1-0.1-0.1-0.2-0.2-0.3l-0.1-0.2l0.1-0.2c0.3-0.5,0.7-1,1-1.5l0.5-0.7c0.1-0.2,0.2-0.4,0.4-0.6l0.2-0.3c0.3-0.5,0.7-1.1,1.1-1.6
		c0.5-0.6,1-1.3,1.5-1.9l0.1-0.2c0.2-0.3,0.5-0.5,0.7-0.8c0.2-0.2,0.4-0.5,0.5-0.7l0.2-0.2c0.4-0.5,0.8-1.1,1.3-1.6
		c0.7-0.8,1.4-1.6,2.1-2.4l0.8-0.9c0.2-0.3,0.5-0.6,0.7-0.9l0.2-0.2c0.3-0.4,0.6-0.8,1-1.1c1.6-1.8,3.3-3.6,5.1-5.3
		c2-2,4.1-4,6.6-6.2L151.3,111.2z"/>
	<path class="st1" d="M133.2,166.5L133.2,166.5l0,0.2c0.1,3.6-0.8,6.3-2.7,8.1c-0.7,0.7-1.5,1.2-2.4,1.7c-1.1,0.5-2.3,0.8-3.6,1
		h-0.1c-1.2-0.1-2.2-0.4-3.2-0.7c-1.2-0.5-2.1-1.1-2.9-1.9c-1.8-1.8-2.7-4.6-2.7-8.3c0.1-6.1,3.1-14.4,8.5-23.4l0.3-0.5l0.3,0.5
		C130,152,133.1,160.3,133.2,166.5L133.2,166.5z"/>
	<path class="st1" d="M151.4,106.6v0.2l-0.1,0.1c-3.3,2.8-6.5,5.8-9.5,8.7c-1.7,1.7-3.5,3.5-5.1,5.4c-0.4,0.4-0.8,0.9-1.2,1.4
		c-0.2,0.3-0.5,0.5-0.7,0.8L134,124c-0.7,0.8-1.5,1.7-2.2,2.5c-0.4,0.5-0.9,1.1-1.3,1.6c-0.2,0.3-0.4,0.5-0.6,0.8l-0.5,0.6
		c-0.7,0.9-1.4,1.8-2,2.6c-0.4,0.5-0.8,1-1.1,1.6l-0.6,0.9c-0.2,0.2-0.4,0.5-0.5,0.7l-0.7,1l-0.1,0.1l-0.2-0.4l-0.6-0.8
		c-0.2-0.2-0.3-0.4-0.5-0.6l-0.8-1.2c-0.3-0.5-0.7-0.9-1-1.4c-0.8-1-1.6-2.1-2.3-3l-0.4-0.4c-0.1-0.2-0.3-0.4-0.4-0.5l-0.2-0.2
		c-0.4-0.5-0.7-0.9-1.1-1.4c-1-1.2-2-2.4-3-3.5l-0.2-0.2l-0.5-0.6l-0.3-0.4c-0.2-0.3-0.5-0.6-0.7-0.8c-1.7-1.9-3.4-3.7-5.1-5.4
		c-1.4-1.4-2.9-2.9-4.4-4.2c-0.2-0.2-0.4-0.4-0.6-0.5l-0.2-0.2c-0.2-0.2-0.4-0.3-0.6-0.5l-0.7-0.6c-0.6-0.5-1.2-1.1-1.8-1.6
		l-0.1-0.1v-0.1c0.1-32.7,20-60.2,26.1-67.9l0.3-0.3l0.2,0.3C131.3,47.3,150.9,74.4,151.4,106.6"/>
	<path class="st1" d="M122.2,139.2l-0.1,0.2c-0.1,0.2-0.2,0.3-0.3,0.5l-0.1,0.2c-0.1,0.1-0.1,0.2-0.2,0.3l-0.3,0.5
		c-0.3,0.5-0.7,1.1-1,1.6c-0.2,0.4-0.4,0.8-0.7,1.1l-0.7,1.3c-0.2,0.4-0.5,0.9-0.7,1.4c-0.2,0.5-0.5,1-0.7,1.5l-0.5,1.1
		c-0.2,0.4-0.4,0.7-0.5,1.1c-0.2,0.5-0.5,1.1-0.7,1.6l-0.2,0.5c-0.1,0.2-0.1,0.3-0.2,0.5l-0.1,0.3c-0.1,0.3-0.2,0.5-0.3,0.8
		c-0.2,0.5-0.4,1.1-0.5,1.6l-0.2,0.5c-0.1,0.1-0.1,0.3-0.2,0.4l0,0.1c-0.1,0.3-0.2,0.5-0.2,0.8c-0.2,0.7-0.4,1.4-0.5,2.1l-0.1,0.3
		c0,0.1-0.1,0.2-0.1,0.3l0,0.2c-0.1,0.2-0.1,0.3-0.1,0.5c-0.2,0.9-0.3,1.7-0.4,2.4l-0.1,0.3c0,0.2-0.1,0.3-0.1,0.5
		c-0.1,1-0.2,2-0.1,2.9c0,0.4,0,0.7,0,1l0,1.2l-0.6-1c-0.4-0.5-0.7-1.1-1.1-1.7l-0.1-0.1c-0.1-0.1-0.1-0.2-0.1-0.2l-0.2-0.3
		c-0.6-1.1-1.2-2.2-1.8-3.5l-0.2-0.3c-0.1-0.2-0.2-0.5-0.4-0.8c-0.7-1.6-1.4-3.1-1.9-4.6l-0.1-0.3c0-0.1-0.1-0.2-0.1-0.3
		c-0.5-1.5-1-3-1.5-4.6c-0.1-0.5-0.3-0.9-0.4-1.4c-0.6-2.2-1.1-4-1.5-5.7v-0.1l-0.3-1.2c-0.2-1.1-0.5-2.1-0.7-3.3l-0.4-1.9
		c-0.1-0.5-0.2-1-0.3-1.6c-0.1-0.4-0.1-0.7-0.2-1.1l0-0.3c-0.1-0.4-0.1-0.7-0.2-1.1l0-0.2c-0.3-1.8-0.6-3.8-0.8-5.7
		c-0.1-0.7-0.1-1.5-0.2-2.2c0-0.4-0.1-0.9-0.1-1.3l-0.1-1c-0.1-1.4-0.3-2.9-0.4-4.3c-0.1-0.9-0.1-1.8-0.1-2.6c0-0.4,0-0.8-0.1-1.3
		c0-0.5,0-1-0.1-1.5l0-0.8l0.6,0.5c2,1.8,3.8,3.5,5.4,5.1c1.7,1.7,3.4,3.5,5.1,5.3c0.2,0.2,0.4,0.5,0.6,0.7l0.1,0.1
		c0.2,0.2,0.4,0.5,0.6,0.7l0.1,0.1c1.1,1.3,2.3,2.6,3.4,3.9c0.4,0.5,0.8,1,1.2,1.6l0.2,0.3c0.1,0.2,0.3,0.4,0.5,0.6l0.6,0.8
		c0.6,0.8,1.2,1.5,1.7,2.3c0.5,0.7,1.1,1.5,1.5,2.1l0.1,0.1c0.2,0.2,0.3,0.5,0.5,0.7c0.1,0.2,0.2,0.4,0.4,0.5l0.4,0.5
		c0.2,0.3,0.4,0.5,0.6,0.8L122.2,139.2z"/>
	<path class="st1" d="M98.8,142.2l-0.5-0.1c-2.6-0.4-5.2-0.7-7.8-0.9l-0.4,0c-0.1,0-0.2,0-0.3,0c-3.3-0.2-6.4-0.4-9.2-0.4
		c-2.4,0-4.9,0.1-7.3,0.2c-0.5,0-0.9,0.1-1.3,0.1c-0.3,0.1-0.6,0.1-1,0.1l-0.8,0.1c-1.1,0.1-2.3,0.1-3.4,0.2l-0.2,0l-0.1-0.1
		c-14.9-17.6-17.6-41.4-18-48.3l0-0.4l0.4,0c6.6,0.3,29.4,2.4,46.4,16.5l0.1,0.1v0.2c0,2.8,0.1,5.7,0.3,8.5c0,0.2,0,0.4,0.1,0.5
		l0,0.4c0.2,2.9,0.4,5.6,0.7,8.1c0.1,0.7,0.2,1.3,0.2,1.8c0.1,0.4,0.1,0.8,0.2,1.2l0.1,0.8c0.2,1.6,0.4,3.3,0.7,4.9
		c0.1,0.7,0.2,1.4,0.4,2l0,0.1c0.1,0.3,0.1,0.7,0.2,1l0.2,1.3c0.1,0.5,0.2,1.1,0.3,1.6L98.8,142.2z"/>
	<path class="st1" d="M114.4,176.2l-1.3-0.4c-0.7-0.2-1.4-0.5-2.1-0.8l-0.8-0.3c-0.6-0.2-1.1-0.4-1.7-0.7c-0.9-0.4-1.8-0.8-2.6-1.2
		l-1.3-0.6c-0.5-0.3-1.1-0.5-1.6-0.8c-0.9-0.5-1.9-1.1-2.8-1.6l-0.5-0.3c-0.2-0.2-0.5-0.3-0.8-0.5c-0.6-0.3-1.2-0.7-1.7-1
		c-0.9-0.5-1.8-1.1-2.6-1.7l-0.8-0.5c-0.3-0.2-0.6-0.4-0.8-0.6l-0.1-0.1c-0.5-0.3-1-0.7-1.5-1c-0.9-0.7-1.8-1.4-2.7-2l-0.9-0.7
		l-0.9-0.7c-0.5-0.4-1-0.7-1.4-1.1c-1.2-0.9-2.4-2-3.5-3l-0.5-0.4c-0.2-0.2-0.5-0.5-0.8-0.7l-0.2-0.2c-0.3-0.3-0.6-0.5-0.9-0.8
		c-2.1-1.8-4-3.7-5.8-5.5c-1.3-1.3-2.5-2.6-3.8-3.9l-0.5-0.5l0.7-0.1c0.4-0.1,0.9-0.1,1.3-0.1c0.3,0,0.6,0,0.9-0.1
		c0.5-0.1,1-0.1,1.4-0.1c2.4-0.1,4.7-0.2,6.8-0.2c3,0,6.3,0.1,9.5,0.4l0.2,0h0.1c2.8,0.2,5.8,0.6,8.9,1.1l0.2,0l0.1,0.2
		c0.4,1.8,0.9,3.6,1.4,5.4c0,0.2,0.1,0.3,0.1,0.5c0,0.1,0.1,0.2,0.1,0.2l0,0.1c0.6,1.9,1.1,3.6,1.7,5.1c0.1,0.4,0.3,0.8,0.4,1.1
		l0.1,0.3c0.1,0.1,0.1,0.2,0.1,0.4c0.4,1.1,1,2.4,1.5,3.5c0.2,0.4,0.4,0.8,0.6,1.3l0.3,0.5c0.6,1.3,1.1,2.1,1.5,2.9
		c0.3,0.5,0.6,1,0.8,1.4l0.1,0.2c0.5,0.8,1,1.6,1.6,2.4c0.4,0.5,0.7,1,1.1,1.4c0.5,0.7,1.1,1.3,1.7,2l0.1,0.1
		c0.2,0.2,0.3,0.4,0.5,0.5L114.4,176.2z"/>
	<path class="st1" d="M113.1,179.2l-1,0.3c-9.2,2.6-20.1,4-31.6,4c-24.6,0-45.6-15-51.5-19.6l-0.3-0.2l0.3-0.3
		c4-3.7,18.3-16.1,36.1-18.4l0.2,0l0.1,0.1c0.2,0.2,0.4,0.5,0.7,0.7l1.4,1.5c0.2,0.2,0.3,0.4,0.5,0.5c1.1,1.2,2.2,2.3,3.4,3.5
		c1.8,1.9,3.8,3.7,5.8,5.6c0.4,0.4,0.9,0.8,1.3,1.1c0.3,0.2,0.5,0.5,0.8,0.7l0.4,0.4c1.1,1,2.3,2,3.5,3c0.6,0.4,1.1,0.9,1.7,1.3
		c0.3,0.2,0.5,0.4,0.8,0.6l0.6,0.5c1,0.7,2,1.5,2.9,2.2c0.7,0.5,1.4,1,2,1.4l0.6,0.4c1.1,0.8,2.3,1.5,3.4,2.2
		c0.7,0.5,1.4,0.9,2.1,1.3l0.5,0.3c0.9,0.5,2.1,1.2,3.3,1.8c1,0.5,1.9,1,2.6,1.3c1,0.5,2.1,1,3.2,1.5c0.8,0.4,1.7,0.7,2.4,1
		c0.9,0.4,1.9,0.7,3,1L113.1,179.2z"/>
</g>
</svg>
