<?xml version="1.0" encoding="utf-8"?>
<!-- Generator: Adobe Illustrator 24.1.1, SVG Export Plug-In . SVG Version: 6.00 Build 0)  -->
<svg version="1.1" id="Laag_1" xmlns="http://www.w3.org/2000/svg" xmlns:xlink="http://www.w3.org/1999/xlink" x="0px" y="0px"
	 viewBox="0 0 250 250" style="enable-background:new 0 0 250 250;" xml:space="preserve">
<style type="text/css">
	.st0{fill:#284734;}
	.st1{clip-path:url(#SVGID_2_);fill:#FFFFFF;}
	.st2{fill:#25AFA5;}
	.st3{fill:none;}
	.st4{clip-path:url(#SVGID_4_);fill:#284734;}
	.st5{clip-path:url(#SVGID_6_);fill:none;stroke:#284734;stroke-width:1.4952;stroke-miterlimit:10;}
	.st6{clip-path:url(#SVGID_8_);fill:#284734;}
	.st7{clip-path:url(#SVGID_10_);fill:#67806A;}
	.st8{clip-path:url(#SVGID_10_);fill:#284734;}
	.st9{clip-path:url(#SVGID_12_);}
	.st10{filter:url(#Adobe_OpacityMaskFilter);}
	.st11{clip-path:url(#SVGID_14_);}
	.st12{clip-path:url(#SVGID_14_);mask:url(#SVGID_15_);}
	.st13{opacity:0.75;clip-path:url(#SVGID_19_);fill:#222221;}
	.st14{clip-path:url(#SVGID_14_);fill:#284734;}
	.st15{clip-path:url(#SVGID_21_);fill:#25AFA5;}
	.st16{clip-path:url(#SVGID_23_);fill:#25AFA5;}
	.st17{clip-path:url(#SVGID_25_);fill:#25AFA5;}
	.st18{clip-path:url(#SVGID_27_);fill:#284734;}
	.st19{clip-path:url(#SVGID_29_);fill:#284734;}
	.st20{clip-path:url(#SVGID_31_);fill:#284734;}
	.st21{clip-path:url(#SVGID_33_);fill:#284734;}
	.st22{clip-path:url(#SVGID_35_);fill:#284734;}
	.st23{clip-path:url(#SVGID_37_);fill:#284734;}
	.st24{clip-path:url(#SVGID_41_);fill:#284734;}
	.st25{clip-path:url(#SVGID_43_);fill:#284734;}
	.st26{clip-path:url(#SVGID_45_);fill:#284734;}
	.st27{clip-path:url(#SVGID_47_);fill:#284734;}
</style>
<g>
	<defs>
		<rect id="SVGID_7_" x="18" y="56.6" width="214.9" height="138.3"/>
	</defs>
	<clipPath id="SVGID_2_">
		<use xlink:href="#SVGID_7_"  style="overflow:visible;"/>
	</clipPath>
	<path style="clip-path:url(#SVGID_2_);fill:#284734;" d="M224.6,155.3c-6.1,3.4-27.8,14.6-53.2,14.6c-12,0-23.8-1.1-33.2-3.2
		l-1-0.2l0.9-0.3l0.1,0l0.1,0c1.1-0.3,2-0.5,3-0.8c0.8-0.2,1.7-0.5,2.5-0.8c1-0.3,2.1-0.7,3.2-1.1c1-0.4,1.8-0.7,2.6-1
		c1.2-0.5,2.3-0.9,3.3-1.4l0.2-0.1c0.7-0.3,1.6-0.7,2.5-1.1c1.1-0.5,2.2-1,3.4-1.6l0.6-0.3c0.7-0.3,1.4-0.7,2.1-1
		c1-0.5,2.1-1.1,3.1-1.7l0.4-0.2c0.3-0.2,0.5-0.3,0.8-0.5c0.5-0.3,1.1-0.6,1.7-1c1.3-0.7,2.5-1.5,3.7-2.3l0.2-0.1
		c0.3-0.2,0.5-0.3,0.8-0.5c0.4-0.3,0.8-0.5,1.3-0.8c2.1-1.4,4.1-2.7,5.9-4c2.1-1.5,4.2-3.1,6.2-4.8l0.1-0.1l0.2,0
		c18.9,1.7,34.1,11,38.4,13.8l0.3,0.2L224.6,155.3z M156.3,189.7l0,0.3l-0.5-0.1c-3.8-0.7-13.3-2.8-19.5-8
		c-4.4-3.7-7.6-7.2-9.1-10.1c-0.8-1.5-1.1-2.8-1-3.8l0-0.2l0.6,0c1.1,0,2.2-0.1,3.6-0.2l0.1,0l4.2,0.9c2.2,0.5,4.6,1,7.2,1.5l0.1,0
		l0.1,0c2.3,1.4,4.3,2.9,6.2,4.5C154.2,179.6,155.9,186.2,156.3,189.7 M124.8,165.3L124.8,165.3c-1.2-0.1-2.3-0.3-3.3-0.5
		c-1.2-0.3-2.2-0.8-3-1.4c-1.9-1.4-2.8-3.4-2.8-6.2c0.1-4.6,3.2-10.8,8.8-17.5l0.3-0.4l0.3,0.4c5.5,6.6,8.6,12.8,8.8,17.4v0l0,0
		l0,0.2c0,2.7-0.9,4.7-2.8,6c-0.7,0.5-1.5,0.9-2.5,1.2C127.5,165,126.2,165.2,124.8,165.3L124.8,165.3z M112.6,182L112.6,182
		c-6,5-14.8,7.1-19.5,8l-0.5,0.1l0-0.3c0.4-3.5,2.1-10.1,8.1-15.1c1.7-1.4,3.5-2.8,5.5-4.1l0.1,0l0.1,0c3-0.5,6-1,8.9-1.7l5-1l0.1,0
		c0.7,0.1,1.4,0.1,2.1,0.1l0.3,0l0,0.2C123,171.2,119.3,176.4,112.6,182 M79.5,169.9c-25.4,0-47.2-11.2-53.2-14.6l-0.3-0.2l0.3-0.2
		c4.1-2.8,18.9-12,37.3-13.7l0.2,0l0.1,0.1c0.2,0.2,0.5,0.4,0.7,0.5l1.4,1.1l0.5,0.4c1.1,0.9,2.3,1.7,3.5,2.6
		c1.9,1.4,3.9,2.8,6.1,4.1c0.4,0.3,0.9,0.6,1.3,0.8c0.3,0.2,0.6,0.3,0.8,0.5l0.4,0.2c1.2,0.7,2.4,1.5,3.6,2.2c0.6,0.3,1.2,0.7,1.7,1
		c0.3,0.1,0.5,0.3,0.8,0.5l0.6,0.3c1,0.5,2,1.1,3,1.6c0.7,0.4,1.4,0.7,2.1,1l0.6,0.3c1.2,0.6,2.3,1.1,3.5,1.7c0.8,0.3,1.5,0.7,2.2,1
		l0.5,0.2c0.9,0.4,2.2,0.9,3.4,1.4c1,0.4,2,0.7,2.6,1c1.1,0.4,2.1,0.7,3.3,1.1c0.9,0.3,1.7,0.5,2.5,0.7c1,0.3,2,0.5,3.1,0.8l1.1,0.2
		l-1.1,0.2C102.6,168.8,91.3,169.9,79.5,169.9 M46.3,102.5l0-0.3l0.4,0c6.8,0.2,30.4,1.8,48,12.3l0.1,0.1v0.1c0,2.1,0.1,4.2,0.3,6.3
		l0,0.4l0,0.3c0.2,2.2,0.4,4.1,0.7,6c0.1,0.5,0.2,0.9,0.3,1.4c0.1,0.3,0.1,0.6,0.2,0.9l0.1,0.6c0.2,1.2,0.4,2.4,0.7,3.6
		c0.1,0.5,0.3,1,0.4,1.5l0,0.1c0.1,0.2,0.1,0.5,0.2,0.7l0.3,1c0.1,0.4,0.2,0.8,0.3,1.2l0.1,0.3l-0.5-0.1c-2.7-0.3-5.4-0.5-8.1-0.7
		l-0.4,0l-0.4,0c-3.4-0.2-6.6-0.3-9.5-0.3c-2.5,0-5.1,0-7.6,0.1c-0.5,0-0.9,0-1.4,0.1c-0.3,0-0.7,0-1,0.1l-0.8,0
		c-1.2,0.1-2.3,0.1-3.5,0.2l-0.2,0l-0.1-0.1C49.5,125.4,46.8,107.7,46.3,102.5 M114.5,164.4l-1.3-0.3c-0.7-0.2-1.4-0.4-2.1-0.6
		l-0.9-0.2c-0.6-0.2-1.2-0.3-1.8-0.5c-0.9-0.3-1.8-0.6-2.7-0.9l-1.3-0.5c-0.6-0.2-1.1-0.4-1.7-0.6c-1-0.4-1.9-0.8-2.9-1.2l-0.5-0.2
		c-0.3-0.1-0.5-0.2-0.8-0.3c-0.6-0.3-1.2-0.5-1.8-0.8c-0.9-0.4-1.8-0.9-2.7-1.3l-0.8-0.4c-0.3-0.1-0.6-0.3-0.9-0.4l-0.1,0
		c-0.5-0.2-1.1-0.5-1.6-0.8c-0.9-0.5-1.9-1-2.8-1.5l-0.9-0.5c-0.3-0.2-0.6-0.3-0.9-0.5c-0.5-0.3-1-0.5-1.5-0.8
		c-1.2-0.7-2.4-1.5-3.6-2.2l-0.5-0.3c-0.3-0.2-0.6-0.3-0.8-0.5l-0.2-0.1c-0.3-0.2-0.6-0.4-1-0.6c-2.1-1.4-4.1-2.8-6-4.1
		c-1.3-0.9-2.6-1.9-3.9-2.9l-0.5-0.4l0.7,0c0.4,0,0.9,0,1.4-0.1c0.3,0,0.6,0,0.9-0.1c0.5,0,1-0.1,1.5-0.1c2.5-0.1,4.8-0.1,7.1-0.1
		c3.1,0,6.4,0.1,9.9,0.3l0.3,0l0.1,0c2.9,0.2,6,0.4,9.1,0.8l0.2,0l0.1,0.2c0.4,1.3,0.9,2.6,1.5,4l0.1,0.3l0.1,0.2l0,0.1
		c0.6,1.4,1.2,2.6,1.7,3.8c0.2,0.3,0.3,0.6,0.5,0.8l0.1,0.2l0.1,0.3c0.4,0.8,1,1.8,1.5,2.6c0.2,0.3,0.4,0.6,0.6,0.9l0.3,0.4
		c0.7,1,1.1,1.6,1.6,2.2c0.3,0.4,0.6,0.7,0.9,1.1l0.1,0.2c0.5,0.6,1.1,1.2,1.6,1.8c0.4,0.4,0.8,0.7,1.1,1.1c0.5,0.5,1.1,1,1.8,1.5
		l0.1,0.1l0.5,0.4L114.5,164.4z M114.4,148.9l-0.2,0.4l-0.1,0.3l0,0.1c-0.1,0.2-0.2,0.4-0.3,0.6c-0.2,0.5-0.4,1-0.5,1.6l-0.1,0.2
		l-0.1,0.2l0,0.1l-0.1,0.3c-0.2,0.6-0.3,1.2-0.4,1.8l0,0.2l-0.1,0.3c-0.1,0.8-0.2,1.5-0.1,2.2c0,0.3,0,0.5,0,0.8l0,0.9l-0.7-0.7
		c-0.4-0.4-0.7-0.8-1.1-1.3l-0.1-0.1l-0.1-0.2l-0.2-0.2c-0.6-0.8-1.2-1.7-1.8-2.6l-0.2-0.3c-0.1-0.2-0.3-0.4-0.4-0.6
		c-0.8-1.2-1.4-2.3-2-3.4l-0.1-0.2l-0.1-0.2c-0.6-1.1-1.1-2.2-1.6-3.4c-0.1-0.4-0.3-0.7-0.4-1.1c-0.6-1.6-1.1-3-1.5-4.2l0-0.1
		l-0.3-0.9c-0.2-0.8-0.5-1.6-0.7-2.5l-0.4-1.4c-0.1-0.4-0.2-0.8-0.3-1.1c-0.1-0.3-0.1-0.6-0.2-0.8l0-0.2c0-0.3-0.1-0.5-0.2-0.8
		l0-0.1c-0.3-1.4-0.6-2.8-0.8-4.3c-0.1-0.6-0.1-1.1-0.2-1.6c0-0.3-0.1-0.6-0.1-0.9l-0.1-0.7c-0.1-1-0.3-2.1-0.4-3.2
		c-0.1-0.7-0.1-1.4-0.1-2c0-0.3,0-0.6,0-0.9c0-0.4,0-0.7-0.1-1.1l0-0.6l0.6,0.4c2,1.3,3.9,2.6,5.6,3.8c1.8,1.3,3.6,2.6,5.3,4
		c0.2,0.2,0.4,0.3,0.6,0.5l0.1,0.1c0.2,0.2,0.4,0.3,0.6,0.5l0,0c1.2,0.9,2.4,1.9,3.5,2.9c0.4,0.4,0.9,0.8,1.3,1.2l0.2,0.2l0.5,0.4
		l0.6,0.6c0.6,0.6,1.2,1.1,1.8,1.7c0.6,0.6,1.1,1.1,1.5,1.6l0.1,0.1l0.5,0.5l0.4,0.4l0.4,0.4c0.2,0.2,0.4,0.4,0.6,0.6l0.1,0.1
		l-0.1,0.1l-0.3,0.3l-0.2,0.2l-0.2,0.2l-0.3,0.4c-0.3,0.4-0.7,0.8-1,1.2c-0.2,0.3-0.4,0.6-0.7,0.9l-0.7,1c-0.2,0.3-0.5,0.7-0.7,1
		c-0.3,0.4-0.5,0.8-0.8,1.1l-0.6,0.9c-0.2,0.3-0.4,0.5-0.5,0.8c-0.3,0.4-0.5,0.8-0.7,1.2l-0.2,0.3l-0.2,0.3l-0.1,0.2
		c-0.1,0.2-0.2,0.4-0.3,0.6C114.8,148,114.6,148.5,114.4,148.9 M98.2,113.4c0.2-24.3,20.7-44.8,27-50.5l0.3-0.2l0.3,0.2
		c6.2,5.6,26.5,25.8,27,49.8l0,0.1l-0.1,0.1c-3.4,2.1-6.7,4.3-9.8,6.5c-1.8,1.3-3.6,2.6-5.3,4c-0.4,0.3-0.8,0.7-1.2,1
		c-0.2,0.2-0.5,0.4-0.7,0.6l-0.7,0.6c-0.7,0.6-1.5,1.2-2.2,1.9c-0.5,0.4-0.9,0.8-1.3,1.2c-0.2,0.2-0.4,0.4-0.6,0.6l-0.5,0.5
		c-0.8,0.7-1.4,1.3-2.1,2c-0.4,0.4-0.8,0.8-1.1,1.2l-0.6,0.6c-0.2,0.2-0.4,0.4-0.6,0.6l-0.8,0.8l-0.1,0.1l-0.3-0.3L124,134l-0.5-0.5
		l-0.9-0.9c-0.3-0.3-0.7-0.7-1-1c-0.8-0.8-1.6-1.5-2.4-2.2l-0.4-0.3l-0.4-0.4l-0.2-0.2c-0.4-0.3-0.7-0.7-1.1-1
		c-1-0.9-2.1-1.8-3.1-2.6l-0.2-0.2l-0.5-0.4l-0.3-0.3c-0.2-0.2-0.5-0.4-0.8-0.6c-1.8-1.4-3.5-2.7-5.3-4c-1.5-1.1-3-2.1-4.6-3.2
		c-0.2-0.1-0.4-0.3-0.6-0.4l-0.2-0.2c-0.2-0.1-0.4-0.2-0.6-0.4l-0.7-0.5c-0.6-0.4-1.3-0.8-1.9-1.2l-0.1-0.1V113.4z M138.1,163.1
		c0.6-0.5,1.3-1,1.9-1.6c0.2-0.2,0.5-0.5,0.7-0.7l0.4-0.4c0.6-0.6,1.2-1.2,1.7-1.8c0.3-0.4,0.7-0.8,1-1.3c0.5-0.7,1-1.4,1.5-2.1
		l0.1-0.1c0.3-0.5,0.6-0.9,0.9-1.3c0.4-0.7,0.9-1.5,1.4-2.5l0.2-0.4l0,0c0.2-0.3,0.4-0.7,0.5-1c0.5-1,1-2.1,1.6-3.5l0.2-0.4l0.2-0.5
		c0.5-1.3,1-2.6,1.5-4l0.1-0.2l0.2,0c2.2-0.2,4.5-0.4,6.8-0.5l0.2,0c2.1-0.1,4.5-0.2,7.3-0.3l0.5,0l0.6,0c2.2,0,4.4,0,7,0l0.5,0
		c0.3,0,0.7,0,1,0c1.7,0,3.4,0.1,5.1,0.2l0.7,0l-0.5,0.4c-1.5,1.2-2.8,2.2-4,3c-1.8,1.3-3.8,2.6-5.8,4c-0.4,0.2-0.7,0.5-1.1,0.7
		l-0.3,0.2l-0.5,0.3l-0.1,0.1c-1.2,0.7-2.6,1.6-4,2.4c-0.4,0.2-0.8,0.4-1.2,0.7l-0.2,0.1c-0.3,0.1-0.5,0.3-0.8,0.4l-0.1,0.1
		c-1.2,0.7-2.5,1.4-3.7,2c-0.5,0.2-0.9,0.5-1.4,0.7l-0.8,0.4c-1.3,0.7-2.6,1.3-3.8,1.8c-0.4,0.2-0.7,0.3-1.1,0.5l-0.9,0.4
		c-1.1,0.5-2.5,1.1-3.8,1.6c-0.5,0.2-0.9,0.4-1.4,0.5l-0.5,0.2c-1.6,0.6-2.7,1-3.8,1.3c-0.5,0.2-1,0.3-1.4,0.4l-0.3,0.1
		c-0.7,0.2-1.3,0.4-2,0.6l-1.2,0.3L138.1,163.1z M137.3,157c0-0.7-0.1-1.3-0.2-2l-0.1-0.4l0,0l-0.1-0.2l-0.1-0.3
		c-0.1-0.4-0.2-0.8-0.3-1.3l-0.2-0.5l-0.1-0.2l-0.1-0.3l-0.1-0.3c-0.1-0.4-0.3-0.8-0.4-1.2c-0.1-0.2-0.2-0.5-0.3-0.7l-0.2-0.4
		l-0.2-0.5c-0.1-0.3-0.3-0.6-0.4-0.9c-0.1-0.3-0.3-0.5-0.4-0.8l-0.4-0.7c-0.2-0.4-0.4-0.7-0.7-1.1c-0.2-0.3-0.3-0.5-0.5-0.8
		l-0.1-0.1l-0.2-0.3l-0.3-0.4c-0.2-0.4-0.5-0.7-0.7-1.1c-0.2-0.3-0.4-0.5-0.6-0.8l-0.1-0.2l-0.2-0.3l-0.3-0.4
		c-0.3-0.4-0.6-0.8-0.9-1.2c-0.2-0.3-0.5-0.6-0.7-0.8L128,138l-0.4-0.5l-0.2-0.3l-0.2-0.2l-0.1-0.1l0.1-0.1c0.4-0.4,0.7-0.8,1.1-1.1
		l0.5-0.5l0.4-0.4l0.2-0.2c0.3-0.4,0.7-0.8,1.2-1.2c0.5-0.5,1-1,1.5-1.4l0.2-0.1c0.2-0.2,0.5-0.4,0.7-0.6c0.2-0.2,0.4-0.4,0.6-0.5
		l0.2-0.2c0.4-0.4,0.8-0.8,1.3-1.2c0.7-0.6,1.4-1.2,2.1-1.8l0.8-0.7c0.3-0.2,0.5-0.4,0.8-0.6l0.2-0.1c0.3-0.3,0.7-0.6,1-0.8
		c1.7-1.3,3.4-2.7,5.2-4c2-1.5,4.3-3,6.9-4.6l0.6-0.4l-0.1,2.9c0,0.7-0.1,1.4-0.1,2.1c-0.1,1-0.2,2.1-0.3,3l-0.1,0.8
		c0,0.3-0.1,0.7-0.1,1c-0.1,0.6-0.1,1.2-0.2,1.8c-0.2,1.1-0.4,2.2-0.6,3.3l-0.1,0.7c-0.1,0.2-0.1,0.5-0.1,0.7l0,0.2
		c-0.1,0.5-0.2,1-0.3,1.5c-0.3,1.2-0.6,2.4-0.9,3.4l-0.2,0.6c-0.1,0.3-0.2,0.6-0.2,0.9c-0.1,0.4-0.2,0.8-0.3,1.2
		c-0.4,1.4-0.9,2.8-1.6,4.4c-0.1,0.2-0.2,0.5-0.3,0.7l-0.2,0.5c-0.4,1-0.9,2-1.3,2.9l-0.1,0.2c-0.2,0.3-0.3,0.7-0.5,1
		c-0.5,0.9-1,1.8-1.6,2.8l-0.3,0.5l-0.2,0.3c-0.7,1.1-1.5,2.2-2.2,3.2l-0.2,0.3L140,157c-0.7,0.8-1.3,1.5-1.9,2.2l-0.4,0.4l-0.8,0.8
		l0.2-0.9c0.1-0.7,0.2-1.3,0.2-1.9l0,0l0.1-0.2L137.3,157z M152.9,137.6l0.1-0.2c0.1-0.3,0.2-0.7,0.2-1c0.1-0.3,0.1-0.6,0.2-0.9
		c0.1-0.5,0.3-1,0.4-1.6c0.3-1.2,0.5-2.5,0.7-3.5l0.2-0.9l0.1-0.5c0.1-0.5,0.2-1.1,0.3-1.6c0.2-1.4,0.3-2.8,0.5-4.1l0-0.4l0.1-0.5
		l0.1-0.5c0-0.4,0.1-0.9,0.1-1.3c0.2-2.2,0.2-4.4,0.3-6.6l0-0.1l0.1-0.1c17.2-10,40.1-11.3,46.7-11.5l0.4,0l0,0.3
		c-0.5,5.1-3.1,22.8-18.5,35.9l-0.1,0.1l-0.2,0c-4.9-0.3-10.5-0.5-16.1-0.4l-0.4,0c-2.6,0-5.2,0.1-7.9,0.3l-0.9,0
		c-2,0.1-4.1,0.3-6.2,0.5l-0.5,0l0.1-0.3C152.8,138.2,152.9,137.9,152.9,137.6 M228.1,152.2c-2.5-1.7-7.7-4.9-14.7-7.9
		c-7.2-3.1-14.4-5.2-21.6-6.3c13.8-13.6,16.2-30.4,16.7-35.2l0.4-4.4l-6.1,0.2c-6.1,0.2-27.4,1.4-45.2,9.9
		c-2.5-23.4-21.9-42.6-27.8-48l-4.3-3.9l-4.3,3.9c-6,5.4-25.6,24.9-27.9,48.6c-18.1-8.9-40-10.3-46.3-10.6l-6.2-0.2l0.4,4.4
		c0.4,4.9,3,21.7,16.8,35.3c-7,1.1-14,3.2-21,6.3c-6.9,3-11.9,6.2-14.3,7.8l-4.7,3.2l5.1,2.9c6.4,3.6,29.4,15.4,56.4,15.4
		c5.6,0,11.1-0.2,16.3-0.7c-6.2,5.7-7.9,12.6-8.4,16.4l-0.7,5.5l7.5-1.3c5.3-0.9,15.3-3.4,22.2-9.2c2.3-2,5.6-4.9,8-8.1
		c1.9,2.5,4.7,5.3,8,8.1c6.9,5.8,16.9,8.2,22.2,9.2l7.5,1.3l-0.7-5.5c-0.5-3.8-2.3-10.9-8.6-16.6c5.9,0.6,12.1,0.9,18.5,0.9
		c27.1,0,50-11.8,56.4-15.4l5.1-2.9L228.1,152.2z"/>
</g>
</svg>
