<?xml version="1.0" encoding="utf-8"?>
<!-- Generator: Adobe Illustrator 24.1.1, SVG Export Plug-In . SVG Version: 6.00 Build 0)  -->
<svg version="1.1" id="Laag_1" xmlns="http://www.w3.org/2000/svg" xmlns:xlink="http://www.w3.org/1999/xlink" x="0px" y="0px"
	 viewBox="0 0 250 250" style="enable-background:new 0 0 250 250;" xml:space="preserve">
<style type="text/css">
	.st0{fill:#284734;}
	.st1{clip-path:url(#SVGID_2_);fill:#FFFFFF;}
	.st2{fill:#25AFA5;}
	.st3{fill:none;}
	.st4{clip-path:url(#SVGID_4_);fill:#284734;}
	.st5{clip-path:url(#SVGID_6_);fill:none;stroke:#284734;stroke-width:1.4952;stroke-miterlimit:10;}
	.st6{clip-path:url(#SVGID_8_);fill:#284734;}
	.st7{clip-path:url(#SVGID_10_);fill:#67806A;}
	.st8{clip-path:url(#SVGID_10_);fill:#284734;}
	.st9{clip-path:url(#SVGID_12_);}
	.st10{filter:url(#Adobe_OpacityMaskFilter);}
	.st11{clip-path:url(#SVGID_14_);}
	.st12{clip-path:url(#SVGID_14_);mask:url(#SVGID_15_);}
	.st13{opacity:0.75;clip-path:url(#SVGID_19_);fill:#222221;}
	.st14{clip-path:url(#SVGID_14_);fill:#284734;}
	.st15{clip-path:url(#SVGID_21_);fill:#25AFA5;}
	.st16{clip-path:url(#SVGID_23_);fill:#25AFA5;}
	.st17{clip-path:url(#SVGID_25_);fill:#25AFA5;}
	.st18{clip-path:url(#SVGID_27_);fill:#284734;}
	.st19{clip-path:url(#SVGID_29_);fill:#284734;}
	.st20{clip-path:url(#SVGID_31_);fill:#284734;}
	.st21{clip-path:url(#SVGID_33_);fill:#284734;}
	.st22{clip-path:url(#SVGID_35_);fill:#284734;}
	.st23{clip-path:url(#SVGID_37_);fill:#284734;}
	.st24{clip-path:url(#SVGID_41_);fill:#284734;}
	.st25{clip-path:url(#SVGID_43_);fill:#284734;}
	.st26{clip-path:url(#SVGID_45_);fill:#284734;}
	.st27{clip-path:url(#SVGID_47_);fill:#284734;}
</style>
<g>
	<defs>
		<rect id="SVGID_3_" x="34.7" y="41.5" width="186.6" height="170.6"/>
	</defs>
	<clipPath id="SVGID_2_">
		<use xlink:href="#SVGID_3_"  style="overflow:visible;"/>
	</clipPath>
	<path style="clip-path:url(#SVGID_2_);fill:#284734;" d="M214.6,113.4c-3,6.2-14.6,27.3-35.1,37.3c-9.7,4.7-19.9,8.1-28.6,9.5
		l-0.9,0.1l0.6-0.7c0,0,0,0,0.1-0.1l0.1-0.1c0.7-0.7,1.4-1.4,2-2.1c0.5-0.6,1.1-1.2,1.6-1.9c0.6-0.8,1.3-1.6,2-2.5
		c0.6-0.8,1.1-1.5,1.6-2.1c0.7-1,1.3-1.9,1.9-2.8l0.1-0.2c0.4-0.7,0.9-1.4,1.4-2.2c0.6-1,1.2-2,1.9-3.2l0.3-0.6
		c0.4-0.6,0.7-1.3,1.1-2c0.6-1,1.1-2.1,1.6-3.2l0.2-0.4c0.1-0.3,0.3-0.6,0.4-0.8c0.3-0.5,0.6-1.1,0.9-1.7c0.6-1.3,1.2-2.7,1.8-4
		l0.1-0.2c0.1-0.3,0.3-0.6,0.4-0.9c0.2-0.5,0.4-0.9,0.6-1.4c1-2.4,1.8-4.7,2.6-6.9c0.9-2.5,1.7-5.1,2.5-7.8l0-0.2l0.2-0.1
		c16.2-5.6,33.6-1.1,38.6,0.4l0.3,0.1L214.6,113.4z M178.1,178.9l0.2,0.4l-0.4,0.1c-3.4,0.7-12.3,2.1-20.2-1.3
		c-5.6-2.4-10.1-5.1-12.9-7.8c-1.5-1.4-2.4-2.7-2.9-3.9l-0.1-0.3l0.5-0.2c0.9-0.4,1.8-1,2.8-1.7l0.1,0l3.9-0.6
		c2.1-0.3,4.3-0.7,6.6-1.2l0.1,0l0.1,0c2.6,0.7,5.1,1.6,7.5,2.7C170.9,168.4,175.8,175.1,178.1,178.9 M139.3,163.9L139.3,163.9
		c-1,0.4-2,0.6-2.9,0.7c-1.2,0.1-2.2,0-3.2-0.4c-2.3-0.8-4.2-2.8-5.6-5.8c-2.4-5.2-3.3-13.3-2.4-23.1l0-0.5l0.4,0.3
		c8.1,5.3,14,11,16.6,16.1l0,0l0,0l0.1,0.2c1.5,3,1.8,5.6,1,7.9c-0.3,0.8-0.7,1.6-1.3,2.3C141.3,162.5,140.4,163.2,139.3,163.9
		L139.3,163.9z M138.5,187.4L138.5,187.4c-2.1,7.9-8.1,13.8-11.5,16.6l-0.3,0.3l-0.2-0.4c-1.5-4.1-3.8-12.2-1.7-20.1
		c0.6-2.3,1.3-4.5,2.2-6.8l0-0.1l0.1-0.1c2.2-1.7,4.3-3.5,6.3-5.4l3.5-3.1l0.1,0c0.6-0.2,1.2-0.5,1.7-0.7l0.2-0.1l0.1,0.2
		C141,171.2,140.8,178.5,138.5,187.4 M105.1,186.9c-20.6,10-44.3,6-51.1,4.5l-0.3-0.1l0.1-0.3c1.8-4.7,8.7-20.9,22.7-30.1l0.1-0.1
		l0.1,0.1c0.3,0.1,0.6,0.2,0.9,0.3l1.8,0.7c0.2,0.1,0.4,0.2,0.6,0.3c1.4,0.5,2.8,1,4.2,1.5c2.3,0.8,4.7,1.6,7.2,2.3
		c0.5,0.1,1,0.3,1.5,0.4c0.3,0.1,0.6,0.2,1,0.3l0.5,0.1c1.4,0.4,2.8,0.7,4.1,1.1c0.7,0.2,1.3,0.3,1.9,0.4c0.3,0.1,0.6,0.1,0.9,0.2
		l0.7,0.1c1.1,0.2,2.2,0.5,3.4,0.6c0.8,0.1,1.5,0.2,2.2,0.3l0.7,0.1c1.3,0.2,2.5,0.4,3.7,0.5c0.8,0.1,1.6,0.2,2.3,0.2l0.5,0
		c1,0.1,2.2,0.2,3.5,0.2c1,0,2,0,2.7,0.1c1.1,0,2.1,0,3.2-0.1c0.9,0,1.7-0.1,2.5-0.2c0.9-0.1,1.9-0.2,2.9-0.3l1-0.1l-0.7,0.7
		C123.2,176.6,114.7,182.2,105.1,186.9 M41.5,124.3l-0.2-0.3l0.3-0.1c5.6-2.4,25.6-9.9,45.5-5.1l0.1,0l0.1,0.1
		c1.2,2.3,2.4,4.7,3.7,7c0.1,0.1,0.2,0.3,0.2,0.4l0.2,0.3c1.3,2.4,2.6,4.5,3.9,6.5c0.3,0.5,0.6,1,1,1.4c0.2,0.3,0.4,0.6,0.6,0.9
		l0.4,0.6c0.8,1.3,1.7,2.6,2.6,3.8c0.4,0.5,0.8,1,1.1,1.5l0.1,0.1c0.2,0.2,0.4,0.5,0.6,0.7l0.7,1c0.3,0.4,0.6,0.8,0.9,1.2l0.3,0.3
		l-0.4,0.1c-2.3,0.7-4.7,1.6-6.9,2.4l-0.4,0.1c-0.1,0-0.2,0.1-0.3,0.1c-2.8,1.1-5.5,2.3-7.8,3.4c-2,1-4.1,2-6.1,3.1
		c-0.4,0.2-0.7,0.4-1.1,0.6c-0.3,0.2-0.5,0.3-0.8,0.5l-0.7,0.4c-0.9,0.5-1.8,1-2.7,1.6l-0.1,0.1l-0.1-0.1
		C56.6,148.7,44.7,129.8,41.5,124.3 M130.4,167l-1.2,0.2c-0.7,0.1-1.4,0.2-2,0.2l-0.8,0.1c-0.6,0.1-1.1,0.1-1.7,0.1
		c-0.9,0-1.8,0-2.7,0l-1.3,0c-0.6,0-1.1,0-1.7,0c-1,0-2-0.1-3-0.2l-0.5,0c-0.3,0-0.5,0-0.8-0.1c-0.7,0-1.2-0.1-1.9-0.2
		c-0.9-0.1-1.9-0.2-2.9-0.4l-0.9-0.1c-0.3,0-0.6-0.1-0.9-0.1l-0.1,0c-0.6-0.1-1.1-0.2-1.7-0.3c-1-0.2-2.1-0.4-3.1-0.6l-1-0.2
		c-0.3-0.1-0.7-0.1-1-0.2c-0.5-0.1-1.1-0.2-1.7-0.3c-1.4-0.3-2.8-0.7-4.1-1.1l-0.6-0.2c-0.3-0.1-0.6-0.2-0.9-0.2l-0.2-0.1
		c-0.4-0.1-0.7-0.2-1.1-0.3c-2.5-0.7-4.9-1.5-7.1-2.3c-1.6-0.5-3.1-1.1-4.8-1.8l-0.6-0.2l0.5-0.3c0.3-0.2,0.7-0.4,1.1-0.6
		c0.3-0.2,0.5-0.3,0.7-0.4c0.4-0.2,0.8-0.4,1.2-0.7c2-1.1,3.8-2.1,5.7-2.9c2.5-1.2,5.3-2.4,8.1-3.5l0.2-0.1c0,0,0.1,0,0.1-0.1
		c2.5-1,5.1-1.9,7.8-2.7l0.2-0.1l0.1,0.2c1.1,1.3,2.2,2.6,3.4,3.9c0.1,0.1,0.2,0.2,0.3,0.3c0.1,0.1,0.1,0.1,0.2,0.2l0.1,0.1
		c1.3,1.4,2.4,2.5,3.5,3.5c0.3,0.3,0.6,0.5,0.8,0.7l0.2,0.2c0.1,0.1,0.2,0.2,0.3,0.2c0.8,0.7,1.8,1.6,2.7,2.4c0.3,0.3,0.7,0.5,1,0.8
		l0.5,0.4c1.1,0.8,1.8,1.4,2.4,1.8c0.4,0.3,0.9,0.6,1.3,0.9l0.2,0.1c0.8,0.5,1.5,0.9,2.3,1.4c0.5,0.3,1,0.5,1.5,0.8
		c0.7,0.3,1.4,0.7,2.2,1l0.2,0.1c0.2,0.1,0.4,0.2,0.6,0.2L130.4,167z M121.9,149.5l0.1,0.5c0,0.1,0,0.3,0.1,0.4l0,0.1
		c0,0.3,0.1,0.5,0.1,0.8c0.1,0.7,0.3,1.3,0.4,2l0.1,0.3c0,0.1,0,0.2,0.1,0.3l0,0.2c0,0.2,0.1,0.3,0.1,0.4c0.2,0.8,0.4,1.5,0.7,2.2
		l0.1,0.3c0,0.2,0.1,0.3,0.1,0.4c0.3,0.9,0.7,1.7,1.1,2.5c0.1,0.3,0.3,0.6,0.4,0.8l0.5,1l-0.9-0.6c-0.5-0.3-1-0.6-1.6-1l-0.1-0.1
		c-0.1,0-0.1-0.1-0.2-0.2l-0.3-0.2c-0.9-0.6-1.9-1.4-2.9-2.2l-0.3-0.2c-0.2-0.2-0.4-0.3-0.6-0.5c-1.3-1.1-2.4-2.1-3.5-3.1l-0.2-0.2
		c-0.1-0.1-0.1-0.1-0.2-0.2c-1-1-2.1-2.1-3.2-3.2c-0.3-0.3-0.6-0.7-0.9-1c-1.4-1.6-2.5-2.9-3.6-4.1c0,0,0,0,0-0.1l-0.7-0.9
		c-0.6-0.8-1.3-1.6-1.9-2.5l-1.1-1.4c-0.3-0.4-0.6-0.8-0.8-1.2c-0.2-0.3-0.4-0.6-0.6-0.9l-0.2-0.2c-0.2-0.3-0.4-0.6-0.6-0.9
		l-0.1-0.2c-1-1.4-2-2.9-3-4.5c-0.4-0.6-0.7-1.2-1.1-1.7c-0.2-0.3-0.4-0.7-0.6-1l-0.5-0.8c-0.7-1.1-1.4-2.3-2-3.5
		c-0.4-0.7-0.8-1.5-1.2-2.2c-0.2-0.3-0.4-0.7-0.6-1c-0.2-0.4-0.4-0.8-0.7-1.2l-0.3-0.6l0.7,0.2c2.4,0.7,4.5,1.4,6.6,2.1
		c2.1,0.7,4.3,1.5,6.4,2.4c0.3,0.1,0.5,0.2,0.8,0.3l0.2,0.1c0.2,0.1,0.5,0.2,0.8,0.3l0.1,0c1.5,0.6,3,1.2,4.4,1.9
		c0.6,0.3,1.1,0.5,1.6,0.8l0.3,0.2c0.2,0.1,0.4,0.2,0.6,0.3l0.8,0.4c0.8,0.4,1.6,0.8,2.4,1.2c0.8,0.4,1.5,0.8,2.1,1.2l0.1,0.1
		c0.2,0.1,0.4,0.3,0.7,0.4c0.2,0.1,0.4,0.2,0.5,0.3l0.5,0.3c0.3,0.1,0.5,0.3,0.8,0.4l0.2,0.1l0,0.2c0,0.2,0,0.3,0,0.5l0,0.3
		c0,0.1,0,0.2,0,0.4l0,0.5c-0.1,0.6-0.1,1.2-0.1,1.7c0,0.4,0,0.8-0.1,1.2l-0.1,1.4c0,0.4,0,0.9-0.1,1.4c0,0.5,0,1.1,0,1.6l0,1.2
		c0,0.4,0,0.7,0,1.1c0,0.6,0.1,1.1,0.1,1.6l0,0.5c0,0.2,0,0.3,0,0.5l0,0.3c0,0.3,0,0.5,0.1,0.8C121.8,148.5,121.8,149,121.9,149.5
		 M89.4,116c-13.1-27.4-7.7-58.5-5.7-67.4l0.1-0.4l0.3,0.2c8.1,3.9,35.5,18.5,49,45.3l0.1,0.1l-0.1,0.1c-1.6,3.7-3.1,7.5-4.4,11.2
		c-0.7,2.1-1.4,4.4-2.1,6.6c-0.2,0.5-0.3,1.1-0.4,1.6c-0.1,0.3-0.2,0.6-0.3,1l-0.3,1c-0.3,1-0.5,2-0.8,3c-0.2,0.6-0.3,1.3-0.4,1.8
		c-0.1,0.3-0.1,0.6-0.2,0.9l-0.2,0.7c-0.2,1.1-0.4,2-0.6,3c-0.1,0.6-0.2,1.2-0.3,1.8l-0.1,1c0,0.3-0.1,0.6-0.1,0.8l-0.2,1.2l0,0.1
		l-0.4-0.2l-0.8-0.4c-0.2-0.1-0.4-0.2-0.6-0.3l-1.2-0.7c-0.4-0.3-0.9-0.5-1.4-0.8c-1.1-0.6-2.2-1.1-3.2-1.6l-0.5-0.2
		c-0.2-0.1-0.4-0.2-0.6-0.3l-0.3-0.1c-0.5-0.2-0.9-0.5-1.4-0.7c-1.3-0.6-2.7-1.2-4-1.7l-0.3-0.1c-0.2-0.1-0.4-0.2-0.6-0.3l-0.4-0.2
		c-0.3-0.1-0.6-0.3-1-0.4c-2.2-0.9-4.4-1.7-6.5-2.4c-1.8-0.6-3.6-1.2-5.4-1.8c-0.2-0.1-0.5-0.1-0.7-0.2l-0.3-0.1
		c-0.2-0.1-0.4-0.1-0.7-0.2l-0.8-0.2c-0.7-0.2-1.5-0.4-2.2-0.6l-0.1,0L89.4,116z M148.8,156.3c0.2-0.8,0.5-1.6,0.7-2.6
		c0.1-0.3,0.1-0.7,0.2-1l0.1-0.6c0.2-1,0.3-1.8,0.3-2.7c0.1-0.6,0.1-1.2,0.1-1.8c0.1-1,0.1-1.9,0.1-3l0-0.2c0-0.7,0-1.3,0-1.8
		c0-1-0.1-2-0.2-3.4c0-0.2,0-0.4,0-0.5l0,0c0-0.5-0.1-0.9-0.1-1.3c-0.1-1.3-0.3-2.8-0.6-4.5c0-0.2-0.1-0.3-0.1-0.5
		c0-0.2-0.1-0.4-0.1-0.6c-0.3-1.7-0.6-3.4-1-5l0-0.2l0.2-0.1c1.7-1.1,3.4-2.2,5.2-3.3l0.2-0.1c1.7-1,3.5-2,5.7-3.2
		c0.1-0.1,0.3-0.1,0.4-0.2l0.5-0.3c1.7-0.9,3.6-1.8,5.7-2.8l0.4-0.2c0.3-0.1,0.6-0.3,0.8-0.4c1.4-0.6,2.8-1.2,4.2-1.8l0.6-0.2
		l-0.2,0.6c-0.6,2-1.1,3.5-1.6,5c-0.8,2.2-1.6,4.5-2.5,6.7c-0.2,0.4-0.3,0.8-0.5,1.2l-0.1,0.3c-0.1,0.2-0.2,0.3-0.2,0.5l0,0.1
		c-0.5,1.3-1.2,2.9-1.9,4.3c-0.2,0.4-0.4,0.8-0.6,1.2l-0.1,0.2c-0.1,0.3-0.3,0.5-0.4,0.8l-0.1,0.1c-0.6,1.3-1.2,2.5-1.9,3.7
		c-0.2,0.4-0.5,0.9-0.8,1.4l-0.4,0.7c-0.7,1.3-1.4,2.4-2.1,3.5c-0.2,0.3-0.4,0.7-0.6,1l-0.5,0.8c-0.6,1-1.4,2.2-2.2,3.3
		c-0.3,0.4-0.6,0.8-0.8,1.1l-0.3,0.4c-0.9,1.2-1.7,2.2-2.3,2.9c-0.3,0.4-0.6,0.7-0.9,1.1l-0.2,0.2c-0.4,0.5-0.9,1-1.3,1.4l-0.8,0.9
		L148.8,156.3z M144.8,149.6c-0.4-0.7-0.8-1.5-1.2-2.2c-0.1-0.2-0.2-0.3-0.3-0.5l0-0.1c-0.1-0.1-0.1-0.2-0.2-0.2l-0.2-0.3
		c-0.3-0.4-0.6-0.9-0.9-1.3c-0.1-0.2-0.2-0.3-0.4-0.5l-0.2-0.2c-0.1-0.1-0.2-0.2-0.3-0.3l-0.2-0.3c-0.3-0.4-0.7-0.8-1-1.2
		c-0.2-0.2-0.4-0.5-0.7-0.7c-0.1-0.1-0.2-0.2-0.4-0.4l-0.5-0.5c-0.3-0.3-0.6-0.6-0.9-0.9c-0.3-0.2-0.5-0.5-0.8-0.7l-0.7-0.7
		c-0.4-0.3-0.7-0.7-1.2-1c-0.3-0.2-0.6-0.5-0.8-0.7l-0.1-0.1c-0.1-0.1-0.2-0.2-0.3-0.3l-0.5-0.4c-0.4-0.3-0.8-0.6-1.2-1
		c-0.3-0.2-0.6-0.4-0.9-0.7l-0.2-0.1c-0.1-0.1-0.2-0.1-0.3-0.2l-0.5-0.4c-0.4-0.3-0.9-0.7-1.4-1c-0.3-0.2-0.7-0.5-1-0.7l-0.5-0.3
		c-0.2-0.1-0.4-0.3-0.6-0.4c-0.1-0.1-0.2-0.1-0.3-0.2c-0.1-0.1-0.2-0.1-0.3-0.2l-0.2-0.1l0-0.2c0.1-0.6,0.2-1.1,0.3-1.7l0.1-0.8
		c0-0.2,0.1-0.4,0.1-0.7l0.1-0.3c0.1-0.6,0.2-1.2,0.3-1.8c0.1-0.7,0.3-1.5,0.5-2.2l0.1-0.2c0.1-0.3,0.1-0.6,0.2-1
		c0.1-0.3,0.1-0.5,0.2-0.8l0.1-0.3c0.1-0.6,0.3-1.2,0.4-1.8c0.2-0.9,0.5-1.9,0.7-2.8l0.3-1.1c0.1-0.3,0.2-0.7,0.3-1l0.1-0.2
		c0.1-0.4,0.2-0.9,0.4-1.3c0.6-2.2,1.3-4.4,2.1-6.5c0.8-2.4,1.8-5,3-7.9l0.3-0.6l1.5,3.3c0.4,0.8,0.7,1.6,1.1,2.4
		c0.5,1.2,1,2.4,1.4,3.6l0.3,0.9c0.2,0.4,0.3,0.8,0.5,1.2c0.3,0.7,0.6,1.4,0.8,2.1c0.5,1.3,0.9,2.6,1.3,4l0.3,0.8
		c0.1,0.3,0.2,0.6,0.3,0.9l0.1,0.3c0.2,0.6,0.4,1.2,0.6,1.7c0.4,1.4,0.8,2.9,1.1,4.2l0.2,0.8c0.1,0.3,0.2,0.7,0.3,1.1
		c0.1,0.5,0.3,1,0.4,1.5c0.4,1.7,0.8,3.5,1.1,5.5c0.1,0.3,0.1,0.6,0.2,0.9l0.1,0.6c0.2,1.3,0.4,2.6,0.5,3.8l0,0.2
		c0.1,0.5,0.1,0.9,0.1,1.4c0.1,1.2,0.2,2.4,0.2,3.7l0,0.7c0,0.1,0,0.3,0,0.4c0,1.6,0,3.1-0.1,4.4c0,0.1,0,0.3,0,0.4l0,0.3
		c-0.1,1.2-0.2,2.2-0.4,3.2c0,0.2-0.1,0.4-0.1,0.6l-0.2,1.2l-0.4-1.1c-0.3-0.8-0.6-1.6-0.9-2.3l0-0.1l-0.1-0.3L144.8,149.6z
		 M146.9,121.7l-0.1-0.3c-0.1-0.4-0.2-0.8-0.3-1.2c-0.1-0.4-0.2-0.7-0.3-1c-0.2-0.6-0.3-1.3-0.5-1.9c-0.4-1.4-0.9-3-1.4-4.2
		l-0.4-1.1c-0.1-0.2-0.1-0.4-0.2-0.6c-0.2-0.6-0.4-1.3-0.7-1.9c-0.6-1.6-1.2-3.2-1.9-4.8l-0.2-0.4c-0.1-0.2-0.2-0.4-0.2-0.6
		l-0.2-0.6c-0.2-0.5-0.4-1-0.6-1.5c-1.1-2.5-2.2-5.1-3.4-7.5l-0.1-0.1l0.1-0.1c8.5-17.9,26.3-28.5,31.5-31.3l0.3-0.2l0.1,0.3
		c2.4,5.9,9.9,26.9,4.6,47.6l0,0.2l-0.1,0.1c-4.1,1.5-8.7,3.6-13.2,5.8l-0.3,0.2c-2.1,1.1-4.1,2.2-6.2,3.4l-0.7,0.4
		c-1.6,0.9-3.2,1.9-4.8,3l-0.4,0.2l-0.1-0.4C147.1,122.5,147,122.1,146.9,121.7 M215.7,108.5c-2.9-0.9-8.9-2.5-16.2-3.1
		c-7.5-0.6-14.5-0.2-20.9,1.4c3.7-20.7-3.4-40.5-5.7-46.1l-2.1-5.1l-4.9,2.6c-4.9,2.6-21.4,12.4-31.1,28.9
		c-14.8-25.3-41-39.3-48.7-42.9l-5.6-2.7l-1.3,6.1c-1.9,8.5-7.1,38.1,4,65.6c-19.6-2.9-38,4.1-43.2,6.3l-5.1,2.2l2.8,4.8
		c3,5.3,14.3,23.3,32.9,33.1c-5,4-9.6,9.1-13.5,15.3c-3.9,6.1-6.3,11.6-7.3,14.4l-2.1,5.4l5.7,1.2c7.1,1.5,32.2,5.7,54.1-4.9
		c4.5-2.2,8.8-4.6,12.9-7.2c-1.9,8.8,0.5,17.3,2.2,21.7l2.5,6.5l5.4-4.4c3.8-3.1,10.6-9.8,13-19c0.8-3.1,1.8-7.7,2-12.2
		c2.9,2.1,6.7,4.1,10.9,5.9c8.8,3.8,18.2,2.6,23,1.5l6.8-1.5l-3.6-6c-2.5-4.1-7.8-11.4-16-15.2c5.1-1.7,10.3-3.8,15.4-6.3
		c21.9-10.7,34.1-32.9,37.3-39.5l2.6-5.2L215.7,108.5z"/>
</g>
</svg>
