<?xml version="1.0" encoding="utf-8"?>
<!-- Generator: Adobe Illustrator 24.1.1, SVG Export Plug-In . SVG Version: 6.00 Build 0)  -->
<svg version="1.1" id="Laag_1" xmlns="http://www.w3.org/2000/svg" xmlns:xlink="http://www.w3.org/1999/xlink" x="0px" y="0px"
	 viewBox="0 0 250 250" style="enable-background:new 0 0 250 250;" xml:space="preserve">
<style type="text/css">
	.st0{fill:#284734;}
	.st1{clip-path:url(#SVGID_2_);fill:#FFFFFF;}
	.st2{fill:#25AFA5;}
	.st3{fill:none;}
	.st4{clip-path:url(#SVGID_4_);fill:#284734;}
	.st5{clip-path:url(#SVGID_6_);fill:none;stroke:#284734;stroke-width:1.4952;stroke-miterlimit:10;}
	.st6{clip-path:url(#SVGID_8_);fill:#284734;}
	.st7{clip-path:url(#SVGID_10_);fill:#67806A;}
	.st8{clip-path:url(#SVGID_10_);fill:#284734;}
	.st9{clip-path:url(#SVGID_12_);}
	.st10{filter:url(#Adobe_OpacityMaskFilter);}
	.st11{clip-path:url(#SVGID_14_);}
	.st12{clip-path:url(#SVGID_14_);mask:url(#SVGID_15_);}
	.st13{opacity:0.75;clip-path:url(#SVGID_19_);fill:#222221;}
	.st14{clip-path:url(#SVGID_14_);fill:#284734;}
	.st15{clip-path:url(#SVGID_21_);fill:#25AFA5;}
	.st16{clip-path:url(#SVGID_23_);fill:#25AFA5;}
	.st17{clip-path:url(#SVGID_25_);fill:#25AFA5;}
	.st18{clip-path:url(#SVGID_27_);fill:#284734;}
	.st19{clip-path:url(#SVGID_29_);fill:#284734;}
	.st20{clip-path:url(#SVGID_31_);fill:#284734;}
	.st21{clip-path:url(#SVGID_33_);fill:#284734;}
	.st22{clip-path:url(#SVGID_35_);fill:#284734;}
	.st23{clip-path:url(#SVGID_37_);fill:#284734;}
	.st24{clip-path:url(#SVGID_41_);fill:#284734;}
	.st25{clip-path:url(#SVGID_43_);fill:#284734;}
	.st26{clip-path:url(#SVGID_45_);fill:#284734;}
	.st27{clip-path:url(#SVGID_47_);fill:#284734;}
</style>
<path class="st0" d="M75.7,39.3l0.1,1.1l4,11.9h-8.5L75.7,39.3z M79,35.2l-3.6,1.2l-9.2,25.2L63.5,62l0.1,1.1L67,63l4.1,0.1l0.1-1.1
	L68,61.6l2.7-8h9.4l2.7,8L79.8,62l0.1,1.1l5.2-0.1l5.8,0.1L91,62l-2.7-0.4L79,35.2z"/>
<g>
	<defs>
		<rect id="SVGID_40_" x="41" y="35.2" width="177.1" height="178.2"/>
	</defs>
	<clipPath id="SVGID_2_">
		<use xlink:href="#SVGID_40_"  style="overflow:visible;"/>
	</clipPath>
	<path style="clip-path:url(#SVGID_2_);fill:#284734;" d="M92.4,62l2.4-0.4V46.5l-2.5,0.3l-0.1-1.1l5.7-1.3l1.2,0l0.1,3.7l6.4-4.1
		c4.2,0,5.2,1.7,5.2,6v11.7l2.6,0.4l-0.1,1.1l-4.7-0.1l-4.1,0.1l-0.1-1.1l1.8-0.4V49.9c0-2-0.8-2.7-2.3-2.7c-1.3,0-2.3,0.7-3.6,1.5
		l-1.2,0.7v12.2l1.8,0.4L101,63L97.1,63L92.5,63L92.4,62z"/>
	<path style="clip-path:url(#SVGID_2_);fill:#284734;" d="M114.6,54.5c0-6.2,4.6-9.4,9.6-10.4c2,0,4.3,0.9,5.6,2v4.1h-3.6L125,46
		c-0.5-0.3-0.9-0.3-1.5-0.3c-2.4,0-4.4,2.3-4.4,6.8c0,4.4,2.5,7.8,6.3,7.8c1.6,0,3-0.6,4.4-1.6l0.5,0.9c-2,1.7-3.9,2.9-6.6,4
		C118.4,63.6,114.6,60.2,114.6,54.5"/>
</g>
<path class="st0" d="M138,44.4l-5.7,1.3l0.1,1.1l2.5-0.4v15.2l-2.4,0.4l0.1,1.1l4.5-0.1l4.6,0.1l0.1-1.1l-2.5-0.4V44.4L138,44.4z
	 M134.9,35.9l-0.4,1.9l0.3,2.4l1.1,0.2l3.1-0.2l0.4-2l-0.2-2.3l-1.2-0.2L134.9,35.9z"/>
<g>
	<defs>
		<rect id="SVGID_42_" x="41" y="35.2" width="177.1" height="178.2"/>
	</defs>
	<clipPath id="SVGID_4_">
		<use xlink:href="#SVGID_42_"  style="overflow:visible;"/>
	</clipPath>
	<path class="st4" d="M147.4,51.7l7.1-0.2V51c0-3.2-0.6-5.4-3.3-5.4C148.8,45.7,147.5,47.8,147.4,51.7 M159.2,59.6
		c-2.2,1.9-4.2,3-7,4c-4.9,0-9.1-3.4-9.1-9.2c0-5.6,3.4-9.1,9-10.4c4.8,0,7,3,7,7.2v1.6h-11.7c0.2,4.5,2.7,7.3,6.5,7.3
		c1.8,0,3.5-0.7,4.8-1.6L159.2,59.6z"/>
	<path class="st4" d="M161.1,62l2.4-0.4V46.5l-2.5,0.3l-0.1-1.1l5.7-1.3l1.2,0l0.1,3.7l6.4-4.1c4.2,0,5.2,1.7,5.2,6v11.7l2.6,0.4
		l-0.1,1.1l-4.7-0.1l-4.1,0.1l-0.1-1.1l1.8-0.4V49.9c0-2-0.8-2.7-2.3-2.7c-1.3,0-2.3,0.7-3.6,1.5l-1.2,0.7v12.2l1.8,0.4l-0.1,1.1
		l-3.9-0.1l-4.6,0.1L161.1,62z"/>
	<path class="st4" d="M185.3,58.2v-12h-3.2v-0.4l0.7-1h2.5v-2.7l3.7-2.6h0.7v5.4h5.4v1.2h-5.4v11.9c0,1.6,0.9,2.5,2.1,2.5
		c1.1,0,1.9-0.3,3.2-0.9l0.5,1l-5.4,2.9C186.8,63.6,185.3,61.6,185.3,58.2"/>
	<path class="st4" d="M41,91.1c0-9,5.8-13.8,14.8-14.9c3.9,0,6.9,1.2,9.1,2.4V85h-1.5l-1.9-4.7c-1.2-1.3-3-2.6-6-2.6
		c-5.1,0-9,4.2-9,12.5c0,6.9,3.2,13.1,9.5,13.1c2.3,0,4.1-1.1,5.4-2.4l2.3-5.3h1.4l-0.4,6.6c-2.7,1.2-5.8,2.2-9.7,2.6
		C47.7,104.8,41,100.1,41,91.1"/>
	<path class="st4" d="M67.6,103.1l2.4-0.4V78.4l-2.4,0.2l-0.2-1.1l5.7-1.2l1.4,0v12.8l6.4-4c4.4,0,5.2,2.1,5.2,6.1v11.5l2.6,0.4
		l-0.1,1.1l-4.7-0.1l-4,0.1l-0.1-1.1l1.8-0.4V91c0-1.9-0.8-2.7-2.2-2.7c-1.2,0-2.3,0.7-3.7,1.5l-1.2,0.7v12.3l1.8,0.4l-0.1,1.1
		l-4-0.1l-4.5,0.1L67.6,103.1z"/>
	<path class="st4" d="M93.9,92.9l7.1-0.2v-0.5c0-3.2-0.6-5.4-3.3-5.4C95.4,86.8,94.1,88.9,93.9,92.9 M105.8,100.7
		c-2.2,1.9-4.2,3-7,4c-4.9,0-9.1-3.4-9.1-9.2c0-5.6,3.4-9.1,9-10.4c4.8,0,7,3,7,7.2V94H93.9c0.2,4.5,2.7,7.3,6.5,7.3
		c1.8,0,3.5-0.7,4.8-1.6L105.8,100.7z"/>
	<path class="st4" d="M107.7,103.1l2.4-0.4V87.6l-2.5,0.4l-0.1-1.1l5.6-1.3l1.3,0l0.1,3.7l6.1-4.1c3.4,0,4.9,1.2,5.1,4.1l6.2-4.1
		c4.2,0,5.2,1.8,5.2,6v11.6l2.7,0.4l-0.1,1.1l-4.6-0.1l-4.1,0.1l-0.1-1.1l1.7-0.4V91.1c0-2-0.7-2.8-2.1-2.8c-1.1,0-2.4,0.7-3.5,1.5
		l-1.1,0.7v12.2l1.6,0.4l-0.1,1.1l-3.7-0.1l-3.9,0.1l-0.1-1.1l1.6-0.4V91.1c0-2-0.7-2.8-2.1-2.8c-1.1,0-2.4,0.7-3.5,1.5l-1.1,0.7
		v12.2l1.7,0.4l-0.1,1.1l-3.9-0.1l-4.5,0.1L107.7,103.1z"/>
</g>
<path class="st0" d="M144,81.4l-0.3-2.4l0.4-1.9l3.1-0.2l1.2,0.2l0.2,2.3l-0.4,2l-3.1,0.2L144,81.4z M141.7,103.1l2.4-0.4V87.6
	l-2.5,0.4l-0.1-1.1l5.7-1.3l1.3,0v17.3l2.5,0.4l-0.1,1.1l-4.6-0.1l-4.5,0.1L141.7,103.1z"/>
<g>
	<defs>
		<rect id="SVGID_44_" x="41" y="35.2" width="177.1" height="178.2"/>
	</defs>
	<clipPath id="SVGID_6_">
		<use xlink:href="#SVGID_44_"  style="overflow:visible;"/>
	</clipPath>
	<path style="clip-path:url(#SVGID_6_);fill:#284734;" d="M153.4,103.1L153,98h1.5l1.7,3.7c1,0.9,2.1,1.6,3.5,1.6c2,0,3-1.1,3-2.5
		c0-1.6-0.8-2.3-2.8-3.4l-3.2-1.9c-1.8-1-3.4-2.3-3.4-4.6c0-2.7,2.1-4.4,6.9-5.6c2.7,0,4.6,0.7,5.8,1.4v4.8h-1.3l-1.6-3.6
		c-0.8-0.7-1.8-1.2-3.2-1.2c-1.6,0-2.8,0.9-2.8,2.3c0,1.4,0.9,2.1,2.9,3.2l3.2,1.8c2.4,1.3,3.4,2.7,3.4,4.9c0,3.2-2.5,4.9-7.2,6
		C157.4,104.8,154.8,103.9,153.4,103.1"/>
	<path style="clip-path:url(#SVGID_6_);fill:#284734;" d="M170.9,99.4v-12h-3.2v-0.3l0.7-1h2.5v-2.7l3.7-2.6h0.7v5.4h5.4v1.2h-5.4
		v11.9c0,1.6,0.9,2.5,2.1,2.5c1.1,0,1.9-0.3,3.2-0.9l0.5,1l-5.4,2.9C172.3,104.7,170.9,102.8,170.9,99.4"/>
	<path style="clip-path:url(#SVGID_6_);fill:#284734;" d="M182.8,103.1l2.4-0.4V87.6l-2.5,0.4l-0.1-1.1l5.5-1.3l1.2,0l0.2,5.9l4-6.1
		h3V90h-4.1c-0.5,0.2-1.9,1.9-2.5,2.5l-0.3,0.4v9.9l3.8,0.4l-0.1,1.1l-5.8-0.1l-4.6,0.1L182.8,103.1z"/>
</g>
<polygon class="st0" points="215.1,85.8 211.9,85.8 211.8,86.8 213.9,87.1 209.1,101.5 208.9,100 204.2,87.1 206.4,86.8 206.4,85.8 
	202,85.8 197.4,85.8 197.2,86.8 199.3,87.1 205.6,103.9 208.8,102.7 204.8,109 200.4,109 200.4,113.3 205.4,113.3 210.1,102.9 
	215.9,87.1 218.1,86.8 218,85.8 "/>
<g>
	<defs>
		<rect id="SVGID_46_" x="41" y="35.2" width="177.1" height="178.2"/>
	</defs>
	<clipPath id="SVGID_8_">
		<use xlink:href="#SVGID_46_"  style="overflow:visible;"/>
	</clipPath>
	<path class="st6" d="M175.8,187.8c-2.8,2.2-13,9.4-24.8,9.4c-5.6,0-11.1-0.7-15.5-2l-0.4-0.1l0.4-0.2c0,0,0,0,0,0l0,0
		c0.5-0.2,1-0.3,1.4-0.5c0.4-0.2,0.8-0.3,1.2-0.5c0.5-0.2,1-0.4,1.5-0.7c0.5-0.2,0.9-0.4,1.2-0.6c0.5-0.3,1.1-0.6,1.5-0.9l0.1-0.1
		c0.3-0.2,0.7-0.4,1.2-0.7c0.5-0.3,1-0.7,1.6-1.1l0.3-0.2c0.3-0.2,0.6-0.4,1-0.7c0.5-0.4,1-0.7,1.5-1.1l0.2-0.2
		c0.1-0.1,0.3-0.2,0.4-0.3c0.3-0.2,0.5-0.4,0.8-0.6c0.6-0.5,1.2-1,1.7-1.5l0.1-0.1c0.1-0.1,0.3-0.2,0.4-0.3c0.2-0.2,0.4-0.3,0.6-0.5
		c1-0.9,1.9-1.8,2.8-2.6c1-1,1.9-2,2.9-3.1l0.1-0.1l0.1,0c8.8,1.1,15.9,7.1,17.9,8.9l0.1,0.1L175.8,187.8z M144,210l0,0.2l-0.2-0.1
		c-1.8-0.4-6.2-1.8-9.1-5.1c-2.1-2.4-3.5-4.7-4.3-6.5c-0.4-1-0.5-1.8-0.5-2.5l0-0.1l0.3,0c0.5,0,1,0,1.7-0.1l0,0l2,0.6
		c1,0.3,2.2,0.7,3.3,0.9l0,0l0,0c1,0.9,2,1.9,2.9,2.9C143,203.5,143.8,207.8,144,210 M129.3,194.3L129.3,194.3
		c-0.6-0.1-1.1-0.2-1.5-0.4c-0.6-0.2-1-0.5-1.4-0.9c-0.9-0.9-1.3-2.2-1.3-4c0-2.9,1.5-7,4.1-11.3l0.1-0.2l0.1,0.2
		c2.6,4.3,4,8.3,4.1,11.2v0l0,0l0,0.1c0,1.7-0.4,3-1.3,3.9c-0.3,0.3-0.7,0.6-1.1,0.8C130.5,194,129.9,194.2,129.3,194.3L129.3,194.3
		z M123.6,205L123.6,205c-2.8,3.2-6.9,4.6-9.1,5.2l-0.2,0.1l0-0.2c0.2-2.3,1-6.5,3.8-9.8c0.8-0.9,1.6-1.8,2.6-2.6l0,0l0,0
		c1.4-0.3,2.8-0.7,4.1-1.1l2.3-0.7l0,0c0.3,0,0.7,0.1,1,0.1l0.1,0l0,0.1C128.4,198.1,126.7,201.4,123.6,205 M108.2,197.2
		c-11.8,0-22-7.2-24.8-9.4l-0.1-0.1l0.1-0.1c1.9-1.8,8.8-7.7,17.4-8.9l0.1,0l0.1,0.1c0.1,0.1,0.2,0.2,0.3,0.4l0.7,0.7
		c0.1,0.1,0.2,0.2,0.2,0.3c0.5,0.6,1.1,1.1,1.6,1.7c0.9,0.9,1.8,1.8,2.8,2.7c0.2,0.2,0.4,0.4,0.6,0.5c0.1,0.1,0.3,0.2,0.4,0.3
		l0.2,0.2c0.6,0.5,1.1,1,1.7,1.4c0.3,0.2,0.5,0.4,0.8,0.6c0.1,0.1,0.3,0.2,0.4,0.3l0.3,0.2c0.5,0.4,0.9,0.7,1.4,1.1
		c0.3,0.2,0.7,0.5,1,0.7l0.3,0.2c0.5,0.4,1.1,0.7,1.6,1.1c0.3,0.2,0.7,0.4,1,0.6l0.2,0.1c0.4,0.3,1,0.6,1.6,0.9
		c0.5,0.2,0.9,0.5,1.2,0.6c0.5,0.2,1,0.5,1.5,0.7c0.4,0.2,0.8,0.3,1.2,0.5c0.4,0.2,0.9,0.3,1.4,0.5l0.5,0.2l-0.5,0.1
		C118.9,196.6,113.7,197.2,108.2,197.2 M92.7,153.7l0-0.2l0.2,0c3.2,0.2,14.2,1.2,22.4,7.9l0.1,0v0.1c0,1.4,0.1,2.7,0.1,4.1
		c0,0.1,0,0.2,0,0.2l0,0.2c0.1,1.4,0.2,2.7,0.3,3.9c0,0.3,0.1,0.6,0.1,0.9c0,0.2,0.1,0.4,0.1,0.6l0,0.4c0.1,0.8,0.2,1.6,0.3,2.4
		c0.1,0.3,0.1,0.7,0.2,1l0,0.1c0,0.2,0.1,0.3,0.1,0.5l0.1,0.6c0,0.3,0.1,0.5,0.1,0.8l0,0.2l-0.2,0c-1.3-0.2-2.5-0.3-3.8-0.4l-0.2,0
		c-0.1,0-0.1,0-0.2,0c-1.6-0.1-3.1-0.2-4.4-0.2c-1.2,0-2.4,0-3.5,0.1c-0.2,0-0.4,0-0.6,0c-0.2,0-0.3,0-0.5,0l-0.4,0
		c-0.6,0-1.1,0.1-1.6,0.1l-0.1,0l-0.1-0.1C94.2,168.5,92.9,157,92.7,153.7 M124.5,193.7l-0.6-0.2c-0.3-0.1-0.7-0.2-1-0.4l-0.4-0.2
		c-0.3-0.1-0.6-0.2-0.8-0.3c-0.4-0.2-0.8-0.4-1.3-0.6l-0.6-0.3c-0.3-0.1-0.5-0.2-0.8-0.4c-0.4-0.2-0.9-0.5-1.3-0.8l-0.2-0.1
		c-0.1-0.1-0.2-0.1-0.4-0.2c-0.3-0.2-0.6-0.3-0.8-0.5c-0.4-0.3-0.9-0.6-1.3-0.8l-0.4-0.3c-0.1-0.1-0.3-0.2-0.4-0.3l0,0
		c-0.2-0.2-0.5-0.3-0.7-0.5c-0.4-0.3-0.9-0.7-1.3-1l-0.4-0.3c-0.1-0.1-0.3-0.2-0.4-0.3c-0.2-0.2-0.5-0.3-0.7-0.5
		c-0.6-0.5-1.1-0.9-1.7-1.4l-0.2-0.2c-0.1-0.1-0.3-0.2-0.4-0.3l-0.1-0.1c-0.1-0.1-0.3-0.3-0.4-0.4c-1-0.9-1.9-1.8-2.8-2.7
		c-0.6-0.6-1.2-1.2-1.8-1.9l-0.2-0.2l0.3,0c0.2,0,0.4,0,0.6,0c0.2,0,0.3,0,0.4,0c0.2,0,0.5,0,0.7,0c1.2-0.1,2.3-0.1,3.3-0.1
		c1.5,0,3,0.1,4.6,0.2l0.1,0c0,0,0,0,0.1,0c1.4,0.1,2.8,0.3,4.3,0.5l0.1,0l0,0.1c0.2,0.8,0.4,1.7,0.7,2.6c0,0.1,0,0.1,0.1,0.2
		c0,0,0,0.1,0,0.1l0,0.1c0.3,0.9,0.5,1.7,0.8,2.4c0.1,0.2,0.1,0.4,0.2,0.5l0.1,0.1c0,0.1,0,0.1,0.1,0.2c0.2,0.5,0.5,1.1,0.7,1.7
		c0.1,0.2,0.2,0.4,0.3,0.6l0.1,0.3c0.3,0.6,0.5,1,0.7,1.4c0.1,0.2,0.3,0.5,0.4,0.7l0.1,0.1c0.2,0.4,0.5,0.8,0.8,1.2
		c0.2,0.3,0.4,0.5,0.5,0.7c0.3,0.3,0.5,0.6,0.8,1l0.1,0.1c0.1,0.1,0.2,0.2,0.2,0.3L124.5,193.7z M124.5,183.6l-0.1,0.3
		c0,0.1,0,0.1-0.1,0.2l0,0c0,0.1-0.1,0.3-0.1,0.4c-0.1,0.3-0.2,0.7-0.3,1l0,0.1c0,0,0,0.1,0,0.1l0,0.1c0,0.1,0,0.2-0.1,0.2
		c-0.1,0.4-0.1,0.8-0.2,1.2l0,0.1c0,0.1,0,0.2,0,0.2c-0.1,0.5-0.1,1-0.1,1.4c0,0.2,0,0.3,0,0.5l0,0.6l-0.3-0.5
		c-0.2-0.3-0.3-0.5-0.5-0.8l0-0.1c0,0,0-0.1-0.1-0.1l-0.1-0.2c-0.3-0.5-0.6-1.1-0.8-1.7l-0.1-0.2c-0.1-0.1-0.1-0.2-0.2-0.4
		c-0.4-0.8-0.7-1.5-0.9-2.2l0-0.1c0-0.1,0-0.1-0.1-0.1c-0.3-0.7-0.5-1.4-0.7-2.2c-0.1-0.2-0.1-0.5-0.2-0.7c-0.3-1-0.5-1.9-0.7-2.7
		c0,0,0,0,0,0l-0.1-0.6c-0.1-0.5-0.2-1-0.3-1.6l-0.2-0.9c0-0.2-0.1-0.5-0.1-0.7c0-0.2-0.1-0.4-0.1-0.5l0-0.1c0-0.2,0-0.4-0.1-0.5
		l0-0.1c-0.1-0.9-0.3-1.8-0.4-2.8c0-0.4-0.1-0.7-0.1-1.1c0-0.2,0-0.4-0.1-0.6l0-0.5c-0.1-0.7-0.1-1.4-0.2-2.1c0-0.4,0-0.9-0.1-1.3
		c0-0.2,0-0.4,0-0.6c0-0.2,0-0.5,0-0.7l0-0.4l0.3,0.2c1,0.9,1.8,1.7,2.6,2.5c0.8,0.8,1.7,1.7,2.5,2.6c0.1,0.1,0.2,0.2,0.3,0.3
		l0.1,0.1c0.1,0.1,0.2,0.2,0.3,0.3l0,0c0.5,0.6,1.1,1.2,1.6,1.9c0.2,0.2,0.4,0.5,0.6,0.7l0.1,0.1c0.1,0.1,0.1,0.2,0.2,0.3l0.3,0.4
		c0.3,0.4,0.6,0.7,0.8,1.1c0.3,0.4,0.5,0.7,0.7,1l0,0.1c0.1,0.1,0.2,0.2,0.2,0.3c0.1,0.1,0.1,0.2,0.2,0.3l0.2,0.2
		c0.1,0.1,0.2,0.3,0.3,0.4l0.1,0.1l-0.1,0.1c0,0.1-0.1,0.1-0.1,0.2l-0.1,0.1c0,0.1-0.1,0.1-0.1,0.2l-0.1,0.2
		c-0.2,0.3-0.3,0.5-0.5,0.8c-0.1,0.2-0.2,0.4-0.3,0.6l-0.3,0.6c-0.1,0.2-0.2,0.4-0.3,0.7c-0.1,0.2-0.2,0.5-0.4,0.7l-0.3,0.6
		c-0.1,0.2-0.2,0.3-0.2,0.5c-0.1,0.3-0.2,0.5-0.3,0.8l-0.1,0.2c0,0.1-0.1,0.2-0.1,0.2l-0.1,0.1c-0.1,0.1-0.1,0.2-0.1,0.4
		C124.6,183.1,124.5,183.4,124.5,183.6 M116.9,160.7c0.1-15.7,9.6-29,12.6-32.7l0.1-0.2l0.1,0.2c2.9,3.6,12.4,16.7,12.6,32.2l0,0.1
		l-0.1,0c-1.6,1.4-3.1,2.8-4.6,4.2c-0.8,0.8-1.7,1.7-2.5,2.6c-0.2,0.2-0.4,0.4-0.6,0.7c-0.1,0.1-0.2,0.3-0.3,0.4l-0.3,0.4
		c-0.3,0.4-0.7,0.8-1,1.2c-0.2,0.3-0.4,0.5-0.6,0.8c-0.1,0.1-0.2,0.3-0.3,0.4l-0.2,0.3c-0.4,0.4-0.7,0.9-1,1.3
		c-0.2,0.3-0.4,0.5-0.5,0.8l-0.3,0.4c-0.1,0.1-0.2,0.2-0.3,0.4l-0.3,0.5l0,0l-0.1-0.2l-0.3-0.4c-0.1-0.1-0.1-0.2-0.2-0.3l-0.4-0.6
		c-0.2-0.2-0.3-0.4-0.5-0.7c-0.4-0.5-0.8-1-1.1-1.4l-0.2-0.2c-0.1-0.1-0.1-0.2-0.2-0.3l-0.1-0.1c-0.2-0.2-0.3-0.4-0.5-0.6
		c-0.5-0.6-1-1.1-1.5-1.7l-0.1-0.1c-0.1-0.1-0.2-0.2-0.2-0.3l-0.2-0.2c-0.1-0.1-0.2-0.3-0.4-0.4c-0.8-0.9-1.7-1.8-2.5-2.6
		c-0.7-0.7-1.4-1.4-2.1-2c-0.1-0.1-0.2-0.2-0.3-0.3l-0.1-0.1c-0.1-0.1-0.2-0.2-0.3-0.2l-0.3-0.3c-0.3-0.3-0.6-0.5-0.9-0.8
		L116.9,160.7L116.9,160.7z M135.5,192.9c0.3-0.3,0.6-0.7,0.9-1c0.1-0.1,0.2-0.3,0.3-0.4l0.2-0.2c0.3-0.4,0.5-0.8,0.8-1.2
		c0.2-0.2,0.3-0.5,0.5-0.8c0.2-0.4,0.5-0.9,0.7-1.4l0-0.1c0.2-0.3,0.3-0.6,0.4-0.8c0.2-0.5,0.4-1,0.7-1.6c0-0.1,0.1-0.2,0.1-0.3l0,0
		c0.1-0.2,0.2-0.4,0.2-0.6c0.2-0.7,0.5-1.4,0.7-2.2c0-0.1,0.1-0.2,0.1-0.3c0-0.1,0.1-0.2,0.1-0.3c0.2-0.8,0.5-1.7,0.7-2.6l0-0.1
		l0.1,0c1-0.1,2.1-0.3,3.2-0.3l0.1,0c1-0.1,2.1-0.1,3.4-0.2c0.1,0,0.1,0,0.2,0l0.3,0c1,0,2.1,0,3.3,0l0.2,0c0.2,0,0.3,0,0.5,0
		c0.8,0,1.6,0.1,2.4,0.1l0.3,0l-0.2,0.2c-0.7,0.8-1.3,1.4-1.9,1.9c-0.8,0.9-1.8,1.7-2.7,2.6c-0.2,0.2-0.3,0.3-0.5,0.4l-0.1,0.1
		c-0.1,0.1-0.1,0.1-0.2,0.2l0,0c-0.5,0.5-1.2,1.1-1.8,1.6c-0.2,0.1-0.4,0.3-0.6,0.4l-0.1,0.1c-0.1,0.1-0.2,0.2-0.4,0.3l-0.1,0
		c-0.6,0.5-1.1,0.9-1.7,1.3c-0.2,0.2-0.4,0.3-0.7,0.5l-0.4,0.2c-0.6,0.4-1.2,0.8-1.8,1.2c-0.2,0.1-0.3,0.2-0.5,0.3l-0.4,0.3
		c-0.5,0.3-1.2,0.7-1.8,1c-0.2,0.1-0.4,0.2-0.7,0.3l-0.2,0.1c-0.7,0.4-1.3,0.6-1.8,0.8c-0.2,0.1-0.5,0.2-0.7,0.3l-0.1,0.1
		c-0.3,0.1-0.6,0.3-0.9,0.4l-0.6,0.2L135.5,192.9z M135.1,188.9c0-0.4,0-0.9-0.1-1.3c0-0.1,0-0.2,0-0.3l0,0c0-0.1,0-0.1,0-0.2l0-0.2
		c0-0.3-0.1-0.5-0.1-0.8c0-0.1,0-0.2-0.1-0.3l0-0.1c0-0.1,0-0.1-0.1-0.2l0-0.2c-0.1-0.3-0.1-0.5-0.2-0.8c0-0.2-0.1-0.3-0.2-0.5
		c0-0.1-0.1-0.2-0.1-0.3l-0.1-0.3c-0.1-0.2-0.1-0.4-0.2-0.6c-0.1-0.2-0.1-0.3-0.2-0.5l-0.2-0.5c-0.1-0.2-0.2-0.5-0.3-0.7
		c-0.1-0.2-0.2-0.3-0.2-0.5l0-0.1c0-0.1-0.1-0.1-0.1-0.2l-0.1-0.3c-0.1-0.2-0.2-0.5-0.3-0.7c-0.1-0.2-0.2-0.3-0.3-0.5l-0.1-0.1
		c0-0.1-0.1-0.1-0.1-0.2l-0.2-0.3c-0.1-0.3-0.3-0.5-0.4-0.8c-0.1-0.2-0.2-0.4-0.3-0.5l-0.2-0.3c-0.1-0.1-0.1-0.2-0.2-0.3
		c0-0.1-0.1-0.1-0.1-0.2c0,0-0.1-0.1-0.1-0.1l-0.1-0.1l0.1-0.1c0.2-0.2,0.3-0.5,0.5-0.7l0.2-0.3c0.1-0.1,0.1-0.2,0.2-0.3l0.1-0.1
		c0.2-0.2,0.3-0.5,0.5-0.8c0.2-0.3,0.5-0.6,0.7-0.9l0.1-0.1c0.1-0.1,0.2-0.3,0.3-0.4c0.1-0.1,0.2-0.2,0.3-0.3l0.1-0.1
		c0.2-0.3,0.4-0.5,0.6-0.8c0.3-0.4,0.7-0.8,1-1.2l0.4-0.4c0.1-0.1,0.2-0.3,0.3-0.4l0.1-0.1c0.2-0.2,0.3-0.4,0.5-0.5
		c0.8-0.9,1.6-1.7,2.4-2.6c0.9-0.9,2-1.9,3.2-3l0.3-0.2l-0.1,1.8c0,0.4,0,0.9,0,1.3c0,0.7-0.1,1.3-0.2,2l0,0.5c0,0.2,0,0.4-0.1,0.7
		c0,0.4-0.1,0.8-0.1,1.2c-0.1,0.7-0.2,1.4-0.3,2.2l-0.1,0.4c0,0.2,0,0.3-0.1,0.5l0,0.1c0,0.3-0.1,0.6-0.1,0.9
		c-0.1,0.8-0.3,1.5-0.4,2.2l-0.1,0.4c0,0.2-0.1,0.4-0.1,0.6c0,0.3-0.1,0.5-0.2,0.8c-0.2,0.9-0.4,1.8-0.7,2.8c0,0.2-0.1,0.3-0.1,0.5
		l-0.1,0.3c-0.2,0.6-0.4,1.3-0.6,1.9l0,0.1c-0.1,0.2-0.2,0.4-0.2,0.7c-0.2,0.6-0.5,1.2-0.7,1.8l-0.1,0.3c0,0.1-0.1,0.1-0.1,0.2
		c-0.3,0.7-0.7,1.4-1,2c0,0.1-0.1,0.1-0.1,0.2l-0.1,0.2c-0.3,0.5-0.6,1-0.9,1.4c-0.1,0.1-0.1,0.2-0.2,0.3l-0.4,0.5l0.1-0.6
		c0.1-0.4,0.1-0.9,0.1-1.3l0,0l0-0.2L135.1,188.9z M142.4,176.3l0-0.1c0-0.2,0.1-0.4,0.1-0.6c0-0.2,0.1-0.4,0.1-0.6
		c0.1-0.3,0.1-0.7,0.2-1c0.1-0.8,0.2-1.6,0.3-2.3l0.1-0.6c0-0.1,0-0.2,0-0.3c0-0.3,0.1-0.7,0.1-1.1c0.1-0.9,0.2-1.8,0.2-2.7l0-0.2
		c0-0.1,0-0.2,0-0.3l0-0.3c0-0.3,0-0.6,0.1-0.8c0.1-1.4,0.1-2.9,0.1-4.3l0-0.1l0.1,0c8-6.4,18.7-7.3,21.8-7.5l0.2,0l0,0.2
		c-0.2,3.3-1.5,14.8-8.6,23.2l-0.1,0.1l-0.1,0c-2.3-0.2-4.9-0.3-7.5-0.3l-0.2,0c-1.2,0-2.4,0.1-3.7,0.2l-0.4,0
		c-1,0.1-1.9,0.2-2.9,0.3l-0.2,0l0-0.2C142.3,176.8,142.4,176.5,142.4,176.3 M177.4,185.8c-1.2-1.1-3.6-3.2-6.9-5.1
		c-3.3-2-6.7-3.4-10.1-4.1c6.4-8.8,7.6-19.6,7.8-22.8l0.2-2.9l-2.9,0.1c-2.9,0.1-12.8,0.9-21,6.4c-1.2-15.2-10.2-27.6-13-31l-2-2.5
		l-2,2.5c-2.8,3.5-11.9,16.1-13,31.4c-8.5-5.8-18.6-6.7-21.6-6.8l-2.9-0.1l0.2,2.9c0.2,3.2,1.4,14.1,7.8,22.9
		c-3.3,0.7-6.5,2.1-9.8,4.1c-3.2,2-5.6,4-6.7,5.1l-2.2,2.1l2.4,1.8c3,2.3,13.7,10,26.3,10c2.6,0,5.2-0.1,7.6-0.4
		c-2.9,3.7-3.7,8.2-3.9,10.6l-0.3,3.6l3.5-0.9c2.5-0.6,7.1-2.2,10.4-5.9c1.1-1.3,2.6-3.2,3.7-5.2c0.9,1.6,2.2,3.4,3.7,5.2
		c3.2,3.7,7.9,5.3,10.4,5.9l3.5,0.9l-0.3-3.6c-0.2-2.5-1.1-7.1-4-10.7c2.7,0.4,5.6,0.6,8.6,0.6c12.6,0,23.3-7.6,26.3-10l2.4-1.9
		L177.4,185.8z"/>
</g>
</svg>
