<?xml version="1.0" encoding="utf-8"?>
<!-- Generator: Adobe Illustrator 24.1.1, SVG Export Plug-In . SVG Version: 6.00 Build 0)  -->
<svg version="1.1" id="Laag_1" xmlns="http://www.w3.org/2000/svg" xmlns:xlink="http://www.w3.org/1999/xlink" x="0px" y="0px"
	 viewBox="0 0 250 250" style="enable-background:new 0 0 250 250;" xml:space="preserve">
<style type="text/css">
	.st0{fill:#284734;}
	.st1{clip-path:url(#SVGID_2_);fill:#FFFFFF;}
	.st2{fill:#25AFA5;}
	.st3{fill:none;}
	.st4{clip-path:url(#SVGID_4_);fill:#284734;}
	.st5{clip-path:url(#SVGID_6_);fill:none;stroke:#284734;stroke-width:1.4952;stroke-miterlimit:10;}
	.st6{clip-path:url(#SVGID_8_);fill:#284734;}
	.st7{clip-path:url(#SVGID_10_);fill:#67806A;}
	.st8{clip-path:url(#SVGID_10_);fill:#284734;}
	.st9{clip-path:url(#SVGID_12_);}
	.st10{filter:url(#Adobe_OpacityMaskFilter);}
	.st11{clip-path:url(#SVGID_14_);}
	.st12{clip-path:url(#SVGID_14_);mask:url(#SVGID_15_);}
	.st13{opacity:0.75;clip-path:url(#SVGID_19_);fill:#222221;}
	.st14{clip-path:url(#SVGID_14_);fill:#284734;}
	.st15{clip-path:url(#SVGID_21_);fill:#25AFA5;}
	.st16{clip-path:url(#SVGID_23_);fill:#25AFA5;}
	.st17{clip-path:url(#SVGID_25_);fill:#25AFA5;}
	.st18{clip-path:url(#SVGID_27_);fill:#284734;}
	.st19{clip-path:url(#SVGID_29_);fill:#284734;}
	.st20{clip-path:url(#SVGID_31_);fill:#284734;}
	.st21{clip-path:url(#SVGID_33_);fill:#284734;}
	.st22{clip-path:url(#SVGID_35_);fill:#284734;}
	.st23{clip-path:url(#SVGID_37_);fill:#284734;}
	.st24{clip-path:url(#SVGID_41_);fill:#284734;}
	.st25{clip-path:url(#SVGID_43_);fill:#284734;}
	.st26{clip-path:url(#SVGID_45_);fill:#284734;}
	.st27{clip-path:url(#SVGID_47_);fill:#284734;}
</style>
<path class="st0" d="M95.2,182.1l-2.4-7.2l0-0.7l-2.7,7.8H95.2z M85.4,187.9l1.6-0.2l5.6-15.2l2.2-0.7l5.6,15.9l1.6,0.2l-0.1,0.6
	l-3.5,0l-3.2,0l0-0.6l1.9-0.2l-1.6-4.8h-5.7l-1.6,4.8l1.9,0.2l0,0.6l-2.5,0l-2.1,0L85.4,187.9z"/>
<g>
	<defs>
		<rect id="SVGID_28_" x="62.4" y="31.1" width="126.5" height="187.8"/>
	</defs>
	<clipPath id="SVGID_2_">
		<use xlink:href="#SVGID_28_"  style="overflow:visible;"/>
	</clipPath>
	<path style="clip-path:url(#SVGID_2_);fill:#284734;" d="M102.8,187.9l1.4-0.2v-9.2l-1.5,0.2l-0.1-0.7l3.4-0.8l0.8,0l0,2.2l3.9-2.4
		c2.6,0,3.2,1,3.2,3.6v7l1.6,0.2l0,0.6l-2.8,0l-2.4,0l-0.1-0.6l1.1-0.2v-7.1c0-1.2-0.5-1.6-1.4-1.6c-0.8,0-1.4,0.4-2.2,0.9l-0.7,0.4
		v7.4l1.1,0.2l0,0.6l-2.4,0l-2.8,0L102.8,187.9z"/>
	<path style="clip-path:url(#SVGID_2_);fill:#284734;" d="M116.2,183.4c0-3.7,2.8-5.6,5.8-6.3c1.2,0,2.6,0.6,3.4,1.2v2.5h-2.2
		l-0.7-2.5c-0.3-0.2-0.5-0.2-0.9-0.2c-1.4,0-2.7,1.4-2.7,4.1c0,2.7,1.5,4.7,3.8,4.7c1,0,1.8-0.4,2.6-0.9l0.3,0.6
		c-1.2,1-2.4,1.8-4,2.4C118.5,188.9,116.2,186.8,116.2,183.4"/>
</g>
<path class="st0" d="M128.4,174.8l-0.2-1.4l0.3-1.2l1.9-0.1l0.7,0.1l0.1,1.4l-0.3,1.2L129,175L128.4,174.8z M127,187.9l1.5-0.2v-9.2
	l-1.5,0.2l-0.1-0.6l3.4-0.8l0.8,0v10.4l1.5,0.2l0,0.6l-2.8,0l-2.7,0L127,187.9z"/>
<g>
	<defs>
		<rect id="SVGID_30_" x="62.4" y="31.1" width="126.5" height="187.8"/>
	</defs>
	<clipPath id="SVGID_4_">
		<use xlink:href="#SVGID_30_"  style="overflow:visible;"/>
	</clipPath>
	<path class="st4" d="M136,181.7l4.3-0.1v-0.3c0-1.9-0.4-3.2-2-3.2C136.9,178.1,136.1,179.3,136,181.7 M143.1,186.5
		c-1.3,1.1-2.5,1.8-4.2,2.4c-3,0-5.5-2-5.5-5.5c0-3.4,2-5.5,5.4-6.3c2.9,0,4.2,1.8,4.2,4.3v1H136c0.1,2.7,1.6,4.4,3.9,4.4
		c1.1,0,2.1-0.4,2.9-0.9L143.1,186.5z"/>
	<path class="st4" d="M144.3,187.9l1.4-0.2v-9.2l-1.5,0.2l-0.1-0.7l3.4-0.8l0.8,0l0,2.2l3.9-2.4c2.6,0,3.2,1,3.2,3.6v7l1.6,0.2
		l0,0.6l-2.8,0l-2.4,0l-0.1-0.6l1.1-0.2v-7.1c0-1.2-0.5-1.6-1.4-1.6c-0.8,0-1.4,0.4-2.2,0.9l-0.7,0.4v7.4l1.1,0.2l0,0.6l-2.4,0
		l-2.8,0L144.3,187.9z"/>
	<path class="st4" d="M158.9,185.7v-7.2H157v-0.2l0.4-0.6h1.5V176l2.2-1.6h0.4v3.3h3.3v0.7h-3.2v7.2c0,1,0.5,1.5,1.3,1.5
		c0.7,0,1.2-0.2,1.9-0.6l0.3,0.6l-3.2,1.7C159.8,188.9,158.9,187.7,158.9,185.7"/>
	<path class="st4" d="M75,205.5c0-5.4,3.5-8.3,8.9-9c2.3,0,4.2,0.7,5.5,1.5v3.8h-0.9l-1.2-2.8c-0.7-0.8-1.8-1.6-3.6-1.6
		c-3.1,0-5.4,2.6-5.4,7.5c0,4.2,1.9,7.9,5.7,7.9c1.4,0,2.5-0.7,3.3-1.4l1.4-3.2h0.9l-0.3,4c-1.6,0.7-3.5,1.3-5.8,1.6
		C79,213.8,75,210.9,75,205.5"/>
	<path class="st4" d="M91,212.8l1.4-0.2v-14.7L91,198l-0.1-0.6l3.4-0.7l0.8,0v7.7l3.9-2.4c2.7,0,3.2,1.3,3.2,3.7v7l1.6,0.2l-0.1,0.6
		l-2.8,0l-2.4,0l-0.1-0.6l1.1-0.2v-7.1c0-1.2-0.5-1.6-1.3-1.6c-0.7,0-1.4,0.4-2.2,0.9l-0.7,0.4v7.4l1.1,0.2l0,0.6l-2.4,0l-2.7,0
		L91,212.8z"/>
	<path class="st4" d="M106.9,206.6l4.3-0.1v-0.3c0-1.9-0.4-3.2-2-3.2C107.8,202.9,107,204.2,106.9,206.6 M114,211.3
		c-1.3,1.1-2.5,1.8-4.2,2.4c-3,0-5.5-2-5.5-5.5c0-3.4,2-5.5,5.4-6.3c2.9,0,4.2,1.8,4.2,4.3v1h-7.1c0.1,2.7,1.6,4.4,3.9,4.4
		c1.1,0,2.1-0.4,2.9-0.9L114,211.3z"/>
	<path class="st4" d="M115.2,212.8l1.4-0.2v-9.2l-1.5,0.2l-0.1-0.6l3.4-0.8l0.8,0l0,2.2l3.7-2.4c2,0,2.9,0.8,3.1,2.4l3.7-2.4
		c2.5,0,3.1,1.1,3.1,3.6v7l1.6,0.2l-0.1,0.6l-2.8,0l-2.5,0l-0.1-0.6l1-0.2v-7.1c0-1.2-0.4-1.7-1.3-1.7c-0.7,0-1.4,0.4-2.1,0.9
		l-0.7,0.4v7.4l1,0.2l-0.1,0.6l-2.3,0l-2.4,0l-0.1-0.6l1-0.2v-7.1c0-1.2-0.4-1.7-1.3-1.7c-0.7,0-1.4,0.4-2.1,0.9l-0.7,0.4v7.4l1,0.2
		l-0.1,0.6l-2.4,0l-2.7,0L115.2,212.8z"/>
</g>
<path class="st0" d="M137.1,199.7l-0.2-1.4l0.3-1.2l1.9-0.1l0.7,0.1l0.1,1.4l-0.3,1.2l-1.9,0.1L137.1,199.7z M135.7,212.8l1.5-0.2
	v-9.2l-1.5,0.2l-0.1-0.6l3.4-0.8l0.8,0v10.4l1.5,0.2l0,0.6l-2.8,0l-2.7,0L135.7,212.8z"/>
<g>
	<defs>
		<rect id="SVGID_32_" x="62.4" y="31.1" width="126.5" height="187.8"/>
	</defs>
	<clipPath id="SVGID_6_">
		<use xlink:href="#SVGID_32_"  style="overflow:visible;"/>
	</clipPath>
	<path style="clip-path:url(#SVGID_6_);fill:#284734;" d="M142.8,212.8l-0.2-3.1h0.9l1,2.2c0.6,0.5,1.3,0.9,2.1,0.9
		c1.2,0,1.8-0.7,1.8-1.5c0-1-0.5-1.4-1.7-2.1l-1.9-1.1c-1.1-0.6-2-1.4-2-2.8c0-1.6,1.3-2.7,4.2-3.4c1.6,0,2.8,0.4,3.5,0.9v2.9h-0.8
		l-0.9-2.2c-0.5-0.4-1.1-0.8-1.9-0.8c-1,0-1.7,0.5-1.7,1.4c0,0.8,0.6,1.2,1.7,1.9l1.9,1.1c1.4,0.8,2,1.6,2,2.9c0,1.9-1.5,3-4.3,3.6
		C145.2,213.8,143.7,213.2,142.8,212.8"/>
	<path style="clip-path:url(#SVGID_6_);fill:#284734;" d="M153.3,210.5v-7.2h-1.9v-0.2l0.4-0.6h1.5v-1.6l2.2-1.6h0.4v3.3h3.3v0.7
		h-3.2v7.2c0,1,0.5,1.5,1.3,1.5c0.7,0,1.2-0.2,1.9-0.6l0.3,0.6l-3.2,1.7C154.2,213.7,153.3,212.6,153.3,210.5"/>
	<path style="clip-path:url(#SVGID_6_);fill:#284734;" d="M160.5,212.8l1.5-0.2v-9.2l-1.5,0.2l-0.1-0.6l3.3-0.8l0.7,0l0.1,3.6
		l2.4-3.7h1.8v2.8h-2.4c-0.3,0.1-1.2,1.2-1.5,1.5l-0.2,0.2v6l2.3,0.2l-0.1,0.7l-3.5,0l-2.8,0L160.5,212.8z"/>
</g>
<polygon class="st0" points="180,202.3 178.1,202.3 178,202.9 179.3,203.1 176.4,211.8 176.3,210.9 173.5,203.1 174.8,202.9 
	174.8,202.3 172.1,202.3 169.3,202.3 169.2,202.9 170.5,203.1 174.3,213.2 176.2,212.5 173.8,216.3 171.2,216.3 171.2,218.9 
	174.2,218.9 177,212.6 180.5,203.1 181.8,202.9 181.8,202.3 "/>
<g>
	<defs>
		<rect id="SVGID_34_" x="62.4" y="31.1" width="126.5" height="187.8"/>
	</defs>
	<clipPath id="SVGID_8_">
		<use xlink:href="#SVGID_34_"  style="overflow:visible;"/>
	</clipPath>
	<path class="st6" d="M184,111.7c-3.6,2.8-16.4,11.9-31.3,11.9c-7,0-14-0.9-19.6-2.6l-0.6-0.2l0.5-0.2c0,0,0,0,0.1,0l0,0
		c0.6-0.2,1.2-0.4,1.8-0.7c0.5-0.2,1-0.4,1.5-0.6c0.6-0.3,1.2-0.6,1.9-0.9c0.6-0.3,1.1-0.5,1.5-0.8c0.7-0.4,1.3-0.8,1.9-1.1l0.1-0.1
		c0.4-0.3,0.9-0.6,1.5-0.9c0.7-0.4,1.3-0.9,2-1.3l0.3-0.2c0.4-0.3,0.8-0.5,1.2-0.8c0.6-0.4,1.2-0.9,1.8-1.4l0.3-0.2
		c0.2-0.1,0.3-0.2,0.5-0.4c0.3-0.2,0.7-0.5,1-0.8c0.7-0.6,1.5-1.3,2.2-1.9l0.1-0.1c0.2-0.1,0.3-0.3,0.5-0.4c0.2-0.2,0.5-0.4,0.7-0.6
		c1.2-1.1,2.4-2.2,3.5-3.3c1.2-1.2,2.5-2.5,3.7-3.9l0.1-0.1l0.1,0c11.1,1.4,20.1,9,22.6,11.3l0.2,0.2L184,111.7z M143.8,139.8l0,0.3
		l-0.3-0.1c-2.2-0.5-7.8-2.3-11.5-6.5c-2.6-3-4.5-5.9-5.4-8.3c-0.5-1.2-0.7-2.3-0.6-3.1l0-0.2l0.3,0c0.6,0,1.3-0.1,2.1-0.2l0,0
		l2.5,0.7c1.3,0.4,2.7,0.8,4.2,1.2l0,0l0,0c1.3,1.2,2.5,2.4,3.6,3.7C142.6,131.6,143.6,137,143.8,139.8 M125.3,119.9L125.3,119.9
		c-0.7-0.1-1.4-0.2-1.9-0.4c-0.7-0.3-1.3-0.7-1.8-1.1c-1.1-1.1-1.7-2.8-1.6-5c0.1-3.7,1.9-8.8,5.2-14.3l0.2-0.3l0.2,0.3
		c3.2,5.4,5.1,10.5,5.2,14.2v0l0,0l0,0.1c0,2.2-0.5,3.8-1.6,4.9c-0.4,0.4-0.9,0.7-1.4,1C126.9,119.6,126.1,119.8,125.3,119.9
		L125.3,119.9z M118.1,133.5L118.1,133.5c-3.5,4.1-8.7,5.8-11.5,6.5l-0.3,0.1l0-0.3c0.3-2.9,1.2-8.2,4.7-12.3c1-1.2,2.1-2.3,3.2-3.3
		l0,0l0.1,0c1.8-0.4,3.5-0.8,5.2-1.4l2.9-0.8l0,0c0.4,0,0.8,0.1,1.2,0.1l0.2,0l0,0.2C124.2,124.7,122,128.9,118.1,133.5 M98.6,123.6
		c-15,0-27.8-9.1-31.3-11.9l-0.2-0.1l0.2-0.2c2.4-2.3,11.1-9.8,21.9-11.2l0.1,0l0.1,0.1c0.1,0.1,0.3,0.3,0.4,0.4l0.8,0.9
		c0.1,0.1,0.2,0.2,0.3,0.3c0.7,0.7,1.3,1.4,2.1,2.1c1.1,1.1,2.3,2.3,3.6,3.4c0.3,0.2,0.5,0.5,0.8,0.7c0.2,0.1,0.3,0.3,0.5,0.4
		l0.2,0.2c0.7,0.6,1.4,1.2,2.1,1.8c0.3,0.3,0.7,0.5,1,0.8c0.2,0.1,0.3,0.2,0.5,0.4l0.4,0.3c0.6,0.5,1.2,0.9,1.8,1.3
		c0.4,0.3,0.8,0.6,1.2,0.8l0.4,0.2c0.7,0.5,1.4,0.9,2,1.4c0.4,0.3,0.9,0.5,1.3,0.8l0.3,0.2c0.5,0.3,1.3,0.7,2,1.1
		c0.6,0.3,1.2,0.6,1.6,0.8c0.6,0.3,1.3,0.6,1.9,0.9c0.5,0.2,1,0.4,1.5,0.6c0.6,0.2,1.2,0.4,1.8,0.6l0.6,0.2l-0.6,0.2
		C112.2,122.8,105.6,123.6,98.6,123.6 M79.1,68.6l0-0.2l0.2,0c4,0.2,17.9,1.5,28.2,10l0.1,0.1v0.1c0,1.7,0.1,3.4,0.2,5.2
		c0,0.1,0,0.2,0,0.3l0,0.2c0.1,1.8,0.2,3.4,0.4,4.9c0,0.4,0.1,0.8,0.1,1.1c0,0.2,0.1,0.5,0.1,0.7l0.1,0.5c0.1,1,0.3,2,0.4,3
		c0.1,0.4,0.2,0.8,0.2,1.2l0,0.1c0,0.2,0.1,0.4,0.1,0.6l0.1,0.8c0.1,0.3,0.1,0.6,0.2,1l0.1,0.3l-0.3,0c-1.6-0.2-3.2-0.4-4.8-0.5
		l-0.3,0c-0.1,0-0.1,0-0.2,0c-2-0.2-3.9-0.2-5.6-0.2c-1.5,0-3,0-4.5,0.1c-0.3,0-0.5,0-0.8,0.1c-0.2,0-0.4,0-0.6,0l-0.5,0
		c-0.7,0-1.4,0.1-2,0.2l-0.1,0L90.1,98C81,87.3,79.4,72.8,79.1,68.6 M119.2,119.2l-0.8-0.3c-0.4-0.1-0.8-0.3-1.3-0.5l-0.5-0.2
		c-0.4-0.1-0.7-0.3-1.1-0.4c-0.5-0.2-1.1-0.5-1.6-0.7l-0.8-0.4c-0.3-0.2-0.6-0.3-1-0.5c-0.6-0.3-1.1-0.6-1.7-1l-0.3-0.2
		c-0.2-0.1-0.3-0.2-0.5-0.3c-0.4-0.2-0.7-0.4-1-0.6c-0.5-0.3-1.1-0.7-1.6-1.1l-0.5-0.3c-0.2-0.1-0.3-0.2-0.5-0.3l0,0
		c-0.3-0.2-0.6-0.4-0.9-0.6c-0.5-0.4-1.1-0.8-1.7-1.2l-0.5-0.4c-0.2-0.1-0.4-0.3-0.5-0.4c-0.3-0.2-0.6-0.4-0.9-0.7
		c-0.7-0.6-1.4-1.2-2.1-1.8l-0.3-0.3c-0.2-0.1-0.3-0.3-0.5-0.4l-0.1-0.1c-0.2-0.2-0.4-0.3-0.6-0.5c-1.2-1.1-2.4-2.3-3.5-3.4
		c-0.8-0.8-1.5-1.5-2.3-2.4l-0.3-0.3l0.4,0c0.3,0,0.5,0,0.8-0.1c0.2,0,0.4,0,0.5,0c0.3,0,0.6,0,0.9-0.1c1.5-0.1,2.9-0.1,4.2-0.1
		c1.8,0,3.8,0.1,5.8,0.2l0.1,0c0,0,0.1,0,0.1,0c1.7,0.1,3.5,0.4,5.4,0.7l0.1,0l0,0.1c0.3,1.1,0.6,2.2,0.9,3.3c0,0.1,0.1,0.2,0.1,0.3
		c0,0.1,0,0.1,0,0.1l0,0.1c0.4,1.2,0.7,2.2,1,3.1c0.1,0.2,0.2,0.5,0.3,0.7l0.1,0.2c0,0.1,0.1,0.1,0.1,0.2c0.3,0.7,0.6,1.4,0.9,2.2
		c0.1,0.3,0.2,0.5,0.4,0.8l0.2,0.3c0.4,0.8,0.7,1.3,0.9,1.8c0.2,0.3,0.4,0.6,0.5,0.9l0.1,0.1c0.3,0.5,0.6,1,1,1.5
		c0.2,0.3,0.4,0.6,0.7,0.9c0.3,0.4,0.7,0.8,1,1.2l0.1,0.1c0.1,0.1,0.2,0.2,0.3,0.3L119.2,119.2z M119.2,106.5l-0.1,0.3
		c0,0.1-0.1,0.2-0.1,0.3l0,0c-0.1,0.2-0.1,0.3-0.2,0.5c-0.1,0.4-0.2,0.9-0.3,1.3l0,0.2c0,0.1,0,0.1,0,0.2l0,0.1c0,0.1,0,0.2-0.1,0.3
		c-0.1,0.5-0.2,1-0.2,1.5l0,0.2c0,0.1,0,0.2,0,0.3c-0.1,0.6-0.1,1.2-0.1,1.8c0,0.2,0,0.4,0,0.6l0,0.7l-0.4-0.6
		c-0.2-0.3-0.4-0.7-0.6-1l0-0.1c0,0-0.1-0.1-0.1-0.1l-0.1-0.2c-0.4-0.6-0.7-1.3-1.1-2.1l-0.1-0.2c-0.1-0.2-0.1-0.3-0.2-0.5
		c-0.4-1-0.8-1.9-1.2-2.8l-0.1-0.2c0-0.1,0-0.1-0.1-0.2c-0.3-0.9-0.6-1.8-0.9-2.8c-0.1-0.3-0.2-0.6-0.3-0.9
		c-0.4-1.3-0.7-2.4-0.9-3.5c0,0,0,0,0,0l-0.2-0.7c-0.1-0.6-0.3-1.3-0.4-2l-0.2-1.1c-0.1-0.3-0.1-0.6-0.2-0.9c0-0.2-0.1-0.5-0.1-0.7
		l0-0.2c0-0.2-0.1-0.5-0.1-0.7l0-0.1c-0.2-1.1-0.3-2.3-0.5-3.5c0-0.4-0.1-0.9-0.1-1.3c0-0.3,0-0.5-0.1-0.8l-0.1-0.6
		c-0.1-0.9-0.2-1.7-0.2-2.6c0-0.6,0-1.1-0.1-1.6c0-0.3,0-0.5,0-0.8c0-0.3,0-0.6,0-0.9l0-0.5l0.3,0.3c1.2,1.1,2.3,2.1,3.3,3.1
		c1,1,2.1,2.1,3.1,3.3c0.1,0.1,0.2,0.3,0.4,0.4l0.1,0.1c0.1,0.1,0.2,0.3,0.3,0.4l0,0c0.7,0.8,1.4,1.6,2.1,2.4
		c0.3,0.3,0.5,0.6,0.7,0.9l0.1,0.2c0.1,0.1,0.2,0.2,0.3,0.4l0.4,0.5c0.4,0.5,0.7,0.9,1.1,1.4c0.3,0.4,0.6,0.9,0.9,1.3l0,0.1
		c0.1,0.1,0.2,0.3,0.3,0.4c0.1,0.1,0.2,0.2,0.2,0.3l0.2,0.3c0.1,0.2,0.2,0.3,0.3,0.5l0.1,0.1l-0.1,0.1c-0.1,0.1-0.1,0.2-0.2,0.3
		l-0.1,0.2c0,0.1-0.1,0.1-0.1,0.2l-0.2,0.3c-0.2,0.3-0.4,0.6-0.6,1c-0.1,0.2-0.3,0.5-0.4,0.7l-0.4,0.8c-0.1,0.3-0.3,0.5-0.4,0.8
		c-0.2,0.3-0.3,0.6-0.4,0.9l-0.3,0.7c-0.1,0.2-0.2,0.4-0.3,0.7c-0.2,0.3-0.3,0.7-0.4,1l-0.1,0.3c0,0.1-0.1,0.2-0.1,0.3l-0.1,0.2
		c-0.1,0.2-0.1,0.3-0.2,0.5C119.4,105.8,119.3,106.1,119.2,106.5 M109.6,77.5c0.1-19.9,12.2-36.6,15.9-41.3l0.2-0.2l0.2,0.2
		c3.7,4.6,15.6,21.1,15.9,40.7l0,0.1l-0.1,0.1c-2,1.7-4,3.5-5.8,5.3c-1,1-2.1,2.1-3.1,3.3c-0.2,0.3-0.5,0.6-0.7,0.8
		c-0.1,0.2-0.3,0.3-0.4,0.5l-0.4,0.5c-0.4,0.5-0.9,1-1.3,1.5c-0.3,0.3-0.5,0.7-0.8,1c-0.1,0.2-0.3,0.3-0.4,0.5l-0.3,0.4
		c-0.4,0.6-0.8,1.1-1.2,1.6c-0.2,0.3-0.5,0.6-0.7,1l-0.4,0.5c-0.1,0.2-0.2,0.3-0.3,0.5l-0.4,0.6l0,0.1l-0.2-0.2l-0.3-0.5
		c-0.1-0.1-0.2-0.3-0.3-0.4l-0.5-0.7c-0.2-0.3-0.4-0.6-0.6-0.8c-0.5-0.6-1-1.3-1.4-1.8l-0.2-0.3c-0.1-0.1-0.2-0.2-0.3-0.3l-0.1-0.1
		c-0.2-0.3-0.4-0.5-0.6-0.8c-0.6-0.7-1.2-1.4-1.8-2.1l-0.1-0.2c-0.1-0.1-0.2-0.2-0.3-0.3l-0.2-0.2c-0.1-0.2-0.3-0.3-0.4-0.5
		c-1-1.1-2.1-2.2-3.1-3.3c-0.9-0.9-1.8-1.7-2.7-2.6c-0.1-0.1-0.2-0.2-0.4-0.3l-0.1-0.1c-0.1-0.1-0.2-0.2-0.3-0.3l-0.4-0.4
		c-0.4-0.3-0.7-0.7-1.1-1L109.6,77.5L109.6,77.5z M133.1,118.1c0.4-0.4,0.7-0.8,1.1-1.3c0.1-0.2,0.3-0.4,0.4-0.6l0.2-0.3
		c0.4-0.5,0.7-1,1-1.5c0.2-0.3,0.4-0.6,0.6-1c0.3-0.5,0.6-1.1,0.9-1.7l0-0.1c0.2-0.4,0.4-0.7,0.5-1.1c0.3-0.6,0.5-1.2,0.8-2.1
		c0-0.1,0.1-0.2,0.1-0.3l0,0c0.1-0.3,0.2-0.5,0.3-0.8c0.3-0.8,0.6-1.7,0.9-2.8c0-0.1,0.1-0.2,0.1-0.3c0-0.1,0.1-0.3,0.1-0.4
		c0.3-1.1,0.6-2.2,0.9-3.2l0-0.1l0.1,0c1.3-0.2,2.6-0.3,4-0.4l0.1,0c1.3-0.1,2.7-0.2,4.3-0.2c0.1,0,0.2,0,0.3,0l0.4,0
		c1.3,0,2.6,0,4.1,0l0.3,0c0.2,0,0.4,0,0.6,0c1,0,2,0.1,3,0.2l0.4,0l-0.3,0.3c-0.9,1-1.6,1.8-2.3,2.5c-1.1,1.1-2.2,2.2-3.4,3.2
		c-0.2,0.2-0.4,0.4-0.6,0.5l-0.2,0.2c-0.1,0.1-0.2,0.2-0.3,0.2l-0.1,0c-0.7,0.6-1.5,1.3-2.3,2c-0.2,0.2-0.5,0.4-0.7,0.5l-0.1,0.1
		c-0.2,0.1-0.3,0.2-0.5,0.3l-0.1,0.1c-0.7,0.6-1.4,1.1-2.2,1.6c-0.3,0.2-0.5,0.4-0.8,0.6l-0.5,0.3c-0.8,0.5-1.5,1-2.2,1.5
		c-0.2,0.1-0.4,0.3-0.7,0.4l-0.6,0.3c-0.7,0.4-1.5,0.9-2.2,1.3c-0.3,0.2-0.6,0.3-0.8,0.4l-0.3,0.1c-0.9,0.5-1.6,0.8-2.2,1.1
		c-0.3,0.1-0.6,0.2-0.9,0.4l-0.2,0.1c-0.4,0.2-0.8,0.3-1.2,0.5l-0.7,0.3L133.1,118.1z M132.6,113.1c0-0.5,0-1.1-0.1-1.7
		c0-0.1,0-0.2-0.1-0.4l0,0c0-0.1,0-0.1,0-0.2l0-0.3c0-0.3-0.1-0.7-0.2-1c0-0.1-0.1-0.2-0.1-0.4l0-0.2c0-0.1,0-0.2-0.1-0.3l-0.1-0.2
		c-0.1-0.3-0.2-0.7-0.3-1c-0.1-0.2-0.1-0.4-0.2-0.6c0-0.1-0.1-0.2-0.1-0.3l-0.1-0.4c-0.1-0.2-0.2-0.5-0.3-0.8
		c-0.1-0.2-0.2-0.4-0.3-0.7l-0.2-0.6c-0.1-0.3-0.2-0.6-0.4-0.9c-0.1-0.2-0.2-0.4-0.3-0.6l-0.1-0.1c0-0.1-0.1-0.2-0.1-0.2l-0.2-0.4
		c-0.1-0.3-0.3-0.6-0.4-0.9c-0.1-0.2-0.2-0.4-0.3-0.7l-0.1-0.1c0-0.1-0.1-0.1-0.1-0.2l-0.2-0.4c-0.2-0.3-0.3-0.6-0.5-1
		c-0.1-0.2-0.3-0.5-0.4-0.7l-0.2-0.4c-0.1-0.1-0.2-0.3-0.2-0.4c0-0.1-0.1-0.2-0.1-0.2c0-0.1-0.1-0.1-0.1-0.2l-0.1-0.1l0.1-0.1
		c0.2-0.3,0.4-0.6,0.6-0.9l0.3-0.4c0.1-0.1,0.2-0.2,0.2-0.4l0.1-0.2c0.2-0.3,0.4-0.6,0.7-1c0.3-0.4,0.6-0.8,0.9-1.2l0.1-0.1
		c0.1-0.2,0.3-0.3,0.4-0.5c0.1-0.1,0.2-0.3,0.3-0.4l0.1-0.2c0.2-0.3,0.5-0.6,0.8-1c0.4-0.5,0.8-1,1.2-1.5l0.5-0.6
		c0.1-0.2,0.3-0.3,0.4-0.5l0.1-0.1c0.2-0.2,0.4-0.5,0.6-0.7c1-1.1,2-2.2,3.1-3.2c1.2-1.2,2.5-2.4,4-3.8l0.3-0.3l-0.1,2.3
		c0,0.6,0,1.1-0.1,1.7c0,0.8-0.1,1.7-0.2,2.5l-0.1,0.6c0,0.3,0,0.5-0.1,0.8c0,0.5-0.1,1-0.1,1.5c-0.1,0.9-0.2,1.8-0.4,2.7l-0.1,0.5
		c0,0.2-0.1,0.4-0.1,0.6l0,0.2c-0.1,0.4-0.1,0.8-0.2,1.2c-0.2,1-0.4,1.9-0.5,2.8l-0.1,0.5c0,0.2-0.1,0.5-0.1,0.7
		c-0.1,0.3-0.1,0.7-0.2,1c-0.3,1.1-0.6,2.3-0.9,3.6c-0.1,0.2-0.1,0.4-0.2,0.6l-0.1,0.4c-0.2,0.8-0.5,1.6-0.8,2.4l-0.1,0.2
		c-0.1,0.3-0.2,0.6-0.3,0.8c-0.3,0.7-0.6,1.5-0.9,2.3l-0.2,0.4c0,0.1-0.1,0.2-0.1,0.3c-0.4,0.9-0.9,1.8-1.3,2.6
		c0,0.1-0.1,0.2-0.1,0.2l-0.1,0.2c-0.4,0.7-0.8,1.2-1.1,1.8c-0.1,0.1-0.2,0.2-0.2,0.3l-0.5,0.6l0.1-0.8c0.1-0.6,0.1-1.1,0.1-1.6l0,0
		l0-0.2L132.6,113.1z M141.8,97.3l0-0.2c0-0.3,0.1-0.5,0.1-0.8c0-0.2,0.1-0.5,0.1-0.7c0.1-0.4,0.2-0.8,0.2-1.3c0.2-1,0.3-2,0.4-2.9
		l0.1-0.8c0-0.1,0-0.3,0.1-0.4c0.1-0.4,0.1-0.9,0.2-1.3c0.1-1.1,0.2-2.3,0.3-3.4l0-0.3c0-0.1,0-0.3,0-0.4l0-0.4
		c0-0.3,0.1-0.7,0.1-1.1c0.1-1.8,0.1-3.6,0.1-5.4l0-0.1l0.1-0.1c10.1-8.1,23.6-9.3,27.5-9.4l0.2,0l0,0.2
		c-0.3,4.2-1.8,18.6-10.9,29.3l-0.1,0.1l-0.1,0c-2.9-0.3-6.2-0.4-9.4-0.3l-0.3,0c-1.5,0-3.1,0.1-4.6,0.2l-0.5,0
		c-1.2,0.1-2.4,0.2-3.7,0.4l-0.3,0l0.1-0.3C141.7,97.8,141.8,97.5,141.8,97.3 M186.1,109.2c-1.5-1.4-4.5-4-8.7-6.5
		c-4.2-2.5-8.5-4.2-12.7-5.1c8.1-11.1,9.6-24.8,9.8-28.8l0.2-3.6l-3.6,0.1c-3.6,0.1-16.1,1.2-26.6,8.1
		c-1.5-19.1-12.9-34.8-16.4-39.2l-2.6-3.2l-2.5,3.2c-3.5,4.4-15.1,20.3-16.4,39.7c-10.7-7.3-23.5-8.4-27.2-8.6l-3.6-0.2l0.2,3.6
		c0.3,4,1.7,17.8,9.9,28.9c-4.1,0.9-8.3,2.6-12.3,5.1c-4,2.5-7,5.1-8.4,6.4l-2.8,2.6l3,2.3c3.8,2.9,17.3,12.6,33.2,12.6
		c3.3,0,6.5-0.2,9.6-0.5c-3.6,4.6-4.7,10.3-4.9,13.4l-0.4,4.5l4.4-1.1c3.1-0.8,9-2.7,13.1-7.5c1.4-1.6,3.3-4,4.7-6.6
		c1.1,2,2.7,4.3,4.7,6.6c4.1,4.7,9.9,6.7,13.1,7.5l4.4,1.1l-0.4-4.5c-0.3-3.1-1.3-8.9-5.1-13.5c3.5,0.5,7.1,0.7,10.9,0.7
		c16,0,29.4-9.6,33.2-12.6l3-2.4L186.1,109.2z"/>
</g>
</svg>
