<?xml version="1.0" encoding="utf-8"?>
<!-- Generator: Adobe Illustrator 24.1.1, SVG Export Plug-In . SVG Version: 6.00 Build 0)  -->
<svg version="1.1" id="Laag_1" xmlns="http://www.w3.org/2000/svg" xmlns:xlink="http://www.w3.org/1999/xlink" x="0px" y="0px"
	 viewBox="0 0 250 250" style="enable-background:new 0 0 250 250;" xml:space="preserve">
<style type="text/css">
	.st0{fill:#284734;}
	.st1{clip-path:url(#SVGID_2_);fill:#FFFFFF;}
	.st2{fill:#25AFA5;}
	.st3{fill:none;}
	.st4{clip-path:url(#SVGID_4_);fill:#284734;}
	.st5{clip-path:url(#SVGID_6_);fill:none;stroke:#284734;stroke-width:1.4952;stroke-miterlimit:10;}
	.st6{clip-path:url(#SVGID_8_);fill:#284734;}
	.st7{clip-path:url(#SVGID_10_);fill:#67806A;}
	.st8{clip-path:url(#SVGID_10_);fill:#284734;}
	.st9{clip-path:url(#SVGID_12_);}
	.st10{filter:url(#Adobe_OpacityMaskFilter);}
	.st11{clip-path:url(#SVGID_14_);}
	.st12{clip-path:url(#SVGID_14_);mask:url(#SVGID_15_);}
	.st13{opacity:0.75;clip-path:url(#SVGID_19_);fill:#222221;}
	.st14{clip-path:url(#SVGID_14_);fill:#284734;}
	.st15{clip-path:url(#SVGID_21_);fill:#25AFA5;}
	.st16{clip-path:url(#SVGID_23_);fill:#25AFA5;}
	.st17{clip-path:url(#SVGID_25_);fill:#25AFA5;}
	.st18{clip-path:url(#SVGID_27_);fill:#284734;}
	.st19{clip-path:url(#SVGID_29_);fill:#284734;}
	.st20{clip-path:url(#SVGID_31_);fill:#284734;}
	.st21{clip-path:url(#SVGID_33_);fill:#284734;}
	.st22{clip-path:url(#SVGID_35_);fill:#284734;}
	.st23{clip-path:url(#SVGID_37_);fill:#284734;}
	.st24{clip-path:url(#SVGID_41_);fill:#284734;}
	.st25{clip-path:url(#SVGID_43_);fill:#284734;}
	.st26{clip-path:url(#SVGID_45_);fill:#284734;}
	.st27{clip-path:url(#SVGID_47_);fill:#284734;}
</style>
<g>
	<defs>
		<rect id="SVGID_11_" x="22.6" y="37.6" width="207.8" height="174.8"/>
	</defs>
	<clipPath id="SVGID_2_">
		<use xlink:href="#SVGID_11_"  style="overflow:visible;"/>
	</clipPath>
	<g style="clip-path:url(#SVGID_2_);">
		<defs>
			<rect id="SVGID_13_" x="22.6" y="37.6" width="207.8" height="174.8"/>
		</defs>
		<clipPath id="SVGID_4_">
			<use xlink:href="#SVGID_13_"  style="overflow:visible;"/>
		</clipPath>
		<defs>
			<filter id="Adobe_OpacityMaskFilter" filterUnits="userSpaceOnUse" x="40.1" y="51.9" width="172.6" height="156.7">
				<feColorMatrix  type="matrix" values="1 0 0 0 0  0 1 0 0 0  0 0 1 0 0  0 0 0 1 0"/>
			</filter>
		</defs>
		<mask maskUnits="userSpaceOnUse" x="40.1" y="51.9" width="172.6" height="156.7" id="SVGID_6_">
			<g class="st10">
				<g>
					<defs>
						<rect id="SVGID_16_" x="22.6" y="37.6" width="210" height="176.6"/>
					</defs>
					<clipPath id="SVGID_8_" style="clip-path:url(#SVGID_4_);">
						<use xlink:href="#SVGID_16_"  style="overflow:visible;"/>
					</clipPath>
					<g transform="matrix(1 0 0 1 0 0)" style="clip-path:url(#SVGID_8_);">
						
							<image style="overflow:visible;" width="264" height="222" xlink:href="4904DD45.jpg"  transform="matrix(0.7954 0 0 0.7954 22.588 37.605)">
						</image>
					</g>
				</g>
			</g>
		</mask>
		<g style="clip-path:url(#SVGID_4_);mask:url(#SVGID_6_);">
			<g>
				<defs>
					<rect id="SVGID_18_" x="40.1" y="51.9" width="172.6" height="156.7"/>
				</defs>
				<clipPath id="SVGID_10_">
					<use xlink:href="#SVGID_18_"  style="overflow:visible;"/>
				</clipPath>
				<rect x="40.1" y="51.9" style="opacity:0.75;clip-path:url(#SVGID_10_);fill:#222221;" width="172.6" height="156.7"/>
			</g>
		</g>
		<path class="st4" d="M195.4,157.1c-4.4,3.4-20,14.5-38.2,14.5c-8.6,0-17.1-1.1-23.9-3.1l-0.7-0.2l0.7-0.3l0.1,0l0.1,0
			c0.8-0.3,1.5-0.5,2.2-0.8c0.6-0.2,1.2-0.5,1.8-0.8c0.7-0.3,1.5-0.7,2.3-1.1c0.7-0.4,1.3-0.7,1.9-1c0.8-0.5,1.6-0.9,2.4-1.4
			l0.1-0.1c0.5-0.3,1.2-0.7,1.8-1.1c0.8-0.5,1.6-1,2.5-1.6l0.4-0.3c0.5-0.3,1-0.7,1.5-1c0.8-0.5,1.5-1.1,2.3-1.7l0.3-0.2
			c0.2-0.2,0.4-0.3,0.6-0.5c0.4-0.3,0.8-0.6,1.2-0.9c0.9-0.7,1.8-1.5,2.7-2.3l0.2-0.1c0.2-0.2,0.4-0.3,0.6-0.5
			c0.3-0.3,0.6-0.5,0.9-0.8c1.5-1.4,2.9-2.7,4.2-4c1.5-1.5,3-3.1,4.5-4.7l0.1-0.1l0.1,0c13.6,1.7,24.5,11,27.6,13.8l0.2,0.2
			L195.4,157.1z M146.3,191.4l0,0.3l-0.3-0.1c-2.7-0.7-9.6-2.8-14-7.9c-3.2-3.7-5.5-7.2-6.6-10.1c-0.6-1.5-0.8-2.8-0.7-3.8l0-0.2
			l0.4,0c0.8,0,1.6-0.1,2.6-0.2l0.1,0l3,0.9c1.6,0.5,3.3,1,5.1,1.5l0.1,0l0,0c1.6,1.4,3.1,2.9,4.4,4.5
			C144.8,181.3,146,187.9,146.3,191.4 M123.7,167.1L123.7,167.1c-0.9-0.1-1.7-0.3-2.3-0.5c-0.9-0.3-1.6-0.8-2.2-1.4
			c-1.4-1.4-2-3.4-2-6.1c0.1-4.5,2.3-10.7,6.3-17.4l0.2-0.4l0.2,0.4c4,6.6,6.2,12.8,6.3,17.3l0,0l0,0l0,0.2c0,2.6-0.6,4.7-2,6
			c-0.5,0.5-1.1,0.9-1.8,1.2C125.6,166.7,124.7,167,123.7,167.1L123.7,167.1z M114.9,183.7L114.9,183.7c-4.3,5-10.6,7.1-14,7.9
			l-0.3,0.1l0-0.3c0.3-3.5,1.5-10.1,5.8-15c1.2-1.4,2.5-2.8,4-4.1l0,0l0.1,0c2.2-0.5,4.3-1,6.4-1.7l3.6-1l0,0c0.5,0.1,1,0.1,1.5,0.1
			l0.2,0l0,0.2C122.4,172.9,119.7,178.1,114.9,183.7 M91.2,171.6c-18.3,0-33.9-11.1-38.2-14.5l-0.2-0.2l0.2-0.2
			c2.9-2.8,13.5-11.9,26.8-13.7l0.1,0l0.1,0.1l0.5,0.5l1,1.1l0.4,0.4c0.8,0.9,1.6,1.7,2.5,2.6c1.4,1.4,2.8,2.8,4.3,4.1
			c0.3,0.3,0.6,0.6,1,0.8c0.2,0.2,0.4,0.3,0.6,0.5l0.3,0.2c0.8,0.7,1.7,1.5,2.6,2.2c0.4,0.3,0.8,0.7,1.3,1c0.2,0.1,0.4,0.3,0.6,0.5
			l0.4,0.3c0.7,0.5,1.5,1.1,2.2,1.6c0.5,0.4,1,0.7,1.5,1l0.5,0.3c0.8,0.6,1.7,1.1,2.5,1.7c0.5,0.3,1.1,0.7,1.6,1l0.3,0.2
			c0.7,0.4,1.5,0.9,2.4,1.4c0.7,0.4,1.4,0.7,1.9,1c0.8,0.4,1.5,0.7,2.3,1.1c0.6,0.3,1.2,0.5,1.8,0.7c0.7,0.3,1.4,0.5,2.2,0.8
			l0.8,0.2l-0.8,0.2C107.7,170.6,99.7,171.6,91.2,171.6 M67.3,104.5l0-0.3l0.3,0c4.9,0.2,21.8,1.8,34.5,12.2l0.1,0.1l0,0.1
			c0,2.1,0.1,4.2,0.2,6.3l0,0.4l0,0.3c0.1,2.2,0.3,4.1,0.5,6c0.1,0.5,0.1,0.9,0.2,1.4c0,0.3,0.1,0.6,0.1,0.9l0.1,0.6
			c0.2,1.2,0.3,2.4,0.5,3.6c0.1,0.5,0.2,1,0.3,1.5l0,0.1c0,0.2,0.1,0.5,0.1,0.7l0.2,1c0.1,0.4,0.1,0.8,0.2,1.2l0.1,0.3l-0.3-0.1
			c-1.9-0.3-3.9-0.5-5.8-0.7l-0.3,0l-0.3,0c-2.4-0.2-4.7-0.3-6.8-0.3c-1.8,0-3.6,0-5.4,0.1c-0.3,0-0.6,0-1,0.1c-0.2,0-0.5,0-0.7,0.1
			l-0.6,0c-0.8,0.1-1.7,0.1-2.5,0.2l-0.1,0l-0.1-0.1C69.6,127.3,67.7,109.6,67.3,104.5 M116.3,166.2l-0.9-0.3
			c-0.5-0.2-1-0.4-1.5-0.6l-0.6-0.2c-0.4-0.2-0.9-0.3-1.3-0.5c-0.6-0.3-1.3-0.6-2-0.9l-1-0.5c-0.4-0.2-0.8-0.4-1.2-0.6
			c-0.7-0.4-1.4-0.8-2.1-1.2l-0.4-0.2c-0.2-0.1-0.4-0.2-0.6-0.3c-0.5-0.3-0.9-0.5-1.3-0.8c-0.6-0.4-1.3-0.9-2-1.3l-0.6-0.4
			c-0.2-0.1-0.4-0.3-0.6-0.4l-0.1,0c-0.4-0.2-0.8-0.5-1.1-0.8c-0.7-0.5-1.4-1-2-1.5l-0.7-0.5c-0.2-0.2-0.4-0.3-0.6-0.5
			c-0.3-0.3-0.7-0.5-1.1-0.8c-0.9-0.7-1.7-1.5-2.6-2.2l-0.4-0.3c-0.2-0.2-0.4-0.3-0.6-0.5l-0.1-0.1c-0.2-0.2-0.5-0.4-0.7-0.6
			c-1.5-1.4-3-2.8-4.3-4.1c-0.9-0.9-1.8-1.9-2.8-2.9l-0.3-0.4l0.5,0c0.3,0,0.6,0,1-0.1c0.2,0,0.5,0,0.7-0.1c0.4,0,0.7-0.1,1.1-0.1
			c1.8-0.1,3.5-0.1,5.1-0.1c2.2,0,4.6,0.1,7.1,0.3l0.2,0l0.1,0c2.1,0.2,4.3,0.4,6.6,0.8l0.2,0l0,0.2c0.3,1.3,0.7,2.6,1.1,4l0.1,0.3
			l0.1,0.2l0,0.1c0.4,1.4,0.8,2.6,1.2,3.8c0.1,0.3,0.2,0.6,0.3,0.8l0.1,0.2l0.1,0.3c0.3,0.8,0.7,1.8,1.1,2.6
			c0.1,0.3,0.3,0.6,0.4,0.9l0.2,0.4c0.5,1,0.8,1.6,1.1,2.1c0.2,0.4,0.4,0.7,0.6,1.1l0.1,0.2c0.4,0.6,0.8,1.2,1.2,1.8
			c0.3,0.4,0.5,0.7,0.8,1.1c0.4,0.5,0.8,1,1.3,1.5l0.1,0.1l0.4,0.4L116.3,166.2z M116.3,150.7l-0.1,0.4l-0.1,0.3l0,0.1
			c-0.1,0.2-0.1,0.4-0.2,0.6c-0.2,0.5-0.3,1-0.4,1.6l0,0.2l-0.1,0.2l0,0.1l-0.1,0.3c-0.1,0.6-0.2,1.2-0.3,1.8l0,0.2l-0.1,0.3
			c-0.1,0.8-0.1,1.5-0.1,2.1c0,0.3,0,0.5,0,0.8l0,0.9l-0.5-0.7c-0.3-0.4-0.5-0.8-0.8-1.3l0-0.1l-0.1-0.2l-0.1-0.2
			c-0.4-0.8-0.9-1.6-1.3-2.6l-0.1-0.3c-0.1-0.2-0.2-0.4-0.3-0.6c-0.5-1.2-1-2.3-1.4-3.4l-0.1-0.2l-0.1-0.2c-0.4-1.1-0.8-2.2-1.1-3.4
			c-0.1-0.3-0.2-0.7-0.3-1.1c-0.5-1.6-0.8-2.9-1.1-4.2l0-0.1l-0.2-0.9c-0.2-0.8-0.3-1.6-0.5-2.5l-0.3-1.4c-0.1-0.4-0.1-0.8-0.2-1.1
			c0-0.3-0.1-0.6-0.1-0.8l0-0.2c0-0.3-0.1-0.5-0.1-0.8l0-0.1c-0.2-1.4-0.4-2.8-0.6-4.3c-0.1-0.5-0.1-1.1-0.1-1.6
			c0-0.3-0.1-0.6-0.1-0.9l-0.1-0.7c-0.1-1-0.2-2.1-0.3-3.2c0-0.7-0.1-1.4-0.1-2c0-0.3,0-0.6,0-0.9c0-0.4,0-0.7,0-1.1l0-0.6l0.4,0.4
			c1.5,1.3,2.8,2.6,4,3.8c1.3,1.3,2.6,2.6,3.8,4l0.4,0.5l0.1,0.1l0.4,0.5l0,0c0.8,0.9,1.7,1.9,2.5,2.9c0.3,0.4,0.6,0.8,0.9,1.2
			l0.2,0.2l0.3,0.4l0.5,0.6c0.4,0.6,0.9,1.1,1.3,1.7c0.4,0.6,0.8,1.1,1.1,1.6l0.1,0.1l0.4,0.5l0.3,0.4l0.3,0.4
			c0.1,0.2,0.3,0.4,0.4,0.6l0.1,0.1l-0.1,0.1l-0.2,0.3l-0.1,0.2l-0.1,0.2l-0.2,0.4c-0.2,0.4-0.5,0.8-0.7,1.2
			c-0.2,0.3-0.3,0.6-0.5,0.9l-0.5,1c-0.2,0.3-0.4,0.7-0.5,1c-0.2,0.4-0.4,0.8-0.5,1.1l-0.4,0.9c-0.1,0.3-0.3,0.5-0.4,0.8
			c-0.2,0.4-0.3,0.8-0.5,1.2l-0.1,0.3l-0.1,0.3l-0.1,0.2c-0.1,0.2-0.2,0.4-0.2,0.6C116.5,149.9,116.4,150.3,116.3,150.7
			 M104.6,115.3c0.1-24.2,14.9-44.7,19.4-50.4l0.2-0.2l0.2,0.2c4.5,5.6,19,25.7,19.4,49.6l0,0.1l-0.1,0.1c-2.5,2.1-4.8,4.3-7.1,6.5
			c-1.3,1.3-2.6,2.6-3.8,4c-0.3,0.3-0.6,0.7-0.9,1c-0.2,0.2-0.3,0.4-0.5,0.6l-0.5,0.6c-0.5,0.6-1.1,1.2-1.6,1.9
			c-0.3,0.4-0.6,0.8-0.9,1.2c-0.2,0.2-0.3,0.4-0.5,0.6l-0.4,0.4c-0.5,0.7-1,1.3-1.5,1.9c-0.3,0.4-0.6,0.8-0.8,1.2l-0.4,0.6
			c-0.1,0.2-0.3,0.4-0.4,0.6l-0.5,0.8l0,0.1l-0.2-0.3l-0.4-0.6l-0.3-0.5l-0.6-0.9c-0.2-0.3-0.5-0.7-0.7-1c-0.6-0.8-1.2-1.5-1.7-2.2
			l-0.3-0.3l-0.3-0.4l-0.1-0.2c-0.3-0.3-0.5-0.7-0.8-1c-0.7-0.9-1.5-1.8-2.2-2.6l-0.2-0.2l-0.4-0.4l-0.2-0.3
			c-0.2-0.2-0.4-0.4-0.5-0.6c-1.3-1.4-2.5-2.7-3.8-4c-1.1-1.1-2.2-2.1-3.3-3.2l-0.4-0.4l-0.2-0.2l-0.4-0.4l-0.5-0.4
			c-0.4-0.4-0.9-0.8-1.4-1.2l-0.1-0.1V115.3z M133.2,164.9c0.4-0.5,0.9-1,1.4-1.6c0.2-0.2,0.3-0.4,0.5-0.7l0.3-0.4
			c0.4-0.6,0.8-1.2,1.2-1.8c0.2-0.4,0.5-0.8,0.7-1.3c0.4-0.7,0.7-1.4,1.1-2.1l0.1-0.1c0.2-0.5,0.4-0.9,0.6-1.3
			c0.3-0.7,0.6-1.5,1-2.5l0.2-0.4l0,0c0.1-0.3,0.3-0.6,0.4-1c0.4-1,0.7-2.1,1.1-3.5l0.1-0.4l0.1-0.5c0.4-1.3,0.7-2.6,1.1-4l0-0.2
			l0.2,0c1.6-0.2,3.2-0.4,4.9-0.5l0.1,0c1.5-0.1,3.2-0.2,5.2-0.3l0.3,0l0.4,0c1.5,0,3.2,0,5,0l0.4,0c0.2,0,0.5,0,0.7,0
			c1.2,0,2.5,0.1,3.7,0.2l0.5,0l-0.3,0.4c-1.1,1.2-2,2.2-2.9,3c-1.3,1.3-2.7,2.6-4.2,4c-0.3,0.2-0.5,0.4-0.8,0.7l-0.2,0.2l-0.3,0.3
			l-0.1,0.1c-0.8,0.7-1.9,1.6-2.8,2.4c-0.3,0.2-0.6,0.4-0.9,0.7l-0.2,0.1c-0.2,0.1-0.4,0.3-0.6,0.4l-0.1,0.1c-0.9,0.7-1.8,1.4-2.6,2
			c-0.3,0.2-0.7,0.5-1,0.7l-0.5,0.4c-1,0.7-1.8,1.3-2.7,1.8c-0.3,0.2-0.5,0.3-0.8,0.5l-0.7,0.4c-0.8,0.5-1.8,1.1-2.7,1.6
			c-0.3,0.2-0.7,0.4-1,0.5l-0.3,0.2c-1.1,0.6-1.9,1-2.7,1.3c-0.4,0.2-0.7,0.3-1,0.4l-0.2,0.1c-0.5,0.2-1,0.4-1.5,0.6l-0.9,0.3
			L133.2,164.9z M132.7,158.8c0-0.7,0-1.3-0.1-2l-0.1-0.4l0,0l0-0.2l0-0.3c-0.1-0.4-0.1-0.8-0.2-1.3l-0.1-0.5l0-0.2l-0.1-0.3
			l-0.1-0.3c-0.1-0.4-0.2-0.8-0.3-1.2c-0.1-0.2-0.2-0.5-0.2-0.7l-0.1-0.4l-0.2-0.5c-0.1-0.3-0.2-0.6-0.3-0.9
			c-0.1-0.3-0.2-0.5-0.3-0.8l-0.3-0.7c-0.1-0.4-0.3-0.7-0.5-1.1c-0.1-0.3-0.2-0.5-0.4-0.8l-0.1-0.1l-0.1-0.3l-0.2-0.4
			c-0.2-0.4-0.3-0.7-0.5-1.1c-0.1-0.3-0.3-0.5-0.4-0.8l-0.1-0.2l-0.1-0.3l-0.2-0.4c-0.2-0.4-0.4-0.8-0.6-1.2
			c-0.2-0.3-0.3-0.6-0.5-0.8l-0.3-0.4l-0.3-0.5l-0.2-0.3l-0.1-0.2l-0.1-0.1l0.1-0.1c0.3-0.4,0.5-0.8,0.8-1.1l0.4-0.5l0.3-0.4
			l0.2-0.2c0.2-0.4,0.5-0.8,0.8-1.2c0.3-0.5,0.7-1,1.1-1.4l0.1-0.1c0.2-0.2,0.3-0.4,0.5-0.6l0.4-0.5l0.1-0.2
			c0.3-0.4,0.6-0.8,0.9-1.2c0.5-0.6,1-1.2,1.5-1.8l0.6-0.7c0.2-0.2,0.4-0.4,0.5-0.6l0.1-0.1c0.2-0.3,0.5-0.6,0.7-0.8
			c1.2-1.3,2.5-2.7,3.8-4c1.5-1.5,3.1-3,4.9-4.6l0.4-0.4l-0.1,2.8c0,0.7,0,1.4-0.1,2.1c-0.1,1-0.1,2-0.2,3l-0.1,0.8
			c0,0.3-0.1,0.7-0.1,1c0,0.6-0.1,1.2-0.2,1.8c-0.1,1.1-0.3,2.1-0.4,3.3l-0.1,0.7c0,0.2-0.1,0.5-0.1,0.7l0,0.2
			c-0.1,0.5-0.1,1-0.2,1.4c-0.2,1.2-0.4,2.3-0.7,3.4l-0.1,0.6c-0.1,0.3-0.1,0.6-0.2,0.9c-0.1,0.4-0.2,0.8-0.2,1.2
			c-0.3,1.4-0.7,2.8-1.1,4.4c-0.1,0.2-0.1,0.5-0.2,0.7l-0.2,0.5c-0.3,1-0.6,2-0.9,2.9l-0.1,0.2c-0.1,0.3-0.2,0.7-0.4,1
			c-0.3,0.9-0.7,1.8-1.1,2.8l-0.2,0.5l-0.1,0.3c-0.5,1.1-1.1,2.2-1.6,3.1l-0.2,0.3l-0.1,0.2c-0.5,0.8-0.9,1.5-1.4,2.1l-0.3,0.4
			l-0.6,0.8l0.1-0.9c0.1-0.7,0.1-1.3,0.1-1.9l0,0l0-0.2L132.7,158.8z M143.9,139.4l0-0.2c0.1-0.3,0.1-0.7,0.2-1
			c0.1-0.3,0.1-0.6,0.2-0.9c0.1-0.5,0.2-1,0.3-1.6c0.2-1.2,0.4-2.5,0.5-3.5l0.1-0.9l0.1-0.5c0.1-0.5,0.1-1.1,0.2-1.6
			c0.1-1.4,0.2-2.8,0.3-4.1l0-0.4l0-0.5l0-0.5c0-0.4,0.1-0.9,0.1-1.3c0.1-2.2,0.2-4.4,0.2-6.6v-0.1l0.1-0.1
			c12.3-9.9,28.8-11.3,33.6-11.5l0.3,0l0,0.3c-0.3,5.1-2.2,22.7-13.3,35.8l-0.1,0.1l-0.1,0c-3.5-0.3-7.5-0.5-11.5-0.4l-0.3,0
			c-1.8,0-3.7,0.1-5.6,0.3l-0.6,0c-1.5,0.1-3,0.3-4.5,0.5l-0.3,0l0.1-0.3C143.8,140.1,143.8,139.8,143.9,139.4 M197.9,154
			c-1.8-1.6-5.5-4.9-10.6-7.9c-5.1-3.1-10.4-5.2-15.5-6.3c9.9-13.5,11.7-30.3,12-35.1l0.3-4.4l-4.4,0.2c-4.4,0.2-19.7,1.4-32.4,9.9
			c-1.8-23.4-15.7-42.5-20-47.8l-3.1-3.9l-3.1,3.9c-4.3,5.4-18.4,24.8-20,48.5c-13-8.9-28.7-10.3-33.2-10.5l-4.4-0.2l0.3,4.4
			c0.3,4.9,2.1,21.7,12.1,35.2c-5,1.1-10.1,3.2-15,6.2c-4.9,3-8.6,6.2-10.3,7.8l-3.4,3.2l3.6,2.8c4.6,3.6,21.1,15.3,40.5,15.3
			c4,0,8-0.2,11.7-0.7c-4.4,5.6-5.7,12.6-6,16.3l-0.5,5.5l5.4-1.3c3.8-0.9,11-3.4,16-9.1c1.7-2,4-4.9,5.7-8c1.4,2.5,3.4,5.3,5.7,8
			c5,5.8,12.1,8.2,16,9.1l5.4,1.3L150,191c-0.4-3.8-1.6-10.9-6.2-16.5c4.2,0.6,8.7,0.9,13.3,0.9c19.5,0,35.9-11.7,40.5-15.3l3.7-2.9
			L197.9,154z"/>
	</g>
</g>
</svg>
