<?xml version="1.0" encoding="utf-8"?>
<!-- Generator: Adobe Illustrator 24.1.1, SVG Export Plug-In . SVG Version: 6.00 Build 0)  -->
<svg version="1.1" id="Laag_1" xmlns="http://www.w3.org/2000/svg" xmlns:xlink="http://www.w3.org/1999/xlink" x="0px" y="0px"
	 viewBox="0 0 250 250" style="enable-background:new 0 0 250 250;" xml:space="preserve">
<style type="text/css">
	.st0{fill:#284734;}
	.st1{clip-path:url(#SVGID_2_);fill:#FFFFFF;}
	.st2{fill:#25AFA5;}
	.st3{fill:none;}
	.st4{clip-path:url(#SVGID_4_);fill:#284734;}
	.st5{clip-path:url(#SVGID_6_);fill:none;stroke:#284734;stroke-width:1.4952;stroke-miterlimit:10;}
	.st6{clip-path:url(#SVGID_8_);fill:#284734;}
	.st7{clip-path:url(#SVGID_10_);fill:#67806A;}
	.st8{clip-path:url(#SVGID_10_);fill:#284734;}
	.st9{clip-path:url(#SVGID_12_);}
	.st10{filter:url(#Adobe_OpacityMaskFilter);}
	.st11{clip-path:url(#SVGID_14_);}
	.st12{clip-path:url(#SVGID_14_);mask:url(#SVGID_15_);}
	.st13{opacity:0.75;clip-path:url(#SVGID_19_);fill:#222221;}
	.st14{clip-path:url(#SVGID_14_);fill:#284734;}
	.st15{clip-path:url(#SVGID_21_);fill:#25AFA5;}
	.st16{clip-path:url(#SVGID_23_);fill:#25AFA5;}
	.st17{clip-path:url(#SVGID_25_);fill:#25AFA5;}
	.st18{clip-path:url(#SVGID_27_);fill:#284734;}
	.st19{clip-path:url(#SVGID_29_);fill:#284734;}
	.st20{clip-path:url(#SVGID_31_);fill:#284734;}
	.st21{clip-path:url(#SVGID_33_);fill:#284734;}
	.st22{clip-path:url(#SVGID_35_);fill:#284734;}
	.st23{clip-path:url(#SVGID_37_);fill:#284734;}
	.st24{clip-path:url(#SVGID_41_);fill:#284734;}
	.st25{clip-path:url(#SVGID_43_);fill:#284734;}
	.st26{clip-path:url(#SVGID_45_);fill:#284734;}
	.st27{clip-path:url(#SVGID_47_);fill:#284734;}
</style>
<path class="st0" d="M105.2,112.9c1.4,1.3,2.7,2.6,4.1,3.9c1.6,1.6,3.1,3.2,4.7,4.9c0.2,0.3,1.6,1.9,1.6,1.9c1,1.1,1.9,2.2,2.8,3.2
	c0.3,0.4,0.7,0.8,1,1.2l0.9,1.1c0.7,0.9,1.5,1.8,2.1,2.8c0.3,0.4,0.6,0.8,0.9,1.2l1.2,1.7l1-1.4c0.3-0.5,0.7-1,1-1.4
	c0.6-0.8,1.2-1.6,1.9-2.4l0.9-1.2c0.4-0.6,0.8-1.1,1.2-1.6c0.6-0.8,1.3-1.6,2-2.3l1.3-1.5c0.4-0.5,0.8-0.9,1.1-1.3
	c1.5-1.7,3.1-3.4,4.7-4.9c2.7-2.7,5.5-5.3,8.5-7.8C147.5,80.7,130.9,57,125,49.4c-6,7.7-22.9,31.9-23.1,60.4
	C102.4,110.3,105.2,112.9,105.2,112.9 M152.9,111.2c0,2.7-0.1,5.2-0.2,7.8c0,0.5-0.1,1-0.1,1.6l-0.1,1.7c-0.1,1.7-0.2,3.4-0.4,5.1
	c-0.1,0.7-0.2,1.4-0.3,2l-0.2,1.8c-0.2,1.3-0.4,2.9-0.6,4.3c-0.1,0.7-0.2,1.4-0.4,2l-0.5,2.9c1.6-0.2,3.1-0.3,4.7-0.5l0.8-0.1
	c2.3-0.2,4.7-0.3,7-0.3c0,0,1.9,0,2.6,0c4.1,0,8.2,0.2,11.7,0.5c12.8-15.3,15.4-35.5,15.9-42.5C186.2,97.8,167.3,99.8,152.9,111.2
	 M84.4,139.4c2.6,0,5.4,0.1,8.4,0.3l0.7,0c2.1,0.2,4.2,0.4,6.3,0.7l-0.5-2.7c-0.1-0.7-0.3-1.4-0.4-2c-0.2-1.4-0.4-2.9-0.6-4.4
	l-0.2-1.9c-0.1-0.5-0.2-1.1-0.2-1.7c-0.3-2.4-0.5-4.8-0.6-7.4l-0.1-0.8c-0.1-2.5-0.2-5-0.2-7.5c-14.8-12-34.2-14.2-40.8-14.6
	c0.5,7,3.2,27.3,16,42.5c1-0.1,1.9-0.2,2.8-0.2c0,0,1.3-0.1,1.6-0.1c0.4,0,0.8-0.1,1.3-0.1C79.9,139.5,82.2,139.4,84.4,139.4
	 M102.1,117.6c0,0.7,0.1,1.6,0.1,2.4c0.1,1.3,0.2,2.6,0.3,3.9l0.2,2.1c0,0.6,0.1,1.3,0.2,2c0.2,1.8,0.5,3.5,0.7,5.2
	c0.1,0.5,0.1,0.9,0.2,1.2c0,0,0.1,0.9,0.2,1.3l0.2,1.4l0.3,1.7c0.2,1.1,0.4,2.1,0.6,3l0.2,1.1c0.4,1.6,0.8,3.2,1.4,5.2
	c0.1,0.4,0.3,0.9,0.4,1.3c0.4,1.5,0.9,2.8,1.4,4.2l0.2,0.5c0.5,1.3,1,2.7,1.7,4.1l0.5,1c0.5,1.1,1,2.1,1.6,3.1l0.1,0.2
	c0-0.4,0.1-0.9,0.1-1.4l0.1-0.7c0.1-0.7,0.2-1.4,0.3-2.2l0.3-1.1c0.2-0.7,0.3-1.3,0.5-2c0.1-0.3,0.2-0.5,0.3-0.8l0.3-0.9
	c0.2-0.5,0.3-1,0.5-1.5c0.1-0.2,0.6-1.4,0.6-1.4l0.2-0.4c0.2-0.5,0.4-1,0.6-1.5c0.1-0.3,1-2,1-2c0.2-0.5,0.4-0.9,0.7-1.4
	c0.2-0.4,0.5-0.9,0.7-1.3c0,0,1-1.9,1.2-2.3c0.3-0.5,0.6-1,0.9-1.5l0.6-1l-1.4-2.1c-0.4-0.6-0.8-1.2-1.3-1.9c-0.5-0.7-1-1.3-1.6-2
	l-1.2-1.6c-0.3-0.4-0.7-0.9-1.1-1.4c-1-1.2-2-2.4-3.1-3.6l-1.2-1.4c-1.5-1.7-3.1-3.3-4.6-4.8c-1.2-1.2-2.4-2.4-3.8-3.6L102.1,117.6z
	 M128.4,140.3c0.2,0.3,0.4,0.7,0.6,1.1c0.3,0.5,0.5,1,0.8,1.5c0,0,0.9,1.7,1.1,2.1c0.2,0.5,0.5,0.9,0.7,1.4l0.4,0.9
	c0.2,0.5,0.4,0.8,0.5,1.2c0.2,0.5,0.4,1,0.6,1.4l0.4,0.9c0.1,0.3,0.3,0.7,0.4,1c0.2,0.4,0.3,0.8,0.4,1.2c0,0,0.6,1.7,0.7,2
	c0.1,0.5,0.3,1,0.4,1.5l0.4,1.6c0.1,0.6,0.2,1.1,0.3,1.6l0.1,0.7c0,0.3,0.1,0.5,0.1,0.7c0.1,0.9,0.1,1.8,0.1,2.6l0,0l0.1,0.2
	l-0.1,0.5c0.2-0.4,1.1-1.8,1.1-1.8c0.6-1.1,1.3-2.4,1.9-3.8l0.4-1c0.5-1.2,1-2.2,1.4-3.3l0.5-1.3c0.5-1.3,0.9-2.5,1.2-3.7l0.4-1.5
	c0.5-1.9,1-3.7,1.4-5.3c0.1-0.5,0.2-0.9,0.3-1.4c0.1-0.4,0.4-1.8,0.4-1.8c0.3-1.3,0.6-2.7,0.8-4.1c0.1-0.5,0.2-1.1,0.2-1.7l0.3-2
	c0.2-1.4,0.4-2.7,0.5-4.1c0.1-0.7,0.1-1.5,0.2-2.2l0.2-2.2c0.1-1.3,0.2-2.5,0.3-3.7c0-0.8,0.1-1.6,0.1-2.4l0-1.4
	c-1.8,1.6-3.4,3.2-4.9,4.7c-1.6,1.6-3.1,3.2-4.6,4.8c-0.3,0.3-0.6,0.7-0.9,1c-0.4,0.4-0.6,0.7-0.8,1l-0.7,0.8
	c-0.6,0.7-1.3,1.4-1.9,2.2c-0.4,0.4-0.7,0.9-1.1,1.4l-1.4,1.7l-0.9-0.4l0.7,0.6c-0.4,0.6-0.9,1.1-1.3,1.7c-0.3,0.5-0.7,0.9-1,1.4
	c0,0-1.6,2.2-1.8,2.6L128.4,140.3z M149,145.4c-0.4,1.6-0.8,3.1-1.2,4.5l-0.3,1.1c-0.5,1.7-1,3-1.4,4.3c-0.2,0.4-0.3,0.8-0.5,1.2
	l-0.2,0.5c-0.5,1.3-0.9,2.3-1.3,3.1c-0.2,0.5-0.5,1-0.8,1.6c-0.5,1.1-1,1.9-1.4,2.8c-0.3,0.6-0.6,1.1-0.9,1.6
	c-0.4,0.7-0.9,1.5-1.5,2.3l-0.3,0.4c-0.2,0.3-0.4,0.6-0.6,0.9l-0.1,0.2c0.3-0.1,0.6-0.3,0.9-0.4c0.9-0.4,1.9-0.9,3.3-1.6l0.4-0.2
	c0.4-0.2,0.8-0.4,1.2-0.6c1.2-0.6,2.3-1.3,3.3-1.9l0.8-0.5c0.3-0.2,0.6-0.4,1-0.6c1.1-0.7,2.1-1.4,3.3-2.2l0.7-0.5
	c0.4-0.3,0.8-0.6,1.2-0.9c1.1-0.8,2.1-1.6,3.2-2.4c0,0,1.7-1.3,2-1.6c1.2-1,2.4-2,3.4-2.9c0,0,1.4-1.2,1.8-1.5
	c1.8-1.6,3.5-3.2,5.1-4.8c0.8-0.8,1.6-1.7,2.6-2.7c-1-0.1-2.1-0.1-3.1-0.1l-1.3,0c-1.1,0-2.2,0-3.2,0c-1,0-2,0-2.9,0l-1,0
	c-2.4,0.1-4.5,0.2-6.3,0.3C152.7,144.9,150.8,145.1,149,145.4 M76.3,144.6c0.9,0.9,1.7,1.8,2.5,2.6c1.6,1.6,3.4,3.3,5.3,5
	c0.3,0.2,1.7,1.5,1.7,1.5l0.5,0.4c1.1,1,2.1,1.9,3.2,2.7c0.4,0.3,0.9,0.7,1.3,1l1.6,1.2c0.8,0.6,1.6,1.3,2.5,1.9
	c0.5,0.3,0.9,0.6,1.4,0.9l1.6,1.1c0.9,0.6,1.6,1.1,2.4,1.6c0.5,0.3,1,0.6,1.5,0.9l1.1,0.7c0.8,0.5,1.7,1,2.5,1.4
	c0.5,0.3,0.9,0.5,1.4,0.7l1.2,0.6c0.8,0.4,1.6,0.8,2.4,1.1c0.5,0.2,0.9,0.4,1.3,0.5l0.5,0.2l-0.5-0.6c-0.3-0.4-0.7-0.9-1-1.4
	c-0.5-0.7-1-1.5-1.5-2.2l-0.1-0.2c-0.2-0.4-0.5-0.9-0.8-1.3c-0.4-0.7-0.8-1.5-1.4-2.7l-0.3-0.5c-0.2-0.4-0.4-0.8-0.6-1.2
	c-0.5-1.1-1-2.3-1.4-3.3l0.7-0.7l-0.9,0.3l-0.1-0.3c-0.1-0.3-0.3-0.7-0.4-1c-0.5-1.4-1-2.9-1.5-4.7l-0.2-0.7c-0.4-1.5-0.9-3-1.2-4.5
	c-2.7-0.4-5.2-0.7-7.6-0.9l-0.3-1l-0.1,0.9c-3-0.2-5.9-0.4-8.6-0.4c-2,0-4,0.1-6.2,0.2L76.3,144.6z M124.4,143.9
	c-4.5,7.7-7,14.8-7.1,20c-0.1,3.1,0.7,5.4,2.2,6.9c0.6,0.6,1.4,1.1,2.4,1.5c0.8,0.3,1.6,0.5,2.6,0.6c1-0.1,2-0.4,2.9-0.8
	c0.7-0.3,1.4-0.8,1.9-1.3c1.5-1.5,2.2-3.7,2.2-6.7l0-0.3C131.4,158.5,128.9,151.5,124.4,143.9 M38.6,161.2
	c6,4.6,24.4,17.2,45.8,17.2c9.5,0,18.7-1.1,26.5-3.1c-0.3-0.1-0.5-0.2-0.8-0.3c-0.7-0.3-1.5-0.6-2.3-0.9c-1-0.4-1.9-0.9-2.9-1.4
	c-0.6-0.3-1.5-0.7-2.4-1.2c-1.1-0.6-2.2-1.2-3-1.7l-0.7-0.4c-0.6-0.3-1.2-0.7-1.7-1.1c-1-0.6-2-1.3-3.1-2l-0.6-0.4
	c-0.6-0.4-1.2-0.8-1.8-1.3c-0.9-0.6-1.7-1.3-2.6-2l-1.3-1c-0.5-0.4-1-0.8-1.6-1.2c-1.1-0.9-2.1-1.8-3.2-2.7l-1.1-1
	c-0.4-0.3-0.8-0.7-1.2-1c-1.9-1.7-3.7-3.4-5.4-5.1c-1.1-1.1-2.1-2.1-3.1-3.2l-2.1-2.3C55,147.3,42.8,157.4,38.6,161.2 M138.3,175.1
	c7.9,2.1,17.5,3.3,27.2,3.3c21.4,0,39.8-12.6,45.8-17.2c-4.3-3.9-16.9-14.1-32.5-16.1c-1.8,2-3.5,3.8-5.3,5.6
	c-1.6,1.6-3.4,3.3-5.2,5c-0.4,0.3-1.9,1.6-1.9,1.6l-0.2,0.2c-1.1,0.9-2.2,1.9-3.3,2.8c-0.5,0.4-1,0.8-1.5,1.1l-1.2,0.9
	c-0.9,0.7-1.9,1.4-2.8,2.1c-0.6,0.4-1.2,0.9-1.8,1.3l-0.5,0.4c-1.1,0.7-2,1.4-3,2c-0.8,0.5-1.5,0.9-2.2,1.3
	c-1.1,0.7-2.1,1.2-3.1,1.8c-0.7,0.4-1.5,0.8-2.3,1.2c-1,0.5-1.9,1-2.8,1.4c-0.8,0.4-1.5,0.7-2.3,1C139,174.9,138.7,175,138.3,175.1
	 M126.6,177.8c0,1,0.3,2.2,0.8,3.7c1.3,3.5,4.1,7.6,7.9,12.1c4.9,5.7,12.2,8.2,15.9,9.2c-0.5-4.3-2-11.5-6.8-17.1
	c-1.6-1.9-3.4-3.6-5.3-5.4c-2.3-0.5-4.3-1.1-6.2-1.8l-3.5-1C128.3,177.7,127.4,177.8,126.6,177.8 M108.5,180.9
	c-1.7,1.6-3.2,3.2-4.7,4.8c-4.8,5.5-6.3,12.7-6.8,17.1c4.2-1.1,11.1-3.7,15.9-9.2c5.4-6.2,8.6-12.2,8.7-15.8c-0.4,0-0.8-0.1-1.2-0.1
	l-4.2,1.2C113.7,179.7,111.1,180.3,108.5,180.9 M90.5,203.1c0.4-4.2,1.7-12,6.3-18.8c-4,0.4-8.2,0.6-12.4,0.6
	c-24.2,0-44.7-14.6-50.4-19l-5.3-4.2l4.9-4.6c2.1-2,6.6-6,12.8-9.7c5.8-3.5,11.6-6,17.4-7.5c-11.6-16.7-13.8-36.8-14.2-42.6
	l-0.4-6.5l6.5,0.3c5.4,0.3,24.1,1.9,40,12.2c2.5-28.6,19.5-51.9,24.7-58.5l4.5-5.7l4.6,5.7c5.2,6.5,21.9,29.4,24.6,57.7
	c15.6-9.8,33.7-11.3,39-11.5l6.4-0.3l-0.4,6.4c-0.4,5.8-2.5,25.9-14.1,42.5c6,1.4,12,4,18,7.5c6.3,3.7,10.9,7.7,13.1,9.8l5,4.6
	l-5.4,4.2c-5.7,4.5-26.1,19-50.4,19c-4.9,0-9.7-0.3-14.3-0.8c4.7,6.8,6.1,14.7,6.5,19l0.7,8.1l-7.9-1.9c-4.8-1.2-13.8-4.2-20.1-11.5
	c-2.5-2.9-4.7-5.9-6.3-8.6c-2,3.4-4.5,6.5-6.3,8.6c-6.3,7.3-15.3,10.3-20.1,11.5l-7.9,1.9L90.5,203.1z"/>
<path class="st2" d="M108.9,181.8c2.6-0.6,5.2-1.2,7.6-2l4-1.1l0.1,0c-0.4,2.9-2.8,7.8-8.4,14.3c-4.1,4.8-10,7.3-14.1,8.6
	c0.6-4.3,2.3-10.4,6.4-15.2C105.9,184.7,107.3,183.2,108.9,181.8 M127.6,178.7c0.5,0,1.1-0.1,1.7-0.2l3.3,1c1.9,0.6,3.9,1.2,6,1.7
	c1.8,1.7,3.5,3.3,5,5.1c4.1,4.8,5.8,10.9,6.4,15.2c-3.8-1.2-9.9-3.7-14.1-8.5c-3.8-4.4-6.4-8.5-7.7-11.8
	C127.9,180.2,127.7,179.4,127.6,178.7 M40.1,161.1c4.7-4.1,16-12.9,29.7-15l0.1,0.1l1.3,1.4l0.5,0.5c1,1.1,2,2.1,3.1,3.2
	c1.7,1.7,3.5,3.4,5.4,5.1c0.4,0.4,0.8,0.7,1.2,1.1l0.7,0.6l0.4,0.3c1.1,0.9,2.2,1.9,3.2,2.7c0.5,0.4,1,0.8,1.5,1.2l0.8,0.6l0.5,0.4
	c0.9,0.7,1.8,1.4,2.7,2c0.6,0.4,1.3,0.9,1.9,1.3l0.5,0.4c1.1,0.7,2.1,1.4,3.1,2.1c0.7,0.4,1.4,0.8,2,1.2l0.4,0.2
	c0.8,0.5,1.9,1.1,3,1.7c0.9,0.5,1.8,0.9,2.4,1.2c1,0.5,2,0.9,3,1.4l0.4,0.2c-7.1,1.6-15.1,2.4-23.5,2.4
	C64.3,177.5,46.8,166.1,40.1,161.1 M141.3,174.9c0.2-0.1,0.4-0.2,0.7-0.3c0.9-0.4,1.9-0.9,2.9-1.4c0.9-0.4,1.6-0.8,2.4-1.2
	c1.1-0.6,2.1-1.2,3-1.7l0.2-0.1c0.7-0.4,1.4-0.9,2.2-1.3c1-0.6,2-1.3,3.1-2.1l0.5-0.4c0.6-0.4,1.2-0.8,1.9-1.3
	c0.9-0.7,1.9-1.4,2.8-2.1l0.4-0.3l0.7-0.5c0.5-0.4,1-0.8,1.5-1.2c1.1-0.9,2.3-1.9,3.3-2.8l0.2-0.2l0.7-0.6c0.4-0.3,0.8-0.7,1.2-1
	c1.9-1.7,3.7-3.4,5.3-5c1.7-1.7,3.4-3.4,5-5.3c14.1,2,25.8,10.9,30.6,15.1c-6.7,5-24.2,16.3-44.3,16.3
	C157,177.5,148.6,176.6,141.3,174.9 M124.4,171.9c-0.8-0.1-1.5-0.3-2.2-0.5c-0.8-0.3-1.5-0.7-2.1-1.3c-1.3-1.3-2-3.4-1.9-6.2
	c0.1-4.7,2.2-11.1,6.1-18.1c3.8,6.9,6,13.2,6.1,18v0.1l0,0.2c0,2.7-0.6,4.8-1.9,6.1c-0.5,0.5-1,0.8-1.6,1.1
	C126.3,171.5,125.4,171.8,124.4,171.9 M149.8,146.2c1.6-0.2,3.2-0.4,4.9-0.5l0.2,0c1.9-0.2,3.9-0.3,6.3-0.3l0.5,0l0.5,0
	c0.9,0,1.9,0,2.9,0c1,0,2.1,0,3.2,0l0.4,0c0.3,0,0.6,0,0.9,0c0.4,0,0.7,0,1.1,0c-0.4,0.4-0.8,0.8-1.2,1.2c-1.6,1.6-3.3,3.2-5.1,4.8
	c-0.3,0.3-0.6,0.5-0.9,0.8l-0.3,0.2l-0.4,0.4l0,0l-0.1,0.1c-1,0.9-2.2,2-3.4,2.9c-0.3,0.3-0.7,0.5-1,0.8l-0.2,0.2
	c-0.2,0.2-0.5,0.3-0.7,0.5l-0.1,0.1c-1.1,0.8-2.1,1.7-3.2,2.4c-0.4,0.3-0.8,0.5-1.2,0.8l-0.7,0.5c-1.2,0.8-2.2,1.5-3.3,2.2
	c-0.3,0.2-0.6,0.4-0.9,0.6l-0.8,0.5c-1,0.6-2.1,1.3-3.3,1.9c-0.4,0.2-0.8,0.4-1.2,0.6l-0.4,0.2c-0.4,0.2-0.7,0.4-1,0.5
	c0.2-0.3,0.4-0.7,0.6-1c0.3-0.5,0.6-1,0.9-1.6c0.5-0.8,0.9-1.7,1.4-2.7l0.1-0.1c0.3-0.6,0.6-1.2,0.8-1.7c0.4-0.9,0.8-1.9,1.3-3.2
	l0.2-0.5c0.2-0.5,0.4-0.9,0.5-1.3c0.5-1.3,0.9-2.7,1.4-4.4l0.1-0.4c0.1-0.2,0.1-0.4,0.2-0.6C149.1,148.8,149.4,147.5,149.8,146.2
	 M78.3,145.4c2.2-0.1,4.2-0.2,6.1-0.2c2.7,0,5.6,0.1,8.5,0.4l0.3,0c2.3,0.2,4.6,0.5,7,0.8c0.3,1.3,0.7,2.6,1.1,4l0.2,0.5l0.1,0.2
	c0.6,1.8,1.1,3.4,1.6,4.8c0.1,0.4,0.3,0.8,0.4,1.1l0.1,0.2l0.1,0.3c0.4,1,0.9,2.2,1.4,3.3c0.2,0.4,0.4,0.8,0.6,1.2l0.3,0.5
	c0.6,1.2,1,2,1.4,2.7c0.3,0.5,0.6,1,0.8,1.4l0.1,0.2c0.3,0.5,0.7,1.1,1,1.6c-0.3-0.2-0.7-0.3-1-0.5l-1.2-0.6
	c-0.5-0.2-0.9-0.4-1.4-0.7c-0.8-0.4-1.7-0.9-2.4-1.4l-0.4-0.3l-0.7-0.4c-0.5-0.3-1-0.6-1.5-0.9c-0.8-0.5-1.6-1-2.3-1.5l-0.7-0.5
	l-0.8-0.5c-0.5-0.3-1-0.6-1.4-1c-0.8-0.6-1.6-1.2-2.4-1.8l-0.8-0.6c-0.3-0.2-0.5-0.4-0.8-0.6c-0.4-0.3-0.9-0.6-1.3-1
	c-1-0.8-2.1-1.8-3.1-2.7l-0.5-0.4c-0.3-0.2-0.5-0.4-0.8-0.6l-0.2-0.1c-0.3-0.2-0.5-0.5-0.8-0.7c-1.8-1.7-3.6-3.3-5.2-5
	C79,146.2,78.7,145.8,78.3,145.4 M106.3,142.8L106.3,142.8l0-0.1l-0.2-1.1c-0.2-1-0.4-1.9-0.6-3l-0.3-1.7c-0.1-0.5-0.2-0.9-0.2-1.4
	c-0.1-0.3-0.1-0.6-0.1-1l0-0.3c0-0.3-0.1-0.7-0.1-1l0-0.2c-0.3-1.7-0.5-3.4-0.7-5.2c-0.1-0.6-0.1-1.3-0.2-1.9c0-0.4-0.1-0.8-0.1-1.2
	l-0.1-0.9c-0.1-1.3-0.2-2.6-0.3-3.9c0-0.4,0-0.8-0.1-1.2c0.7,0.7,1.5,1.4,2.1,2.1c1.5,1.5,3.1,3.2,4.6,4.8l0.5,0.6l0.1,0.1l0.5,0.6
	c1.1,1.2,2.1,2.4,3.1,3.6c0.4,0.5,0.7,0.9,1.1,1.4l0.2,0.3l0.4,0.6l0.6,0.7c0.5,0.7,1.1,1.3,1.5,2c0.5,0.7,0.9,1.3,1.3,1.9
	c0.2,0.3,0.4,0.5,0.5,0.8l0.3,0.4l0.3,0.4l0,0l-0.3,0.5c-0.3,0.5-0.6,1-0.9,1.5c-0.2,0.3-0.4,0.7-0.6,1l-0.7,1.3
	c-0.2,0.4-0.5,0.8-0.7,1.3c-0.2,0.5-0.5,1-0.7,1.4l-0.5,1c-0.2,0.3-0.3,0.7-0.5,1c-0.2,0.5-0.4,1-0.6,1.5l-0.2,0.5l-0.1,0.4
	l-0.1,0.3c-0.1,0.3-0.2,0.5-0.3,0.8c-0.2,0.5-0.4,1-0.5,1.5l-0.2,0.5l-0.1,0.3c-0.1,0.3-0.2,0.6-0.3,0.9c-0.2,0.7-0.4,1.4-0.5,2
	l-0.1,0.2l0,0.2l-0.1,0.2l-0.1,0.5c-0.1,0.5-0.2,1-0.2,1.4l-0.3-0.6l-0.1-0.3l-0.3-0.7c-0.6-1.4-1.2-2.8-1.7-4.1l-0.1-0.2l-0.1-0.3
	c-0.5-1.3-0.9-2.6-1.4-4.1c-0.1-0.4-0.3-0.9-0.4-1.3C107,145.9,106.6,144.3,106.3,142.8 M128.6,138.9l0.4-0.5l0.5-0.6l0.4-0.5
	l0.2-0.3c0.3-0.4,0.6-0.9,1-1.4c0.4-0.6,0.9-1.1,1.3-1.7l0.1-0.2l0.6-0.7c0.2-0.2,0.3-0.4,0.5-0.6l0.2-0.3c0.4-0.5,0.7-0.9,1.1-1.4
	c0.6-0.7,1.2-1.4,1.8-2.1l0.7-0.8c0.2-0.3,0.5-0.5,0.7-0.8l0.1-0.1c0.3-0.3,0.6-0.7,0.9-1c1.5-1.6,3-3.2,4.6-4.8
	c1-1,2.1-2.1,3.3-3.1c0,0.6,0,1.1-0.1,1.6c-0.1,1.2-0.2,2.5-0.3,3.7l-0.1,1c0,0.4-0.1,0.8-0.1,1.2c-0.1,0.7-0.1,1.5-0.2,2.1
	c-0.1,1.3-0.3,2.6-0.5,4l-0.1,0.8c0,0.3-0.1,0.6-0.1,0.9l0,0.3c-0.1,0.6-0.2,1.2-0.2,1.7c-0.2,1.4-0.5,2.8-0.8,4.1l-0.2,0.7
	c-0.1,0.4-0.1,0.7-0.2,1.1c-0.1,0.5-0.2,0.9-0.3,1.4c-0.4,1.6-0.8,3.3-1.4,5.3c-0.1,0.3-0.2,0.5-0.2,0.8l-0.2,0.6
	c-0.4,1.2-0.7,2.4-1.1,3.5l-0.1,0.2c-0.1,0.4-0.3,0.8-0.4,1.2c-0.4,1.1-0.8,2.2-1.3,3.3l-0.3,0.6l-0.1,0.3c-0.4,1-0.9,1.9-1.3,2.7
	l0-0.2c0-0.2-0.1-0.4-0.1-0.7l0-0.3l0-0.4c-0.1-0.6-0.2-1.1-0.3-1.7l-0.1-0.6l-0.1-0.3l-0.1-0.3l-0.1-0.4c-0.1-0.5-0.3-1.1-0.4-1.6
	c-0.1-0.3-0.2-0.6-0.3-1l-0.2-0.4l-0.2-0.7c-0.1-0.4-0.3-0.8-0.4-1.2c-0.1-0.3-0.3-0.7-0.4-1.1l-0.4-0.9c-0.2-0.4-0.4-0.9-0.6-1.5
	c-0.2-0.3-0.3-0.7-0.5-1l-0.1-0.1l-0.2-0.3l-0.3-0.5c-0.2-0.5-0.4-0.9-0.7-1.4c-0.2-0.4-0.4-0.7-0.6-1l-0.1-0.2l-0.2-0.3l-0.3-0.6
	c-0.3-0.5-0.5-1-0.8-1.5c-0.2-0.4-0.4-0.7-0.6-1.1l-0.3-0.5L128.6,138.9z M72.5,139.1c-11.7-14.2-14.6-32.9-15.3-40.5
	c7.4,0.6,25.2,3,38.9,14c0,2.3,0.1,4.7,0.2,7.1l0,0.5l0,0.3c0.2,2.6,0.4,5.1,0.6,7.4c0.1,0.6,0.2,1.2,0.2,1.8c0,0.3,0.1,0.7,0.1,1.1
	l0.1,0.7c0.2,1.5,0.4,3,0.6,4.5c0.1,0.7,0.2,1.3,0.4,1.9l0,0.2l0.2,0.9l0.1,0.5c-1.7-0.2-3.4-0.4-5.1-0.5l-0.4,0l-0.2,0
	c-3.1-0.2-6-0.4-8.5-0.4c-2.2,0-4.5,0.1-6.8,0.2c-0.4,0-0.8,0.1-1.2,0.1c-0.3,0-0.6,0.1-0.9,0.1l-0.7,0.1
	C74,139,73.3,139,72.5,139.1 M153.9,111.7c13.4-10.4,30.6-12.7,37.8-13.2c-0.7,7.6-3.5,26.2-15.3,40.5c-3.4-0.3-7.3-0.5-11.3-0.5
	c-0.7,0-1.5,0-2.2,0l-0.4,0c-2.3,0-4.7,0.2-7,0.3l-0.7,0.1c-1.2,0.1-2.3,0.2-3.5,0.3l0.1-0.6c0.1-0.3,0.1-0.7,0.2-1
	c0.1-0.7,0.3-1.3,0.4-2.1c0.2-1.5,0.4-3,0.6-4.3l0.1-1.2l0.1-0.6c0.1-0.7,0.2-1.4,0.3-2.1c0.2-1.7,0.3-3.4,0.4-5.1l0-0.5l0-0.5
	l0.1-0.8c0-0.5,0.1-1.1,0.1-1.6C153.8,116.6,153.9,114.1,153.9,111.7 M102.8,109.4c0.4-27,15.8-50,22.2-58.5
	c6.4,8.3,21.5,31,22.1,57.5c-2.9,2.5-5.6,5-8.2,7.6c-1.6,1.6-3.2,3.3-4.7,5c-0.4,0.4-0.8,0.9-1.1,1.3l-0.6,0.7l-0.7,0.7
	c-0.7,0.8-1.4,1.6-2,2.4c-0.4,0.5-0.8,1-1.2,1.5l-0.6,0.7l-0.4,0.6c-0.7,0.9-1.3,1.6-1.9,2.4c-0.4,0.5-0.7,1-1,1.5l-0.2,0.3
	l-0.4-0.5c-0.3-0.5-0.6-0.9-0.9-1.3c-0.7-1-1.5-1.9-2.2-2.8l-0.3-0.4l-0.3-0.4l-0.2-0.3c-0.3-0.4-0.6-0.8-1-1.3
	c-0.9-1.1-1.8-2.2-2.8-3.2l-0.2-0.2l-0.4-0.4l-0.3-0.4c-0.2-0.3-0.5-0.5-0.7-0.8c-1.6-1.7-3.2-3.4-4.7-5c-1.3-1.3-2.7-2.6-4.1-3.9
	l-0.6-0.5l-0.2-0.2l-0.5-0.4l-0.6-0.6C103.6,110.1,103.2,109.8,102.8,109.4 M125,37.6l-1.5,1.8l-3.8,4.8
	C114.5,50.7,98,73.5,95,101.7C79.1,92,61.1,90.4,55.8,90.1l-5.5-0.3l-2.1-0.1l0.1,2.1l0.4,5.4c0.4,5.8,2.5,25.4,13.6,42
	c-5.5,1.5-11,3.9-16.4,7.2c-6.2,3.8-10.8,7.8-12.9,9.8l-4.1,3.9l-1.6,1.5L29,163l4.5,3.5c5.8,4.5,26.5,19.2,50.9,19.2
	c3.6,0,7.2-0.1,10.6-0.4c-3.9,6.5-5.1,13.7-5.5,17.7l-0.6,6.8l-0.2,2.6l2.5-0.6l6.6-1.6c4.9-1.2,14.1-4.3,20.6-11.8
	c1.6-1.9,3.7-4.5,5.6-7.5c1.6,2.4,3.5,4.9,5.6,7.5c6.5,7.5,15.7,10.6,20.6,11.8l6.6,1.6l2.5,0.6l-0.2-2.6l-0.6-6.8
	c-0.4-4.1-1.6-11.3-5.6-17.8c4,0.4,8.2,0.6,12.4,0.6c24.5,0,45.2-14.7,50.9-19.2l4.5-3.5l1.7-1.3l-1.6-1.5l-4.2-3.9
	c-2.2-2.1-7-6.1-13.3-9.9c-5.6-3.3-11.3-5.8-16.9-7.3c11-16.6,13.1-36.1,13.5-41.9l0.3-5.4l0.1-2.1l-2.1,0.1l-5.4,0.2
	c-5.2,0.2-22.7,1.6-38.2,10.8c-3.2-27.8-19.6-50.3-24.7-56.7l-3.8-4.8L125,37.6z M96,204l0.4-0.1c4.2-1,12-3.7,17.2-9.8v0
	c5.9-6.9,9.2-13.2,8.9-17l0-0.3l-0.3,0c-0.6,0-1.2-0.1-1.8-0.1l-0.1,0l-4.4,1.3c-2.5,0.8-5.1,1.5-7.8,2l-0.1,0l-0.1,0.1
	c-1.8,1.6-3.3,3.3-4.9,5c-5.3,6.1-6.7,14.2-7.1,18.5L96,204z M126.2,176.9l-0.5,0l0,0.3c-0.1,1.3,0.2,2.8,0.9,4.7
	c1.4,3.6,4.2,7.8,8.1,12.4c5.5,6.4,13.9,8.9,17.2,9.7l0.4,0.1l0-0.4c-0.4-4.3-1.8-12.4-7.1-18.5c-1.7-2-3.5-3.8-5.5-5.6l-0.1-0.1
	l-0.1,0c-2.2-0.5-4.4-1.1-6.3-1.8l-3.7-1.1l-0.1,0C128.2,176.8,127.1,176.9,126.2,176.9 M84.4,179.3c10.4,0,20.4-1.3,28.8-3.7
	l0.9-0.3l-0.9-0.3c-1-0.3-1.9-0.6-2.7-1c-0.7-0.3-1.5-0.6-2.2-0.9c-1-0.4-1.9-0.9-2.9-1.3c-0.6-0.3-1.4-0.7-2.3-1.2
	c-1.1-0.6-2.2-1.2-3-1.7l-0.4-0.2c-0.6-0.4-1.3-0.8-2-1.2c-1-0.6-2-1.3-3.1-2l-0.6-0.4c-0.6-0.4-1.2-0.8-1.8-1.3
	c-0.9-0.6-1.8-1.3-2.7-2l-0.5-0.4c-0.2-0.2-0.5-0.4-0.7-0.6c-0.5-0.4-1-0.8-1.5-1.2c-1.1-0.9-2.2-1.8-3.2-2.7l-0.3-0.3
	c-0.2-0.2-0.5-0.4-0.7-0.6c-0.4-0.3-0.8-0.7-1.2-1c-1.9-1.7-3.7-3.4-5.3-5.1c-1.1-1.1-2.1-2.1-3.1-3.2l-0.5-0.5l-1.3-1.4l-0.6-0.7
	l-0.1-0.1l-0.2,0C54.1,146.4,41,157.6,37.4,161l-0.3,0.2l0.3,0.2C42.8,165.7,62,179.3,84.4,179.3 M165.5,179.3
	c22.4,0,41.6-13.7,47-17.9l0.3-0.2l-0.3-0.2c-3.7-3.5-17.2-14.9-33.9-16.9l-0.2,0l-0.1,0.1c-1.8,2-3.7,4-5.5,5.8
	c-1.6,1.6-3.4,3.3-5.2,4.9c-0.4,0.3-0.7,0.7-1.1,1c-0.2,0.2-0.5,0.4-0.7,0.6l-0.2,0.2c-1,0.9-2.2,1.9-3.3,2.8
	c-0.5,0.4-1,0.8-1.5,1.2c-0.2,0.2-0.5,0.4-0.7,0.6l-0.4,0.3c-0.9,0.7-1.8,1.4-2.8,2.1c-0.6,0.4-1.2,0.9-1.8,1.3l-0.5,0.4
	c-1.1,0.7-2,1.4-3,2c-0.8,0.5-1.5,0.9-2.2,1.3l-0.2,0.1c-0.9,0.5-1.9,1.1-2.9,1.7c-0.7,0.4-1.4,0.8-2.3,1.2c-1,0.5-1.9,0.9-2.8,1.3
	c-0.8,0.3-1.5,0.7-2.2,1c-0.9,0.4-1.8,0.7-2.7,1l-0.1,0l-0.1,0l-0.8,0.3l0.8,0.3C144.5,178,154.9,179.3,165.5,179.3 M135.3,172.1
	l1.1-0.4c0.6-0.2,1.2-0.5,1.8-0.7l0.3-0.1c0.4-0.2,0.8-0.3,1.3-0.5c0.9-0.4,2-0.9,3.3-1.6l0.4-0.2c0.4-0.2,0.8-0.4,1.2-0.6
	c1.2-0.6,2.4-1.3,3.4-1.9l0.8-0.5c0.3-0.2,0.7-0.4,1-0.6c1.1-0.7,2.1-1.4,3.3-2.2l0.7-0.5c0.4-0.3,0.9-0.6,1.3-0.9
	c1.1-0.8,2.1-1.6,3.2-2.5l0.1-0.1c0.2-0.2,0.5-0.4,0.7-0.5l0.2-0.2c0.3-0.3,0.7-0.5,1-0.8c1.2-1,2.5-2.1,3.5-3l0.1-0.1l0.4-0.4
	l0.3-0.2c0.3-0.3,0.6-0.5,1-0.8c1.8-1.6,3.5-3.3,5.1-4.9c1-1,2.2-2.2,3.5-3.7l0.4-0.5l-0.6,0c-1.5-0.1-3-0.2-4.5-0.2
	c-0.3,0-0.6,0-0.9,0l-0.4,0c-1.1,0-2.2,0-3.2,0c-1,0-2,0-3,0l-0.5,0l-0.4,0c-2.4,0.1-4.5,0.2-6.4,0.3l-0.2,0c-2.1,0.2-4.1,0.4-6,0.7
	l-0.2,0l0,0.2c-0.4,1.6-0.8,3.3-1.3,4.9l-0.2,0.6l-0.2,0.5c-0.5,1.7-0.9,3-1.4,4.3c-0.1,0.4-0.3,0.8-0.5,1.2l0,0l-0.2,0.5
	c-0.5,1.3-0.9,2.2-1.3,3.1c-0.2,0.5-0.5,1-0.7,1.6l-0.1,0.1c-0.4,0.9-0.9,1.8-1.3,2.6c-0.3,0.6-0.6,1.1-0.9,1.5
	c-0.4,0.7-0.9,1.5-1.5,2.2l-0.3,0.5c-0.2,0.3-0.4,0.6-0.6,0.8c-0.6,0.7-1.2,1.4-1.7,2L135.3,172.1z M115.3,172.6l-0.9-0.9l-0.5-0.5
	l-0.1-0.1c-0.6-0.6-1.1-1.2-1.6-1.8c-0.3-0.4-0.6-0.8-1-1.3c-0.5-0.7-1-1.4-1.4-2.2l-0.1-0.2c-0.2-0.4-0.5-0.8-0.8-1.3
	c-0.4-0.7-0.8-1.5-1.4-2.6l-0.3-0.5c-0.2-0.4-0.4-0.7-0.5-1.1c-0.5-1.1-0.9-2.2-1.3-3.2l-0.1-0.3l-0.1-0.3c-0.1-0.3-0.3-0.6-0.4-1
	c-0.5-1.4-1-2.9-1.5-4.6l0-0.1l-0.1-0.2l-0.1-0.4c-0.5-1.7-0.9-3.3-1.3-4.9l0-0.2l-0.2,0c-2.8-0.4-5.5-0.8-8.1-1l-0.1,0l-0.2,0
	c-3-0.2-5.9-0.4-8.7-0.4c-2,0-4,0.1-6.2,0.2c-0.4,0-0.9,0.1-1.3,0.1c-0.3,0-0.5,0-0.8,0.1c-0.4,0-0.8,0.1-1.2,0.1l-0.6,0l0.4,0.5
	c1.2,1.3,2.3,2.5,3.4,3.6c1.7,1.7,3.5,3.4,5.3,5c0.3,0.3,0.6,0.5,0.8,0.7l0.2,0.1c0.2,0.2,0.5,0.4,0.7,0.6l0.5,0.4
	c1,0.9,2.1,1.8,3.2,2.7c0.4,0.4,0.9,0.7,1.3,1c0.3,0.2,0.5,0.4,0.8,0.6l0.8,0.6c0.8,0.6,1.7,1.3,2.5,1.9c0.5,0.3,0.9,0.6,1.4,0.9
	l0.1,0c0.3,0.2,0.5,0.3,0.8,0.5l0.7,0.5c0.8,0.5,1.6,1.1,2.4,1.6c0.5,0.3,1,0.6,1.6,0.9c0.2,0.1,0.5,0.3,0.7,0.4l0.4,0.3
	c0.8,0.5,1.7,1,2.5,1.4c0.5,0.3,1,0.5,1.5,0.7l1.2,0.6c0.8,0.4,1.6,0.8,2.4,1.1c0.5,0.2,1,0.4,1.6,0.6l0.8,0.3
	c0.6,0.2,1.3,0.5,1.9,0.7L115.3,172.6z M124.4,173.8L124.4,173.8c1.2-0.1,2.4-0.4,3.3-0.9c0.8-0.4,1.6-0.9,2.2-1.5
	c1.7-1.7,2.5-4.1,2.5-7.4l0-0.2l0,0v0c-0.1-5.6-2.9-13.2-7.7-21.3l-0.3-0.4l-0.3,0.4c-4.9,8.2-7.6,15.8-7.7,21.4
	c-0.1,3.3,0.8,5.8,2.5,7.5c0.7,0.7,1.6,1.3,2.7,1.7C122.4,173.4,123.4,173.7,124.4,173.8L124.4,173.8z M113.4,165.8l0-1.1
	c0-0.3,0-0.6,0-0.9c0-0.8,0-1.7,0.1-2.6l0.1-0.4l0-0.3c0.1-0.7,0.2-1.4,0.3-2.2l0.1-0.4l0-0.2l0.1-0.3l0.1-0.2
	c0.1-0.6,0.3-1.3,0.5-1.9c0.1-0.2,0.2-0.5,0.2-0.7l0-0.1l0.1-0.4l0.2-0.5c0.2-0.5,0.3-1,0.5-1.5c0.1-0.2,0.2-0.5,0.3-0.7l0.1-0.3
	l0.2-0.4l0.2-0.4c0.2-0.5,0.4-1,0.6-1.5c0.1-0.3,0.3-0.7,0.5-1l0.5-1c0.2-0.4,0.4-0.9,0.7-1.4c0.2-0.4,0.5-0.9,0.7-1.2l0.7-1.2
	c0.2-0.3,0.4-0.7,0.6-1.1c0.3-0.5,0.6-1,0.9-1.5l0.3-0.4l0.2-0.3l0.1-0.2l0.2-0.4l0.1-0.2l-0.1-0.2c-0.2-0.2-0.3-0.5-0.5-0.7
	l-0.3-0.5l-0.3-0.5l-0.4-0.6l-0.1-0.1c-0.4-0.6-0.9-1.2-1.3-1.9c-0.5-0.7-1-1.4-1.6-2.1l-0.6-0.7l-0.4-0.5l-0.2-0.3
	c-0.3-0.5-0.7-0.9-1.1-1.4c-1-1.2-2.1-2.4-3.1-3.6l0,0l-0.5-0.6l-0.1-0.1l-0.5-0.6c-1.5-1.7-3.1-3.3-4.6-4.9c-1.5-1.5-3.1-3-4.9-4.7
	l-0.5-0.5l0,0.7c0,0.5,0,0.9,0.1,1.4c0,0.4,0,0.8,0,1.2c0,0.7,0.1,1.6,0.1,2.4c0.1,1.3,0.2,2.6,0.3,3.9l0.1,0.9
	c0,0.4,0.1,0.8,0.1,1.2c0,0.6,0.1,1.3,0.2,2c0.2,1.8,0.5,3.5,0.7,5.2l0,0.2c0.1,0.3,0.1,0.7,0.1,1l0,0.3c0,0.3,0.1,0.7,0.2,1
	c0.1,0.5,0.2,0.9,0.2,1.4l0.3,1.7c0.2,1.1,0.4,2.1,0.6,3.1l0.2,1.1l0,0.1c0.4,1.6,0.8,3.2,1.4,5.2c0.1,0.4,0.3,0.9,0.4,1.3
	c0.5,1.5,0.9,2.9,1.4,4.2l0.1,0.3l0.1,0.3c0.5,1.3,1.1,2.7,1.7,4.2c0.1,0.2,0.2,0.5,0.3,0.7l0.1,0.3c0.5,1.1,1.1,2.2,1.6,3.1
	l0.2,0.3l0.1,0.2l0.1,0.1c0.3,0.6,0.6,1.1,1,1.6L113.4,165.8z M135.1,167.7l0.7-0.9l0.4-0.5c0.6-0.8,1.1-1.7,1.7-2.6l0.2-0.3
	l0.2-0.4c0.7-1.2,1.3-2.5,2-3.9l0.2-0.4l0.3-0.6c0.5-1.2,1-2.3,1.4-3.4c0.2-0.4,0.3-0.8,0.5-1.3l0.1-0.2c0.4-1.1,0.8-2.3,1.2-3.5
	l0.2-0.6c0.1-0.3,0.2-0.6,0.3-0.9c0.6-1.9,1-3.7,1.4-5.4c0.1-0.5,0.2-1,0.3-1.5c0.1-0.4,0.1-0.7,0.2-1.1l0.2-0.7
	c0.3-1.3,0.6-2.7,0.8-4.1c0.1-0.6,0.2-1.1,0.3-1.8l0-0.3c0-0.3,0.1-0.6,0.1-0.9l0.1-0.8c0.2-1.4,0.4-2.7,0.5-4.1
	c0.1-0.7,0.1-1.5,0.2-2.2c0-0.4,0.1-0.8,0.1-1.2l0.1-1c0.1-1.2,0.2-2.5,0.3-3.7c0-0.8,0.1-1.7,0.1-2.6l0.1-3.5l-0.5,0.5
	c-2.3,2-4.3,3.9-6.1,5.7c-1.6,1.6-3.1,3.2-4.6,4.9c-0.3,0.3-0.6,0.7-0.9,1l-0.1,0.2c-0.2,0.3-0.4,0.5-0.7,0.8l-0.7,0.8
	c-0.6,0.7-1.3,1.5-1.9,2.2c-0.4,0.5-0.8,1-1.1,1.5l-0.2,0.2l-0.5,0.7c-0.2,0.3-0.4,0.5-0.6,0.8l-0.1,0.2c-0.5,0.6-0.9,1.2-1.3,1.7
	c-0.4,0.5-0.7,1-1,1.5l-0.2,0.3l-0.4,0.5l-0.5,0.6c-0.3,0.5-0.6,0.9-1,1.4l-0.1,0.2l0.1,0.2l0.2,0.3l0.2,0.3l0.4,0.6l0.3,0.5
	c0.2,0.3,0.4,0.7,0.6,1c0.3,0.5,0.5,1,0.8,1.5l0.3,0.5l0.2,0.3l0.1,0.2c0.2,0.3,0.4,0.7,0.5,1c0.2,0.5,0.5,0.9,0.7,1.4l0.3,0.5
	l0.2,0.4l0.1,0.2c0.2,0.3,0.3,0.7,0.5,1c0.2,0.5,0.4,1,0.6,1.4l0.4,0.9c0.1,0.3,0.3,0.7,0.4,1c0.1,0.4,0.3,0.8,0.4,1.1l0.2,0.7
	l0.2,0.5c0.1,0.3,0.2,0.6,0.3,0.9c0.1,0.5,0.3,1,0.4,1.5l0.1,0.3l0.1,0.4l0.1,0.2l0.1,0.6c0.1,0.5,0.2,1.1,0.3,1.6l0.1,0.4l0,0.3
	l0,0.1l0.1,0.5c0.1,0.9,0.1,1.7,0.1,2.5l0.1,0.2l-0.1,0.3l0,0.1c0,0.8-0.1,1.5-0.2,2.4L135.1,167.7z M71.7,141l0.2,0
	c1-0.1,2-0.2,3.1-0.2l0.7-0.1c0.3,0,0.6,0,0.9-0.1c0.4,0,0.8-0.1,1.2-0.1c2.2-0.1,4.5-0.2,6.7-0.2c2.5,0,5.4,0.1,8.4,0.3l0.3,0
	l0.4,0c2.3,0.2,4.7,0.5,7.1,0.8l0.4,0.1l-0.1-0.4c-0.1-0.5-0.2-1-0.3-1.4l-0.2-1.2c-0.1-0.3-0.1-0.6-0.2-0.9l0-0.1
	c-0.1-0.6-0.2-1.2-0.3-1.9c-0.2-1.5-0.4-3-0.6-4.5l-0.1-0.7c0-0.4-0.1-0.7-0.1-1.1c-0.1-0.5-0.2-1.1-0.2-1.7
	c-0.2-2.3-0.4-4.8-0.6-7.4l0-0.4l0-0.5c-0.1-2.6-0.2-5.2-0.2-7.7l0-0.1l-0.1-0.1c-15.5-12.8-36.3-14.7-42.3-15l-0.3,0l0,0.3
	c0.4,6.3,2.8,28,16.4,44L71.7,141z M148.9,141.4l0.4-0.1c1.8-0.2,3.7-0.4,5.5-0.6l0.8-0.1c2.3-0.2,4.7-0.3,6.9-0.3l0.4,0
	c0.7,0,1.5,0,2.2,0c4.2,0,8.3,0.2,11.9,0.5l0.2,0l0.1-0.1c13.6-16,16-37.7,16.4-43.9l0-0.3l-0.3,0c-5.8,0.2-26.1,1.9-41.2,14.1
	l-0.1,0.1v0.1c0,2.7-0.1,5.4-0.2,8.1c0,0.5-0.1,1.1-0.1,1.6l-0.1,0.6l0,0.6l0,0.4c-0.1,1.7-0.2,3.4-0.4,5.1c-0.1,0.7-0.2,1.4-0.3,2
	l-0.1,0.6l-0.1,1.1c-0.2,1.3-0.4,2.8-0.6,4.3c-0.1,0.7-0.2,1.3-0.4,1.9c-0.1,0.3-0.1,0.7-0.2,1c-0.1,0.4-0.1,0.8-0.2,1.2l0,0.3
	c-0.1,0.4-0.1,0.8-0.2,1.2L148.9,141.4z M124.4,136.4L124.4,136.4l0.7-1c0.2-0.2,0.3-0.5,0.5-0.7l0.5-0.8c0.3-0.5,0.7-0.9,1-1.4
	c0.6-0.8,1.2-1.5,1.8-2.4l0.4-0.6c0.2-0.2,0.4-0.5,0.6-0.7c0.4-0.5,0.7-1,1.1-1.5c0.6-0.8,1.3-1.6,2-2.3l0.7-0.7
	c0.2-0.3,0.4-0.5,0.6-0.7c0.4-0.4,0.7-0.8,1.1-1.3c1.5-1.7,3.1-3.3,4.7-4.9c2.7-2.7,5.6-5.4,8.7-8l0.1-0.1l0-0.1
	c-0.4-29.4-18.3-54.1-23.8-61l-0.2-0.3l-0.2,0.3c-5.6,7-23.7,32.1-23.8,61.9v0.1l0.1,0.1c0.6,0.5,1.1,1,1.7,1.5l0.6,0.5l0.5,0.5
	l0.2,0.2l0.5,0.5c1.4,1.3,2.7,2.6,4,3.9c1.6,1.6,3.1,3.2,4.7,4.9c0.2,0.3,0.5,0.5,0.7,0.8l0.3,0.3l0.4,0.5l0.2,0.2
	c0.9,1,1.9,2.1,2.8,3.2c0.3,0.4,0.6,0.8,1,1.2l0.2,0.2l0.4,0.5l0.3,0.4c0.7,0.8,1.4,1.8,2.1,2.7c0.3,0.4,0.6,0.8,0.9,1.3l0.8,1.1
	l0.4,0.6l0.5,0.7L124.4,136.4z M125,40.6l3.8,4.8c5.2,6.6,22.3,30.1,24.6,58.8C169,93.7,187.8,92.2,193.2,92l5.4-0.2l-0.4,5.4
	c-0.4,6-2.6,26.5-14.7,43.1c6.3,1.3,12.7,3.9,19.1,7.7c6.2,3.7,10.8,7.7,13,9.7l4.2,3.9l-4.5,3.5c-5.6,4.4-25.9,18.8-49.8,18.8
	c-5.6,0-11.1-0.4-16.3-1.1c5.6,6.9,7.2,15.6,7.6,20.3l0.6,6.8l-6.6-1.6c-4.7-1.1-13.5-4.1-19.6-11.2c-2.9-3.4-5.4-6.8-7-9.9
	c-2.1,3.9-5,7.5-7,9.9c-6.1,7.1-14.9,10.1-19.6,11.2l-6.6,1.6l0.6-6.8c0.4-4.6,1.9-13.1,7.4-20.1c-4.6,0.5-9.5,0.8-14.4,0.8
	c-23.9,0-44.1-14.4-49.8-18.8l-4.5-3.5l4.1-3.9c2.1-2,6.6-5.9,12.6-9.6c6.1-3.7,12.3-6.3,18.5-7.7C53.2,123.8,51,103.2,50.6,97.2
	l-0.4-5.4l5.5,0.3c5.6,0.3,24.8,2,40.8,12.9c2-29,19.3-52.9,24.6-59.5L125,40.6z"/>
</svg>
