<?xml version="1.0" encoding="utf-8"?>
<!-- Generator: Adobe Illustrator 24.1.1, SVG Export Plug-In . SVG Version: 6.00 Build 0)  -->
<svg version="1.1" id="Laag_1" xmlns="http://www.w3.org/2000/svg" xmlns:xlink="http://www.w3.org/1999/xlink" x="0px" y="0px"
	 viewBox="0 0 250 250" style="enable-background:new 0 0 250 250;" xml:space="preserve">
<style type="text/css">
	.st0{fill:#284734;}
	.st1{clip-path:url(#SVGID_2_);fill:#FFFFFF;}
	.st2{fill:#25AFA5;}
	.st3{fill:none;}
	.st4{clip-path:url(#SVGID_4_);fill:#284734;}
	.st5{clip-path:url(#SVGID_6_);fill:none;stroke:#284734;stroke-width:1.4952;stroke-miterlimit:10;}
	.st6{clip-path:url(#SVGID_8_);fill:#284734;}
	.st7{clip-path:url(#SVGID_10_);fill:#67806A;}
	.st8{clip-path:url(#SVGID_10_);fill:#284734;}
	.st9{clip-path:url(#SVGID_12_);}
	.st10{filter:url(#Adobe_OpacityMaskFilter);}
	.st11{clip-path:url(#SVGID_14_);}
	.st12{clip-path:url(#SVGID_14_);mask:url(#SVGID_15_);}
	.st13{opacity:0.75;clip-path:url(#SVGID_19_);fill:#222221;}
	.st14{clip-path:url(#SVGID_14_);fill:#284734;}
	.st15{clip-path:url(#SVGID_21_);fill:#25AFA5;}
	.st16{clip-path:url(#SVGID_23_);fill:#25AFA5;}
	.st17{clip-path:url(#SVGID_25_);fill:#25AFA5;}
	.st18{clip-path:url(#SVGID_27_);fill:#284734;}
	.st19{clip-path:url(#SVGID_29_);fill:#284734;}
	.st20{clip-path:url(#SVGID_31_);fill:#284734;}
	.st21{clip-path:url(#SVGID_33_);fill:#284734;}
	.st22{clip-path:url(#SVGID_35_);fill:#284734;}
	.st23{clip-path:url(#SVGID_37_);fill:#284734;}
	.st24{font-family:'ComicSansMS';}
	.st25{font-size:35.2573px;}
	.st26{clip-path:url(#SVGID_39_);}
	.st27{clip-path:url(#SVGID_41_);fill:#284734;}
	.st28{clip-path:url(#SVGID_43_);fill:#284734;}
	.st29{clip-path:url(#SVGID_45_);fill:#284734;}
	.st30{clip-path:url(#SVGID_47_);fill:#284734;}
</style>
<g>
	<defs>
		<rect id="SVGID_36_" x="44" y="32.1" width="165" height="186.8"/>
	</defs>
	<clipPath id="SVGID_2_">
		<use xlink:href="#SVGID_36_"  style="overflow:visible;"/>
	</clipPath>
	<path style="clip-path:url(#SVGID_2_);fill:#284734;" d="M169.9,92.7c-2.7,2.1-12.3,8.9-23.5,8.9c-5.3,0-10.5-0.7-14.7-1.9
		l-0.4-0.1l0.4-0.2c0,0,0,0,0,0l0,0c0.5-0.2,0.9-0.3,1.3-0.5c0.4-0.1,0.7-0.3,1.1-0.5c0.4-0.2,0.9-0.4,1.4-0.7
		c0.4-0.2,0.8-0.4,1.2-0.6c0.5-0.3,1-0.6,1.5-0.8l0.1-0.1c0.3-0.2,0.7-0.4,1.1-0.7c0.5-0.3,1-0.6,1.5-1l0.3-0.2
		c0.3-0.2,0.6-0.4,0.9-0.6c0.5-0.3,0.9-0.7,1.4-1l0.2-0.1c0.1-0.1,0.2-0.2,0.4-0.3c0.2-0.2,0.5-0.4,0.7-0.6c0.6-0.5,1.1-0.9,1.6-1.4
		l0.1-0.1c0.1-0.1,0.2-0.2,0.4-0.3c0.2-0.2,0.4-0.3,0.6-0.5c0.9-0.8,1.8-1.7,2.6-2.5c0.9-0.9,1.8-1.9,2.8-2.9l0.1-0.1l0.1,0
		c8.4,1,15.1,6.7,17,8.5l0.1,0.1L169.9,92.7z M139.7,113.8l0,0.2l-0.2,0c-1.7-0.4-5.9-1.7-8.6-4.9c-2-2.3-3.4-4.4-4-6.2
		c-0.4-0.9-0.5-1.7-0.4-2.3l0-0.1l0.3,0c0.5,0,1,0,1.6-0.1l0,0l1.9,0.6c1,0.3,2,0.6,3.2,0.9l0,0l0,0c1,0.9,1.9,1.8,2.7,2.8
		C138.8,107.6,139.5,111.6,139.7,113.8 M125.8,98.8L125.8,98.8c-0.5-0.1-1-0.2-1.4-0.3c-0.5-0.2-1-0.5-1.3-0.9
		c-0.8-0.8-1.3-2.1-1.2-3.8c0-2.8,1.4-6.6,3.9-10.7l0.1-0.2l0.1,0.2c2.4,4.1,3.8,7.9,3.9,10.7l0,0l0,0v0.1c0,1.6-0.4,2.9-1.2,3.7
		c-0.3,0.3-0.7,0.6-1.1,0.8C127,98.6,126.4,98.8,125.8,98.8L125.8,98.8z M120.4,109L120.4,109c-2.6,3.1-6.5,4.4-8.6,4.9l-0.2,0
		l0-0.2c0.2-2.1,0.9-6.2,3.6-9.3c0.8-0.9,1.6-1.7,2.4-2.5l0,0l0,0c1.3-0.3,2.7-0.6,3.9-1l2.2-0.6l0,0c0.3,0,0.6,0.1,0.9,0.1l0.1,0
		l0,0.1C125,102.4,123.4,105.6,120.4,109 M105.8,101.6c-11.2,0-20.9-6.9-23.5-9l-0.1-0.1l0.1-0.1c1.8-1.7,8.3-7.3,16.5-8.4l0.1,0
		l0.1,0.1c0.1,0.1,0.2,0.2,0.3,0.3l0.6,0.7c0.1,0.1,0.2,0.2,0.2,0.2c0.5,0.5,1,1.1,1.5,1.6c0.8,0.8,1.7,1.7,2.7,2.5
		c0.2,0.2,0.4,0.3,0.6,0.5c0.1,0.1,0.2,0.2,0.4,0.3l0.2,0.2c0.5,0.5,1.1,0.9,1.6,1.4c0.3,0.2,0.5,0.4,0.8,0.6
		c0.1,0.1,0.2,0.2,0.4,0.3l0.3,0.2c0.4,0.3,0.9,0.7,1.3,1c0.3,0.2,0.6,0.4,0.9,0.6l0.3,0.2c0.5,0.4,1,0.7,1.5,1
		c0.3,0.2,0.7,0.4,1,0.6l0.2,0.1c0.4,0.2,1,0.6,1.5,0.8c0.4,0.2,0.9,0.5,1.2,0.6c0.5,0.2,0.9,0.5,1.4,0.7c0.4,0.2,0.8,0.3,1.1,0.5
		c0.4,0.2,0.9,0.3,1.4,0.5l0.5,0.2l-0.5,0.1C116,101,111,101.6,105.8,101.6 M91.1,60.3l0-0.2l0.2,0c3,0.1,13.4,1.1,21.2,7.5l0.1,0
		v0.1c0,1.3,0.1,2.6,0.1,3.9c0,0.1,0,0.2,0,0.2l0,0.2c0.1,1.3,0.2,2.5,0.3,3.7c0,0.3,0.1,0.6,0.1,0.8c0,0.2,0,0.4,0.1,0.5l0,0.4
		c0.1,0.7,0.2,1.5,0.3,2.2c0.1,0.3,0.1,0.6,0.2,0.9l0,0.1c0,0.1,0.1,0.3,0.1,0.4l0.1,0.6c0,0.2,0.1,0.5,0.1,0.7l0,0.2l-0.2,0
		c-1.2-0.2-2.4-0.3-3.6-0.4l-0.2,0c0,0-0.1,0-0.2,0c-1.5-0.1-2.9-0.2-4.2-0.2c-1.1,0-2.2,0-3.4,0.1c-0.2,0-0.4,0-0.6,0
		c-0.2,0-0.3,0-0.4,0l-0.4,0c-0.5,0-1,0.1-1.5,0.1l-0.1,0l-0.1-0.1C92.5,74.3,91.3,63.4,91.1,60.3 M121.2,98.3l-0.6-0.2
		c-0.3-0.1-0.6-0.2-0.9-0.3l-0.4-0.1c-0.3-0.1-0.5-0.2-0.8-0.3c-0.4-0.2-0.8-0.4-1.2-0.6l-0.6-0.3c-0.2-0.1-0.5-0.2-0.7-0.4
		c-0.4-0.2-0.9-0.5-1.3-0.7l-0.2-0.1c-0.1-0.1-0.2-0.1-0.4-0.2c-0.3-0.2-0.5-0.3-0.8-0.5c-0.4-0.2-0.8-0.5-1.2-0.8l-0.4-0.3
		c-0.1-0.1-0.3-0.2-0.4-0.3l0,0c-0.2-0.2-0.5-0.3-0.7-0.5c-0.4-0.3-0.8-0.6-1.2-0.9l-0.4-0.3c-0.1-0.1-0.3-0.2-0.4-0.3
		c-0.2-0.2-0.4-0.3-0.7-0.5c-0.5-0.4-1.1-0.9-1.6-1.4l-0.2-0.2c-0.1-0.1-0.2-0.2-0.4-0.3l-0.1-0.1c-0.1-0.1-0.3-0.2-0.4-0.4
		c-0.9-0.8-1.8-1.7-2.7-2.5c-0.6-0.6-1.1-1.2-1.7-1.8l-0.2-0.2l0.3,0c0.2,0,0.4,0,0.6,0c0.1,0,0.3,0,0.4,0c0.2,0,0.4,0,0.7,0
		c1.1-0.1,2.1-0.1,3.1-0.1c1.4,0,2.8,0.1,4.4,0.2l0.1,0c0,0,0,0,0.1,0c1.3,0.1,2.7,0.3,4,0.5l0.1,0l0,0.1c0.2,0.8,0.4,1.6,0.7,2.5
		c0,0.1,0,0.1,0.1,0.2c0,0,0,0.1,0,0.1l0,0c0.3,0.9,0.5,1.6,0.8,2.3c0.1,0.2,0.1,0.4,0.2,0.5l0.1,0.1c0,0.1,0,0.1,0.1,0.2
		c0.2,0.5,0.4,1.1,0.7,1.6c0.1,0.2,0.2,0.4,0.3,0.6l0.1,0.3c0.3,0.6,0.5,1,0.7,1.3c0.1,0.2,0.3,0.5,0.4,0.7l0.1,0.1
		c0.2,0.4,0.5,0.7,0.7,1.1c0.2,0.2,0.3,0.5,0.5,0.7c0.2,0.3,0.5,0.6,0.8,0.9l0.1,0.1c0.1,0.1,0.1,0.2,0.2,0.2L121.2,98.3z
		 M121.2,88.7l-0.1,0.2c0,0.1,0,0.1-0.1,0.2l0,0c0,0.1-0.1,0.2-0.1,0.4c-0.1,0.3-0.2,0.6-0.2,1l0,0.1c0,0,0,0.1,0,0.1l0,0.1
		c0,0.1,0,0.1-0.1,0.2c-0.1,0.4-0.1,0.8-0.2,1.1l0,0.1c0,0.1,0,0.1,0,0.2c0,0.5-0.1,0.9-0.1,1.3c0,0.2,0,0.3,0,0.5l0,0.5l-0.3-0.4
		c-0.2-0.2-0.3-0.5-0.5-0.8l0-0.1c0,0,0-0.1-0.1-0.1l-0.1-0.2c-0.3-0.5-0.5-1-0.8-1.6l-0.1-0.2c-0.1-0.1-0.1-0.2-0.2-0.4
		c-0.3-0.8-0.6-1.4-0.9-2.1l0-0.1c0,0,0-0.1,0-0.1c-0.2-0.7-0.5-1.4-0.7-2.1c-0.1-0.2-0.1-0.4-0.2-0.7c-0.3-1-0.5-1.8-0.7-2.6
		c0,0,0,0,0,0l-0.1-0.5c-0.1-0.5-0.2-1-0.3-1.5l-0.2-0.9c0-0.2-0.1-0.5-0.1-0.7c0-0.2-0.1-0.3-0.1-0.5l0-0.1c0-0.2,0-0.3-0.1-0.5
		l0-0.1c-0.1-0.8-0.3-1.7-0.4-2.6c0-0.3-0.1-0.7-0.1-1c0-0.2,0-0.4,0-0.6l0-0.5c-0.1-0.6-0.1-1.3-0.2-2c0-0.4,0-0.8,0-1.2
		c0-0.2,0-0.4,0-0.6c0-0.2,0-0.5,0-0.7l0-0.4l0.3,0.2c0.9,0.8,1.7,1.6,2.5,2.3c0.8,0.8,1.6,1.6,2.3,2.4c0.1,0.1,0.2,0.2,0.3,0.3
		l0.1,0.1c0.1,0.1,0.2,0.2,0.3,0.3l0,0c0.5,0.6,1,1.2,1.5,1.8c0.2,0.2,0.4,0.5,0.6,0.7l0.1,0.1c0.1,0.1,0.1,0.2,0.2,0.3l0.3,0.4
		c0.3,0.3,0.5,0.7,0.8,1c0.2,0.3,0.5,0.7,0.7,1l0,0c0.1,0.1,0.1,0.2,0.2,0.3c0.1,0.1,0.1,0.2,0.2,0.2l0.2,0.2
		c0.1,0.1,0.2,0.2,0.2,0.4l0.1,0.1l-0.1,0.1c0,0.1-0.1,0.1-0.1,0.2l-0.1,0.1c0,0-0.1,0.1-0.1,0.2l-0.1,0.2c-0.1,0.2-0.3,0.5-0.4,0.7
		c-0.1,0.2-0.2,0.4-0.3,0.5l-0.3,0.6c-0.1,0.2-0.2,0.4-0.3,0.6c-0.1,0.2-0.2,0.5-0.3,0.7l-0.2,0.5c-0.1,0.2-0.2,0.3-0.2,0.5
		c-0.1,0.3-0.2,0.5-0.3,0.7l-0.1,0.2c0,0.1-0.1,0.1-0.1,0.2l-0.1,0.1c0,0.1-0.1,0.2-0.1,0.4C121.4,88.2,121.3,88.5,121.2,88.7
		 M114,66.9c0.1-14.9,9.2-27.5,11.9-31l0.1-0.1l0.1,0.1c2.7,3.4,11.7,15.8,11.9,30.6l0,0.1l-0.1,0c-1.5,1.3-3,2.6-4.3,4
		c-0.8,0.8-1.6,1.6-2.3,2.5c-0.2,0.2-0.4,0.4-0.5,0.6c-0.1,0.1-0.2,0.2-0.3,0.4l-0.3,0.4c-0.3,0.4-0.7,0.8-1,1.2
		c-0.2,0.2-0.4,0.5-0.6,0.7c-0.1,0.1-0.2,0.2-0.3,0.4l-0.2,0.3c-0.3,0.4-0.6,0.8-0.9,1.2c-0.2,0.2-0.3,0.5-0.5,0.7l-0.3,0.4
		c-0.1,0.1-0.2,0.2-0.2,0.3l-0.3,0.5l0,0l-0.1-0.2l-0.3-0.4c-0.1-0.1-0.1-0.2-0.2-0.3l-0.4-0.5c-0.1-0.2-0.3-0.4-0.4-0.6
		c-0.3-0.5-0.7-1-1.1-1.4l-0.2-0.2c-0.1-0.1-0.1-0.2-0.2-0.2l-0.1-0.1c-0.2-0.2-0.3-0.4-0.5-0.6c-0.4-0.5-0.9-1.1-1.4-1.6l-0.1-0.1
		c-0.1-0.1-0.1-0.2-0.2-0.3l-0.1-0.2c-0.1-0.1-0.2-0.3-0.3-0.4c-0.8-0.9-1.6-1.7-2.3-2.5c-0.7-0.7-1.3-1.3-2-1.9
		c-0.1-0.1-0.2-0.2-0.3-0.2l-0.1-0.1c-0.1-0.1-0.2-0.1-0.3-0.2l-0.3-0.3c-0.3-0.2-0.6-0.5-0.8-0.8L114,66.9L114,66.9z M131.7,97.5
		c0.3-0.3,0.6-0.6,0.8-1c0.1-0.1,0.2-0.3,0.3-0.4l0.2-0.2c0.3-0.4,0.5-0.8,0.7-1.1c0.1-0.2,0.3-0.5,0.4-0.8c0.2-0.4,0.4-0.8,0.7-1.3
		l0-0.1c0.1-0.3,0.3-0.6,0.4-0.8c0.2-0.4,0.4-0.9,0.6-1.5c0-0.1,0.1-0.2,0.1-0.2l0,0c0.1-0.2,0.2-0.4,0.2-0.6
		c0.2-0.6,0.4-1.3,0.7-2.1c0-0.1,0.1-0.2,0.1-0.2c0-0.1,0.1-0.2,0.1-0.3c0.2-0.8,0.4-1.6,0.6-2.4l0-0.1l0.1,0c1-0.1,2-0.2,3-0.3
		l0.1,0c1-0.1,2-0.1,3.2-0.2c0.1,0,0.1,0,0.2,0l0.3,0c1,0,2,0,3.1,0l0.2,0c0.2,0,0.3,0,0.5,0c0.8,0,1.5,0.1,2.3,0.1l0.3,0l-0.2,0.2
		c-0.7,0.7-1.2,1.3-1.8,1.8c-0.8,0.8-1.7,1.6-2.6,2.4c-0.2,0.1-0.3,0.3-0.5,0.4l-0.1,0.1c-0.1,0.1-0.1,0.1-0.2,0.2l0,0
		c-0.5,0.4-1.1,1-1.8,1.5c-0.2,0.1-0.3,0.3-0.5,0.4l-0.1,0.1c-0.1,0.1-0.2,0.2-0.3,0.3l-0.1,0c-0.6,0.4-1.1,0.8-1.6,1.2
		c-0.2,0.1-0.4,0.3-0.6,0.4l-0.3,0.2c-0.6,0.4-1.1,0.8-1.7,1.1c-0.2,0.1-0.3,0.2-0.5,0.3l-0.4,0.2c-0.5,0.3-1.1,0.7-1.7,1
		c-0.2,0.1-0.4,0.2-0.6,0.3l-0.2,0.1c-0.7,0.3-1.2,0.6-1.7,0.8c-0.2,0.1-0.4,0.2-0.6,0.3l-0.1,0.1c-0.3,0.1-0.6,0.2-0.9,0.4
		l-0.5,0.2L131.7,97.5z M131.3,93.7c0-0.4,0-0.8-0.1-1.3c0-0.1,0-0.2,0-0.3l0,0c0,0,0-0.1,0-0.1l0-0.2c0-0.3-0.1-0.5-0.1-0.8
		c0-0.1,0-0.2-0.1-0.3l0-0.1c0-0.1,0-0.1,0-0.2l0-0.2c-0.1-0.3-0.1-0.5-0.2-0.8c0-0.1-0.1-0.3-0.1-0.4c0-0.1-0.1-0.2-0.1-0.2
		l-0.1-0.3c-0.1-0.2-0.1-0.4-0.2-0.6c-0.1-0.2-0.1-0.3-0.2-0.5l-0.2-0.5c-0.1-0.2-0.2-0.5-0.3-0.7c-0.1-0.2-0.1-0.3-0.2-0.5l0-0.1
		c0-0.1-0.1-0.1-0.1-0.2l-0.1-0.3c-0.1-0.2-0.2-0.5-0.3-0.7c-0.1-0.2-0.2-0.3-0.3-0.5l-0.1-0.1c0-0.1-0.1-0.1-0.1-0.2l-0.1-0.3
		c-0.1-0.2-0.3-0.5-0.4-0.7c-0.1-0.2-0.2-0.3-0.3-0.5l-0.2-0.3c-0.1-0.1-0.1-0.2-0.2-0.3c0-0.1-0.1-0.1-0.1-0.2c0,0-0.1-0.1-0.1-0.1
		l0-0.1l0.1-0.1c0.2-0.2,0.3-0.5,0.5-0.7l0.2-0.3c0.1-0.1,0.1-0.2,0.2-0.3l0.1-0.1c0.2-0.2,0.3-0.5,0.5-0.7c0.2-0.3,0.4-0.6,0.7-0.9
		l0.1-0.1c0.1-0.1,0.2-0.3,0.3-0.4c0.1-0.1,0.2-0.2,0.3-0.3l0.1-0.1c0.2-0.2,0.4-0.5,0.6-0.7c0.3-0.4,0.6-0.7,0.9-1.1l0.4-0.4
		c0.1-0.1,0.2-0.3,0.3-0.4l0.1-0.1c0.1-0.2,0.3-0.3,0.4-0.5c0.7-0.8,1.5-1.6,2.3-2.4c0.9-0.9,1.9-1.8,3-2.8l0.3-0.2l-0.1,1.8
		c0,0.4,0,0.9,0,1.3c0,0.6-0.1,1.3-0.1,1.9l0,0.5c0,0.2,0,0.4,0,0.6c0,0.4-0.1,0.7-0.1,1.1c-0.1,0.7-0.2,1.3-0.3,2l-0.1,0.4
		c0,0.2,0,0.3-0.1,0.5l0,0.1c0,0.3-0.1,0.6-0.1,0.9c-0.1,0.7-0.3,1.4-0.4,2.1l-0.1,0.4c0,0.2-0.1,0.4-0.1,0.5c0,0.3-0.1,0.5-0.1,0.7
		c-0.2,0.8-0.4,1.7-0.7,2.7c0,0.1-0.1,0.3-0.1,0.4l-0.1,0.3c-0.2,0.6-0.4,1.2-0.6,1.8l0,0.1c-0.1,0.2-0.2,0.4-0.2,0.6
		c-0.2,0.6-0.4,1.1-0.7,1.7l-0.1,0.3c0,0.1-0.1,0.1-0.1,0.2c-0.3,0.7-0.7,1.4-1,1.9c0,0.1-0.1,0.1-0.1,0.2l-0.1,0.1
		c-0.3,0.5-0.6,0.9-0.8,1.3c-0.1,0.1-0.1,0.2-0.2,0.2l-0.3,0.5l0.1-0.6c0.1-0.4,0.1-0.8,0.1-1.2l0,0l0-0.1L131.3,93.7z M138.2,81.8
		l0-0.1c0-0.2,0.1-0.4,0.1-0.6c0-0.2,0.1-0.3,0.1-0.5c0.1-0.3,0.1-0.6,0.2-1c0.1-0.7,0.2-1.5,0.3-2.1l0.1-0.6c0-0.1,0-0.2,0-0.3
		c0-0.3,0.1-0.7,0.1-1c0.1-0.8,0.1-1.7,0.2-2.5l0-0.2c0-0.1,0-0.2,0-0.3l0-0.3c0-0.3,0-0.5,0.1-0.8c0.1-1.4,0.1-2.7,0.1-4v-0.1
		l0.1,0c7.6-6.1,17.7-7,20.7-7.1l0.2,0l0,0.2c-0.2,3.1-1.4,14-8.2,22l-0.1,0.1l-0.1,0c-2.2-0.2-4.6-0.3-7.1-0.3l-0.2,0
		c-1.1,0-2.3,0.1-3.5,0.2l-0.4,0c-0.9,0.1-1.8,0.2-2.7,0.3l-0.2,0l0-0.2C138.2,82.2,138.2,82,138.2,81.8 M171.5,90.8
		c-1.1-1-3.4-3-6.5-4.9c-3.2-1.9-6.4-3.2-9.5-3.9c6.1-8.3,7.2-18.6,7.4-21.6l0.2-2.7l-2.7,0.1c-2.7,0.1-12.1,0.9-20,6.1
		c-1.1-14.4-9.7-26.2-12.3-29.4l-1.9-2.4l-1.9,2.4c-2.6,3.3-11.3,15.3-12.3,29.8c-8-5.5-17.7-6.3-20.5-6.5l-2.7-0.1l0.2,2.7
		c0.2,3,1.3,13.3,7.4,21.7c-3.1,0.7-6.2,2-9.3,3.8c-3,1.9-5.3,3.8-6.3,4.8l-2.1,1.9l2.2,1.8c2.8,2.2,13,9.4,24.9,9.4
		c2.5,0,4.9-0.1,7.2-0.4c-2.7,3.5-3.5,7.8-3.7,10.1L109,117l3.3-0.8c2.4-0.6,6.8-2.1,9.8-5.6c1-1.2,2.5-3,3.5-4.9
		c0.9,1.5,2.1,3.2,3.5,4.9c3.1,3.6,7.5,5,9.8,5.6l3.3,0.8l-0.3-3.4c-0.2-2.3-1-6.7-3.8-10.2c2.6,0.3,5.3,0.5,8.2,0.5
		c12,0,22.1-7.2,24.9-9.4l2.3-1.8L171.5,90.8z"/>
</g>
<text transform="matrix(1 0 0 1 57.5039 171.3948)" class="st0 st24 st25">Ancient </text>
<g>
	<defs>
		<rect id="SVGID_38_" x="44" y="32.1" width="165" height="186.8"/>
	</defs>
	<clipPath id="SVGID_4_">
		<use xlink:href="#SVGID_38_"  style="overflow:visible;"/>
	</clipPath>
	<g style="clip-path:url(#SVGID_4_);">
		<text transform="matrix(1 0 0 1 42.4482 208.929)" class="st0 st24 st25">Chemistry</text>
	</g>
</g>
</svg>
