<?xml version="1.0" encoding="utf-8"?>
<!-- Generator: Adobe Illustrator 24.1.1, SVG Export Plug-In . SVG Version: 6.00 Build 0)  -->
<svg version="1.1" id="Laag_1" xmlns="http://www.w3.org/2000/svg" xmlns:xlink="http://www.w3.org/1999/xlink" x="0px" y="0px"
	 viewBox="0 0 250 250" style="enable-background:new 0 0 250 250;" xml:space="preserve">
<style type="text/css">
	.st0{fill:#284734;}
	.st1{clip-path:url(#SVGID_2_);fill:#FFFFFF;}
	.st2{fill:#25AFA5;}
	.st3{fill:none;}
	.st4{clip-path:url(#SVGID_4_);fill:#284734;}
	.st5{clip-path:url(#SVGID_6_);fill:none;stroke:#284734;stroke-width:1.4952;stroke-miterlimit:10;}
	.st6{clip-path:url(#SVGID_8_);fill:#284734;}
	.st7{clip-path:url(#SVGID_10_);fill:#67806A;}
	.st8{clip-path:url(#SVGID_10_);fill:#284734;}
	.st9{clip-path:url(#SVGID_12_);}
	.st10{filter:url(#Adobe_OpacityMaskFilter);}
	.st11{clip-path:url(#SVGID_14_);}
	.st12{clip-path:url(#SVGID_14_);mask:url(#SVGID_15_);}
	.st13{opacity:0.75;clip-path:url(#SVGID_19_);fill:#222221;}
	.st14{clip-path:url(#SVGID_14_);fill:#284734;}
	.st15{clip-path:url(#SVGID_21_);fill:#25AFA5;}
	.st16{clip-path:url(#SVGID_23_);fill:#25AFA5;}
	.st17{clip-path:url(#SVGID_25_);fill:#25AFA5;}
	.st18{clip-path:url(#SVGID_27_);fill:#284734;}
	.st19{clip-path:url(#SVGID_29_);fill:#284734;}
	.st20{clip-path:url(#SVGID_31_);fill:#284734;}
	.st21{clip-path:url(#SVGID_33_);fill:#284734;}
	.st22{clip-path:url(#SVGID_35_);fill:#284734;}
	.st23{clip-path:url(#SVGID_37_);fill:#284734;}
	.st24{clip-path:url(#SVGID_41_);fill:#284734;}
	.st25{clip-path:url(#SVGID_43_);fill:#284734;}
	.st26{clip-path:url(#SVGID_45_);fill:#284734;}
	.st27{clip-path:url(#SVGID_47_);fill:#284734;}
</style>
<g>
	<path class="st2" d="M70.3,160.6l-4-11.8l-0.1-1.1l-4.4,12.9H70.3z M54.1,170.2l2.6-0.4l9.1-25l3.6-1.2l9.3,26.3l2.7,0.4l-0.1,1
		l-5.8-0.1l-5.2,0.1l-0.1-1l3.1-0.4l-2.7-7.9h-9.4l-2.7,7.9l3.2,0.4l-0.1,1l-4.1-0.1l-3.4,0.1L54.1,170.2z"/>
	<g>
		<defs>
			<rect id="SVGID_20_" x="37" y="29" width="176" height="192.2"/>
		</defs>
		<clipPath id="SVGID_2_">
			<use xlink:href="#SVGID_20_"  style="overflow:visible;"/>
		</clipPath>
		<path style="clip-path:url(#SVGID_2_);fill:#25AFA5;" d="M82.9,170.2l2.4-0.4v-15.1l-2.4,0.3l-0.1-1.1l5.7-1.3l1.2,0l0.1,3.7
			l6.4-4c4.2,0,5.2,1.7,5.2,5.9v11.6l2.6,0.4l-0.1,1l-4.6-0.1l-4,0.1l-0.1-1l1.7-0.4v-11.7c0-1.9-0.8-2.7-2.2-2.7
			c-1.3,0-2.3,0.7-3.6,1.5l-1.2,0.7v12.2l1.8,0.4l-0.1,1l-3.9-0.1l-4.5,0.1L82.9,170.2z"/>
		<path style="clip-path:url(#SVGID_2_);fill:#25AFA5;" d="M104.9,162.8c0-6.1,4.5-9.3,9.5-10.4c2,0,4.3,0.9,5.6,2v4.1h-3.6
			l-1.2-4.2c-0.5-0.3-0.9-0.3-1.5-0.3c-2.4,0-4.4,2.2-4.4,6.8c0,4.4,2.4,7.7,6.2,7.7c1.6,0,3-0.6,4.3-1.5l0.5,0.9
			c-2,1.7-3.9,2.9-6.5,3.9C108.7,171.8,104.9,168.4,104.9,162.8"/>
	</g>
	<path class="st2" d="M125,148.7l-0.3-2.4l0.4-1.9l3.1-0.2l1.2,0.2l0.2,2.3l-0.4,2l-3.1,0.2L125,148.7z M122.6,170.2l2.4-0.4v-15.1
		l-2.4,0.4l-0.1-1l5.7-1.3l1.3,0v17.2l2.4,0.4l-0.1,1l-4.6-0.1l-4.5,0.1L122.6,170.2z"/>
	<g>
		<defs>
			<rect id="SVGID_22_" x="37" y="29" width="176" height="192.2"/>
		</defs>
		<clipPath id="SVGID_4_">
			<use xlink:href="#SVGID_22_"  style="overflow:visible;"/>
		</clipPath>
		<path style="clip-path:url(#SVGID_4_);fill:#25AFA5;" d="M137.5,160l7-0.2v-0.5c0-3.2-0.6-5.3-3.3-5.3
			C138.9,154,137.6,156.1,137.5,160 M149.2,167.8c-2.2,1.9-4.2,2.9-7,4c-4.9,0-9-3.3-9-9.1c0-5.6,3.4-9,9-10.3c4.8,0,7,2.9,7,7.2
			v1.6h-11.7c0.2,4.5,2.6,7.3,6.4,7.3c1.7,0,3.4-0.7,4.8-1.6L149.2,167.8z"/>
		<path style="clip-path:url(#SVGID_4_);fill:#25AFA5;" d="M151.2,170.2l2.4-0.4v-15.1l-2.4,0.3l-0.1-1.1l5.7-1.3l1.2,0l0.1,3.7
			l6.4-4c4.2,0,5.2,1.7,5.2,5.9v11.6l2.6,0.4l-0.1,1l-4.6-0.1l-4,0.1l-0.1-1l1.7-0.4v-11.7c0-1.9-0.8-2.7-2.2-2.7
			c-1.3,0-2.3,0.7-3.6,1.5l-1.2,0.7v12.2l1.8,0.4l-0.1,1l-3.9-0.1l-4.5,0.1L151.2,170.2z"/>
		<path style="clip-path:url(#SVGID_4_);fill:#25AFA5;" d="M175.2,166.5v-11.9H172v-0.3l0.7-1h2.5v-2.7l3.7-2.6h0.7v5.4h5.4v1.2
			h-5.3v11.9c0,1.6,0.9,2.4,2.1,2.4c1.1,0,1.9-0.3,3.2-0.9l0.5,1l-5.3,2.9C176.6,171.8,175.2,169.9,175.2,166.5"/>
		<path style="clip-path:url(#SVGID_4_);fill:#25AFA5;" d="M37,199.1c0-8.9,5.8-13.7,14.7-14.8c3.8,0,6.9,1.2,9,2.4v6.3h-1.5
			l-1.9-4.7c-1.2-1.3-2.9-2.6-6-2.6c-5,0-8.9,4.2-8.9,12.4c0,6.9,3.2,13,9.5,13c2.3,0,4.1-1.1,5.4-2.4l2.3-5.3H61l-0.4,6.5
			c-2.7,1.2-5.7,2.2-9.6,2.6C43.6,212.8,37,208.1,37,199.1"/>
		<path style="clip-path:url(#SVGID_4_);fill:#25AFA5;" d="M63.4,211.1l2.4-0.4v-24.2l-2.4,0.2l-0.2-1l5.6-1.2l1.4,0v12.7l6.4-4
			c4.4,0,5.2,2.1,5.2,6v11.5l2.6,0.4l-0.1,1l-4.7-0.1l-4,0.1l-0.1-1l1.7-0.4v-11.7c0-1.9-0.8-2.7-2.2-2.7c-1.2,0-2.3,0.7-3.6,1.5
			l-1.2,0.7v12.2l1.8,0.4l-0.1,1l-4-0.1l-4.5,0.1L63.4,211.1z"/>
		<path style="clip-path:url(#SVGID_4_);fill:#25AFA5;" d="M89.6,200.9l7-0.2v-0.5c0-3.2-0.6-5.3-3.3-5.3
			C91.1,194.9,89.7,197,89.6,200.9 M101.3,208.7c-2.2,1.9-4.2,2.9-7,4c-4.9,0-9-3.3-9-9.1c0-5.6,3.4-9,8.9-10.3c4.8,0,7,2.9,7,7.2
			v1.6H89.6c0.2,4.5,2.6,7.3,6.4,7.3c1.7,0,3.4-0.7,4.8-1.6L101.3,208.7z"/>
		<path style="clip-path:url(#SVGID_4_);fill:#25AFA5;" d="M103.3,211.1l2.4-0.4v-15.1l-2.4,0.4l-0.1-1l5.6-1.3l1.3,0l0.1,3.7l6-4
			c3.4,0,4.8,1.2,5.1,4l6.1-4c4.2,0,5.2,1.7,5.2,6v11.5l2.6,0.4l-0.1,1l-4.6-0.1l-4.1,0.1l-0.1-1l1.7-0.4v-11.7c0-2-0.7-2.7-2.1-2.7
			c-1.1,0-2.4,0.7-3.4,1.5l-1.1,0.7v12.2l1.6,0.4l-0.1,1l-3.7-0.1l-3.9,0.1l-0.1-1l1.6-0.4v-11.7c0-2-0.7-2.7-2.1-2.7
			c-1.1,0-2.4,0.7-3.4,1.5l-1.1,0.7v12.2l1.7,0.4l-0.1,1l-3.9-0.1l-4.5,0.1L103.3,211.1z"/>
	</g>
	<path class="st2" d="M139.3,189.6l-0.3-2.4l0.4-1.9l3.1-0.2l1.2,0.2l0.2,2.3l-0.4,2l-3.1,0.2L139.3,189.6z M137,211.1l2.4-0.4
		v-15.1L137,196l-0.1-1l5.7-1.3l1.3,0v17.2l2.4,0.4l-0.1,1l-4.6-0.1l-4.5,0.1L137,211.1z"/>
	<g>
		<defs>
			<rect id="SVGID_24_" x="37" y="29" width="176" height="192.2"/>
		</defs>
		<clipPath id="SVGID_6_">
			<use xlink:href="#SVGID_24_"  style="overflow:visible;"/>
		</clipPath>
		<path style="clip-path:url(#SVGID_6_);fill:#25AFA5;" d="M148.6,211.1l-0.3-5.2h1.5l1.7,3.7c1,0.9,2.1,1.6,3.5,1.6
			c2,0,3-1.1,3-2.5c0-1.6-0.8-2.2-2.8-3.4l-3.1-1.9c-1.7-1-3.3-2.2-3.3-4.6c0-2.7,2.1-4.4,6.9-5.5c2.7,0,4.5,0.7,5.8,1.4v4.8h-1.3
			l-1.6-3.6c-0.8-0.7-1.8-1.2-3.1-1.2c-1.6,0-2.7,0.9-2.7,2.3c0,1.4,0.9,2.1,2.9,3.1l3.2,1.8c2.4,1.3,3.4,2.7,3.3,4.8
			c0,3.1-2.5,4.9-7.1,6C152.6,212.8,150.1,211.9,148.6,211.1"/>
		<path style="clip-path:url(#SVGID_6_);fill:#25AFA5;" d="M166.1,207.4v-11.9h-3.2v-0.3l0.7-1h2.5v-2.7l3.7-2.6h0.7v5.4h5.4v1.2
			h-5.3v11.9c0,1.6,0.9,2.4,2.1,2.4c1.1,0,1.9-0.3,3.2-0.9l0.5,1l-5.3,2.9C167.5,212.7,166.1,210.8,166.1,207.4"/>
		<path style="clip-path:url(#SVGID_6_);fill:#25AFA5;" d="M177.9,211.1l2.4-0.4v-15.1l-2.4,0.4l-0.1-1l5.4-1.3l1.2,0l0.2,5.9l4-6h3
			v4.6h-4c-0.5,0.2-1.9,1.9-2.5,2.5l-0.3,0.3v9.8l3.8,0.3l-0.1,1.1l-5.8-0.1l-4.6,0.1L177.9,211.1z"/>
	</g>
	<polygon class="st2" points="210,193.9 206.8,193.9 206.7,194.9 208.8,195.2 204,209.5 203.8,208 199.2,195.2 201.4,194.9 
		201.3,193.9 197,193.9 192.4,193.9 192.3,194.9 194.3,195.2 200.5,211.9 203.7,210.7 199.7,216.9 195.4,216.9 195.4,221.2 
		200.4,221.2 205,210.9 210.8,195.2 213,194.9 212.9,193.9 	"/>
	<g>
		<defs>
			<rect id="SVGID_26_" x="37" y="29" width="176" height="192.2"/>
		</defs>
		<clipPath id="SVGID_8_">
			<use xlink:href="#SVGID_26_"  style="overflow:visible;"/>
		</clipPath>
		<path class="st6" d="M169.9,92.5c-2.8,2.2-12.9,9.4-24.6,9.4c-5.5,0-11-0.7-15.4-2l-0.4-0.1l0.4-0.2c0,0,0,0,0,0l0,0
			c0.5-0.2,0.9-0.3,1.4-0.5c0.4-0.2,0.8-0.3,1.2-0.5c0.5-0.2,1-0.4,1.5-0.7c0.5-0.2,0.8-0.4,1.2-0.6c0.5-0.3,1.1-0.6,1.5-0.9
			l0.1-0.1c0.3-0.2,0.7-0.4,1.1-0.7c0.5-0.3,1-0.7,1.6-1.1l0.3-0.2c0.3-0.2,0.6-0.4,1-0.7c0.5-0.4,1-0.7,1.5-1.1l0.2-0.2
			c0.1-0.1,0.3-0.2,0.4-0.3c0.3-0.2,0.5-0.4,0.8-0.6c0.6-0.5,1.2-1,1.7-1.5l0.1-0.1c0.1-0.1,0.3-0.2,0.4-0.3
			c0.2-0.2,0.4-0.3,0.6-0.5c1-0.9,1.9-1.8,2.7-2.6c1-1,1.9-2,2.9-3.1l0.1-0.1l0.1,0c8.8,1.1,15.8,7.1,17.8,8.9l0.1,0.1L169.9,92.5z
			 M138.3,114.6l0,0.2l-0.2-0.1c-1.8-0.4-6.2-1.8-9-5.1c-2.1-2.4-3.5-4.6-4.2-6.5c-0.4-1-0.5-1.8-0.5-2.4l0-0.1l0.3,0
			c0.5,0,1,0,1.7-0.1l0,0l2,0.6c1,0.3,2.1,0.7,3.3,0.9l0,0l0,0c1,0.9,2,1.9,2.9,2.9C137.4,108.1,138.1,112.3,138.3,114.6
			 M123.8,98.9L123.8,98.9c-0.6-0.1-1.1-0.2-1.5-0.4c-0.6-0.2-1-0.5-1.4-0.9c-0.9-0.9-1.3-2.2-1.3-4c0-2.9,1.5-6.9,4.1-11.2l0.1-0.2
			l0.1,0.2c2.5,4.3,4,8.2,4.1,11.2v0l0,0l0,0.1c0,1.7-0.4,3-1.3,3.9c-0.3,0.3-0.7,0.6-1.1,0.8C125,98.7,124.4,98.9,123.8,98.9
			L123.8,98.9z M118.1,109.6L118.1,109.6c-2.8,3.2-6.9,4.6-9,5.1l-0.2,0.1l0-0.2c0.2-2.2,1-6.5,3.7-9.7c0.8-0.9,1.6-1.8,2.5-2.6l0,0
			l0,0c1.4-0.3,2.8-0.7,4.1-1.1l2.3-0.7l0,0c0.3,0,0.7,0.1,1,0.1l0.1,0l0,0.1C122.9,102.7,121.2,106,118.1,109.6 M102.7,101.9
			c-11.8,0-21.8-7.2-24.7-9.4l-0.1-0.1l0.1-0.1c1.9-1.8,8.7-7.7,17.3-8.8l0.1,0l0.1,0.1c0.1,0.1,0.2,0.2,0.3,0.4l0.7,0.7
			c0.1,0.1,0.2,0.2,0.2,0.3c0.5,0.6,1.1,1.1,1.6,1.7c0.9,0.9,1.8,1.8,2.8,2.7c0.2,0.2,0.4,0.4,0.6,0.5c0.1,0.1,0.3,0.2,0.4,0.3
			l0.2,0.2c0.5,0.5,1.1,1,1.7,1.4c0.3,0.2,0.5,0.4,0.8,0.6c0.1,0.1,0.3,0.2,0.4,0.3l0.3,0.2c0.5,0.4,0.9,0.7,1.4,1.1
			c0.3,0.2,0.7,0.5,1,0.7l0.3,0.2c0.5,0.4,1.1,0.7,1.6,1.1c0.3,0.2,0.7,0.4,1,0.6l0.2,0.1c0.4,0.3,1,0.6,1.6,0.9
			c0.5,0.2,0.9,0.5,1.2,0.6c0.5,0.2,1,0.5,1.5,0.7c0.4,0.2,0.8,0.3,1.2,0.5c0.4,0.2,0.9,0.3,1.4,0.5l0.5,0.2l-0.5,0.1
			C113.4,101.2,108.2,101.9,102.7,101.9 M87.4,58.6l0-0.2l0.2,0c3.2,0.2,14.1,1.2,22.2,7.9l0.1,0v0.1c0,1.3,0.1,2.7,0.1,4.1
			c0,0.1,0,0.2,0,0.2l0,0.2c0.1,1.4,0.2,2.7,0.3,3.9c0,0.3,0.1,0.6,0.1,0.9c0,0.2,0.1,0.4,0.1,0.6l0,0.4c0.1,0.8,0.2,1.6,0.3,2.3
			c0.1,0.3,0.1,0.7,0.2,1l0,0.1c0,0.2,0.1,0.3,0.1,0.5l0.1,0.6c0,0.3,0.1,0.5,0.1,0.8l0,0.2l-0.2,0c-1.3-0.2-2.5-0.3-3.7-0.4l-0.2,0
			c-0.1,0-0.1,0-0.2,0c-1.6-0.1-3-0.2-4.4-0.2c-1.2,0-2.3,0-3.5,0.1c-0.2,0-0.4,0-0.6,0c-0.2,0-0.3,0-0.5,0l-0.4,0
			c-0.5,0-1.1,0.1-1.6,0.1l-0.1,0L96,81.7C88.9,73.3,87.6,61.9,87.4,58.6 M119,98.3l-0.6-0.2c-0.3-0.1-0.7-0.2-1-0.4l-0.4-0.2
			c-0.3-0.1-0.5-0.2-0.8-0.3c-0.4-0.2-0.8-0.4-1.3-0.6l-0.6-0.3c-0.3-0.1-0.5-0.2-0.8-0.4c-0.4-0.2-0.9-0.5-1.3-0.8l-0.2-0.1
			c-0.1-0.1-0.2-0.1-0.4-0.2c-0.3-0.2-0.6-0.3-0.8-0.5c-0.4-0.3-0.8-0.5-1.3-0.8l-0.4-0.3c-0.1-0.1-0.3-0.2-0.4-0.3l0,0
			c-0.2-0.2-0.5-0.3-0.7-0.5c-0.4-0.3-0.9-0.7-1.3-1l-0.4-0.3c-0.1-0.1-0.3-0.2-0.4-0.3c-0.2-0.2-0.5-0.3-0.7-0.5
			c-0.6-0.4-1.1-0.9-1.7-1.4l-0.2-0.2c-0.1-0.1-0.3-0.2-0.4-0.3l-0.1-0.1c-0.1-0.1-0.3-0.3-0.4-0.4c-1-0.9-1.9-1.8-2.8-2.6
			c-0.6-0.6-1.2-1.2-1.8-1.9l-0.2-0.2l0.3,0c0.2,0,0.4,0,0.6,0c0.2,0,0.3,0,0.4,0c0.2,0,0.5,0,0.7,0c1.2-0.1,2.2-0.1,3.3-0.1
			c1.4,0,3,0.1,4.6,0.2l0.1,0c0,0,0,0,0.1,0c1.4,0.1,2.8,0.3,4.2,0.5l0.1,0l0,0.1c0.2,0.8,0.4,1.7,0.7,2.6c0,0.1,0,0.1,0.1,0.2
			c0,0,0,0.1,0,0.1l0,0.1c0.3,0.9,0.5,1.7,0.8,2.4c0.1,0.2,0.1,0.4,0.2,0.5l0.1,0.1c0,0.1,0,0.1,0.1,0.2c0.2,0.5,0.5,1.1,0.7,1.7
			c0.1,0.2,0.2,0.4,0.3,0.6l0.1,0.3c0.3,0.6,0.5,1,0.7,1.4c0.1,0.2,0.3,0.5,0.4,0.7l0.1,0.1c0.2,0.4,0.5,0.8,0.8,1.2
			c0.2,0.3,0.3,0.5,0.5,0.7c0.3,0.3,0.5,0.6,0.8,0.9l0.1,0.1c0.1,0.1,0.2,0.2,0.2,0.3L119,98.3z M118.9,88.4l-0.1,0.3
			c0,0.1,0,0.1-0.1,0.2l0,0c0,0.1-0.1,0.3-0.1,0.4c-0.1,0.3-0.2,0.7-0.3,1l0,0.1c0,0,0,0.1,0,0.1l0,0.1c0,0.1,0,0.2-0.1,0.2
			c-0.1,0.4-0.1,0.8-0.2,1.1l0,0.1c0,0.1,0,0.2,0,0.2c-0.1,0.5-0.1,1-0.1,1.4c0,0.2,0,0.3,0,0.5l0,0.6l-0.3-0.5
			c-0.2-0.3-0.3-0.5-0.5-0.8l0-0.1c0,0,0-0.1-0.1-0.1l-0.1-0.2c-0.3-0.5-0.6-1.1-0.8-1.6l-0.1-0.2c-0.1-0.1-0.1-0.2-0.2-0.4
			c-0.4-0.8-0.6-1.5-0.9-2.2l0-0.1c0-0.1,0-0.1-0.1-0.1c-0.3-0.7-0.5-1.4-0.7-2.2c-0.1-0.2-0.1-0.5-0.2-0.7c-0.3-1-0.5-1.9-0.7-2.7
			c0,0,0,0,0,0l-0.1-0.6c-0.1-0.5-0.2-1-0.3-1.6l-0.2-0.9c0-0.2-0.1-0.5-0.1-0.7c0-0.2-0.1-0.4-0.1-0.5l0-0.1c0-0.2,0-0.4-0.1-0.5
			l0-0.1c-0.1-0.9-0.3-1.8-0.4-2.7c0-0.4-0.1-0.7-0.1-1c0-0.2,0-0.4-0.1-0.6l0-0.5c-0.1-0.7-0.1-1.4-0.2-2.1c0-0.4,0-0.9,0-1.3
			c0-0.2,0-0.4,0-0.6c0-0.2,0-0.5,0-0.7l0-0.4l0.3,0.2c0.9,0.9,1.8,1.7,2.6,2.5c0.8,0.8,1.6,1.7,2.4,2.6c0.1,0.1,0.2,0.2,0.3,0.3
			l0.1,0.1c0.1,0.1,0.2,0.2,0.3,0.3l0,0c0.5,0.6,1.1,1.2,1.6,1.9c0.2,0.2,0.4,0.5,0.6,0.7l0.1,0.1c0.1,0.1,0.1,0.2,0.2,0.3l0.3,0.4
			c0.3,0.4,0.6,0.7,0.8,1.1c0.3,0.4,0.5,0.7,0.7,1l0,0.1c0.1,0.1,0.1,0.2,0.2,0.3c0.1,0.1,0.1,0.2,0.2,0.3l0.2,0.2
			c0.1,0.1,0.2,0.3,0.3,0.4l0.1,0.1l-0.1,0.1c0,0.1-0.1,0.1-0.1,0.2l-0.1,0.1c0,0.1-0.1,0.1-0.1,0.2l-0.1,0.2
			c-0.2,0.3-0.3,0.5-0.5,0.8c-0.1,0.2-0.2,0.4-0.3,0.6l-0.3,0.6c-0.1,0.2-0.2,0.4-0.3,0.7c-0.1,0.2-0.2,0.5-0.3,0.7l-0.3,0.5
			c-0.1,0.2-0.2,0.3-0.2,0.5c-0.1,0.3-0.2,0.5-0.3,0.8l-0.1,0.2c0,0.1-0.1,0.2-0.1,0.2l-0.1,0.1c-0.1,0.1-0.1,0.2-0.1,0.4
			C119.1,87.8,119,88.1,118.9,88.4 M111.4,65.5c0.1-15.6,9.6-28.8,12.5-32.5l0.1-0.2l0.1,0.2c2.9,3.6,12.3,16.6,12.5,32l0,0.1
			l-0.1,0c-1.6,1.3-3.1,2.8-4.5,4.2c-0.8,0.8-1.6,1.7-2.5,2.6c-0.2,0.2-0.4,0.4-0.6,0.7c-0.1,0.1-0.2,0.3-0.3,0.4l-0.3,0.4
			c-0.3,0.4-0.7,0.8-1,1.2c-0.2,0.3-0.4,0.5-0.6,0.8c-0.1,0.1-0.2,0.3-0.3,0.4l-0.2,0.3c-0.4,0.4-0.7,0.8-1,1.3
			c-0.2,0.3-0.4,0.5-0.5,0.7l-0.3,0.4c-0.1,0.1-0.2,0.2-0.3,0.4l-0.3,0.5l0,0l-0.1-0.2l-0.3-0.4c-0.1-0.1-0.1-0.2-0.2-0.3l-0.4-0.6
			c-0.2-0.2-0.3-0.4-0.5-0.7c-0.4-0.5-0.8-1-1.1-1.4l-0.2-0.2c-0.1-0.1-0.1-0.2-0.2-0.3l-0.1-0.1c-0.2-0.2-0.3-0.4-0.5-0.6
			c-0.5-0.6-1-1.1-1.4-1.7l-0.1-0.1c-0.1-0.1-0.2-0.2-0.2-0.3l-0.2-0.2c-0.1-0.1-0.2-0.3-0.4-0.4c-0.8-0.9-1.6-1.8-2.5-2.6
			c-0.7-0.7-1.4-1.4-2.1-2c-0.1-0.1-0.2-0.2-0.3-0.3l-0.1-0.1c-0.1-0.1-0.2-0.2-0.3-0.2l-0.3-0.3c-0.3-0.3-0.6-0.5-0.9-0.8
			L111.4,65.5L111.4,65.5z M129.9,97.5c0.3-0.3,0.6-0.6,0.9-1c0.1-0.1,0.2-0.3,0.3-0.4l0.2-0.2c0.3-0.4,0.5-0.8,0.8-1.2
			c0.1-0.2,0.3-0.5,0.5-0.8c0.2-0.4,0.5-0.9,0.7-1.4l0-0.1c0.2-0.3,0.3-0.6,0.4-0.8c0.2-0.5,0.4-1,0.7-1.6c0-0.1,0.1-0.2,0.1-0.3
			l0,0c0.1-0.2,0.2-0.4,0.2-0.6c0.2-0.7,0.5-1.4,0.7-2.2c0-0.1,0.1-0.2,0.1-0.3c0-0.1,0.1-0.2,0.1-0.3c0.2-0.8,0.5-1.7,0.7-2.5
			l0-0.1l0.1,0c1-0.1,2.1-0.3,3.2-0.3l0.1,0c1-0.1,2.1-0.1,3.4-0.2c0.1,0,0.1,0,0.2,0l0.3,0c1,0,2.1,0,3.2,0l0.2,0
			c0.2,0,0.3,0,0.5,0c0.8,0,1.6,0.1,2.4,0.1l0.3,0l-0.2,0.2c-0.7,0.8-1.3,1.4-1.8,1.9c-0.8,0.8-1.7,1.7-2.7,2.6
			c-0.2,0.1-0.3,0.3-0.5,0.4l-0.1,0.1c-0.1,0.1-0.1,0.1-0.2,0.2l0,0c-0.5,0.5-1.2,1-1.8,1.6c-0.2,0.1-0.4,0.3-0.5,0.4l-0.1,0.1
			c-0.1,0.1-0.2,0.2-0.4,0.3l-0.1,0c-0.6,0.5-1.1,0.9-1.7,1.3c-0.2,0.2-0.4,0.3-0.7,0.5l-0.4,0.2c-0.6,0.4-1.2,0.8-1.7,1.2
			c-0.2,0.1-0.3,0.2-0.5,0.3l-0.4,0.3c-0.5,0.3-1.1,0.7-1.8,1c-0.2,0.1-0.4,0.2-0.6,0.3l-0.2,0.1c-0.7,0.4-1.3,0.6-1.7,0.8
			c-0.2,0.1-0.4,0.2-0.7,0.3l-0.1,0.1c-0.3,0.1-0.6,0.2-0.9,0.4l-0.6,0.2L129.9,97.5z M129.5,93.6c0-0.4,0-0.9-0.1-1.3
			c0-0.1,0-0.2,0-0.3l0,0c0-0.1,0-0.1,0-0.2l0-0.2c0-0.3-0.1-0.5-0.1-0.8c0-0.1,0-0.2-0.1-0.3l0-0.1c0-0.1,0-0.1-0.1-0.2l0-0.2
			c-0.1-0.3-0.1-0.5-0.2-0.8c0-0.1-0.1-0.3-0.1-0.5c0-0.1-0.1-0.2-0.1-0.3l-0.1-0.3c-0.1-0.2-0.1-0.4-0.2-0.6
			c-0.1-0.2-0.1-0.3-0.2-0.5l-0.2-0.5c-0.1-0.2-0.2-0.5-0.3-0.7c-0.1-0.2-0.2-0.3-0.2-0.5l0-0.1c0-0.1-0.1-0.1-0.1-0.2l-0.1-0.3
			c-0.1-0.2-0.2-0.5-0.3-0.7c-0.1-0.2-0.2-0.3-0.3-0.5l-0.1-0.1c0-0.1-0.1-0.1-0.1-0.2l-0.1-0.3c-0.1-0.2-0.3-0.5-0.4-0.8
			c-0.1-0.2-0.2-0.4-0.3-0.5l-0.2-0.3c-0.1-0.1-0.1-0.2-0.2-0.3c0-0.1-0.1-0.1-0.1-0.2c0,0-0.1-0.1-0.1-0.1l-0.1-0.1l0.1-0.1
			c0.2-0.2,0.3-0.5,0.5-0.7l0.2-0.3c0.1-0.1,0.1-0.2,0.2-0.3l0.1-0.1c0.2-0.2,0.3-0.5,0.5-0.8c0.2-0.3,0.5-0.6,0.7-0.9l0.1-0.1
			c0.1-0.1,0.2-0.3,0.3-0.4c0.1-0.1,0.2-0.2,0.3-0.3l0.1-0.1c0.2-0.3,0.4-0.5,0.6-0.8c0.3-0.4,0.7-0.8,1-1.1l0.4-0.4
			c0.1-0.1,0.2-0.3,0.3-0.4l0.1-0.1c0.2-0.2,0.3-0.4,0.5-0.5c0.8-0.9,1.6-1.7,2.4-2.5c0.9-0.9,2-1.9,3.2-3l0.3-0.2l-0.1,1.8
			c0,0.4,0,0.9,0,1.3c0,0.7-0.1,1.3-0.2,2l0,0.5c0,0.2,0,0.4-0.1,0.6c0,0.4-0.1,0.8-0.1,1.2c-0.1,0.7-0.2,1.4-0.3,2.1l-0.1,0.4
			c0,0.2,0,0.3-0.1,0.5l0,0.1c0,0.3-0.1,0.6-0.1,0.9c-0.1,0.8-0.3,1.5-0.4,2.2l-0.1,0.4c0,0.2-0.1,0.4-0.1,0.6
			c0,0.3-0.1,0.5-0.2,0.8c-0.2,0.9-0.4,1.8-0.7,2.8c0,0.2-0.1,0.3-0.1,0.5l-0.1,0.3c-0.2,0.6-0.4,1.3-0.6,1.9l0,0.1
			c-0.1,0.2-0.2,0.4-0.2,0.7c-0.2,0.6-0.5,1.2-0.7,1.8l-0.1,0.3c0,0.1-0.1,0.1-0.1,0.2c-0.3,0.7-0.7,1.4-1,2c0,0.1-0.1,0.1-0.1,0.2
			l-0.1,0.2c-0.3,0.5-0.6,1-0.9,1.4c-0.1,0.1-0.1,0.2-0.2,0.3l-0.4,0.5l0.1-0.6c0.1-0.4,0.1-0.8,0.1-1.3l0,0l0-0.1L129.5,93.6z
			 M136.8,81.1l0-0.1c0-0.2,0.1-0.4,0.1-0.6c0-0.2,0.1-0.4,0.1-0.5c0.1-0.3,0.1-0.7,0.2-1c0.1-0.8,0.2-1.6,0.3-2.2l0.1-0.6
			c0-0.1,0-0.2,0-0.3c0-0.3,0.1-0.7,0.1-1c0.1-0.9,0.2-1.8,0.2-2.7l0-0.2c0-0.1,0-0.2,0-0.3l0-0.3c0-0.3,0-0.5,0.1-0.8
			c0.1-1.4,0.1-2.8,0.1-4.2l0-0.1l0.1,0c8-6.4,18.6-7.3,21.6-7.4l0.2,0l0,0.2c-0.2,3.3-1.4,14.7-8.6,23.1l-0.1,0.1l-0.1,0
			c-2.3-0.2-4.9-0.3-7.4-0.3l-0.2,0c-1.2,0-2.4,0.1-3.6,0.2l-0.4,0c-0.9,0.1-1.9,0.2-2.9,0.3l-0.2,0l0-0.2
			C136.7,81.5,136.7,81.3,136.8,81.1 M171.6,90.5c-1.1-1.1-3.6-3.1-6.8-5.1c-3.3-2-6.7-3.3-10-4c6.4-8.7,7.5-19.5,7.7-22.6l0.2-2.8
			l-2.8,0.1c-2.8,0.1-12.7,0.9-20.9,6.4C137.8,47.3,128.8,35,126,31.5l-2-2.5l-2,2.5c-2.8,3.5-11.9,16-12.9,31.2
			c-8.4-5.7-18.5-6.6-21.4-6.8l-2.9-0.1l0.2,2.9c0.2,3.1,1.4,14,7.8,22.7c-3.2,0.7-6.5,2.1-9.7,4c-3.2,1.9-5.5,4-6.6,5l-2.2,2
			l2.3,1.8c3,2.3,13.6,9.9,26.1,9.9c2.6,0,5.1-0.1,7.6-0.4c-2.9,3.6-3.7,8.1-3.9,10.5l-0.3,3.6l3.5-0.9c2.5-0.6,7.1-2.2,10.3-5.9
			c1.1-1.3,2.6-3.2,3.7-5.2c0.9,1.6,2.2,3.4,3.7,5.2c3.2,3.7,7.8,5.3,10.3,5.9l3.5,0.8l-0.3-3.6c-0.2-2.4-1-7-4-10.7
			c2.7,0.4,5.6,0.6,8.6,0.6c12.6,0,23.2-7.6,26.1-9.9l2.4-1.8L171.6,90.5z"/>
	</g>
</g>
</svg>
