<?xml version="1.0" encoding="utf-8"?>
<!-- Generator: Adobe Illustrator 24.1.1, SVG Export Plug-In . SVG Version: 6.00 Build 0)  -->
<svg version="1.1" id="Laag_1" xmlns="http://www.w3.org/2000/svg" xmlns:xlink="http://www.w3.org/1999/xlink" x="0px" y="0px"
	 viewBox="0 0 250 250" style="enable-background:new 0 0 250 250;" xml:space="preserve">
<style type="text/css">
	.st0{fill:#284734;}
	.st1{clip-path:url(#SVGID_2_);fill:#FFFFFF;}
	.st2{fill:#25AFA5;}
	.st3{fill:none;}
	.st4{clip-path:url(#SVGID_4_);fill:#284734;}
	.st5{clip-path:url(#SVGID_6_);fill:none;stroke:#284734;stroke-width:1.4952;stroke-miterlimit:10;}
	.st6{clip-path:url(#SVGID_8_);fill:#284734;}
	.st7{clip-path:url(#SVGID_10_);fill:#67806A;}
	.st8{clip-path:url(#SVGID_10_);fill:#284734;}
	.st9{clip-path:url(#SVGID_12_);}
	.st10{filter:url(#Adobe_OpacityMaskFilter);}
	.st11{clip-path:url(#SVGID_14_);}
	.st12{clip-path:url(#SVGID_14_);mask:url(#SVGID_15_);}
	.st13{opacity:0.75;clip-path:url(#SVGID_19_);fill:#222221;}
	.st14{clip-path:url(#SVGID_14_);fill:#284734;}
	.st15{clip-path:url(#SVGID_21_);fill:#25AFA5;}
	.st16{clip-path:url(#SVGID_23_);fill:#25AFA5;}
	.st17{clip-path:url(#SVGID_25_);fill:#25AFA5;}
	.st18{clip-path:url(#SVGID_27_);fill:#284734;}
	.st19{clip-path:url(#SVGID_29_);fill:#284734;}
	.st20{clip-path:url(#SVGID_31_);fill:#284734;}
	.st21{clip-path:url(#SVGID_33_);fill:#284734;}
	.st22{clip-path:url(#SVGID_35_);fill:#284734;}
	.st23{clip-path:url(#SVGID_37_);fill:#284734;}
	.st24{clip-path:url(#SVGID_41_);fill:#284734;}
	.st25{clip-path:url(#SVGID_43_);fill:#284734;}
	.st26{clip-path:url(#SVGID_45_);fill:#284734;}
	.st27{clip-path:url(#SVGID_47_);fill:#284734;}
</style>
<g>
	<defs>
		<rect id="SVGID_9_" x="27.2" y="37.6" width="195.6" height="174.8"/>
	</defs>
	<clipPath id="SVGID_2_">
		<use xlink:href="#SVGID_9_"  style="overflow:visible;"/>
	</clipPath>
	<path style="clip-path:url(#SVGID_2_);fill:#67806A;" d="M195.9,95.3v0.3c-0.4,6.5-2.9,28.8-16.9,45.3l-0.1,0.1h-0.2
		c-4.4-0.4-9.5-0.6-14.6-0.5h-0.4c-2.4,0-4.8,0.2-7.2,0.3l-0.8,0.1c-1.9,0.2-3.8,0.4-5.7,0.6l-0.4,0.1l0.1-0.4
		c0.1-0.4,0.2-0.8,0.2-1.3l0.1-0.3c0.1-0.4,0.2-0.8,0.2-1.3c0.1-0.4,0.2-0.7,0.2-1.1c0.1-0.6,0.3-1.3,0.4-2c0.2-1.5,0.4-3.1,0.6-4.4
		l0.1-1.2l0.1-0.7c0.1-0.6,0.2-1.4,0.3-2c0.2-1.7,0.3-3.5,0.4-5.2l0-0.4c0-0.2,0-0.4,0.1-0.6l0.1-0.6c0.1-0.5,0.1-1.1,0.1-1.6
		c0.2-2.8,0.2-5.6,0.2-8.3V110l0.1-0.1c15.7-12.6,36.5-14.4,42.5-14.6H195.9z"/>
	<path style="clip-path:url(#SVGID_2_);fill:#67806A;" d="M149.8,108.4v0.2l-0.1,0.1c-3.1,2.6-6.1,5.4-8.9,8.2
		c-1.6,1.6-3.3,3.3-4.8,5.1c-0.4,0.4-0.8,0.9-1.1,1.3c-0.2,0.3-0.4,0.5-0.7,0.8l-0.7,0.8c-0.7,0.8-1.4,1.6-2,2.4
		c-0.4,0.5-0.8,1-1.2,1.5c-0.2,0.3-0.4,0.5-0.6,0.8l-0.5,0.6c-0.7,0.9-1.3,1.7-1.9,2.5c-0.4,0.5-0.7,1-1.1,1.5l-0.6,0.8l-0.5,0.7
		l-0.7,1l0,0.1l-0.3-0.3l-0.5-0.7l-0.4-0.6l-0.8-1.1c-0.3-0.4-0.6-0.9-0.9-1.3c-0.7-1-1.5-2-2.2-2.8l-0.3-0.4l-0.4-0.5l-0.2-0.2
		c-0.3-0.4-0.6-0.8-1-1.3c-0.9-1.1-1.9-2.2-2.9-3.3l-0.2-0.2l-0.4-0.5l-0.3-0.4c-0.2-0.3-0.5-0.5-0.7-0.8c-1.6-1.8-3.2-3.5-4.8-5.1
		c-1.4-1.4-2.8-2.7-4.1-4l-0.6-0.5l-0.2-0.2l-0.5-0.5l-0.6-0.6c-0.6-0.5-1.2-1-1.7-1.6l-0.1-0.1v-0.2c0.1-30.7,18.8-56.6,24.6-63.9
		l0.3-0.3l0.2,0.3C130.9,52.6,149.4,78.1,149.8,108.4"/>
	<path style="clip-path:url(#SVGID_2_);fill:#67806A;" d="M100.3,141.9l-0.4-0.1c-2.5-0.4-4.9-0.6-7.4-0.8l-0.4,0l-0.3,0
		c-3.1-0.2-6-0.3-8.6-0.3c-2.3,0-4.6,0.1-6.9,0.2c-0.4,0-0.8,0.1-1.3,0.1c-0.3,0-0.6,0.1-0.9,0.1l-0.8,0.1c-1.1,0.1-2.1,0.1-3.2,0.2
		l-0.2,0l-0.1-0.1c-14.1-16.5-16.5-38.9-17-45.4l0-0.4l0.4,0c6.2,0.3,27.6,2.3,43.7,15.5l0.1,0.1v0.2c0,2.6,0.1,5.3,0.3,8l0.1,0.5
		l0,0.4c0.2,2.7,0.4,5.2,0.6,7.6c0.1,0.6,0.2,1.2,0.2,1.7c0.1,0.4,0.1,0.7,0.2,1.1l0.1,0.7c0.2,1.5,0.4,3.1,0.7,4.6
		c0.1,0.7,0.2,1.3,0.4,1.9l0,0.2c0.1,0.3,0.1,0.6,0.2,0.9l0.2,1.2c0.1,0.5,0.2,1,0.3,1.5L100.3,141.9z"/>
	<path style="clip-path:url(#SVGID_2_);fill:#67806A;" d="M113.8,176.7l-1,0.3c-8.6,2.5-18.9,3.8-29.7,3.8
		c-23.2,0-42.9-14.1-48.5-18.4l-0.3-0.2l0.3-0.3c3.7-3.5,17.2-15.1,33.9-17.3l0.2,0l0.1,0.1c0.2,0.2,0.4,0.5,0.6,0.7l1.3,1.4
		l0.5,0.5c1,1.1,2.1,2.2,3.2,3.3c1.7,1.7,3.6,3.5,5.5,5.2c0.4,0.4,0.8,0.7,1.2,1c0.2,0.2,0.5,0.4,0.7,0.7l0.4,0.3
		c1.1,0.9,2.2,1.9,3.3,2.8c0.5,0.4,1.1,0.8,1.6,1.2c0.3,0.2,0.5,0.4,0.7,0.6l0.6,0.4c0.9,0.7,1.8,1.4,2.8,2.1
		c0.6,0.5,1.3,0.9,1.9,1.3l0.6,0.4c1.1,0.7,2.1,1.4,3.2,2.1c0.7,0.4,1.4,0.8,2,1.2l0.4,0.3c0.8,0.5,1.9,1.2,3.1,1.7
		c0.9,0.5,1.8,0.9,2.4,1.2c1,0.5,1.9,0.9,2.9,1.4c0.8,0.3,1.6,0.7,2.3,0.9c0.9,0.3,1.8,0.7,2.8,1L113.8,176.7z"/>
	<path style="clip-path:url(#SVGID_2_);fill:#67806A;" d="M115,173.9l-1.2-0.4c-0.6-0.2-1.3-0.5-1.9-0.7l-0.8-0.3
		c-0.6-0.2-1.1-0.4-1.6-0.6c-0.8-0.3-1.7-0.8-2.5-1.2l-1.2-0.6c-0.5-0.2-1-0.5-1.5-0.7c-0.9-0.5-1.8-1-2.6-1.5l-0.5-0.3l-0.7-0.4
		c-0.6-0.3-1.1-0.6-1.6-1c-0.8-0.5-1.7-1.1-2.5-1.6l-0.8-0.5c-0.3-0.2-0.5-0.4-0.8-0.5l-0.1,0c-0.5-0.3-0.9-0.6-1.4-1
		c-0.8-0.6-1.7-1.3-2.6-1.9l-0.8-0.7c-0.3-0.2-0.5-0.4-0.8-0.6c-0.4-0.3-0.9-0.7-1.4-1c-1.1-0.9-2.2-1.8-3.3-2.8l-0.5-0.4
		c-0.3-0.2-0.5-0.4-0.7-0.6l-0.2-0.2c-0.3-0.3-0.6-0.5-0.9-0.7c-1.9-1.7-3.8-3.5-5.5-5.2c-1.2-1.2-2.4-2.4-3.6-3.7l-0.4-0.5l0.6-0.1
		c0.4,0,0.8-0.1,1.2-0.1c0.3,0,0.6,0,0.8-0.1c0.5-0.1,0.9-0.1,1.3-0.1c2.3-0.1,4.4-0.2,6.4-0.2c2.8,0,5.9,0.1,9,0.4l0.2,0h0.1
		c2.7,0.2,5.5,0.6,8.3,1l0.2,0.1l0.1,0.2c0.4,1.7,0.9,3.4,1.4,5.1l0.2,0.4l0.1,0.2l0,0.1c0.5,1.8,1.1,3.3,1.6,4.8
		c0.1,0.4,0.3,0.7,0.4,1l0.1,0.3l0.1,0.3c0.4,1,0.9,2.2,1.4,3.3c0.2,0.4,0.4,0.8,0.6,1.2l0.3,0.5c0.6,1.2,1,2,1.4,2.7
		c0.3,0.5,0.5,0.9,0.8,1.3l0.1,0.2c0.5,0.8,1,1.5,1.5,2.3c0.4,0.5,0.7,0.9,1,1.4c0.5,0.6,1,1.2,1.6,1.8l0.1,0.1l0.5,0.5L115,173.9z"
		/>
	<path style="clip-path:url(#SVGID_2_);fill:#67806A;" d="M122.4,139l-0.1,0.2l-0.3,0.4l-0.1,0.2l-0.2,0.3l-0.3,0.5
		c-0.3,0.5-0.6,1-0.9,1.5c-0.2,0.4-0.4,0.7-0.6,1.1l-0.7,1.3c-0.2,0.4-0.5,0.8-0.7,1.3c-0.2,0.5-0.5,1-0.7,1.4l-0.5,1.1
		c-0.2,0.4-0.3,0.7-0.5,1c-0.2,0.5-0.4,1-0.6,1.5l-0.2,0.4l-0.2,0.4l-0.1,0.3c-0.1,0.3-0.2,0.5-0.3,0.7c-0.2,0.5-0.4,1-0.5,1.5
		l-0.2,0.5l-0.1,0.4l0,0.1c-0.1,0.3-0.2,0.5-0.2,0.8c-0.2,0.7-0.4,1.3-0.5,2l0,0.3l-0.1,0.3l-0.1,0.2l-0.1,0.5
		c-0.2,0.8-0.3,1.6-0.3,2.3l-0.1,0.3l-0.1,0.4c-0.1,1-0.2,1.9-0.1,2.7c0,0.3,0,0.6,0,1l0,1.1l-0.6-0.9c-0.3-0.5-0.7-1-1-1.6
		l-0.1-0.1l-0.1-0.2l-0.2-0.3c-0.5-1-1.1-2.1-1.6-3.2l-0.2-0.3c-0.1-0.2-0.2-0.5-0.3-0.7c-0.7-1.6-1.3-3-1.8-4.3l-0.1-0.3l-0.1-0.3
		c-0.5-1.4-1-2.8-1.4-4.4c-0.1-0.5-0.3-0.9-0.4-1.4c-0.6-2-1-3.7-1.4-5.3v-0.1l-0.3-1.1c-0.2-1-0.4-2-0.7-3.1l-0.3-1.8
		c-0.1-0.5-0.2-1-0.3-1.4c-0.1-0.4-0.1-0.7-0.2-1.1l0-0.3c0-0.4-0.1-0.7-0.2-1l0-0.2c-0.3-1.7-0.5-3.6-0.7-5.4
		c-0.1-0.7-0.1-1.4-0.2-2c0-0.4-0.1-0.8-0.1-1.2l-0.1-0.9c-0.1-1.3-0.2-2.7-0.3-4c-0.1-0.9-0.1-1.7-0.1-2.5c0-0.4,0-0.8-0.1-1.2
		c0-0.5,0-0.9-0.1-1.4l0-0.7l0.5,0.5c1.9,1.7,3.5,3.2,5.1,4.8c1.6,1.6,3.2,3.3,4.8,5l0.6,0.6l0.1,0.1l0.5,0.6l0.1,0.1
		c1.1,1.2,2.1,2.4,3.2,3.7c0.4,0.5,0.8,1,1.1,1.5l0.2,0.3l0.4,0.6l0.6,0.7c0.6,0.7,1.1,1.4,1.6,2.1c0.5,0.7,1,1.4,1.4,2l0.1,0.1
		l0.4,0.6l0.4,0.5l0.3,0.5c0.2,0.2,0.4,0.5,0.5,0.7L122.4,139z"/>
	<path style="clip-path:url(#SVGID_2_);fill:#67806A;" d="M132.7,164.7v0.3c0.1,3.4-0.8,5.9-2.5,7.6c-0.6,0.6-1.4,1.1-2.2,1.6
		c-1,0.5-2.2,0.8-3.4,0.9h-0.1c-1.1-0.1-2.1-0.3-2.9-0.7c-1.1-0.4-2-1-2.8-1.8c-1.7-1.7-2.6-4.4-2.5-7.8c0.1-5.7,2.9-13.6,8-22.1
		l0.3-0.4l0.3,0.4C129.7,151.1,132.5,158.9,132.7,164.7"/>
	<path style="clip-path:url(#SVGID_2_);fill:#67806A;" d="M149.7,112.8l-0.1,3.6c0,0.9-0.1,1.8-0.1,2.6c-0.1,1.3-0.2,2.6-0.3,3.8
		l-0.1,1c0,0.4-0.1,0.8-0.1,1.3c-0.1,0.7-0.1,1.5-0.2,2.3c-0.2,1.4-0.3,2.7-0.6,4.2l-0.1,0.8c-0.1,0.3-0.1,0.6-0.1,0.9l-0.1,0.3
		c-0.1,0.7-0.2,1.3-0.3,1.8c-0.3,1.5-0.6,3-0.8,4.3l-0.2,0.8c-0.1,0.4-0.1,0.7-0.2,1.1c-0.1,0.5-0.2,1-0.3,1.5
		c-0.4,1.7-0.9,3.5-1.4,5.5c-0.1,0.3-0.2,0.6-0.3,0.9l-0.2,0.6c-0.4,1.3-0.8,2.5-1.2,3.7l-0.1,0.2c-0.2,0.4-0.3,0.9-0.5,1.3
		c-0.4,1.2-0.9,2.3-1.4,3.5l-0.3,0.6l-0.2,0.4c-0.7,1.5-1.4,2.8-2,4l-0.2,0.4l-0.2,0.3c-0.6,1-1.2,1.9-1.7,2.7l-0.4,0.5l-0.7,0.9
		l0.2-1.2c0.1-0.9,0.2-1.7,0.2-2.5l0-0.1l0.1-0.3l-0.1-0.3c0-0.8-0.1-1.7-0.1-2.6l-0.1-0.6v-0.1l-0.1-0.3l-0.1-0.4
		c-0.1-0.5-0.2-1.1-0.3-1.6l-0.1-0.6l-0.1-0.3l-0.1-0.4l-0.1-0.3c-0.1-0.5-0.2-1-0.4-1.6c-0.1-0.3-0.2-0.6-0.3-0.9l-0.2-0.5
		l-0.2-0.7c-0.1-0.4-0.3-0.8-0.4-1.2c-0.1-0.3-0.3-0.7-0.4-1l-0.4-0.9c-0.2-0.5-0.4-0.9-0.6-1.5c-0.1-0.3-0.3-0.7-0.5-1l-0.1-0.2
		l-0.2-0.4l-0.3-0.6c-0.2-0.5-0.4-0.9-0.7-1.4c-0.2-0.3-0.4-0.7-0.5-1l-0.1-0.2l-0.2-0.3l-0.3-0.6c-0.3-0.5-0.5-1-0.8-1.5
		c-0.2-0.4-0.4-0.7-0.6-1.1l-0.3-0.6l-0.4-0.6l-0.2-0.4l-0.2-0.3l-0.1-0.2l0.1-0.2c0.3-0.5,0.6-0.9,1-1.4l0.5-0.7l0.4-0.5l0.2-0.3
		c0.3-0.5,0.7-1,1.1-1.5c0.4-0.6,0.9-1.2,1.4-1.8l0.2-0.2c0.2-0.3,0.4-0.5,0.6-0.8l0.5-0.7l0.2-0.2c0.4-0.5,0.8-1,1.2-1.5
		c0.6-0.7,1.3-1.5,1.9-2.3l0.8-0.8c0.2-0.3,0.5-0.5,0.7-0.8l0.1-0.2c0.3-0.4,0.6-0.7,0.9-1.1c1.5-1.7,3.1-3.4,4.8-5
		c1.8-1.8,3.9-3.8,6.2-5.9L149.7,112.8z"/>
	<path style="clip-path:url(#SVGID_2_);fill:#67806A;" d="M176.3,144.1l-0.4,0.5c-1.4,1.5-2.5,2.7-3.6,3.8c-1.7,1.7-3.5,3.4-5.3,5
		c-0.3,0.3-0.6,0.6-1,0.8l-0.3,0.3l-0.4,0.4l-0.1,0.1c-1.1,0.9-2.4,2.1-3.6,3.1c-0.4,0.3-0.7,0.6-1.1,0.8l-0.2,0.2l-0.7,0.5
		l-0.1,0.1c-1.1,0.9-2.2,1.7-3.3,2.5c-0.4,0.3-0.8,0.6-1.3,0.9l-0.7,0.5c-1.2,0.8-2.3,1.6-3.4,2.3c-0.3,0.2-0.7,0.4-1,0.6l-0.8,0.5
		c-1,0.6-2.3,1.4-3.5,2c-0.4,0.2-0.9,0.4-1.3,0.6l-0.5,0.2c-1.4,0.7-2.5,1.2-3.4,1.7c-0.5,0.2-0.9,0.4-1.3,0.5l-0.3,0.1
		c-0.6,0.3-1.2,0.5-1.9,0.7l-1.1,0.4l0.9-1c0.6-0.6,1.2-1.3,1.7-2c0.2-0.3,0.4-0.6,0.6-0.8l0.3-0.5c0.6-0.8,1.1-1.6,1.5-2.3
		c0.3-0.5,0.6-1,0.9-1.6c0.5-0.8,0.9-1.7,1.4-2.7l0.1-0.1c0.3-0.6,0.5-1.1,0.8-1.7c0.4-0.9,0.8-1.9,1.3-3.2l0.2-0.5l0-0.1
		c0.2-0.4,0.3-0.8,0.5-1.2c0.5-1.3,0.9-2.7,1.5-4.4l0.2-0.5l0.2-0.6c0.5-1.6,0.9-3.3,1.3-5l0-0.2l0.2,0c2-0.3,4.1-0.5,6.2-0.7l0.2,0
		c1.9-0.2,4.1-0.3,6.6-0.4h0.4l0.6,0c1.9-0.1,4-0.1,6.3,0h0.5c0.3,0,0.6,0,0.9,0c1.6,0.1,3.1,0.1,4.6,0.2L176.3,144.1z"/>
	<path style="clip-path:url(#SVGID_2_);fill:#67806A;" d="M215.6,162.1l-0.3,0.2c-5.5,4.3-25.3,18.4-48.5,18.4
		c-10.9,0-21.6-1.4-30.2-4l-0.9-0.3l0.8-0.3l0.1,0l0.1,0c1-0.3,1.9-0.7,2.8-1c0.7-0.3,1.5-0.6,2.3-1c0.9-0.4,1.9-0.9,2.9-1.4
		c0.9-0.4,1.7-0.8,2.4-1.2c1.1-0.6,2.1-1.2,3-1.7l0.2-0.1c0.7-0.4,1.5-0.8,2.3-1.4c1-0.6,2-1.3,3.1-2.1l0.5-0.4
		c0.6-0.4,1.3-0.8,1.9-1.3c0.9-0.7,1.9-1.5,2.9-2.2l0.4-0.3c0.3-0.2,0.5-0.4,0.7-0.6c0.5-0.4,1-0.8,1.5-1.2c1.1-0.9,2.3-1.9,3.4-2.9
		l0.2-0.2c0.3-0.2,0.5-0.4,0.8-0.6c0.4-0.3,0.8-0.7,1.2-1c1.9-1.7,3.7-3.5,5.4-5.1c1.9-1.9,3.8-3.9,5.7-6l0.1-0.1h0.2
		c17.2,2.1,31.1,13.9,34.9,17.5L215.6,162.1z"/>
	<path style="clip-path:url(#SVGID_2_);fill:#67806A;" d="M153.2,206.2l-0.4-0.1c-3.5-0.8-12.1-3.5-17.8-10.1
		c-4-4.7-6.9-9.1-8.3-12.8c-0.7-1.9-1-3.5-0.9-4.8l0-0.3h0.5c1,0,2-0.1,3.3-0.3l0.1,0l3.8,1.2c2,0.7,4.2,1.3,6.5,1.8l0.1,0l0.1,0.1
		c2,1.8,3.9,3.7,5.7,5.7c5.4,6.3,6.9,14.7,7.3,19.1L153.2,206.2z"/>
	<path style="clip-path:url(#SVGID_2_);fill:#67806A;" d="M122.4,178.5c0.4,3.9-3,10.5-9.1,17.6c-5.4,6.3-13.5,9-17.8,10.1l-0.4,0.1
		l0.1-0.4c0.4-4.4,1.9-12.8,7.3-19.1c1.6-1.8,3.2-3.5,5-5.2l0.1,0l0.1,0c2.8-0.6,5.5-1.3,8.1-2.1l4.5-1.3h0.1
		c0.7,0.1,1.3,0.1,1.9,0.1h0.3L122.4,178.5z"/>
	<path style="clip-path:url(#SVGID_2_);fill:#284734;" d="M215.3,162.4c-5.5,4.3-25.3,18.4-48.5,18.4c-10.9,0-21.6-1.4-30.2-4
		l-0.9-0.3l0.8-0.3l0.1,0l0.1,0c1-0.3,1.9-0.7,2.8-1c0.7-0.3,1.5-0.6,2.3-1c0.9-0.4,1.9-0.9,2.9-1.4c0.9-0.4,1.7-0.8,2.4-1.2
		c1.1-0.6,2.1-1.2,3-1.7l0.2-0.1c0.7-0.4,1.5-0.8,2.3-1.4c1-0.6,2-1.3,3.1-2.1l0.5-0.4c0.6-0.4,1.3-0.8,1.9-1.3
		c0.9-0.7,1.9-1.5,2.9-2.2l0.4-0.3c0.3-0.2,0.5-0.4,0.7-0.6c0.5-0.4,1-0.8,1.5-1.2c1.1-0.9,2.3-1.9,3.4-2.9l0.2-0.2
		c0.3-0.2,0.5-0.4,0.8-0.6c0.4-0.3,0.8-0.7,1.2-1c1.9-1.7,3.7-3.5,5.4-5.1c1.9-1.9,3.8-3.9,5.7-6l0.1-0.1h0.2
		c17.2,2.1,31.1,13.9,34.9,17.5l0.3,0.2L215.3,162.4z M153.1,205.8l0,0.4l-0.4-0.1c-3.5-0.8-12.1-3.5-17.8-10.1
		c-4-4.7-6.9-9.1-8.3-12.8c-0.7-1.9-1-3.5-0.9-4.8l0-0.3h0.5c1,0,2-0.1,3.3-0.3l0.1,0l3.8,1.2c2,0.7,4.2,1.3,6.5,1.8l0.1,0l0.1,0.1
		c2,1.8,3.9,3.7,5.7,5.7C151.2,193.1,152.7,201.4,153.1,205.8 M124.4,175c-1.1-0.1-2.1-0.3-2.9-0.7c-1.1-0.4-2-1-2.8-1.8
		c-1.7-1.7-2.6-4.4-2.5-7.8c0.1-5.7,2.9-13.6,8-22.1l0.3-0.4l0.3,0.4c5,8.4,7.8,16.2,8,22v0.3c0.1,3.4-0.8,5.9-2.5,7.6
		c-0.6,0.6-1.4,1.1-2.2,1.6C126.9,174.6,125.7,174.9,124.4,175L124.4,175z M113.3,196.1c-5.4,6.3-13.5,9-17.8,10.1l-0.4,0.1l0.1-0.4
		c0.4-4.4,1.9-12.8,7.3-19.1c1.6-1.8,3.2-3.5,5-5.2l0.1-0.1l0.1,0c2.8-0.6,5.5-1.3,8.1-2.1l4.5-1.3h0.1c0.7,0.1,1.3,0.1,1.9,0.1h0.3
		l0,0.3C122.8,182.4,119.4,189,113.3,196.1 M83.2,180.8c-23.2,0-42.9-14.1-48.5-18.4l-0.3-0.2l0.3-0.3c3.7-3.5,17.2-15.1,33.9-17.3
		l0.2,0l0.1,0.1c0.2,0.2,0.4,0.5,0.6,0.7l1.3,1.4l0.5,0.5c1,1.1,2.1,2.2,3.2,3.3c1.7,1.7,3.6,3.5,5.5,5.2c0.4,0.4,0.8,0.7,1.2,1
		c0.2,0.2,0.5,0.4,0.7,0.7l0.4,0.3c1.1,0.9,2.2,1.9,3.3,2.8c0.5,0.4,1.1,0.8,1.6,1.2c0.3,0.2,0.5,0.4,0.7,0.6l0.6,0.4
		c0.9,0.7,1.8,1.4,2.8,2.1c0.6,0.5,1.3,0.9,1.9,1.3l0.6,0.4c1.1,0.7,2.1,1.4,3.2,2.1c0.7,0.4,1.4,0.8,2,1.2l0.4,0.3
		c0.8,0.5,1.9,1.2,3.1,1.7c0.9,0.5,1.8,0.9,2.4,1.2c1,0.5,1.9,0.9,2.9,1.4c0.8,0.3,1.6,0.7,2.3,0.9c0.9,0.3,1.8,0.7,2.8,1l1,0.3
		l-1,0.3C104.2,179.5,94,180.8,83.2,180.8 M53,95.7l0-0.4l0.4,0c6.2,0.3,27.6,2.3,43.7,15.5l0.1,0.1v0.2c0,2.6,0.1,5.3,0.3,8l0,0.5
		l0,0.4c0.2,2.7,0.4,5.2,0.6,7.6c0.1,0.6,0.2,1.2,0.2,1.7c0.1,0.4,0.1,0.7,0.2,1.1l0.1,0.7c0.2,1.5,0.4,3.1,0.7,4.6
		c0.1,0.7,0.2,1.3,0.4,1.9l0,0.2c0.1,0.3,0.1,0.6,0.2,0.9l0.2,1.2c0.1,0.5,0.2,1,0.3,1.5l0.1,0.4l-0.4-0.1c-2.5-0.4-4.9-0.6-7.4-0.8
		l-0.4,0l-0.3,0c-3.1-0.2-6-0.3-8.6-0.3c-2.3,0-4.6,0-6.9,0.2c-0.4,0-0.8,0.1-1.3,0.1c-0.3,0-0.6,0.1-0.9,0.1l-0.8,0.1
		c-1.1,0.1-2.1,0.1-3.2,0.2l-0.2,0l-0.1-0.1C55.9,124.6,53.4,102.2,53,95.7 M115,173.9l-1.2-0.4c-0.6-0.2-1.3-0.5-1.9-0.7l-0.8-0.3
		c-0.6-0.2-1.1-0.4-1.6-0.6c-0.8-0.3-1.7-0.8-2.5-1.2l-1.2-0.6c-0.5-0.2-1-0.5-1.5-0.7c-0.9-0.5-1.8-1-2.6-1.5l-0.5-0.3l-0.7-0.4
		c-0.6-0.3-1.1-0.6-1.6-1c-0.8-0.5-1.7-1.1-2.5-1.6l-0.8-0.5c-0.3-0.2-0.5-0.4-0.8-0.5l-0.1,0c-0.5-0.3-0.9-0.6-1.4-1
		c-0.8-0.6-1.7-1.3-2.6-1.9l-0.8-0.7c-0.3-0.2-0.5-0.4-0.8-0.6c-0.4-0.3-0.9-0.7-1.4-1c-1.1-0.9-2.2-1.8-3.3-2.8l-0.5-0.4
		c-0.3-0.2-0.5-0.4-0.7-0.6l-0.2-0.2c-0.3-0.3-0.6-0.5-0.9-0.7c-1.9-1.7-3.8-3.5-5.5-5.2c-1.2-1.2-2.4-2.4-3.6-3.7l-0.4-0.5l0.6-0.1
		c0.4,0,0.8-0.1,1.2-0.1c0.3,0,0.6,0,0.8-0.1c0.5-0.1,0.9-0.1,1.3-0.1c2.3-0.1,4.4-0.2,6.4-0.2c2.8,0,5.9,0.1,9,0.4l0.2,0h0.1
		c2.7,0.2,5.5,0.6,8.3,1l0.2,0l0.1,0.2c0.4,1.7,0.9,3.4,1.4,5.1l0.2,0.4l0.1,0.2l0,0.1c0.5,1.8,1.1,3.3,1.6,4.8
		c0.1,0.4,0.3,0.7,0.4,1l0.1,0.3l0.1,0.3c0.4,1,0.9,2.2,1.4,3.3c0.2,0.4,0.4,0.8,0.6,1.2l0.3,0.5c0.6,1.2,1,2,1.4,2.7
		c0.3,0.5,0.5,0.9,0.8,1.3l0.1,0.2c0.5,0.8,1,1.5,1.5,2.3c0.4,0.5,0.7,0.9,1,1.4c0.5,0.6,1,1.2,1.6,1.8l0.1,0.1l0.5,0.5L115,173.9z
		 M115,154.2l-0.2,0.5l-0.1,0.4l0,0.1c-0.1,0.3-0.2,0.5-0.2,0.8c-0.2,0.7-0.4,1.3-0.5,2l-0.1,0.3l-0.1,0.3l0,0.2l-0.1,0.5
		c-0.2,0.8-0.3,1.6-0.3,2.3l-0.1,0.3l-0.1,0.4c-0.1,1-0.2,1.9-0.1,2.7c0,0.3,0,0.6,0,1l0,1.1l-0.6-0.9c-0.3-0.5-0.7-1-1-1.6
		l-0.1-0.1l-0.1-0.2l-0.2-0.3c-0.5-1-1.1-2.1-1.6-3.2l-0.2-0.3c-0.1-0.2-0.2-0.5-0.3-0.7c-0.7-1.6-1.3-3-1.8-4.3l-0.1-0.3l-0.1-0.3
		c-0.5-1.4-1-2.8-1.4-4.3c-0.1-0.5-0.3-0.9-0.4-1.4c-0.6-2-1-3.7-1.4-5.3v-0.1l-0.3-1.1c-0.2-1-0.4-2-0.7-3.1l-0.3-1.8
		c-0.1-0.5-0.2-1-0.3-1.4c0-0.4-0.1-0.7-0.2-1.1l0-0.3c-0.1-0.4-0.1-0.7-0.2-1l0-0.2c-0.3-1.7-0.5-3.6-0.7-5.4
		c-0.1-0.7-0.1-1.4-0.2-2c0-0.4-0.1-0.8-0.1-1.2l-0.1-0.9c-0.1-1.3-0.2-2.7-0.3-4c-0.1-0.9-0.1-1.7-0.1-2.5c0-0.4,0-0.8-0.1-1.2
		c0-0.5,0-0.9-0.1-1.4l0-0.7l0.5,0.5c1.9,1.7,3.5,3.2,5.1,4.8c1.6,1.6,3.2,3.3,4.8,5l0.6,0.6l0.1,0.1l0.5,0.6l0.1,0.1
		c1,1.2,2.1,2.4,3.2,3.7c0.4,0.5,0.8,1,1.1,1.5l0.2,0.3l0.4,0.6l0.6,0.7c0.6,0.7,1.1,1.4,1.6,2.1c0.5,0.7,1,1.4,1.4,2l0.1,0.1
		l0.4,0.6l0.4,0.5l0.3,0.5c0.2,0.2,0.4,0.5,0.5,0.7l0.1,0.2l-0.1,0.2l-0.3,0.4l-0.1,0.2l-0.2,0.3l-0.3,0.5c-0.3,0.5-0.6,1-0.9,1.5
		c-0.2,0.4-0.4,0.7-0.6,1.1l-0.7,1.3c-0.2,0.4-0.5,0.8-0.7,1.3c-0.2,0.5-0.5,1-0.7,1.4l-0.5,1.1c-0.2,0.4-0.3,0.7-0.5,1
		c-0.2,0.5-0.4,1-0.6,1.5l-0.2,0.4l-0.2,0.4l-0.1,0.3c-0.1,0.3-0.2,0.5-0.3,0.7C115.3,153.2,115.2,153.7,115,154.2 M100.2,109.4
		c0.1-30.7,18.8-56.6,24.6-63.9l0.3-0.3l0.2,0.3c5.7,7.1,24.1,32.6,24.5,62.9v0.2l-0.1,0.1c-3.1,2.6-6.1,5.4-8.9,8.2
		c-1.6,1.6-3.3,3.3-4.8,5.1c-0.4,0.4-0.8,0.9-1.1,1.3c-0.2,0.3-0.4,0.5-0.7,0.8l-0.7,0.8c-0.7,0.8-1.4,1.6-2,2.4
		c-0.4,0.5-0.8,1-1.2,1.5c-0.2,0.3-0.4,0.5-0.6,0.8l-0.5,0.6c-0.7,0.9-1.3,1.7-1.9,2.5c-0.4,0.5-0.7,1-1.1,1.5l-0.6,0.8l-0.5,0.7
		l-0.7,1l-0.1,0.1l-0.3-0.3l-0.5-0.7l-0.4-0.6l-0.8-1.1c-0.3-0.4-0.6-0.9-0.9-1.3c-0.7-1-1.5-2-2.2-2.8l-0.3-0.4l-0.4-0.5l-0.2-0.2
		c-0.3-0.4-0.6-0.8-1-1.3c-0.9-1.1-1.9-2.2-2.9-3.3l-0.2-0.2l-0.4-0.5l-0.3-0.4c-0.2-0.3-0.5-0.5-0.7-0.8c-1.6-1.8-3.2-3.5-4.8-5.1
		c-1.4-1.4-2.8-2.7-4.1-4l-0.6-0.5l-0.2-0.2l-0.5-0.5l-0.6-0.6c-0.6-0.5-1.2-1.1-1.7-1.6l-0.1-0.1V109.4z M136.5,172.3
		c0.6-0.6,1.2-1.3,1.7-2c0.2-0.3,0.4-0.6,0.6-0.8l0.3-0.5c0.6-0.8,1.1-1.6,1.5-2.3c0.3-0.5,0.6-1,0.9-1.6c0.5-0.8,0.9-1.7,1.4-2.7
		l0.1-0.1c0.3-0.6,0.5-1.1,0.8-1.7c0.4-0.9,0.8-1.9,1.3-3.2l0.2-0.5l0-0.1c0.2-0.4,0.3-0.8,0.5-1.2c0.5-1.3,0.9-2.7,1.5-4.4l0.2-0.5
		l0.2-0.6c0.5-1.6,0.9-3.3,1.3-5l0-0.2l0.2,0c2-0.3,4.1-0.5,6.2-0.7l0.2,0c1.9-0.2,4.1-0.3,6.6-0.4h0.4l0.6,0c1.9-0.1,4-0.1,6.3,0
		h0.5c0.3,0,0.6,0,0.9,0c1.6,0.1,3.1,0.1,4.6,0.2l0.6,0.1l-0.4,0.5c-1.4,1.5-2.5,2.7-3.6,3.8c-1.7,1.7-3.5,3.4-5.3,5
		c-0.3,0.3-0.6,0.6-1,0.8l-0.3,0.3l-0.4,0.4l-0.1,0.1c-1.1,0.9-2.4,2.1-3.6,3.1c-0.4,0.3-0.7,0.6-1.1,0.8l-0.2,0.2l-0.7,0.5
		l-0.1,0.1c-1.1,0.9-2.2,1.7-3.3,2.5c-0.4,0.3-0.8,0.6-1.3,0.9l-0.7,0.5c-1.2,0.8-2.3,1.6-3.4,2.3c-0.3,0.2-0.7,0.4-1,0.6l-0.8,0.5
		c-1,0.6-2.3,1.4-3.5,2c-0.4,0.2-0.9,0.4-1.3,0.6l-0.5,0.2c-1.4,0.7-2.5,1.2-3.4,1.7c-0.5,0.2-0.9,0.4-1.3,0.5l-0.3,0.1
		c-0.6,0.3-1.2,0.5-1.9,0.7l-1.1,0.4L136.5,172.3z M135.8,164.5c0-0.8-0.1-1.7-0.1-2.6l-0.1-0.6v-0.1l0-0.3l-0.1-0.4
		c-0.1-0.5-0.2-1.1-0.3-1.6l-0.1-0.6l-0.1-0.3l-0.1-0.4l-0.1-0.3c-0.1-0.5-0.2-1-0.4-1.6c-0.1-0.3-0.2-0.6-0.3-0.9l-0.2-0.5
		l-0.2-0.7c-0.1-0.4-0.3-0.8-0.4-1.2c-0.1-0.3-0.3-0.7-0.4-1l-0.4-0.9c-0.2-0.5-0.4-0.9-0.6-1.5c-0.1-0.3-0.3-0.7-0.5-1l-0.1-0.2
		l-0.2-0.4l-0.3-0.6c-0.2-0.5-0.4-0.9-0.7-1.4c-0.2-0.3-0.4-0.7-0.5-1l-0.1-0.2l-0.2-0.3l-0.3-0.6c-0.3-0.5-0.5-1-0.8-1.5
		c-0.2-0.4-0.4-0.7-0.6-1.1l-0.3-0.6l-0.4-0.6l-0.2-0.4l-0.2-0.3l-0.1-0.2l0.1-0.2c0.3-0.5,0.6-0.9,1-1.4l0.5-0.7l0.4-0.5l0.2-0.3
		c0.3-0.5,0.7-1,1.1-1.5c0.4-0.6,0.9-1.2,1.4-1.8l0.2-0.2c0.2-0.3,0.4-0.5,0.6-0.8l0.5-0.7l0.2-0.2c0.4-0.5,0.8-1,1.2-1.5
		c0.6-0.7,1.3-1.5,1.9-2.3l0.8-0.8c0.2-0.3,0.5-0.5,0.7-0.8l0.1-0.2c0.3-0.4,0.6-0.7,0.9-1c1.5-1.7,3.1-3.4,4.8-5
		c1.8-1.8,3.9-3.8,6.2-5.9l0.5-0.5l-0.1,3.6c0,0.9-0.1,1.8-0.1,2.6c-0.1,1.3-0.2,2.6-0.3,3.8l-0.1,1c0,0.4-0.1,0.8-0.1,1.3
		c-0.1,0.7-0.1,1.5-0.2,2.3c-0.2,1.4-0.3,2.7-0.6,4.2l-0.1,0.8c0,0.3-0.1,0.6-0.1,0.9l-0.1,0.3c-0.1,0.7-0.2,1.3-0.3,1.8
		c-0.3,1.5-0.6,3-0.8,4.3l-0.2,0.8c-0.1,0.4-0.1,0.7-0.2,1.1c-0.1,0.5-0.2,1-0.3,1.5c-0.4,1.7-0.9,3.5-1.4,5.5
		c-0.1,0.3-0.2,0.6-0.3,0.9l-0.2,0.6c-0.4,1.3-0.8,2.5-1.2,3.7l-0.1,0.2c-0.2,0.4-0.3,0.9-0.5,1.3c-0.4,1.2-0.9,2.3-1.4,3.5
		l-0.3,0.6l-0.2,0.4c-0.7,1.5-1.4,2.8-2,4l-0.2,0.4l-0.2,0.3c-0.6,1-1.2,1.9-1.7,2.7l-0.4,0.5l-0.7,0.9l0.2-1.2
		c0.1-0.9,0.2-1.7,0.2-2.5l0-0.1l0.1-0.3L135.8,164.5z M150,140l0.1-0.3c0.1-0.4,0.2-0.8,0.2-1.3c0.1-0.4,0.2-0.7,0.2-1.1
		c0.1-0.6,0.3-1.3,0.4-2c0.2-1.5,0.4-3.1,0.6-4.4l0.1-1.2l0.1-0.7c0.1-0.6,0.2-1.4,0.3-2c0.2-1.7,0.3-3.5,0.4-5.2l0-0.4
		c0-0.2,0-0.4,0.1-0.6l0.1-0.6c0.1-0.5,0.1-1.1,0.1-1.6c0.2-2.8,0.2-5.6,0.2-8.3V110l0.1-0.1c15.7-12.6,36.5-14.4,42.5-14.6h0.3v0.3
		c-0.4,6.5-2.9,28.8-16.9,45.3l-0.1,0.1h-0.2c-4.4-0.4-9.5-0.6-14.6-0.5h-0.4c-2.4,0-4.8,0.2-7.2,0.3l-0.8,0.1
		c-1.9,0.2-3.8,0.4-5.7,0.6l-0.4,0.1l0.1-0.4C149.9,140.8,150,140.4,150,140 M218.5,158.4c-2.3-2.1-7-6.2-13.4-10
		c-6.5-3.9-13.1-6.5-19.6-7.9c12.5-17.2,14.8-38.4,15.2-44.5l0.4-5.6l-5.6,0.2c-5.6,0.2-24.9,1.8-41.1,12.5
		c-2.3-29.6-20-53.9-25.4-60.6l-3.9-5l-3.9,5c-5.5,6.9-23.3,31.5-25.4,61.4C79.1,92.7,59.3,90.9,53.5,90.6l-5.6-0.3l0.4,5.6
		c0.4,6.2,2.7,27.5,15.3,44.7c-6.3,1.4-12.8,4.1-19.1,7.9c-6.3,3.8-10.8,7.8-13,9.9l-4.2,4l4.6,3.6c5.8,4.6,26.7,19.4,51.4,19.4
		c5.1,0,10.1-0.3,14.9-0.8c-5.6,7.2-7.2,16-7.6,20.7l-0.6,7l6.8-1.7c4.9-1.2,13.9-4.2,20.2-11.6c2.1-2.5,5.1-6.2,7.3-10.2
		c1.7,3.1,4.2,6.6,7.3,10.2c6.3,7.3,15.4,10.4,20.2,11.6l6.8,1.7l-0.6-7c-0.4-4.8-2-13.8-7.8-21c5.3,0.7,11,1.1,16.8,1.1
		c24.7,0,45.6-14.9,51.4-19.4l4.6-3.6L218.5,158.4z"/>
</g>
</svg>
