<?xml version="1.0" encoding="utf-8"?>
<!-- Generator: Adobe Illustrator 24.1.1, SVG Export Plug-In . SVG Version: 6.00 Build 0)  -->
<svg version="1.1" id="Laag_1" xmlns="http://www.w3.org/2000/svg" xmlns:xlink="http://www.w3.org/1999/xlink" x="0px" y="0px"
	 viewBox="0 0 283.5 265.7" style="enable-background:new 0 0 283.5 265.7;" xml:space="preserve">
<style type="text/css">
	.st0{fill:#FFFFFF;}
	.st1{fill:#004631;}
</style>
<path class="st1" d="M218.5,164.6c-4.7,3.7-21.6,15.7-41.2,15.7c-9.3,0-18.4-1.2-25.7-3.4l-0.7-0.2l0.7-0.3c0,0,0.1,0,0.1,0l0.1,0
	c0.8-0.3,1.6-0.6,2.4-0.9c0.6-0.3,1.3-0.5,2-0.8c0.8-0.4,1.6-0.7,2.5-1.2c0.8-0.4,1.4-0.7,2-1.1c0.9-0.5,1.8-1,2.6-1.5l0.1-0.1
	c0.6-0.3,1.2-0.7,1.9-1.2c0.9-0.6,1.7-1.1,2.6-1.8l0.5-0.3c0.5-0.4,1.1-0.7,1.6-1.1c0.8-0.6,1.6-1.2,2.4-1.8l0.3-0.3
	c0.2-0.2,0.4-0.3,0.6-0.5c0.4-0.3,0.9-0.7,1.3-1c1-0.8,2-1.6,2.9-2.5l0.2-0.1c0.2-0.2,0.4-0.4,0.6-0.5c0.3-0.3,0.7-0.6,1-0.9
	c1.6-1.5,3.2-2.9,4.6-4.3c1.6-1.6,3.2-3.3,4.8-5.1l0.1-0.1l0.1,0c14.6,1.8,26.5,11.8,29.7,14.9l0.2,0.2L218.5,164.6z M165.7,201.6
	l0,0.4l-0.4-0.1c-2.9-0.7-10.3-3-15.1-8.6c-3.4-4-5.9-7.7-7.1-10.9c-0.6-1.6-0.9-3-0.8-4.1l0-0.2l0.4,0c0.8,0,1.7-0.1,2.8-0.2l0.1,0
	l3.3,1c1.7,0.6,3.6,1.1,5.6,1.6l0.1,0l0,0c1.7,1.6,3.3,3.2,4.8,4.9C164,190.8,165.3,197.9,165.7,201.6 M141.3,175.4L141.3,175.4
	c-0.9-0.1-1.8-0.3-2.5-0.6c-0.9-0.4-1.7-0.9-2.4-1.5c-1.5-1.5-2.2-3.7-2.2-6.6c0.1-4.9,2.5-11.6,6.8-18.8l0.2-0.4l0.2,0.4
	c4.3,7.1,6.7,13.8,6.8,18.7l0,0l0,0l0,0.2c0,2.9-0.7,5-2.2,6.5c-0.5,0.5-1.2,1-1.9,1.3C143.3,175,142.3,175.3,141.3,175.4
	L141.3,175.4z M131.8,193.3L131.8,193.3c-4.6,5.4-11.5,7.7-15.1,8.6l-0.4,0.1l0-0.4c0.3-3.8,1.6-10.9,6.2-16.2
	c1.3-1.5,2.7-3,4.3-4.4l0.1,0l0.1,0c2.4-0.5,4.7-1.1,6.9-1.8l3.8-1.1l0.1,0c0.6,0.1,1.1,0.1,1.6,0.1l0.2,0l0,0.2
	C139.9,181.7,137,187.3,131.8,193.3 M106.1,180.3c-19.7,0-36.5-12-41.2-15.7l-0.2-0.2l0.2-0.2c3.2-3,14.6-12.9,28.9-14.8l0.1,0
	l0.1,0.1c0.2,0.2,0.4,0.4,0.5,0.6l1.1,1.2c0.1,0.1,0.3,0.3,0.4,0.4c0.9,0.9,1.8,1.9,2.7,2.8c1.5,1.5,3,3,4.7,4.5
	c0.3,0.3,0.7,0.6,1,0.9c0.2,0.2,0.4,0.4,0.6,0.6l0.3,0.3c0.9,0.8,1.9,1.6,2.8,2.4c0.5,0.4,0.9,0.7,1.4,1c0.2,0.2,0.4,0.3,0.6,0.5
	l0.5,0.4c0.8,0.6,1.6,1.2,2.4,1.8c0.5,0.4,1.1,0.8,1.6,1.1l0.5,0.3c0.9,0.6,1.8,1.2,2.7,1.8c0.6,0.4,1.2,0.7,1.7,1l0.4,0.2
	c0.7,0.4,1.7,1,2.6,1.5c0.8,0.4,1.5,0.8,2,1c0.8,0.4,1.7,0.8,2.5,1.2c0.7,0.3,1.3,0.6,2,0.8c0.7,0.3,1.5,0.6,2.4,0.8l0.8,0.3
	l-0.8,0.2C124,179.2,115.3,180.3,106.1,180.3 M80.4,107.9l0-0.3l0.3,0c5.3,0.3,23.5,2,37.2,13.2l0.1,0.1v0.1c0,2.2,0.1,4.5,0.2,6.8
	c0,0.1,0,0.3,0,0.4l0,0.3c0.1,2.3,0.3,4.4,0.5,6.5c0.1,0.5,0.1,1,0.2,1.5c0,0.3,0.1,0.6,0.1,0.9l0.1,0.6c0.2,1.3,0.3,2.6,0.5,3.9
	c0.1,0.6,0.2,1.1,0.3,1.6l0,0.1c0.1,0.3,0.1,0.5,0.2,0.8l0.2,1.1c0.1,0.4,0.1,0.8,0.2,1.3l0.1,0.4l-0.4-0.1
	c-2.1-0.3-4.2-0.6-6.3-0.7l-0.3,0c-0.1,0-0.2,0-0.3,0c-2.6-0.2-5.1-0.3-7.3-0.3c-1.9,0-3.9,0.1-5.9,0.2c-0.4,0-0.7,0-1.1,0.1
	c-0.3,0-0.5,0-0.8,0.1l-0.7,0c-0.9,0.1-1.8,0.1-2.7,0.2l-0.1,0l-0.1-0.1C82.9,132.5,80.8,113.4,80.4,107.9 M133.2,174.4l-1-0.3
	c-0.5-0.2-1.1-0.4-1.6-0.6l-0.7-0.3c-0.5-0.2-0.9-0.3-1.4-0.5c-0.7-0.3-1.4-0.6-2.1-1l-1-0.5c-0.4-0.2-0.9-0.4-1.3-0.6
	c-0.7-0.4-1.5-0.8-2.2-1.3l-0.4-0.2c-0.2-0.1-0.4-0.2-0.6-0.4c-0.5-0.3-0.9-0.5-1.4-0.8c-0.7-0.4-1.4-0.9-2.1-1.4l-0.6-0.4
	c-0.2-0.2-0.5-0.3-0.7-0.5l-0.1,0c-0.4-0.3-0.8-0.5-1.2-0.8c-0.7-0.5-1.5-1.1-2.2-1.6l-0.7-0.6c-0.2-0.2-0.5-0.4-0.7-0.5
	c-0.4-0.3-0.8-0.6-1.2-0.9c-0.9-0.7-1.9-1.6-2.8-2.4l-0.4-0.4c-0.2-0.2-0.4-0.4-0.6-0.5l-0.2-0.1c-0.2-0.2-0.5-0.4-0.7-0.6
	c-1.6-1.5-3.2-3-4.7-4.4c-1-1-2-2-3-3.2l-0.4-0.4l0.5,0c0.3,0,0.7-0.1,1.1-0.1c0.3,0,0.5,0,0.7-0.1c0.4,0,0.8-0.1,1.1-0.1
	c2-0.1,3.8-0.2,5.5-0.2c2.4,0,5,0.1,7.6,0.3l0.2,0c0,0,0.1,0,0.1,0c2.3,0.2,4.6,0.5,7.1,0.9l0.2,0l0,0.2c0.3,1.4,0.7,2.8,1.2,4.3
	c0,0.1,0.1,0.2,0.1,0.4c0,0.1,0,0.1,0.1,0.2l0,0.1c0.5,1.5,0.9,2.8,1.3,4c0.1,0.3,0.2,0.6,0.4,0.9l0.1,0.2c0,0.1,0.1,0.2,0.1,0.3
	c0.3,0.9,0.8,1.9,1.2,2.8c0.2,0.3,0.3,0.7,0.5,1l0.2,0.4c0.5,1,0.9,1.7,1.2,2.3c0.2,0.4,0.5,0.8,0.7,1.1l0.1,0.2
	c0.4,0.7,0.8,1.3,1.3,1.9c0.3,0.4,0.6,0.8,0.9,1.2c0.4,0.5,0.9,1.1,1.4,1.6l0.1,0.1c0.1,0.1,0.3,0.3,0.4,0.4L133.2,174.4z
	 M133.2,157.7l-0.1,0.4c0,0.1-0.1,0.2-0.1,0.3l0,0.1c-0.1,0.2-0.1,0.4-0.2,0.6c-0.2,0.6-0.3,1.1-0.4,1.7l0,0.2c0,0.1,0,0.2-0.1,0.2
	l0,0.1c0,0.1-0.1,0.3-0.1,0.4c-0.1,0.7-0.2,1.3-0.3,1.9l0,0.2c0,0.1,0,0.3-0.1,0.4c-0.1,0.8-0.1,1.6-0.1,2.3c0,0.3,0,0.5,0,0.8
	l0,0.9l-0.5-0.8c-0.3-0.4-0.6-0.9-0.8-1.4l-0.1-0.1c0-0.1-0.1-0.1-0.1-0.2l-0.1-0.3c-0.5-0.9-0.9-1.8-1.4-2.8l-0.1-0.3
	c-0.1-0.2-0.2-0.4-0.3-0.6c-0.6-1.3-1.1-2.5-1.5-3.7l-0.1-0.2c0-0.1-0.1-0.2-0.1-0.2c-0.4-1.2-0.8-2.4-1.2-3.7
	c-0.1-0.4-0.2-0.8-0.3-1.2c-0.5-1.7-0.9-3.2-1.2-4.5c0,0,0,0,0-0.1l-0.2-1c-0.2-0.8-0.4-1.7-0.6-2.7l-0.3-1.5
	c-0.1-0.4-0.1-0.8-0.2-1.2c-0.1-0.3-0.1-0.6-0.1-0.9l0-0.2c0-0.3-0.1-0.6-0.1-0.9l0-0.2c-0.2-1.5-0.5-3-0.6-4.6
	c-0.1-0.6-0.1-1.2-0.2-1.8c0-0.3-0.1-0.7-0.1-1l-0.1-0.8c-0.1-1.1-0.2-2.3-0.3-3.4c0-0.7-0.1-1.5-0.1-2.1c0-0.3,0-0.7,0-1
	c0-0.4,0-0.8,0-1.2l0-0.6l0.5,0.4c1.6,1.4,3,2.8,4.3,4.1c1.4,1.4,2.8,2.8,4.1,4.3c0.2,0.2,0.3,0.4,0.5,0.5l0.1,0.1
	c0.1,0.2,0.3,0.4,0.5,0.5l0,0c0.9,1,1.8,2.1,2.7,3.1c0.3,0.4,0.7,0.8,1,1.2l0.2,0.2c0.1,0.2,0.2,0.3,0.4,0.5l0.5,0.6
	c0.5,0.6,1,1.2,1.4,1.8c0.4,0.6,0.8,1.2,1.2,1.7l0.1,0.1c0.1,0.2,0.3,0.4,0.4,0.6c0.1,0.1,0.2,0.3,0.3,0.4l0.3,0.4
	c0.1,0.2,0.3,0.4,0.4,0.6l0.1,0.1l-0.1,0.1c-0.1,0.1-0.1,0.2-0.2,0.4l-0.1,0.2c-0.1,0.1-0.1,0.2-0.2,0.3l-0.2,0.4
	c-0.3,0.4-0.5,0.9-0.8,1.3c-0.2,0.3-0.3,0.6-0.5,0.9l-0.6,1.1c-0.2,0.3-0.4,0.7-0.6,1.1c-0.2,0.4-0.4,0.8-0.6,1.2l-0.4,0.9
	c-0.1,0.3-0.3,0.6-0.4,0.9c-0.2,0.4-0.4,0.9-0.5,1.3l-0.1,0.4c-0.1,0.1-0.1,0.3-0.2,0.4l-0.1,0.2c-0.1,0.2-0.2,0.4-0.2,0.6
	C133.5,156.9,133.4,157.3,133.2,157.7 M120.6,119.6c0.1-26.1,16-48.2,20.9-54.3l0.2-0.3l0.2,0.3c4.8,6,20.5,27.7,20.9,53.5l0,0.1
	l-0.1,0.1c-2.7,2.3-5.2,4.6-7.6,7c-1.4,1.4-2.8,2.8-4.1,4.3c-0.3,0.4-0.6,0.7-1,1.1c-0.2,0.2-0.4,0.4-0.6,0.7l-0.6,0.7
	c-0.6,0.7-1.2,1.3-1.7,2c-0.4,0.4-0.7,0.9-1,1.3c-0.2,0.2-0.3,0.4-0.5,0.6l-0.4,0.5c-0.6,0.7-1.1,1.4-1.6,2.1
	c-0.3,0.4-0.6,0.8-0.9,1.3l-0.5,0.7c-0.1,0.2-0.3,0.4-0.4,0.6l-0.6,0.8l0,0.1l-0.2-0.3l-0.4-0.6c-0.1-0.2-0.2-0.3-0.4-0.5l-0.7-1
	c-0.3-0.4-0.5-0.7-0.8-1.1c-0.6-0.8-1.3-1.7-1.9-2.4l-0.3-0.4c-0.1-0.1-0.2-0.3-0.3-0.4l-0.2-0.2c-0.3-0.4-0.6-0.7-0.8-1.1
	c-0.8-0.9-1.6-1.9-2.4-2.8l-0.2-0.2c-0.1-0.1-0.3-0.3-0.4-0.4l-0.3-0.3c-0.2-0.2-0.4-0.5-0.6-0.7c-1.4-1.5-2.7-2.9-4.1-4.3
	c-1.2-1.2-2.3-2.3-3.5-3.4c-0.2-0.1-0.3-0.3-0.5-0.4l-0.2-0.2c-0.1-0.1-0.3-0.3-0.5-0.4l-0.5-0.5c-0.5-0.4-1-0.9-1.5-1.3l-0.1-0.1
	L120.6,119.6z M151.5,173.1c0.5-0.5,1-1.1,1.5-1.7c0.2-0.2,0.4-0.5,0.5-0.7l0.3-0.4c0.5-0.7,0.9-1.3,1.3-2c0.3-0.4,0.5-0.9,0.8-1.4
	c0.4-0.7,0.8-1.5,1.2-2.3l0.1-0.1c0.3-0.5,0.5-1,0.7-1.4c0.3-0.8,0.7-1.6,1.1-2.7c0.1-0.1,0.1-0.3,0.2-0.4l0,0
	c0.1-0.4,0.3-0.7,0.4-1.1c0.4-1.1,0.8-2.3,1.2-3.7c0-0.1,0.1-0.3,0.1-0.4c0.1-0.2,0.1-0.3,0.2-0.5c0.4-1.4,0.8-2.8,1.1-4.3l0-0.2
	l0.2,0c1.7-0.2,3.5-0.4,5.3-0.6l0.2,0c1.7-0.1,3.5-0.2,5.6-0.3c0.1,0,0.2,0,0.4,0l0.5,0c1.7,0,3.4,0,5.4,0l0.4,0c0.3,0,0.5,0,0.8,0
	c1.3,0,2.7,0.1,4,0.2l0.5,0l-0.4,0.4c-1.2,1.3-2.2,2.3-3.1,3.2c-1.4,1.4-2.9,2.9-4.5,4.3c-0.3,0.3-0.6,0.5-0.8,0.7l-0.2,0.2
	c-0.1,0.1-0.2,0.2-0.4,0.3l-0.1,0.1c-0.9,0.8-2,1.8-3.1,2.6c-0.3,0.2-0.6,0.5-0.9,0.7l-0.2,0.1c-0.2,0.1-0.4,0.3-0.6,0.5l-0.1,0.1
	c-1,0.8-1.9,1.5-2.8,2.2c-0.4,0.3-0.7,0.5-1.1,0.8l-0.6,0.4c-1,0.7-2,1.4-2.9,2c-0.3,0.2-0.6,0.4-0.9,0.5l-0.7,0.4
	c-0.9,0.5-1.9,1.1-2.9,1.7c-0.4,0.2-0.7,0.4-1.1,0.6l-0.4,0.2c-1.2,0.6-2.1,1-2.9,1.4c-0.4,0.2-0.7,0.3-1.1,0.5l-0.2,0.1
	c-0.5,0.2-1,0.4-1.6,0.6l-1,0.4L151.5,173.1z M150.9,166.4c0-0.7,0-1.4-0.1-2.2c0-0.2,0-0.3-0.1-0.5l0-0.1c0-0.1,0-0.2,0-0.3l0-0.3
	c-0.1-0.4-0.1-0.9-0.2-1.4c0-0.2-0.1-0.3-0.1-0.5l-0.1-0.2c0-0.1-0.1-0.2-0.1-0.3l-0.1-0.3c-0.1-0.4-0.2-0.9-0.3-1.3
	c-0.1-0.2-0.2-0.5-0.3-0.8c0-0.1-0.1-0.3-0.1-0.4l-0.2-0.6c-0.1-0.3-0.2-0.7-0.3-1c-0.1-0.3-0.2-0.6-0.3-0.9l-0.3-0.8
	c-0.2-0.4-0.3-0.8-0.5-1.2c-0.1-0.3-0.3-0.6-0.4-0.9l-0.1-0.1c-0.1-0.1-0.1-0.2-0.1-0.3l-0.2-0.5c-0.2-0.4-0.4-0.8-0.6-1.2
	c-0.1-0.3-0.3-0.6-0.5-0.9l-0.1-0.2c-0.1-0.1-0.1-0.2-0.1-0.3l-0.3-0.5c-0.2-0.4-0.4-0.8-0.7-1.3c-0.2-0.3-0.4-0.6-0.5-0.9l-0.3-0.5
	c-0.1-0.2-0.2-0.4-0.3-0.5c-0.1-0.1-0.1-0.2-0.2-0.3c0-0.1-0.1-0.2-0.1-0.2l-0.1-0.1l0.1-0.1c0.3-0.4,0.6-0.8,0.8-1.2l0.4-0.6
	c0.1-0.2,0.2-0.3,0.3-0.5l0.2-0.2c0.3-0.4,0.6-0.8,0.9-1.3c0.4-0.5,0.8-1,1.2-1.5l0.1-0.2c0.2-0.2,0.4-0.4,0.5-0.7
	c0.2-0.2,0.3-0.4,0.4-0.6l0.2-0.2c0.3-0.4,0.7-0.9,1-1.3c0.5-0.6,1.1-1.3,1.6-1.9l0.6-0.7c0.2-0.2,0.4-0.5,0.6-0.7l0.1-0.1
	c0.3-0.3,0.5-0.6,0.8-0.9c1.3-1.4,2.7-2.9,4.1-4.3c1.6-1.6,3.3-3.2,5.3-5l0.5-0.4l-0.1,3.1c0,0.7,0,1.5-0.1,2.2
	c-0.1,1.1-0.2,2.2-0.3,3.3l-0.1,0.8c0,0.4-0.1,0.7-0.1,1.1c0,0.6-0.1,1.3-0.2,1.9c-0.1,1.2-0.3,2.3-0.5,3.6l-0.1,0.7
	c0,0.3-0.1,0.5-0.1,0.8l0,0.2c-0.1,0.6-0.1,1.1-0.2,1.6c-0.2,1.3-0.5,2.5-0.7,3.6l-0.1,0.7c-0.1,0.3-0.1,0.6-0.2,0.9
	c-0.1,0.4-0.2,0.9-0.3,1.3c-0.3,1.5-0.7,3-1.2,4.7c-0.1,0.3-0.2,0.5-0.2,0.8l-0.2,0.5c-0.3,1.1-0.7,2.1-1,3.1l-0.1,0.2
	c-0.1,0.4-0.3,0.7-0.4,1.1c-0.4,1-0.8,2-1.2,3l-0.2,0.5c0,0.1-0.1,0.2-0.1,0.3c-0.6,1.2-1.1,2.4-1.7,3.4c-0.1,0.1-0.1,0.2-0.2,0.3
	l-0.2,0.3c-0.5,0.9-1,1.6-1.5,2.3c-0.1,0.1-0.2,0.3-0.3,0.4l-0.6,0.8l0.1-1c0.1-0.7,0.1-1.4,0.1-2.1l0-0.1l0.1-0.3L150.9,166.4z
	 M163,145.6l0-0.2c0.1-0.4,0.1-0.7,0.2-1.1c0.1-0.3,0.1-0.6,0.2-0.9c0.1-0.5,0.2-1.1,0.3-1.7c0.2-1.3,0.4-2.6,0.5-3.8l0.1-1
	c0-0.2,0.1-0.4,0.1-0.6c0.1-0.6,0.2-1.2,0.2-1.8c0.2-1.5,0.3-3,0.4-4.5l0-0.4c0-0.2,0-0.4,0-0.5l0-0.6c0-0.5,0.1-0.9,0.1-1.4
	c0.1-2.4,0.2-4.8,0.2-7.1v-0.1l0.1-0.1c13.3-10.7,31.1-12.2,36.2-12.4l0.3,0l0,0.3c-0.4,5.5-2.4,24.5-14.4,38.6l-0.1,0.1l-0.1,0
	c-3.8-0.4-8.1-0.5-12.4-0.4l-0.3,0c-2,0-4,0.1-6.1,0.3l-0.7,0c-1.6,0.1-3.2,0.3-4.8,0.5l-0.4,0l0.1-0.4
	C162.9,146.3,163,145.9,163,145.6 M221.3,161.3c-1.9-1.8-6-5.3-11.4-8.5c-5.5-3.3-11.2-5.6-16.7-6.8c10.7-14.6,12.6-32.7,12.9-37.9
	l0.3-4.7l-4.7,0.2c-4.8,0.2-21.2,1.5-35,10.7c-1.9-25.2-17-45.8-21.6-51.6l-3.4-4.2l-3.3,4.2c-4.6,5.8-19.8,26.8-21.6,52.3
	c-14.1-9.6-31-11.1-35.9-11.4l-4.8-0.2l0.3,4.8c0.3,5.2,2.3,23.4,13,38c-5.4,1.2-10.9,3.5-16.2,6.7c-5.3,3.2-9.2,6.7-11.1,8.4
	l-3.6,3.4l3.9,3.1c5,3.9,22.8,16.5,43.7,16.5c4.3,0,8.6-0.2,12.7-0.7c-4.8,6.1-6.1,13.6-6.5,17.6l-0.5,6l5.8-1.4
	c4.1-1,11.9-3.6,17.2-9.8c1.8-2.1,4.3-5.3,6.2-8.7c1.5,2.7,3.6,5.7,6.2,8.7c5.4,6.2,13.1,8.8,17.2,9.8l5.8,1.4l-0.5-6
	c-0.4-4.1-1.8-11.7-6.7-17.8c4.6,0.6,9.4,0.9,14.3,0.9c21,0,38.8-12.7,43.7-16.5l3.9-3.1L221.3,161.3z"/>
</svg>
